<svg width="328" height="121" viewBox="0 0 328 121" fill="none" xmlns="http://www.w3.org/2000/svg">
<g clip-path="url(#clip0_3471_124)">
<rect y="0.5" width="328" height="120" rx="9" fill="#5127A4"/>
<rect y="0.5" width="328" height="120" rx="9" fill="url(#paint0_radial_3471_124)" fill-opacity="0.5"/>
<path opacity="0.2" d="M43.0665 38.0535C43.0665 36.0363 44.7017 34.401 46.7189 34.401H149.574C151.591 34.401 153.227 36.0363 153.227 38.0535V48.0875C153.227 50.1046 151.591 51.7399 149.574 51.7399H46.7189C44.7017 51.7399 43.0665 50.1046 43.0665 48.0875V38.0535Z" fill="#EEE6FC"/>
<path d="M19.8998 28.0704L16.337 16.3551H19.0492L21.8737 26.2409L21.2639 25.936H22.9008L22.2589 26.2409L24.8748 16.3551H27.5067L24.1847 28.0704H19.8998ZM33.9557 28.0704V25.4706H33.5224V22.6461C33.5224 22.1967 33.4154 21.8597 33.2014 21.635C32.9874 21.4103 32.6451 21.298 32.1743 21.298C31.9389 21.298 31.6287 21.3033 31.2435 21.314C30.8583 21.3247 30.4625 21.3408 30.0559 21.3622C29.6494 21.3836 29.2803 21.405 28.9486 21.4264V19.2598C29.1947 19.2384 29.4835 19.217 29.8152 19.1956C30.1469 19.1742 30.4892 19.1582 30.8423 19.1475C31.1954 19.1368 31.527 19.1315 31.8373 19.1315C32.736 19.1315 33.4903 19.2598 34.1001 19.5166C34.7207 19.7734 35.1914 20.1639 35.5124 20.6882C35.8334 21.2017 35.9938 21.865 35.9938 22.6782V28.0704H33.9557ZM31.1472 28.2951C30.516 28.2951 29.9596 28.1828 29.4782 27.9581C29.0074 27.7334 28.6383 27.4124 28.3708 26.9952C28.1034 26.5672 27.9696 26.059 27.9696 25.4706C27.9696 24.8286 28.1355 24.3044 28.4671 23.8978C28.7988 23.4806 29.2642 23.1757 29.8633 22.9831C30.4625 22.7798 31.1526 22.6782 31.9336 22.6782H33.8113V24.1065H31.9175C31.4682 24.1065 31.1205 24.2188 30.8744 24.4435C30.639 24.6575 30.5213 24.9517 30.5213 25.3262C30.5213 25.6792 30.639 25.9681 30.8744 26.1928C31.1205 26.4067 31.4682 26.5137 31.9175 26.5137C32.2064 26.5137 32.4632 26.4656 32.6879 26.3693C32.9232 26.2623 33.1158 26.0858 33.2656 25.8397C33.4154 25.5936 33.501 25.2513 33.5224 24.8126L34.1322 25.4545C34.0787 26.0644 33.9289 26.5779 33.6829 26.9952C33.4475 27.4124 33.1158 27.7334 32.6879 27.9581C32.2706 28.1828 31.7571 28.2951 31.1472 28.2951ZM38.1724 28.0704V19.2759H40.2106V23.0633H40.0661C40.0661 22.1646 40.1785 21.4157 40.4032 20.8165C40.6278 20.2174 40.9649 19.768 41.4142 19.4685C41.8636 19.1582 42.4146 19.0031 43.0672 19.0031H43.1795C43.8429 19.0031 44.3939 19.1582 44.8325 19.4685C45.2819 19.768 45.6189 20.2174 45.8436 20.8165C46.079 21.4157 46.1966 22.1646 46.1966 23.0633H45.5708C45.5708 22.1646 45.6831 21.4157 45.9078 20.8165C46.1431 20.2174 46.4855 19.768 46.9349 19.4685C47.3842 19.1582 47.9352 19.0031 48.5879 19.0031H48.7002C49.3635 19.0031 49.9199 19.1582 50.3692 19.4685C50.8293 19.768 51.177 20.2174 51.4124 20.8165C51.6478 21.4157 51.7655 22.1646 51.7655 23.0633V28.0704H49.1977V22.9189C49.1977 22.4374 49.0693 22.0469 48.8125 21.7473C48.5665 21.4478 48.2134 21.298 47.7533 21.298C47.2933 21.298 46.9295 21.4531 46.662 21.7634C46.3946 22.063 46.2608 22.4642 46.2608 22.967V28.0704H43.677V22.9189C43.677 22.4374 43.5487 22.0469 43.2919 21.7473C43.0458 21.4478 42.6981 21.298 42.2487 21.298C41.778 21.298 41.4089 21.4531 41.1414 21.7634C40.8739 22.063 40.7402 22.4642 40.7402 22.967V28.0704H38.1724ZM58.2394 28.3754C57.469 28.3754 56.7843 28.2577 56.1852 28.0223C55.586 27.7762 55.0778 27.4445 54.6606 27.0273C54.254 26.61 53.9437 26.1339 53.7298 25.599C53.5158 25.0533 53.4088 24.4809 53.4088 23.8818V23.5127C53.4088 22.9028 53.5158 22.3251 53.7298 21.7794C53.9544 21.2231 54.2754 20.7363 54.6927 20.319C55.1206 19.9018 55.6342 19.5755 56.2333 19.3401C56.8325 19.094 57.5011 18.971 58.2394 18.971C58.999 18.971 59.673 19.094 60.2615 19.3401C60.8606 19.5755 61.3688 19.9018 61.7861 20.319C62.2033 20.7363 62.5243 21.2231 62.749 21.7794C62.9737 22.3251 63.086 22.9028 63.086 23.5127V23.8818C63.086 24.4809 62.979 25.0533 62.765 25.599C62.551 26.1339 62.2354 26.61 61.8182 27.0273C61.4116 27.4445 60.9088 27.7762 60.3096 28.0223C59.7105 28.2577 59.0204 28.3754 58.2394 28.3754ZM58.2394 26.2088C58.7422 26.2088 59.1595 26.1018 59.4911 25.8878C59.8228 25.6739 60.0742 25.3743 60.2454 24.9891C60.4273 24.604 60.5182 24.176 60.5182 23.7053C60.5182 23.2024 60.4273 22.7638 60.2454 22.3893C60.0635 22.0041 59.8014 21.6992 59.459 21.4745C59.1274 21.2498 58.7208 21.1375 58.2394 21.1375C57.7686 21.1375 57.3621 21.2498 57.0197 21.4745C56.6773 21.6992 56.4152 22.0041 56.2333 22.3893C56.0621 22.7638 55.9765 23.2024 55.9765 23.7053C55.9765 24.176 56.0621 24.604 56.2333 24.9891C56.4045 25.3743 56.6613 25.6739 57.0036 25.8878C57.346 26.1018 57.7579 26.2088 58.2394 26.2088ZM68.2161 28.3433C66.9643 28.3433 65.9854 28.0865 65.2792 27.5729C64.5731 27.0594 64.1986 26.3372 64.1558 25.4064H66.4347C66.4775 25.6846 66.6434 25.936 66.9322 26.1607C67.2318 26.3746 67.6758 26.4816 68.2643 26.4816C68.7136 26.4816 69.0827 26.4067 69.3716 26.257C69.6712 26.0965 69.8209 25.8718 69.8209 25.5829C69.8209 25.3262 69.7086 25.1229 69.4839 24.9731C69.2593 24.8126 68.858 24.7003 68.2803 24.6361L67.5902 24.5719C66.531 24.4649 65.7339 24.1707 65.199 23.6892C64.6747 23.2078 64.4126 22.5926 64.4126 21.8436C64.4126 21.2231 64.5678 20.7042 64.878 20.2869C65.1883 19.8697 65.6163 19.5541 66.1619 19.3401C66.7183 19.1261 67.3495 19.0191 68.0556 19.0191C69.1897 19.0191 70.1045 19.2705 70.7999 19.7734C71.4953 20.2655 71.8591 20.9824 71.8912 21.9239H69.6123C69.5695 21.635 69.4197 21.3943 69.163 21.2017C68.9062 20.9984 68.5264 20.8968 68.0235 20.8968C67.6277 20.8968 67.312 20.9717 67.0767 21.1215C66.8413 21.2712 66.7236 21.4745 66.7236 21.7313C66.7236 21.9774 66.8252 22.1646 67.0285 22.293C67.2318 22.4214 67.5635 22.5123 68.0235 22.5658L68.7136 22.63C69.7942 22.7477 70.6341 23.0473 71.2332 23.5287C71.8324 24.0102 72.1319 24.6575 72.1319 25.4706C72.1319 26.059 71.9714 26.5726 71.6505 27.0112C71.3295 27.4392 70.8748 27.7709 70.2864 28.0062C69.6979 28.2309 69.0078 28.3433 68.2161 28.3433ZM81.113 28.3754C80.3534 28.3754 79.6901 28.2523 79.123 28.0062C78.5667 27.7495 78.1013 27.4071 77.7268 26.9791C77.3523 26.5512 77.0742 26.0697 76.8923 25.5348C76.7104 24.9891 76.6195 24.4274 76.6195 23.8497V23.5448C76.6195 22.9456 76.7158 22.3732 76.9083 21.8276C77.1009 21.2712 77.3844 20.7791 77.7589 20.3511C78.1334 19.9232 78.5988 19.5862 79.1551 19.3401C79.7222 19.094 80.3695 18.971 81.097 18.971C81.8887 18.971 82.5895 19.1261 83.1993 19.4364C83.8092 19.7359 84.296 20.1586 84.6597 20.7042C85.0235 21.2498 85.2268 21.8757 85.2696 22.5819H82.75C82.7072 22.186 82.5467 21.8543 82.2685 21.5869C82.001 21.3087 81.6105 21.1696 81.097 21.1696C80.669 21.1696 80.3106 21.2766 80.0217 21.4906C79.7436 21.7046 79.5349 21.9988 79.3958 22.3732C79.2568 22.7477 79.1872 23.1917 79.1872 23.7053C79.1872 24.176 79.2514 24.604 79.3798 24.9891C79.5082 25.3636 79.7115 25.6578 79.9896 25.8718C80.2785 26.0751 80.653 26.1767 81.113 26.1767C81.4554 26.1767 81.7443 26.1179 81.9796 26.0002C82.2257 25.8718 82.4183 25.7006 82.5574 25.4866C82.7072 25.262 82.7981 25.0052 82.8302 24.7163H85.3338C85.3017 25.4438 85.0984 26.0858 84.7239 26.6421C84.3495 27.1878 83.852 27.6157 83.2314 27.926C82.6109 28.2256 81.9048 28.3754 81.113 28.3754ZM89.9449 28.3433C88.9285 28.3433 88.1475 28.0169 87.6019 27.3643C87.0562 26.701 86.7834 25.706 86.7834 24.3793V19.2759H89.3511V24.5077C89.3511 24.9784 89.4849 25.3529 89.7524 25.6311C90.0198 25.9092 90.3782 26.0483 90.8276 26.0483C91.2877 26.0483 91.6621 25.9039 91.951 25.615C92.2399 25.3262 92.3843 24.9356 92.3843 24.4435V19.2759H94.9521V28.0704H92.9139V24.3632H93.0904C93.0904 25.2513 92.9727 25.9948 92.7374 26.594C92.5127 27.1824 92.1757 27.6211 91.7263 27.91C91.277 28.1988 90.7206 28.3433 90.0573 28.3433H89.9449ZM97.737 28.0704V19.2759H100.305V28.0704H97.737ZM96.5654 21.1696V19.2759H100.305V21.1696H96.5654ZM98.732 18.4093C98.2505 18.4093 97.8921 18.2862 97.6567 18.0402C97.432 17.7834 97.3197 17.4624 97.3197 17.0773C97.3197 16.6814 97.432 16.3604 97.6567 16.1143C97.8921 15.8576 98.2505 15.7292 98.732 15.7292C99.2134 15.7292 99.5665 15.8576 99.7912 16.1143C100.027 16.3604 100.144 16.6814 100.144 17.0773C100.144 17.4624 100.027 17.7834 99.7912 18.0402C99.5665 18.2862 99.2134 18.4093 98.732 18.4093ZM106.307 28.3593C105.686 28.3593 105.119 28.247 104.605 28.0223C104.103 27.7976 103.664 27.4873 103.289 27.0915C102.915 26.6849 102.626 26.2088 102.423 25.6632C102.23 25.1175 102.134 24.5291 102.134 23.8978V23.5287C102.134 22.8975 102.225 22.309 102.407 21.7634C102.599 21.2178 102.872 20.7416 103.225 20.3351C103.589 19.9178 104.022 19.5969 104.525 19.3722C105.028 19.1368 105.59 19.0191 106.21 19.0191C106.916 19.0191 107.526 19.1742 108.04 19.4845C108.553 19.7841 108.955 20.2334 109.243 20.8326C109.532 21.421 109.693 22.1486 109.725 23.0152L109.051 22.3893V16.3551H111.635V28.0704H109.597V24.4274H109.95C109.917 25.262 109.741 25.9734 109.42 26.5619C109.11 27.1503 108.687 27.5997 108.152 27.91C107.617 28.2095 107.002 28.3593 106.307 28.3593ZM106.949 26.2088C107.344 26.2088 107.703 26.1232 108.024 25.952C108.355 25.7702 108.618 25.508 108.81 25.1657C109.013 24.8233 109.115 24.4114 109.115 23.9299V23.3361C109.115 22.8654 109.013 22.4695 108.81 22.1486C108.607 21.8276 108.339 21.5815 108.008 21.4103C107.676 21.2391 107.318 21.1536 106.932 21.1536C106.505 21.1536 106.119 21.2659 105.777 21.4906C105.445 21.7046 105.183 22.0041 104.991 22.3893C104.798 22.7638 104.702 23.2024 104.702 23.7053C104.702 24.2188 104.798 24.6628 104.991 25.0373C105.183 25.4117 105.451 25.7006 105.793 25.9039C106.135 26.1072 106.521 26.2088 106.949 26.2088ZM119.276 28.0704V25.4706H118.842V22.6461C118.842 22.1967 118.735 21.8597 118.521 21.635C118.307 21.4103 117.965 21.298 117.494 21.298C117.259 21.298 116.949 21.3033 116.564 21.314C116.178 21.3247 115.783 21.3408 115.376 21.3622C114.969 21.3836 114.6 21.405 114.269 21.4264V19.2598C114.515 19.2384 114.804 19.217 115.135 19.1956C115.467 19.1742 115.809 19.1582 116.162 19.1475C116.515 19.1368 116.847 19.1315 117.157 19.1315C118.056 19.1315 118.81 19.2598 119.42 19.5166C120.041 19.7734 120.511 20.1639 120.832 20.6882C121.153 21.2017 121.314 21.865 121.314 22.6782V28.0704H119.276ZM116.467 28.2951C115.836 28.2951 115.28 28.1828 114.798 27.9581C114.327 27.7334 113.958 27.4124 113.691 26.9952C113.423 26.5672 113.29 26.059 113.29 25.4706C113.29 24.8286 113.455 24.3044 113.787 23.8978C114.119 23.4806 114.584 23.1757 115.183 22.9831C115.783 22.7798 116.473 22.6782 117.254 22.6782H119.131V24.1065H117.238C116.788 24.1065 116.44 24.2188 116.194 24.4435C115.959 24.6575 115.841 24.9517 115.841 25.3262C115.841 25.6792 115.959 25.9681 116.194 26.1928C116.44 26.4067 116.788 26.5137 117.238 26.5137C117.526 26.5137 117.783 26.4656 118.008 26.3693C118.243 26.2623 118.436 26.0858 118.586 25.8397C118.735 25.5936 118.821 25.2513 118.842 24.8126L119.452 25.4545C119.399 26.0644 119.249 26.5779 119.003 26.9952C118.768 27.4124 118.436 27.7334 118.008 27.9581C117.591 28.1828 117.077 28.2951 116.467 28.2951ZM123.492 28.0704V19.2759H125.531V23.0473H125.482C125.482 21.8062 125.745 20.8486 126.269 20.1746C126.804 19.5006 127.574 19.1636 128.58 19.1636H128.917V21.3782H128.275C127.569 21.3782 127.023 21.5708 126.638 21.956C126.253 22.3304 126.06 22.8761 126.06 23.5929V28.0704H123.492ZM20.7985 48.3593C20.1779 48.3593 19.6109 48.247 19.0973 48.0223C18.5945 47.7976 18.1558 47.4873 17.7814 47.0915C17.4069 46.6849 17.118 46.2088 16.9148 45.6632C16.7222 45.1175 16.6259 44.5291 16.6259 43.8978V43.5287C16.6259 42.8975 16.7168 42.309 16.8987 41.7634C17.0913 41.2178 17.3641 40.7416 17.7172 40.3351C18.0809 39.9178 18.5143 39.5969 19.0171 39.3722C19.52 39.1368 20.0817 39.0191 20.7022 39.0191C21.4083 39.0191 22.0182 39.1742 22.5317 39.4845C23.0453 39.7841 23.4465 40.2334 23.7353 40.8326C24.0242 41.421 24.1847 42.1486 24.2168 43.0152L23.5428 42.3893V36.3551H26.1266V48.0704H24.0884V44.4274H24.4415C24.4094 45.262 24.2328 45.9734 23.9119 46.5619C23.6016 47.1503 23.179 47.5997 22.6441 47.91C22.1091 48.2095 21.4939 48.3593 20.7985 48.3593ZM21.4404 46.2088C21.8363 46.2088 22.1947 46.1232 22.5157 45.952C22.8473 45.7702 23.1095 45.508 23.302 45.1657C23.5053 44.8233 23.607 44.4114 23.607 43.9299V43.3361C23.607 42.8654 23.5053 42.4695 23.302 42.1486C23.0988 41.8276 22.8313 41.5815 22.4996 41.4103C22.168 41.2391 21.8095 41.1536 21.4244 41.1536C20.9964 41.1536 20.6113 41.2659 20.2689 41.4906C19.9372 41.7046 19.6751 42.0041 19.4825 42.3893C19.2899 42.7638 19.1936 43.2024 19.1936 43.7053C19.1936 44.2188 19.2899 44.6628 19.4825 45.0373C19.6751 45.4117 19.9426 45.7006 20.2849 45.9039C20.6273 46.1072 21.0125 46.2088 21.4404 46.2088ZM33.7676 48.0704V45.4706H33.3343V42.6461C33.3343 42.1967 33.2273 41.8597 33.0134 41.635C32.7994 41.4103 32.457 41.298 31.9863 41.298C31.7509 41.298 31.4406 41.3033 31.0554 41.314C30.6703 41.3247 30.2744 41.3408 29.8679 41.3622C29.4613 41.3836 29.0922 41.405 28.7605 41.4264V39.2598C29.0066 39.2384 29.2955 39.217 29.6271 39.1956C29.9588 39.1742 30.3012 39.1582 30.6542 39.1475C31.0073 39.1368 31.339 39.1315 31.6492 39.1315C32.5479 39.1315 33.3022 39.2598 33.9121 39.5166C34.5326 39.7734 35.0034 40.1639 35.3243 40.6882C35.6453 41.2017 35.8058 41.865 35.8058 42.6782V48.0704H33.7676ZM30.9592 48.2951C30.3279 48.2951 29.7716 48.1828 29.2901 47.9581C28.8194 47.7334 28.4502 47.4124 28.1828 46.9952C27.9153 46.5672 27.7816 46.059 27.7816 45.4706C27.7816 44.8286 27.9474 44.3044 28.2791 43.8978C28.6107 43.4806 29.0761 43.1757 29.6753 42.9831C30.2744 42.7798 30.9645 42.6782 31.7455 42.6782H33.6232V44.1065H31.7295C31.2801 44.1065 30.9324 44.2188 30.6863 44.4435C30.451 44.6575 30.3333 44.9517 30.3333 45.3262C30.3333 45.6792 30.451 45.9681 30.6863 46.1928C30.9324 46.4067 31.2801 46.5137 31.7295 46.5137C32.0183 46.5137 32.2751 46.4656 32.4998 46.3693C32.7352 46.2623 32.9278 46.0858 33.0775 45.8397C33.2273 45.5936 33.3129 45.2513 33.3343 44.8126L33.9442 45.4545C33.8907 46.0644 33.7409 46.5779 33.4948 46.9952C33.2594 47.4124 32.9278 47.7334 32.4998 47.9581C32.0825 48.1828 31.569 48.2951 30.9592 48.2951ZM21.1997 68.3754C20.4508 68.3754 19.7874 68.247 19.2097 67.9902C18.6426 67.7334 18.1665 67.3911 17.7814 66.9631C17.4069 66.5244 17.118 66.0376 16.9148 65.5027C16.7222 64.957 16.6259 64.4007 16.6259 63.8336V63.5127C16.6259 62.9242 16.7222 62.3625 16.9148 61.8276C17.118 61.2819 17.4069 60.7951 17.7814 60.3672C18.1558 59.9392 18.6212 59.6022 19.1776 59.3561C19.7446 59.0994 20.3866 58.971 21.1034 58.971C22.0449 58.971 22.8366 59.1849 23.4786 59.6129C24.1312 60.0302 24.6287 60.5812 24.9711 61.2659C25.3134 61.9399 25.4846 62.6782 25.4846 63.4806V64.3472H17.7011V62.8868H23.9279L23.0934 63.5608C23.0934 63.0366 23.0185 62.5872 22.8687 62.2128C22.7189 61.8383 22.4943 61.5548 22.1947 61.3622C21.9058 61.1589 21.5421 61.0573 21.1034 61.0573C20.654 61.0573 20.2742 61.1589 19.964 61.3622C19.6537 61.5655 19.4183 61.865 19.2578 62.2609C19.0973 62.6461 19.0171 63.1222 19.0171 63.6892C19.0171 64.2135 19.092 64.6735 19.2418 65.0694C19.3916 65.4545 19.6269 65.7541 19.9479 65.9681C20.2689 66.1821 20.6861 66.2891 21.1997 66.2891C21.6704 66.2891 22.0556 66.1981 22.3552 66.0162C22.6548 65.8344 22.858 65.6097 22.965 65.3422H25.3241C25.1958 65.9306 24.9443 66.4549 24.5699 66.9149C24.1954 67.375 23.7246 67.7334 23.1576 67.9902C22.5906 68.247 21.9379 68.3754 21.1997 68.3754ZM27.1861 68.0704V59.2759H29.2243V63.0633H29.0799C29.0799 62.1646 29.1922 61.4157 29.4169 60.8165C29.6415 60.2174 29.9786 59.768 30.4279 59.4685C30.8773 59.1582 31.4283 59.0031 32.0809 59.0031H32.1933C32.8566 59.0031 33.4076 59.1582 33.8462 59.4685C34.2956 59.768 34.6326 60.2174 34.8573 60.8165C35.0927 61.4157 35.2104 62.1646 35.2104 63.0633H34.5845C34.5845 62.1646 34.6968 61.4157 34.9215 60.8165C35.1569 60.2174 35.4992 59.768 35.9486 59.4685C36.3979 59.1582 36.9489 59.0031 37.6016 59.0031H37.7139C38.3772 59.0031 38.9336 59.1582 39.383 59.4685C39.843 59.768 40.1907 60.2174 40.4261 60.8165C40.6615 61.4157 40.7792 62.1646 40.7792 63.0633V68.0704H38.2114V62.9189C38.2114 62.4374 38.083 62.0469 37.8263 61.7473C37.5802 61.4478 37.2271 61.298 36.7671 61.298C36.307 61.298 35.9432 61.4531 35.6758 61.7634C35.4083 62.063 35.2746 62.4642 35.2746 62.967V68.0704H32.6908V62.9189C32.6908 62.4374 32.5624 62.0469 32.3056 61.7473C32.0595 61.4478 31.7118 61.298 31.2624 61.298C30.7917 61.298 30.4226 61.4531 30.1551 61.7634C29.8876 62.063 29.7539 62.4642 29.7539 62.967V68.0704H27.1861ZM46.1291 68.0704V65.6632C46.1291 65.1603 46.2093 64.7217 46.3698 64.3472C46.541 63.9727 46.8084 63.6411 47.1722 63.3522C47.536 63.0526 48.0174 62.7744 48.6166 62.5177L50.5103 61.6992C50.9917 61.4959 51.3448 61.2445 51.5695 60.9449C51.8049 60.6454 51.9226 60.2655 51.9226 59.8055C51.9226 59.3347 51.7781 58.9496 51.4892 58.65C51.2004 58.3504 50.7778 58.2006 50.2214 58.2006C49.6651 58.2006 49.2425 58.3558 48.9536 58.666C48.6647 58.9763 48.5203 59.3936 48.5203 59.9178H45.9686C45.9686 59.1796 46.1291 58.5163 46.45 57.9278C46.771 57.3287 47.2471 56.8579 47.8783 56.5156C48.5096 56.1732 49.2906 56.002 50.2214 56.002C51.1522 56.002 51.9279 56.1678 52.5484 56.4995C53.1797 56.8312 53.6558 57.2752 53.9768 57.8315C54.3084 58.3879 54.4743 59.0138 54.4743 59.7092V59.9018C54.4743 60.8005 54.2282 61.5441 53.736 62.1325C53.2439 62.7103 52.4842 63.2238 51.4571 63.6732L49.5795 64.4916C49.2585 64.6307 49.0285 64.7752 48.8894 64.9249C48.761 65.0747 48.6968 65.278 48.6968 65.5348V66.3372L48.0709 65.8076H54.4903V68.0704H46.1291ZM61.4366 68.3754C60.5058 68.3754 59.7088 68.2256 59.0454 67.926C58.3821 67.6157 57.8418 67.1985 57.4245 66.6742C57.018 66.15 56.7131 65.5455 56.5098 64.8607C56.3172 64.1653 56.2209 63.4324 56.2209 62.6621V61.7473C56.2209 60.6775 56.4081 59.7092 56.7826 58.8426C57.1571 57.976 57.7295 57.2859 58.4998 56.7723C59.2701 56.2588 60.2491 56.002 61.4366 56.002C62.6242 56.002 63.5978 56.2588 64.3575 56.7723C65.1278 57.2859 65.7002 57.976 66.0746 58.8426C66.4491 59.7092 66.6363 60.6775 66.6363 61.7473V62.6621C66.6363 63.4324 66.5347 64.1653 66.3314 64.8607C66.1388 65.5455 65.8339 66.15 65.4167 66.6742C65.0101 67.1985 64.4751 67.6157 63.8118 67.926C63.1592 68.2256 62.3675 68.3754 61.4366 68.3754ZM61.4366 65.952C62.3033 65.952 62.9452 65.6525 63.3625 65.0533C63.7904 64.4435 64.0044 63.502 64.0044 62.2288C64.0044 60.8807 63.7851 59.9125 63.3464 59.324C62.9184 58.7249 62.2819 58.4253 61.4366 58.4253C60.57 58.4253 59.9227 58.7249 59.4948 59.324C59.0668 59.9125 58.8528 60.87 58.8528 62.1967C58.8528 63.4806 59.0615 64.4274 59.4787 65.0373C59.9067 65.6471 60.5593 65.952 61.4366 65.952ZM68.5091 68.0704V65.6632C68.5091 65.1603 68.5894 64.7217 68.7498 64.3472C68.921 63.9727 69.1885 63.6411 69.5523 63.3522C69.916 63.0526 70.3975 62.7744 70.9966 62.5177L72.8903 61.6992C73.3718 61.4959 73.7249 61.2445 73.9495 60.9449C74.1849 60.6454 74.3026 60.2655 74.3026 59.8055C74.3026 59.3347 74.1582 58.9496 73.8693 58.65C73.5804 58.3504 73.1578 58.2006 72.6015 58.2006C72.0451 58.2006 71.6225 58.3558 71.3336 58.666C71.0448 58.9763 70.9003 59.3936 70.9003 59.9178H68.3486C68.3486 59.1796 68.5091 58.5163 68.8301 57.9278C69.1511 57.3287 69.6272 56.8579 70.2584 56.5156C70.8896 56.1732 71.6707 56.002 72.6015 56.002C73.5323 56.002 74.3079 56.1678 74.9285 56.4995C75.5597 56.8312 76.0358 57.2752 76.3568 57.8315C76.6885 58.3879 76.8543 59.0138 76.8543 59.7092V59.9018C76.8543 60.8005 76.6082 61.5441 76.1161 62.1325C75.6239 62.7103 74.8643 63.2238 73.8372 63.6732L71.9595 64.4916C71.6386 64.6307 71.4085 64.7752 71.2694 64.9249C71.1411 65.0747 71.0769 65.278 71.0769 65.5348V66.3372L70.451 65.8076H76.8704V68.0704H68.5091ZM78.2158 65.8237V63.0794L82.6612 56.0181L84.6994 57.3501L80.8959 63.4003L81.1206 63.7374H88.1337V65.8237H78.2158ZM84.3623 68.0704V59.629H86.7857V68.0704H84.3623ZM91.3254 64.1386V61.3461H92.8179C93.3849 61.3461 93.8075 61.1964 94.0857 60.8968C94.3639 60.5865 94.5029 60.212 94.5029 59.7734C94.5029 59.4631 94.4388 59.1956 94.3104 58.971C94.1927 58.7356 94.0161 58.5537 93.7808 58.4253C93.5561 58.2862 93.2833 58.2167 92.9623 58.2167C92.6199 58.2167 92.3311 58.2916 92.0957 58.4414C91.8603 58.5805 91.6784 58.7677 91.55 59.0031C91.4216 59.2384 91.3575 59.5059 91.3575 59.8055H88.902C88.902 59.0994 89.0572 58.4628 89.3674 57.8957C89.6884 57.318 90.1592 56.8579 90.7797 56.5156C91.4002 56.1732 92.1492 56.002 93.0265 56.002C93.8396 56.002 94.5404 56.1571 95.1288 56.4674C95.7173 56.767 96.172 57.1842 96.493 57.7192C96.8139 58.2541 96.9744 58.8693 96.9744 59.5648V59.7573C96.9744 60.4421 96.8086 61.0466 96.4769 61.5708C96.1559 62.0844 95.6852 62.4909 95.0646 62.7905C94.4441 63.0794 93.6898 63.2345 92.8018 63.2559L93.9092 62.3732L93.8771 64.1386H91.3254ZM91.1328 68.0704V65.4866H94.0536V68.0704H91.1328Z" fill="#EEE6FC"/>
<path d="M53.405 48.0704V45.4706H52.9717V42.6461C52.9717 42.1967 52.8647 41.8597 52.6507 41.635C52.4368 41.4103 52.0944 41.298 51.6236 41.298C51.3883 41.298 51.078 41.3033 50.6928 41.314C50.3077 41.3247 49.9118 41.3408 49.5053 41.3622C49.0987 41.3836 48.7296 41.405 48.3979 41.4264V39.2598C48.644 39.2384 48.9329 39.217 49.2645 39.1956C49.5962 39.1742 49.9386 39.1582 50.2916 39.1475C50.6447 39.1368 50.9764 39.1315 51.2866 39.1315C52.1853 39.1315 52.9396 39.2598 53.5495 39.5166C54.17 39.7734 54.6408 40.1639 54.9617 40.6882C55.2827 41.2017 55.4432 41.865 55.4432 42.6782V48.0704H53.405ZM50.5965 48.2951C49.9653 48.2951 49.409 48.1828 48.9275 47.9581C48.4568 47.7334 48.0876 47.4124 47.8202 46.9952C47.5527 46.5672 47.419 46.059 47.419 45.4706C47.419 44.8286 47.5848 44.3044 47.9165 43.8978C48.2481 43.4806 48.7135 43.1757 49.3127 42.9831C49.9118 42.7798 50.6019 42.6782 51.3829 42.6782H53.2606V44.1065H51.3669C50.9175 44.1065 50.5698 44.2188 50.3237 44.4435C50.0883 44.6575 49.9707 44.9517 49.9707 45.3262C49.9707 45.6792 50.0883 45.9681 50.3237 46.1928C50.5698 46.4067 50.9175 46.5137 51.3669 46.5137C51.6557 46.5137 51.9125 46.4656 52.1372 46.3693C52.3726 46.2623 52.5652 46.0858 52.7149 45.8397C52.8647 45.5936 52.9503 45.2513 52.9717 44.8126L53.5816 45.4545C53.5281 46.0644 53.3783 46.5779 53.1322 46.9952C52.8968 47.4124 52.5652 47.7334 52.1372 47.9581C51.7199 48.1828 51.2064 48.2951 50.5965 48.2951ZM57.7341 48.0704V36.3551H60.3179V48.0704H57.7341ZM56.6909 38.2488V36.3551H60.3179V38.2488H56.6909ZM63.1012 48.0704V39.2759H65.6689V48.0704H63.1012ZM61.9296 41.1696V39.2759H65.6689V41.1696H61.9296ZM64.0962 38.4093C63.6147 38.4093 63.2563 38.2862 63.0209 38.0402C62.7962 37.7834 62.6839 37.4624 62.6839 37.0773C62.6839 36.6814 62.7962 36.3604 63.0209 36.1143C63.2563 35.8576 63.6147 35.7292 64.0962 35.7292C64.5776 35.7292 64.9307 35.8576 65.1554 36.1143C65.3907 36.3604 65.5084 36.6814 65.5084 37.0773C65.5084 37.4624 65.3907 37.7834 65.1554 38.0402C64.9307 38.2862 64.5776 38.4093 64.0962 38.4093ZM68.0438 48.0704V39.2759H70.082V43.0633H69.9376C69.9376 42.1646 70.0499 41.4157 70.2746 40.8165C70.4992 40.2174 70.8363 39.768 71.2856 39.4685C71.735 39.1582 72.286 39.0031 72.9386 39.0031H73.0509C73.7143 39.0031 74.2653 39.1582 74.7039 39.4685C75.1533 39.768 75.4903 40.2174 75.715 40.8165C75.9504 41.4157 76.0681 42.1646 76.0681 43.0633H75.4422C75.4422 42.1646 75.5545 41.4157 75.7792 40.8165C76.0146 40.2174 76.3569 39.768 76.8063 39.4685C77.2556 39.1582 77.8066 39.0031 78.4593 39.0031H78.5716C79.2349 39.0031 79.7913 39.1582 80.2406 39.4685C80.7007 39.768 81.0484 40.2174 81.2838 40.8165C81.5192 41.4157 81.6369 42.1646 81.6369 43.0633V48.0704H79.0691V42.9189C79.0691 42.4374 78.9407 42.0469 78.684 41.7473C78.4379 41.4478 78.0848 41.298 77.6248 41.298C77.1647 41.298 76.8009 41.4531 76.5335 41.7634C76.266 42.063 76.1322 42.4642 76.1322 42.967V48.0704H73.5484V42.9189C73.5484 42.4374 73.4201 42.0469 73.1633 41.7473C72.9172 41.4478 72.5695 41.298 72.1201 41.298C71.6494 41.298 71.2803 41.4531 71.0128 41.7634C70.7453 42.063 70.6116 42.4642 70.6116 42.967V48.0704H68.0438ZM87.854 48.3754C87.1051 48.3754 86.4417 48.247 85.864 47.9902C85.2969 47.7334 84.8208 47.3911 84.4357 46.9631C84.0612 46.5244 83.7723 46.0376 83.5691 45.5027C83.3765 44.957 83.2802 44.4007 83.2802 43.8336V43.5127C83.2802 42.9242 83.3765 42.3625 83.5691 41.8276C83.7723 41.2819 84.0612 40.7951 84.4357 40.3672C84.8101 39.9392 85.2755 39.6022 85.8319 39.3561C86.3989 39.0994 87.0409 38.971 87.7577 38.971C88.6992 38.971 89.4909 39.1849 90.1329 39.6129C90.7855 40.0302 91.283 40.5812 91.6254 41.2659C91.9677 41.9399 92.1389 42.6782 92.1389 43.4806V44.3472H84.3554V42.8868H90.5822L89.7477 43.5608C89.7477 43.0366 89.6728 42.5872 89.523 42.2128C89.3733 41.8383 89.1486 41.5548 88.849 41.3622C88.5601 41.1589 88.1964 41.0573 87.7577 41.0573C87.3084 41.0573 86.9285 41.1589 86.6183 41.3622C86.308 41.5655 86.0726 41.865 85.9121 42.2609C85.7517 42.6461 85.6714 43.1222 85.6714 43.6892C85.6714 44.2135 85.7463 44.6735 85.8961 45.0694C86.0459 45.4545 86.2813 45.7541 86.6022 45.9681C86.9232 46.1821 87.3404 46.2891 87.854 46.2891C88.3248 46.2891 88.7099 46.1981 89.0095 46.0162C89.3091 45.8344 89.5123 45.6097 89.6193 45.3422H91.9784C91.8501 45.9306 91.5986 46.4549 91.2242 46.9149C90.8497 47.375 90.379 47.7334 89.8119 47.9902C89.2449 48.247 88.5922 48.3754 87.854 48.3754ZM93.8404 48.0704V39.2759H95.8786V43.0473H95.7342C95.7342 42.1486 95.8465 41.3996 96.0712 40.8005C96.3066 40.2013 96.6596 39.752 97.1304 39.4524C97.6011 39.1529 98.1735 39.0031 98.8476 39.0031H98.9599C99.987 39.0031 100.768 39.3401 101.303 40.0141C101.849 40.6775 102.121 41.6885 102.121 43.0473V48.0704H99.5537V42.9028C99.5537 42.4321 99.4146 42.0469 99.1364 41.7473C98.8583 41.4478 98.4838 41.298 98.013 41.298C97.5316 41.298 97.1411 41.4531 96.8415 41.7634C96.5526 42.063 96.4082 42.4588 96.4082 42.951V48.0704H93.8404ZM108.306 48.1828C107.418 48.1828 106.701 48.0758 106.155 47.8618C105.609 47.6371 105.208 47.268 104.951 46.7545C104.705 46.2302 104.582 45.5241 104.582 44.6361V36.9007H106.974V44.7324C106.974 45.1496 107.081 45.4706 107.295 45.6953C107.519 45.9092 107.835 46.0162 108.241 46.0162H109.541V48.1828H108.306ZM103.25 41.1536V39.2759H109.541V41.1536H103.25ZM116.549 48.0704V45.4706H116.115V42.6461C116.115 42.1967 116.008 41.8597 115.794 41.635C115.58 41.4103 115.238 41.298 114.767 41.298C114.532 41.298 114.222 41.3033 113.837 41.314C113.451 41.3247 113.056 41.3408 112.649 41.3622C112.242 41.3836 111.873 41.405 111.542 41.4264V39.2598C111.788 39.2384 112.077 39.217 112.408 39.1956C112.74 39.1742 113.082 39.1582 113.435 39.1475C113.788 39.1368 114.12 39.1315 114.43 39.1315C115.329 39.1315 116.083 39.2598 116.693 39.5166C117.314 39.7734 117.784 40.1639 118.105 40.6882C118.426 41.2017 118.587 41.865 118.587 42.6782V48.0704H116.549ZM113.74 48.2951C113.109 48.2951 112.553 48.1828 112.071 47.9581C111.6 47.7334 111.231 47.4124 110.964 46.9952C110.696 46.5672 110.563 46.059 110.563 45.4706C110.563 44.8286 110.729 44.3044 111.06 43.8978C111.392 43.4806 111.857 43.1757 112.456 42.9831C113.056 42.7798 113.746 42.6782 114.527 42.6782H116.404V44.1065H114.511C114.061 44.1065 113.714 44.2188 113.467 44.4435C113.232 44.6575 113.114 44.9517 113.114 45.3262C113.114 45.6792 113.232 45.9681 113.467 46.1928C113.714 46.4067 114.061 46.5137 114.511 46.5137C114.799 46.5137 115.056 46.4656 115.281 46.3693C115.516 46.2623 115.709 46.0858 115.859 45.8397C116.008 45.5936 116.094 45.2513 116.115 44.8126L116.725 45.4545C116.672 46.0644 116.522 46.5779 116.276 46.9952C116.041 47.4124 115.709 47.7334 115.281 47.9581C114.864 48.1828 114.35 48.2951 113.74 48.2951ZM124.713 48.3754C123.954 48.3754 123.29 48.2523 122.723 48.0062C122.167 47.7495 121.702 47.4071 121.327 46.9791C120.953 46.5512 120.675 46.0697 120.493 45.5348C120.311 44.9891 120.22 44.4274 120.22 43.8497V43.5448C120.22 42.9456 120.316 42.3732 120.509 41.8276C120.701 41.2712 120.985 40.7791 121.359 40.3511C121.734 39.9232 122.199 39.5862 122.755 39.3401C123.323 39.094 123.97 38.971 124.697 38.971C125.489 38.971 126.19 39.1261 126.8 39.4364C127.41 39.7359 127.896 40.1586 128.26 40.7042C128.624 41.2498 128.827 41.8757 128.87 42.5819H126.35C126.308 42.186 126.147 41.8543 125.869 41.5869C125.601 41.3087 125.211 41.1696 124.697 41.1696C124.269 41.1696 123.911 41.2766 123.622 41.4906C123.344 41.7046 123.135 41.9988 122.996 42.3732C122.857 42.7477 122.788 43.1917 122.788 43.7053C122.788 44.176 122.852 44.604 122.98 44.9891C123.109 45.3636 123.312 45.6578 123.59 45.8718C123.879 46.0751 124.253 46.1767 124.713 46.1767C125.056 46.1767 125.345 46.1179 125.58 46.0002C125.826 45.8718 126.019 45.7006 126.158 45.4866C126.308 45.262 126.398 45.0052 126.431 44.7163H128.934C128.902 45.4438 128.699 46.0858 128.324 46.6421C127.95 47.1878 127.452 47.6157 126.832 47.926C126.211 48.2256 125.505 48.3754 124.713 48.3754ZM124.633 52.4035C124.387 52.4035 124.146 52.3821 123.911 52.3393C123.676 52.2965 123.488 52.2537 123.349 52.2109V50.6382C123.499 50.6917 123.676 50.7345 123.879 50.7666C124.093 50.8094 124.312 50.8308 124.537 50.8308C124.836 50.8308 125.061 50.788 125.211 50.7024C125.361 50.6275 125.436 50.5205 125.436 50.3814C125.436 50.2637 125.382 50.1728 125.275 50.1086C125.179 50.0444 125.008 50.0123 124.762 50.0123H123.911V47.8618H125.468V49.4506L124.569 48.7605H124.778C125.516 48.7605 126.088 48.8996 126.495 49.1778C126.912 49.4666 127.121 49.8839 127.121 50.4296C127.121 50.9859 126.907 51.4513 126.479 51.8258C126.061 52.2109 125.446 52.4035 124.633 52.4035ZM135.888 48.0704V45.4706H135.455V42.6461C135.455 42.1967 135.348 41.8597 135.134 41.635C134.92 41.4103 134.578 41.298 134.107 41.298C133.872 41.298 133.561 41.3033 133.176 41.314C132.791 41.3247 132.395 41.3408 131.989 41.3622C131.582 41.3836 131.213 41.405 130.881 41.4264V39.2598C131.127 39.2384 131.416 39.217 131.748 39.1956C132.08 39.1742 132.422 39.1582 132.775 39.1475C133.128 39.1368 133.46 39.1315 133.77 39.1315C134.669 39.1315 135.423 39.2598 136.033 39.5166C136.653 39.7734 137.124 40.1639 137.445 40.6882C137.766 41.2017 137.927 41.865 137.927 42.6782V48.0704H135.888ZM133.08 48.2951C132.449 48.2951 131.892 48.1828 131.411 47.9581C130.94 47.7334 130.571 47.4124 130.304 46.9952C130.036 46.5672 129.902 46.059 129.902 45.4706C129.902 44.8286 130.068 44.3044 130.4 43.8978C130.731 43.4806 131.197 43.1757 131.796 42.9831C132.395 42.7798 133.085 42.6782 133.866 42.6782H135.744V44.1065H133.85C133.401 44.1065 133.053 44.2188 132.807 44.4435C132.572 44.6575 132.454 44.9517 132.454 45.3262C132.454 45.6792 132.572 45.9681 132.807 46.1928C133.053 46.4067 133.401 46.5137 133.85 46.5137C134.139 46.5137 134.396 46.4656 134.621 46.3693C134.856 46.2623 135.048 46.0858 135.198 45.8397C135.348 45.5936 135.434 45.2513 135.455 44.8126L136.065 45.4545C136.011 46.0644 135.862 46.5779 135.616 46.9952C135.38 47.4124 135.048 47.7334 134.621 47.9581C134.203 48.1828 133.69 48.2951 133.08 48.2951ZM135.327 38.0562C135.006 38.0562 134.738 38.0134 134.524 37.9278C134.31 37.8422 134.112 37.7459 133.93 37.6389C133.759 37.532 133.583 37.441 133.401 37.3661C133.23 37.2805 133.021 37.2377 132.775 37.2377C132.497 37.2377 132.245 37.2966 132.021 37.4143C131.807 37.5213 131.625 37.655 131.475 37.8155L131.09 36.0662C131.272 35.8629 131.496 35.6917 131.764 35.5527C132.042 35.4136 132.384 35.344 132.791 35.344C133.112 35.344 133.379 35.3868 133.593 35.4724C133.807 35.5473 134 35.6382 134.171 35.7452C134.342 35.8522 134.519 35.9485 134.701 36.0341C134.883 36.1197 135.091 36.1625 135.327 36.1625C135.616 36.1625 135.867 36.109 136.081 36.002C136.306 35.8843 136.498 35.7452 136.659 35.5847L137.028 37.334C136.846 37.5266 136.616 37.6978 136.338 37.8476C136.06 37.9867 135.723 38.0562 135.327 38.0562ZM144.39 48.3754C143.62 48.3754 142.935 48.2577 142.336 48.0223C141.737 47.7762 141.228 47.4445 140.811 47.0273C140.405 46.61 140.094 46.1339 139.88 45.599C139.666 45.0533 139.559 44.4809 139.559 43.8818V43.5127C139.559 42.9028 139.666 42.3251 139.88 41.7794C140.105 41.2231 140.426 40.7363 140.843 40.319C141.271 39.9018 141.785 39.5755 142.384 39.3401C142.983 39.094 143.652 38.971 144.39 38.971C145.15 38.971 145.824 39.094 146.412 39.3401C147.011 39.5755 147.519 39.9018 147.937 40.319C148.354 40.7363 148.675 41.2231 148.9 41.7794C149.124 42.3251 149.237 42.9028 149.237 43.5127V43.8818C149.237 44.4809 149.13 45.0533 148.916 45.599C148.702 46.1339 148.386 46.61 147.969 47.0273C147.562 47.4445 147.059 47.7762 146.46 48.0223C145.861 48.2577 145.171 48.3754 144.39 48.3754ZM144.39 46.2088C144.893 46.2088 145.31 46.1018 145.642 45.8878C145.973 45.6739 146.225 45.3743 146.396 44.9891C146.578 44.604 146.669 44.176 146.669 43.7053C146.669 43.2024 146.578 42.7638 146.396 42.3893C146.214 42.0041 145.952 41.6992 145.61 41.4745C145.278 41.2498 144.871 41.1375 144.39 41.1375C143.919 41.1375 143.513 41.2498 143.17 41.4745C142.828 41.6992 142.566 42.0041 142.384 42.3893C142.213 42.7638 142.127 43.2024 142.127 43.7053C142.127 44.176 142.213 44.604 142.384 44.9891C142.555 45.3743 142.812 45.6739 143.154 45.8878C143.497 46.1018 143.909 46.2088 144.39 46.2088Z" fill="white"/>
<path d="M18.6156 92.685C18.1955 92.685 17.7883 92.6054 17.3937 92.4463C17.0055 92.2872 16.6618 92.0613 16.3627 91.7686L17.0119 91.0145C17.2346 91.2245 17.4892 91.3963 17.7755 91.5299C18.0619 91.6572 18.3483 91.7209 18.6347 91.7209C18.991 91.7209 19.2615 91.6477 19.4461 91.5013C19.6306 91.3549 19.7229 91.1608 19.7229 90.919C19.7229 90.6581 19.6306 90.4703 19.4461 90.3558C19.2679 90.2412 19.0388 90.1235 18.7587 90.0026L17.8996 89.6303C17.696 89.5412 17.4955 89.4267 17.2982 89.2867C17.1073 89.1467 16.9482 88.9685 16.8209 88.7521C16.7 88.5357 16.6396 88.2748 16.6396 87.9693C16.6396 87.6384 16.7287 87.3425 16.9069 87.0816C17.0914 86.8143 17.3396 86.6043 17.6514 86.4515C17.9696 86.2924 18.3324 86.2129 18.7397 86.2129C19.1024 86.2129 19.4524 86.2861 19.7897 86.4325C20.127 86.5725 20.4165 86.7634 20.6584 87.0052L20.0952 87.7116C19.8979 87.5461 19.6879 87.4157 19.4651 87.3202C19.2488 87.2248 19.0069 87.177 18.7397 87.177C18.4469 87.177 18.2083 87.2439 18.0237 87.3775C17.8455 87.5048 17.7564 87.683 17.7564 87.9121C17.7564 88.0712 17.801 88.2048 17.8901 88.313C17.9855 88.4148 18.1096 88.5039 18.2624 88.5803C18.4151 88.6503 18.5774 88.7203 18.7492 88.7903L19.5988 89.1435C19.9679 89.3026 20.2702 89.5126 20.5056 89.7735C20.7411 90.0281 20.8588 90.3813 20.8588 90.8331C20.8588 91.1704 20.7697 91.479 20.5916 91.759C20.4134 92.039 20.1556 92.265 19.8183 92.4368C19.4874 92.6023 19.0865 92.685 18.6156 92.685ZM23.9032 92.685C23.4705 92.685 23.0791 92.5895 22.7291 92.3986C22.3791 92.2013 22.1022 91.9213 21.8986 91.5586C21.6949 91.1895 21.5931 90.7472 21.5931 90.2317C21.5931 89.7226 21.6949 89.2835 21.8986 88.9144C22.1086 88.5453 22.3791 88.2621 22.71 88.0648C23.0409 87.8675 23.3877 87.7689 23.7505 87.7689C24.1769 87.7689 24.5332 87.8643 24.8196 88.0552C25.106 88.2398 25.3224 88.5007 25.4687 88.838C25.6151 89.1689 25.6883 89.5539 25.6883 89.9931C25.6883 90.2222 25.6724 90.4003 25.6406 90.5276H22.6623C22.7132 90.9413 22.8627 91.2627 23.1109 91.4918C23.3591 91.7209 23.6709 91.8354 24.0464 91.8354C24.25 91.8354 24.4378 91.8068 24.6096 91.7495C24.7878 91.6859 24.9628 91.5999 25.1346 91.4918L25.5069 92.1791C25.2842 92.3254 25.036 92.4463 24.7623 92.5418C24.4887 92.6373 24.2023 92.685 23.9032 92.685ZM22.6527 89.783H24.7337C24.7337 89.4203 24.6542 89.1371 24.4951 88.9335C24.336 88.7235 24.0973 88.6185 23.7791 88.6185C23.5055 88.6185 23.2605 88.7203 23.0441 88.9239C22.8341 89.1212 22.7036 89.4076 22.6527 89.783ZM26.7368 94.4223V87.8834H27.6436L27.72 88.3798H27.7582C27.9555 88.2143 28.175 88.0712 28.4168 87.9502C28.665 87.8293 28.9164 87.7689 29.171 87.7689C29.7564 87.7689 30.2083 87.9852 30.5265 88.418C30.851 88.8507 31.0133 89.4299 31.0133 90.1553C31.0133 90.6899 30.9178 91.1481 30.7269 91.5299C30.536 91.9054 30.2878 92.1918 29.9824 92.3891C29.6833 92.5863 29.3587 92.685 29.0087 92.685C28.805 92.685 28.6014 92.6404 28.3977 92.5513C28.1941 92.4559 27.9968 92.3286 27.8059 92.1695L27.8345 92.9523V94.4223H26.7368ZM28.7796 91.7781C29.0914 91.7781 29.3523 91.6413 29.5623 91.3677C29.7723 91.094 29.8773 90.6931 29.8773 90.1649C29.8773 89.694 29.7978 89.328 29.6387 89.0671C29.4796 88.8062 29.2219 88.6757 28.8655 88.6757C28.5346 88.6757 28.1909 88.8507 27.8345 89.2008V91.3867C28.0064 91.5268 28.1718 91.6286 28.3309 91.6922C28.49 91.7495 28.6396 91.7781 28.7796 91.7781ZM33.149 92.685C32.7417 92.685 32.4076 92.5577 32.1467 92.3032C31.8922 92.0486 31.7649 91.7177 31.7649 91.3104C31.7649 90.8076 31.9844 90.4194 32.4236 90.1458C32.8627 89.8658 33.5627 89.6749 34.5236 89.573C34.5173 89.3248 34.4505 89.1117 34.3232 88.9335C34.2023 88.7489 33.9827 88.6566 33.6645 88.6566C33.4354 88.6566 33.2095 88.7012 32.9868 88.7903C32.7704 88.8794 32.5572 88.9876 32.3472 89.1148L31.9463 88.3798C32.2072 88.2143 32.4999 88.0712 32.8245 87.9502C33.1554 87.8293 33.5054 87.7689 33.8745 87.7689C34.46 87.7689 34.8959 87.9439 35.1823 88.2939C35.475 88.6375 35.6214 89.1371 35.6214 89.7926V92.5704H34.7146L34.6382 92.055H34.6C34.39 92.2331 34.1641 92.3827 33.9223 92.5036C33.6868 92.6245 33.4291 92.685 33.149 92.685ZM33.5022 91.8259C33.6932 91.8259 33.865 91.7813 34.0177 91.6922C34.1768 91.5968 34.3455 91.4695 34.5236 91.3104V90.2603C33.8873 90.3431 33.445 90.4672 33.1968 90.6326C32.9486 90.7917 32.8245 90.989 32.8245 91.2245C32.8245 91.4345 32.8881 91.5872 33.0154 91.6827C33.1427 91.7781 33.305 91.8259 33.5022 91.8259ZM36.9352 92.5704V87.8834H37.842L37.9184 88.7139H37.9566C38.122 88.4084 38.3225 88.1762 38.558 88.0171C38.7934 87.8516 39.0352 87.7689 39.2834 87.7689C39.5062 87.7689 39.6844 87.8007 39.818 87.8643L39.6271 88.8189C39.5444 88.7935 39.468 88.7744 39.398 88.7616C39.328 88.7489 39.2421 88.7425 39.1403 88.7425C38.9557 88.7425 38.7616 88.8157 38.558 88.9621C38.3543 89.1021 38.1793 89.3503 38.0329 89.7067V92.5704H36.9352ZM41.3805 92.685C40.9732 92.685 40.6391 92.5577 40.3782 92.3032C40.1236 92.0486 39.9963 91.7177 39.9963 91.3104C39.9963 90.8076 40.2159 90.4194 40.655 90.1458C41.0941 89.8658 41.7941 89.6749 42.7551 89.573C42.7487 89.3248 42.6819 89.1117 42.5546 88.9335C42.4337 88.7489 42.2141 88.6566 41.8959 88.6566C41.6668 88.6566 41.4409 88.7012 41.2182 88.7903C41.0018 88.8794 40.7886 88.9876 40.5786 89.1148L40.1777 88.3798C40.4386 88.2143 40.7313 88.0712 41.0559 87.9502C41.3868 87.8293 41.7368 87.7689 42.106 87.7689C42.6914 87.7689 43.1274 87.9439 43.4137 88.2939C43.7065 88.6375 43.8528 89.1371 43.8528 89.7926V92.5704H42.946L42.8696 92.055H42.8314C42.6214 92.2331 42.3955 92.3827 42.1537 92.5036C41.9182 92.6245 41.6605 92.685 41.3805 92.685ZM41.7337 91.8259C41.9246 91.8259 42.0964 91.7813 42.2491 91.6922C42.4082 91.5968 42.5769 91.4695 42.7551 91.3104V90.2603C42.1187 90.3431 41.6764 90.4672 41.4282 90.6326C41.18 90.7917 41.0559 90.989 41.0559 91.2245C41.0559 91.4345 41.1195 91.5872 41.2468 91.6827C41.3741 91.7781 41.5364 91.8259 41.7337 91.8259ZM45.1666 92.5704V87.8834H46.0734L46.1498 88.523H46.188C46.3853 88.313 46.5985 88.1348 46.8276 87.9884C47.063 87.8421 47.3271 87.7689 47.6199 87.7689C47.9635 87.7689 48.2372 87.8452 48.4408 87.998C48.6508 88.1443 48.8099 88.348 48.9181 88.6089C49.1408 88.3671 49.3731 88.1666 49.615 88.0075C49.8631 87.8484 50.1336 87.7689 50.4264 87.7689C50.9227 87.7689 51.2887 87.9312 51.5241 88.2557C51.7596 88.5803 51.8773 89.0385 51.8773 89.6303V92.5704H50.77V89.7735C50.77 89.3853 50.7095 89.1117 50.5886 88.9526C50.4741 88.7935 50.2959 88.7139 50.0541 88.7139C49.7613 88.7139 49.4336 88.908 49.0708 89.2962V92.5704H47.9731V89.7735C47.9731 89.3853 47.9126 89.1117 47.7917 88.9526C47.6771 88.7935 47.4958 88.7139 47.2476 88.7139C46.9548 88.7139 46.6271 88.908 46.2644 89.2962V92.5704H45.1666ZM55.1303 92.685C54.7421 92.685 54.3794 92.5895 54.0421 92.3986C53.7048 92.2013 53.4311 91.9213 53.2211 91.5586C53.0111 91.1895 52.9061 90.7472 52.9061 90.2317C52.9061 89.7099 53.0111 89.2676 53.2211 88.9048C53.4311 88.5357 53.7048 88.2557 54.0421 88.0648C54.3794 87.8675 54.7421 87.7689 55.1303 87.7689C55.5249 87.7689 55.8908 87.8675 56.2281 88.0648C56.5653 88.2557 56.839 88.5357 57.049 88.9048C57.259 89.2676 57.364 89.7099 57.364 90.2317C57.364 90.7472 57.259 91.1895 57.049 91.5586C56.839 91.9213 56.5653 92.2013 56.2281 92.3986C55.8908 92.5895 55.5249 92.685 55.1303 92.685ZM55.1303 91.7877C55.4739 91.7877 55.7444 91.6445 55.9417 91.3581C56.139 91.0717 56.2376 90.6963 56.2376 90.2317C56.2376 89.7608 56.139 89.3821 55.9417 89.0957C55.7444 88.8094 55.4739 88.6662 55.1303 88.6662C54.7866 88.6662 54.5162 88.8094 54.3189 89.0957C54.128 89.3821 54.0325 89.7608 54.0325 90.2317C54.0325 90.6963 54.128 91.0717 54.3189 91.3581C54.5162 91.6445 54.7866 91.7877 55.1303 91.7877ZM59.7211 92.685C59.4029 92.685 59.0847 92.6245 58.7665 92.5036C58.4483 92.3763 58.1747 92.2204 57.9456 92.0359L58.461 91.3295C58.6711 91.4886 58.8811 91.6158 59.0911 91.7113C59.3011 91.8068 59.5238 91.8545 59.7593 91.8545C60.0138 91.8545 60.2016 91.8004 60.3225 91.6922C60.4434 91.584 60.5039 91.4504 60.5039 91.2913C60.5039 91.1576 60.4529 91.0495 60.3511 90.9667C60.2557 90.8776 60.1316 90.8013 59.9788 90.7376C59.8261 90.6676 59.667 90.6008 59.5015 90.5372C59.2979 90.4608 59.0943 90.3685 58.8906 90.2603C58.6933 90.1458 58.531 90.0026 58.4038 89.8308C58.2765 89.6526 58.2129 89.433 58.2129 89.1721C58.2129 88.7585 58.3656 88.4212 58.6711 88.1603C58.9765 87.8993 59.3902 87.7689 59.912 87.7689C60.2429 87.7689 60.5389 87.8261 60.7998 87.9407C61.0607 88.0552 61.2866 88.1857 61.4775 88.3321L60.9716 89.0003C60.8061 88.8794 60.6375 88.7839 60.4657 88.7139C60.3002 88.6375 60.1252 88.5994 59.9407 88.5994C59.7052 88.5994 59.5302 88.6503 59.4156 88.7521C59.3011 88.8476 59.2438 88.9685 59.2438 89.1148C59.2438 89.2994 59.3393 89.4394 59.5302 89.5349C59.7211 89.6303 59.9438 89.7226 60.1984 89.8117C60.4148 89.8881 60.6248 89.9835 60.8284 90.0981C61.0321 90.2062 61.2007 90.3494 61.3343 90.5276C61.4744 90.7058 61.5444 90.9413 61.5444 91.234C61.5444 91.6349 61.3884 91.9786 61.0766 92.265C60.7648 92.545 60.3129 92.685 59.7211 92.685ZM64.4354 94.4223V87.8834H65.3423L65.4186 88.3798H65.4568C65.6541 88.2143 65.8736 88.0712 66.1155 87.9502C66.3637 87.8293 66.615 87.7689 66.8696 87.7689C67.4551 87.7689 67.9069 87.9852 68.2251 88.418C68.5497 88.8507 68.7119 89.4299 68.7119 90.1553C68.7119 90.6899 68.6165 91.1481 68.4256 91.5299C68.2347 91.9054 67.9865 92.1918 67.681 92.3891C67.3819 92.5863 67.0573 92.685 66.7073 92.685C66.5037 92.685 66.3 92.6404 66.0964 92.5513C65.8927 92.4559 65.6955 92.3286 65.5045 92.1695L65.5332 92.9523V94.4223H64.4354ZM66.4782 91.7781C66.79 91.7781 67.051 91.6413 67.261 91.3677C67.471 91.094 67.576 90.6931 67.576 90.1649C67.576 89.694 67.4964 89.328 67.3373 89.0671C67.1782 88.8062 66.9205 88.6757 66.5641 88.6757C66.2332 88.6757 65.8896 88.8507 65.5332 89.2008V91.3867C65.705 91.5268 65.8705 91.6286 66.0296 91.6922C66.1887 91.7495 66.3382 91.7781 66.4782 91.7781ZM70.8477 92.685C70.4404 92.685 70.1063 92.5577 69.8454 92.3032C69.5908 92.0486 69.4635 91.7177 69.4635 91.3104C69.4635 90.8076 69.6831 90.4194 70.1222 90.1458C70.5613 89.8658 71.2613 89.6749 72.2223 89.573C72.2159 89.3248 72.1491 89.1117 72.0218 88.9335C71.9009 88.7489 71.6813 88.6566 71.3632 88.6566C71.1341 88.6566 70.9081 88.7012 70.6854 88.7903C70.469 88.8794 70.2558 88.9876 70.0458 89.1148L69.6449 88.3798C69.9058 88.2143 70.1986 88.0712 70.5231 87.9502C70.854 87.8293 71.2041 87.7689 71.5732 87.7689C72.1586 87.7689 72.5946 87.9439 72.8809 88.2939C73.1737 88.6375 73.3201 89.1371 73.3201 89.7926V92.5704H72.4132L72.3368 92.055H72.2986C72.0886 92.2331 71.8627 92.3827 71.6209 92.5036C71.3854 92.6245 71.1277 92.685 70.8477 92.685ZM71.2009 91.8259C71.3918 91.8259 71.5636 91.7813 71.7163 91.6922C71.8754 91.5968 72.0441 91.4695 72.2223 91.3104V90.2603C71.5859 90.3431 71.1436 90.4672 70.8954 90.6326C70.6472 90.7917 70.5231 90.989 70.5231 91.2245C70.5231 91.4345 70.5868 91.5872 70.714 91.6827C70.8413 91.7781 71.0036 91.8259 71.2009 91.8259ZM74.6338 92.5704V87.8834H75.5407L75.617 88.7139H75.6552C75.8207 88.4084 76.0211 88.1762 76.2566 88.0171C76.4921 87.8516 76.7339 87.7689 76.9821 87.7689C77.2048 87.7689 77.383 87.8007 77.5166 87.8643L77.3257 88.8189C77.243 88.7935 77.1666 88.7744 77.0966 88.7616C77.0266 88.7489 76.9407 88.7425 76.8389 88.7425C76.6543 88.7425 76.4602 88.8157 76.2566 88.9621C76.0529 89.1021 75.8779 89.3503 75.7316 89.7067V92.5704H74.6338ZM79.0791 92.685C78.6718 92.685 78.3377 92.5577 78.0768 92.3032C77.8222 92.0486 77.695 91.7177 77.695 91.3104C77.695 90.8076 77.9145 90.4194 78.3536 90.1458C78.7927 89.8658 79.4928 89.6749 80.4537 89.573C80.4473 89.3248 80.3805 89.1117 80.2532 88.9335C80.1323 88.7489 79.9128 88.6566 79.5946 88.6566C79.3655 88.6566 79.1396 88.7012 78.9168 88.7903C78.7005 88.8794 78.4873 88.9876 78.2773 89.1148L77.8763 88.3798C78.1372 88.2143 78.43 88.0712 78.7545 87.9502C79.0855 87.8293 79.4355 87.7689 79.8046 87.7689C80.3901 87.7689 80.826 87.9439 81.1124 88.2939C81.4051 88.6375 81.5515 89.1371 81.5515 89.7926V92.5704H80.6446L80.5683 92.055H80.5301C80.3201 92.2331 80.0941 92.3827 79.8523 92.5036C79.6169 92.6245 79.3591 92.685 79.0791 92.685ZM79.4323 91.8259C79.6232 91.8259 79.795 91.7813 79.9478 91.6922C80.1069 91.5968 80.2755 91.4695 80.4537 91.3104V90.2603C79.8173 90.3431 79.375 90.4672 79.1268 90.6326C78.8786 90.7917 78.7545 90.989 78.7545 91.2245C78.7545 91.4345 78.8182 91.5872 78.9455 91.6827C79.0727 91.7781 79.235 91.8259 79.4323 91.8259ZM85.8263 92.5704L84.194 87.8834H85.3108L86.0554 90.3176C86.119 90.5467 86.1827 90.779 86.2463 91.0145C86.3163 91.2499 86.3831 91.4886 86.4468 91.7304H86.485C86.555 91.4886 86.6218 91.2499 86.6854 91.0145C86.7554 90.779 86.8223 90.5467 86.8859 90.3176L87.6305 87.8834H88.6901L87.0959 92.5704H85.8263ZM91.3654 92.685C90.9772 92.685 90.6144 92.5895 90.2771 92.3986C89.9398 92.2013 89.6662 91.9213 89.4562 91.5586C89.2462 91.1895 89.1412 90.7472 89.1412 90.2317C89.1412 89.7099 89.2462 89.2676 89.4562 88.9048C89.6662 88.5357 89.9398 88.2557 90.2771 88.0648C90.6144 87.8675 90.9772 87.7689 91.3654 87.7689C91.7599 87.7689 92.1258 87.8675 92.4631 88.0648C92.8004 88.2557 93.0741 88.5357 93.2841 88.9048C93.4941 89.2676 93.5991 89.7099 93.5991 90.2317C93.5991 90.7472 93.4941 91.1895 93.2841 91.5586C93.0741 91.9213 92.8004 92.2013 92.4631 92.3986C92.1258 92.5895 91.7599 92.685 91.3654 92.685ZM91.3654 91.7877C91.709 91.7877 91.9795 91.6445 92.1768 91.3581C92.374 91.0717 92.4727 90.6963 92.4727 90.2317C92.4727 89.7608 92.374 89.3821 92.1768 89.0957C91.9795 88.8094 91.709 88.6662 91.3654 88.6662C91.0217 88.6662 90.7512 88.8094 90.554 89.0957C90.363 89.3821 90.2676 89.7608 90.2676 90.2317C90.2676 90.6963 90.363 91.0717 90.554 91.3581C90.7512 91.6445 91.0217 91.7877 91.3654 91.7877ZM96.6426 92.685C96.2162 92.685 95.8312 92.5895 95.4875 92.3986C95.1502 92.2013 94.8798 91.9213 94.6761 91.5586C94.4788 91.1895 94.3802 90.7472 94.3802 90.2317C94.3802 89.7099 94.4884 89.2676 94.7048 88.9048C94.9211 88.5357 95.2075 88.2557 95.5639 88.0648C95.9266 87.8675 96.3148 87.7689 96.7285 87.7689C97.0276 87.7689 97.2885 87.8198 97.5112 87.9216C97.734 88.0234 97.9313 88.1475 98.1031 88.2939L97.5685 89.0098C97.4476 88.9016 97.3235 88.8189 97.1962 88.7616C97.0689 88.698 96.9321 88.6662 96.7858 88.6662C96.4103 88.6662 96.1016 88.8094 95.8598 89.0957C95.6243 89.3821 95.5066 89.7608 95.5066 90.2317C95.5066 90.6963 95.6212 91.0717 95.8503 91.3581C96.0857 91.6445 96.388 91.7877 96.7571 91.7877C96.9417 91.7877 97.1135 91.7495 97.2726 91.6731C97.4381 91.5904 97.5876 91.4949 97.7212 91.3867L98.1699 92.1122C97.9535 92.3032 97.7117 92.4463 97.4444 92.5418C97.1771 92.6373 96.9099 92.685 96.6426 92.685ZM100.867 92.685C100.434 92.685 100.042 92.5895 99.6925 92.3986C99.3425 92.2013 99.0656 91.9213 98.862 91.5586C98.6583 91.1895 98.5565 90.7472 98.5565 90.2317C98.5565 89.7226 98.6583 89.2835 98.862 88.9144C99.072 88.5453 99.3425 88.2621 99.6734 88.0648C100.004 87.8675 100.351 87.7689 100.714 87.7689C101.14 87.7689 101.497 87.8643 101.783 88.0552C102.069 88.2398 102.286 88.5007 102.432 88.838C102.578 89.1689 102.652 89.5539 102.652 89.9931C102.652 90.2222 102.636 90.4003 102.604 90.5276H99.6256C99.6766 90.9413 99.8261 91.2627 100.074 91.4918C100.322 91.7209 100.634 91.8354 101.01 91.8354C101.213 91.8354 101.401 91.8068 101.573 91.7495C101.751 91.6859 101.926 91.5999 102.098 91.4918L102.47 92.1791C102.248 92.3254 101.999 92.4463 101.726 92.5418C101.452 92.6373 101.166 92.685 100.867 92.685ZM99.6161 89.783H101.697C101.697 89.4203 101.618 89.1371 101.458 88.9335C101.299 88.7235 101.061 88.6185 100.743 88.6185C100.469 88.6185 100.224 88.7203 100.007 88.9239C99.7975 89.1212 99.667 89.4076 99.6161 89.783ZM99.0911 86.7761L100.151 85.4874H101.258L102.318 86.7761L101.888 87.1866L100.723 86.2034H100.685L99.5206 87.1866L99.0911 86.7761ZM104.321 89.4203C104.123 89.4203 103.955 89.3503 103.815 89.2103C103.675 89.0703 103.605 88.8921 103.605 88.6757C103.605 88.4594 103.675 88.2812 103.815 88.1412C103.955 88.0012 104.123 87.9312 104.321 87.9312C104.524 87.9312 104.693 88.0012 104.827 88.1412C104.96 88.2812 105.027 88.4594 105.027 88.6757C105.027 88.8921 104.96 89.0703 104.827 89.2103C104.693 89.3503 104.524 89.4203 104.321 89.4203ZM104.321 92.685C104.123 92.685 103.955 92.615 103.815 92.475C103.675 92.335 103.605 92.1568 103.605 91.9404C103.605 91.724 103.675 91.5458 103.815 91.4058C103.955 91.2658 104.123 91.1958 104.321 91.1958C104.524 91.1958 104.693 91.2658 104.827 91.4058C104.96 91.5458 105.027 91.724 105.027 91.9404C105.027 92.1568 104.96 92.335 104.827 92.475C104.693 92.615 104.524 92.685 104.321 92.685Z" fill="#B89FEA"/>
<path d="M16.9355 104.57V96.6491H18.77L20.8354 100.585L21.613 102.335H21.6616C21.6292 101.914 21.5846 101.444 21.5279 100.926C21.4712 100.407 21.4429 99.9132 21.4429 99.4434V96.6491H23.1438V104.57H21.3092L19.2439 100.622L18.4663 98.8967H18.4177C18.4582 99.3341 18.5027 99.8039 18.5513 100.306C18.608 100.808 18.6364 101.294 18.6364 101.764V104.57H16.9355ZM26.6797 104.716C26.0236 104.716 25.5457 104.502 25.2461 104.072C24.9545 103.635 24.8087 103.04 24.8087 102.286V98.5444H26.5946V102.056C26.5946 102.485 26.6554 102.784 26.7769 102.955C26.8984 103.117 27.0887 103.198 27.3479 103.198C27.5747 103.198 27.765 103.145 27.9189 103.04C28.0728 102.934 28.2388 102.764 28.417 102.529V98.5444H30.203V104.57H28.745L28.6114 103.732H28.575C28.3239 104.032 28.0485 104.271 27.7488 104.449C27.4491 104.627 27.0927 104.716 26.6797 104.716ZM34.0951 104.716C33.3499 104.716 32.8154 104.502 32.4914 104.072C32.1755 103.643 32.0176 103.08 32.0176 102.384V99.9416H31.1914V98.6173L32.1148 98.5444L32.3213 96.9407H33.8035V98.5444H35.2493V99.9416H33.8035V102.359C33.8035 102.699 33.8724 102.946 34.01 103.1C34.1558 103.246 34.3462 103.319 34.5811 103.319C34.6783 103.319 34.7754 103.307 34.8726 103.283C34.9779 103.258 35.0711 103.23 35.1521 103.198L35.4315 104.498C35.2776 104.546 35.0873 104.595 34.8605 104.643C34.6418 104.692 34.3867 104.716 34.0951 104.716ZM36.4255 104.57V98.5444H37.8834L38.0049 99.6014H38.0535C38.2722 99.1964 38.5354 98.8967 38.8432 98.7023C39.151 98.4999 39.4587 98.3986 39.7665 98.3986C39.9366 98.3986 40.0783 98.4108 40.1917 98.4351C40.3051 98.4513 40.4023 98.4796 40.4833 98.5201L40.1917 100.063C40.0864 100.031 39.9812 100.006 39.8759 99.9902C39.7787 99.974 39.6653 99.9659 39.5357 99.9659C39.3089 99.9659 39.07 100.051 38.8189 100.221C38.5759 100.383 38.3734 100.666 38.2114 101.071V104.57H36.4255ZM41.2662 104.57V98.5444H43.0521V104.57H41.2662ZM42.1531 97.6575C41.8534 97.6575 41.6104 97.5725 41.4241 97.4024C41.2378 97.2323 41.1447 97.0055 41.1447 96.722C41.1447 96.4385 41.2378 96.2117 41.4241 96.0417C41.6104 95.8716 41.8534 95.7865 42.1531 95.7865C42.4528 95.7865 42.6958 95.8716 42.882 96.0417C43.0683 96.2117 43.1615 96.4385 43.1615 96.722C43.1615 97.0055 43.0683 97.2323 42.882 97.4024C42.6958 97.5725 42.4528 97.6575 42.1531 97.6575ZM47.2481 104.716C46.6892 104.716 46.183 104.595 45.7294 104.352C45.284 104.101 44.9276 103.74 44.6603 103.27C44.4011 102.793 44.2715 102.222 44.2715 101.557C44.2715 100.885 44.4173 100.314 44.7089 99.8444C45.0005 99.3746 45.3852 99.0182 45.8631 98.7752C46.3409 98.5242 46.8553 98.3986 47.406 98.3986C47.7786 98.3986 48.1066 98.4594 48.3901 98.5808C48.6817 98.7023 48.9409 98.8562 49.1677 99.0425L48.3294 100.197C48.0459 99.9618 47.7746 99.8444 47.5154 99.8444C47.0861 99.8444 46.7419 99.9983 46.4827 100.306C46.2316 100.614 46.1061 101.031 46.1061 101.557C46.1061 102.076 46.2316 102.493 46.4827 102.809C46.7419 103.117 47.0658 103.27 47.4546 103.27C47.649 103.27 47.8393 103.23 48.0256 103.149C48.2119 103.06 48.382 102.955 48.5359 102.833L49.2406 103.999C48.9409 104.259 48.6169 104.445 48.2686 104.558C47.9203 104.664 47.5802 104.716 47.2481 104.716ZM50.2951 104.57V98.5444H52.081V104.57H50.2951ZM51.182 97.6575C50.8823 97.6575 50.6393 97.5725 50.453 97.4024C50.2667 97.2323 50.1736 97.0055 50.1736 96.722C50.1736 96.4385 50.2667 96.2117 50.453 96.0417C50.6393 95.8716 50.8823 95.7865 51.182 95.7865C51.4817 95.7865 51.7246 95.8716 51.9109 96.0417C52.0972 96.2117 52.1904 96.4385 52.1904 96.722C52.1904 97.0055 52.0972 97.2323 51.9109 97.4024C51.7246 97.5725 51.4817 97.6575 51.182 97.6575ZM56.2405 104.716C55.7303 104.716 55.2483 104.595 54.7948 104.352C54.3493 104.101 53.9889 103.74 53.7135 103.27C53.4381 102.793 53.3004 102.222 53.3004 101.557C53.3004 100.885 53.4381 100.314 53.7135 99.8444C53.9889 99.3746 54.3493 99.0182 54.7948 98.7752C55.2483 98.5242 55.7303 98.3986 56.2405 98.3986C56.7508 98.3986 57.2287 98.5242 57.6741 98.7752C58.1196 99.0182 58.48 99.3746 58.7554 99.8444C59.0308 100.314 59.1685 100.885 59.1685 101.557C59.1685 102.222 59.0308 102.793 58.7554 103.27C58.48 103.74 58.1196 104.101 57.6741 104.352C57.2287 104.595 56.7508 104.716 56.2405 104.716ZM56.2405 103.27C56.605 103.27 56.8804 103.117 57.0667 102.809C57.253 102.493 57.3461 102.076 57.3461 101.557C57.3461 101.031 57.253 100.614 57.0667 100.306C56.8804 99.9983 56.605 99.8444 56.2405 99.8444C55.868 99.8444 55.5885 99.9983 55.4022 100.306C55.224 100.614 55.1349 101.031 55.1349 101.557C55.1349 102.076 55.224 102.493 55.4022 102.809C55.5885 103.117 55.868 103.27 56.2405 103.27ZM60.3918 104.57V98.5444H61.8497L61.9712 99.3098H62.0198C62.279 99.0668 62.5624 98.8562 62.8702 98.678C63.1861 98.4918 63.5465 98.3986 63.9515 98.3986C64.6076 98.3986 65.0814 98.6173 65.373 99.0547C65.6727 99.4839 65.8225 100.075 65.8225 100.828V104.57H64.0366V101.059C64.0366 100.622 63.9758 100.322 63.8543 100.16C63.7409 99.9983 63.5546 99.9173 63.2955 99.9173C63.0687 99.9173 62.8743 99.9699 62.7123 100.075C62.5503 100.172 62.3721 100.314 62.1777 100.5V104.57H60.3918ZM67.3444 104.57V98.5444H69.1303V104.57H67.3444ZM68.2313 97.6575C67.9316 97.6575 67.6886 97.5725 67.5023 97.4024C67.316 97.2323 67.2229 97.0055 67.2229 96.722C67.2229 96.4385 67.316 96.2117 67.5023 96.0417C67.6886 95.8716 67.9316 95.7865 68.2313 95.7865C68.531 95.7865 68.7739 95.8716 68.9602 96.0417C69.1465 96.2117 69.2397 96.4385 69.2397 96.722C69.2397 97.0055 69.1465 97.2323 68.9602 97.4024C68.7739 97.5725 68.531 97.6575 68.2313 97.6575ZM72.4758 104.716C72.079 104.716 71.6699 104.639 71.2488 104.485C70.8357 104.331 70.4753 104.129 70.1675 103.878L70.9693 102.76C71.2447 102.963 71.5079 103.121 71.759 103.234C72.0182 103.339 72.2733 103.392 72.5244 103.392C72.7917 103.392 72.9861 103.347 73.1076 103.258C73.2291 103.161 73.2898 103.036 73.2898 102.882C73.2898 102.744 73.2291 102.631 73.1076 102.542C72.9942 102.452 72.8444 102.371 72.6581 102.299C72.4718 102.218 72.2733 102.137 72.0628 102.056C71.8198 101.958 71.5768 101.837 71.3338 101.691C71.0989 101.545 70.9005 101.359 70.7385 101.132C70.5765 100.897 70.4955 100.614 70.4955 100.282C70.4955 99.7229 70.7061 99.2693 71.1273 98.921C71.5565 98.5727 72.1154 98.3986 72.8039 98.3986C73.2655 98.3986 73.6705 98.4796 74.0188 98.6416C74.3752 98.7955 74.6789 98.9696 74.93 99.164L74.1281 100.233C73.9175 100.071 73.707 99.9456 73.4964 99.8565C73.2858 99.7674 73.0752 99.7229 72.8646 99.7229C72.4029 99.7229 72.1721 99.8808 72.1721 100.197C72.1721 100.391 72.2855 100.541 72.5123 100.646C72.7472 100.743 73.0185 100.849 73.3263 100.962C73.5855 101.051 73.8365 101.169 74.0795 101.314C74.3306 101.452 74.5372 101.638 74.6991 101.873C74.8692 102.1 74.9543 102.4 74.9543 102.772C74.9543 103.315 74.7437 103.777 74.3225 104.157C73.9013 104.53 73.2858 104.716 72.4758 104.716ZM78.1717 104.716C77.4266 104.716 76.892 104.502 76.568 104.072C76.2522 103.643 76.0942 103.08 76.0942 102.384V99.9416H75.2681V98.6173L76.1914 98.5444L76.398 96.9407H77.8802V98.5444H79.3259V99.9416H77.8802V102.359C77.8802 102.699 77.949 102.946 78.0867 103.1C78.2325 103.246 78.4228 103.319 78.6577 103.319C78.7549 103.319 78.8521 103.307 78.9493 103.283C79.0546 103.258 79.1477 103.23 79.2287 103.198L79.5082 104.498C79.3543 104.546 79.1639 104.595 78.9372 104.643C78.7185 104.692 78.4633 104.716 78.1717 104.716ZM81.7835 104.716C81.2327 104.716 80.7954 104.542 80.4714 104.194C80.1474 103.837 79.9854 103.404 79.9854 102.894C79.9854 102.262 80.2527 101.768 80.7873 101.412C81.3218 101.055 82.1844 100.816 83.375 100.695C83.3588 100.428 83.2779 100.217 83.1321 100.063C82.9944 99.9011 82.7595 99.8201 82.4274 99.8201C82.1763 99.8201 81.9212 99.8687 81.662 99.9659C81.4028 100.063 81.1274 100.197 80.8359 100.367L80.1919 99.1883C80.5726 98.9534 80.9776 98.7631 81.4069 98.6173C81.8442 98.4715 82.2978 98.3986 82.7676 98.3986C83.537 98.3986 84.1283 98.6213 84.5414 99.0668C84.9545 99.5123 85.161 100.197 85.161 101.12V104.57H83.7031L83.5816 103.951H83.533C83.2819 104.178 83.0106 104.364 82.719 104.51C82.4355 104.647 82.1237 104.716 81.7835 104.716ZM82.391 103.331C82.5934 103.331 82.7676 103.287 82.9134 103.198C83.0673 103.1 83.2212 102.975 83.375 102.821V101.764C82.7433 101.845 82.3059 101.975 82.0629 102.153C81.8199 102.323 81.6985 102.525 81.6985 102.76C81.6985 102.955 81.7592 103.1 81.8807 103.198C82.0103 103.287 82.1804 103.331 82.391 103.331ZM88.4455 104.716C88.0486 104.716 87.6396 104.639 87.2184 104.485C86.8053 104.331 86.4449 104.129 86.1371 103.878L86.939 102.76C87.2143 102.963 87.4776 103.121 87.7287 103.234C87.9878 103.339 88.243 103.392 88.4941 103.392C88.7613 103.392 88.9557 103.347 89.0772 103.258C89.1987 103.161 89.2595 103.036 89.2595 102.882C89.2595 102.744 89.1987 102.631 89.0772 102.542C88.9638 102.452 88.814 102.371 88.6277 102.299C88.4414 102.218 88.243 102.137 88.0324 102.056C87.7894 101.958 87.5464 101.837 87.3034 101.691C87.0686 101.545 86.8701 101.359 86.7081 101.132C86.5461 100.897 86.4651 100.614 86.4651 100.282C86.4651 99.7229 86.6757 99.2693 87.0969 98.921C87.5262 98.5727 88.085 98.3986 88.7735 98.3986C89.2352 98.3986 89.6401 98.4796 89.9884 98.6416C90.3448 98.7955 90.6485 98.9696 90.8996 99.164L90.0978 100.233C89.8872 100.071 89.6766 99.9456 89.466 99.8565C89.2554 99.7674 89.0448 99.7229 88.8342 99.7229C88.3726 99.7229 88.1417 99.8808 88.1417 100.197C88.1417 100.391 88.2551 100.541 88.4819 100.646C88.7168 100.743 88.9881 100.849 89.2959 100.962C89.5551 101.051 89.8062 101.169 90.0492 101.314C90.3003 101.452 90.5068 101.638 90.6688 101.873C90.8389 102.1 90.9239 102.4 90.9239 102.772C90.9239 103.315 90.7133 103.777 90.2922 104.157C89.871 104.53 89.2554 104.716 88.4455 104.716ZM94.5876 104.57V98.6051H95.9847V104.57H94.5876ZM95.2922 97.5603C95.0412 97.5603 94.8387 97.4874 94.6848 97.3416C94.5309 97.1958 94.4539 97.0014 94.4539 96.7585C94.4539 96.5236 94.5309 96.3332 94.6848 96.1874C94.8387 96.0417 95.0412 95.9688 95.2922 95.9688C95.5433 95.9688 95.7458 96.0417 95.8997 96.1874C96.0536 96.3332 96.1305 96.5236 96.1305 96.7585C96.1305 97.0014 96.0536 97.1958 95.8997 97.3416C95.7458 97.4874 95.5433 97.5603 95.2922 97.5603ZM97.7673 104.57V98.6051H98.9214L99.0186 99.407H99.0672C99.3345 99.1478 99.6261 98.9251 99.942 98.7388C100.258 98.5525 100.618 98.4594 101.023 98.4594C101.663 98.4594 102.129 98.6659 102.42 99.079C102.712 99.492 102.858 100.075 102.858 100.828V104.57H101.461V101.011C101.461 100.517 101.388 100.168 101.242 99.9659C101.096 99.7634 100.857 99.6621 100.525 99.6621C100.266 99.6621 100.035 99.7269 99.8326 99.8565C99.6383 99.978 99.4155 100.16 99.1644 100.403V104.57H97.7673ZM107.056 104.716C106.514 104.716 106.024 104.595 105.586 104.352C105.157 104.101 104.813 103.744 104.553 103.283C104.302 102.813 104.177 102.25 104.177 101.594C104.177 100.93 104.315 100.367 104.59 99.9051C104.865 99.4353 105.23 99.079 105.683 98.836C106.145 98.5849 106.639 98.4594 107.166 98.4594C107.546 98.4594 107.878 98.5242 108.162 98.6537C108.445 98.7833 108.696 98.9413 108.915 99.1276L108.235 100.039C108.081 99.9011 107.923 99.7958 107.761 99.7229C107.599 99.6419 107.425 99.6014 107.238 99.6014C106.761 99.6014 106.368 99.7836 106.06 100.148C105.76 100.513 105.61 100.995 105.61 101.594C105.61 102.185 105.756 102.663 106.048 103.027C106.348 103.392 106.732 103.574 107.202 103.574C107.437 103.574 107.656 103.526 107.858 103.428C108.069 103.323 108.259 103.202 108.429 103.064L109 103.987C108.725 104.23 108.417 104.412 108.077 104.534C107.737 104.655 107.396 104.716 107.056 104.716ZM110.178 104.57V98.6051H111.332L111.429 99.6621H111.478C111.688 99.2734 111.943 98.9777 112.243 98.7752C112.543 98.5647 112.85 98.4594 113.166 98.4594C113.45 98.4594 113.677 98.4999 113.847 98.5808L113.604 99.7958C113.498 99.7634 113.401 99.7391 113.312 99.7229C113.223 99.7067 113.114 99.6986 112.984 99.6986C112.749 99.6986 112.502 99.7917 112.243 99.978C111.984 100.156 111.761 100.472 111.575 100.926V104.57H110.178ZM114.71 104.57V98.6051H116.107V104.57H114.71ZM115.39 97.6089L114.698 96.9164L116.484 94.8024L117.456 95.7258L115.39 97.6089ZM119.226 104.57L117.148 98.6051H118.57L119.517 101.703C119.598 101.995 119.679 102.29 119.76 102.59C119.85 102.89 119.935 103.194 120.016 103.501H120.064C120.153 103.194 120.238 102.89 120.319 102.59C120.408 102.29 120.493 101.995 120.574 101.703L121.522 98.6051H122.871L120.842 104.57H119.226ZM126.385 104.716C125.834 104.716 125.336 104.595 124.891 104.352C124.445 104.101 124.093 103.744 123.834 103.283C123.574 102.813 123.445 102.25 123.445 101.594C123.445 100.946 123.574 100.387 123.834 99.9173C124.101 99.4475 124.445 99.0871 124.866 98.836C125.287 98.5849 125.729 98.4594 126.191 98.4594C126.733 98.4594 127.187 98.5808 127.551 98.8238C127.916 99.0587 128.191 99.3908 128.377 99.8201C128.564 100.241 128.657 100.731 128.657 101.29C128.657 101.582 128.637 101.809 128.596 101.97H124.806C124.87 102.497 125.061 102.906 125.377 103.198C125.692 103.489 126.089 103.635 126.567 103.635C126.826 103.635 127.065 103.598 127.284 103.526C127.511 103.445 127.734 103.335 127.952 103.198L128.426 104.072C128.143 104.259 127.827 104.412 127.478 104.534C127.13 104.655 126.766 104.716 126.385 104.716ZM124.793 101.023H127.442C127.442 100.561 127.341 100.201 127.138 99.9416C126.936 99.6743 126.632 99.5406 126.227 99.5406C125.879 99.5406 125.567 99.6702 125.292 99.9294C125.024 100.181 124.858 100.545 124.793 101.023ZM129.991 104.57V98.6051H131.388V104.57H129.991ZM130.696 97.5603C130.445 97.5603 130.242 97.4874 130.088 97.3416C129.935 97.1958 129.858 97.0014 129.858 96.7585C129.858 96.5236 129.935 96.3332 130.088 96.1874C130.242 96.0417 130.445 95.9688 130.696 95.9688C130.947 95.9688 131.15 96.0417 131.303 96.1874C131.457 96.3332 131.534 96.5236 131.534 96.7585C131.534 97.0014 131.457 97.1958 131.303 97.3416C131.15 97.4874 130.947 97.5603 130.696 97.5603ZM134.835 104.716C134.43 104.716 134.025 104.639 133.62 104.485C133.216 104.323 132.867 104.125 132.576 103.89L133.232 102.991C133.499 103.194 133.766 103.356 134.034 103.477C134.301 103.598 134.584 103.659 134.884 103.659C135.208 103.659 135.447 103.59 135.601 103.453C135.755 103.315 135.832 103.145 135.832 102.942C135.832 102.772 135.767 102.635 135.637 102.529C135.516 102.416 135.358 102.319 135.163 102.238C134.969 102.149 134.767 102.064 134.556 101.983C134.297 101.885 134.038 101.768 133.778 101.63C133.527 101.485 133.321 101.302 133.159 101.084C132.997 100.857 132.916 100.577 132.916 100.245C132.916 99.7188 133.11 99.2896 133.499 98.9575C133.888 98.6254 134.414 98.4594 135.078 98.4594C135.5 98.4594 135.876 98.5323 136.208 98.678C136.54 98.8238 136.828 98.9899 137.071 99.1762L136.427 100.027C136.216 99.8727 136.002 99.7512 135.783 99.6621C135.572 99.5649 135.35 99.5163 135.115 99.5163C134.815 99.5163 134.592 99.5811 134.447 99.7107C134.301 99.8322 134.228 99.9861 134.228 100.172C134.228 100.407 134.349 100.585 134.592 100.707C134.835 100.828 135.119 100.946 135.443 101.059C135.718 101.156 135.986 101.278 136.245 101.424C136.504 101.561 136.719 101.744 136.889 101.97C137.067 102.197 137.156 102.497 137.156 102.87C137.156 103.38 136.957 103.817 136.561 104.182C136.164 104.538 135.589 104.716 134.835 104.716Z" fill="#EEE6FC"/>
<path d="M271.977 20.6949C258.312 -2.1586 237.943 11.1527 236.425 20.6949C221.545 18.9369 215.42 33.1472 215.04 40.472C208.395 38.5138 198.394 45.978 197.328 58.6177C196.263 71.2575 205.298 79.8612 220.354 76.9497C228.857 94.1777 247.684 88.23 256.034 83.1026C273.04 99.979 284.629 83.9816 288.299 73.8733C290.829 75.4847 297.56 77.3013 304.241 71.6758C320.923 54.2228 305.36 35.3247 292.853 36.5166C289.817 21.7497 277.67 19.8159 271.977 20.6949Z" fill="#EEE6FC"/>
<path fill-rule="evenodd" clip-rule="evenodd" d="M197.398 57.9128C198.631 67.9716 207.192 74.2269 220.354 71.6817C228.857 88.9097 247.684 82.9619 256.034 77.8345C273.04 94.711 284.629 78.7135 288.299 68.6052C290.829 70.2167 297.56 72.0332 304.241 66.4078C308.556 61.8935 310.713 57.2826 311.325 52.9476C312.141 58.676 310.361 65.2731 304.241 71.6758C297.56 77.3012 290.829 75.4847 288.298 73.8732C284.629 83.9815 273.039 99.979 256.034 83.1025C247.684 88.2299 228.857 94.1777 220.354 76.9496C205.298 79.8611 196.262 71.2574 197.328 58.6177C197.348 58.3809 197.371 58.1459 197.398 57.9128Z" fill="#B89FEA"/>
<path d="M268.214 35.3747C254.567 32.2635 244.629 33.7939 240.429 35.2476C239.91 35.4273 239.757 36.0682 240.096 36.5008C252.854 52.7969 264.097 43.9465 268.74 36.6047C269.044 36.1241 268.769 35.501 268.214 35.3747Z" fill="white"/>
<path d="M247.346 23.0131V29.4833" stroke="#241249" stroke-width="2.06041" stroke-linecap="round" stroke-linejoin="round"/>
<path d="M261.498 23.0131V29.4833" stroke="#241249" stroke-width="2.06041" stroke-linecap="round" stroke-linejoin="round"/>
<path d="M261.498 23.0131V29.4833" stroke="#241249" stroke-width="2.06041" stroke-linecap="round" stroke-linejoin="round"/>
<path d="M233.977 74.873C232.659 87.4718 232.571 119.349 242.767 146.071C237.493 143.434 234.856 142.818 231.34 142.115" stroke="#241249" stroke-width="2.06041" stroke-linecap="round" stroke-linejoin="round"/>
<path d="M273.531 74.873C274.849 87.4718 274.937 119.349 264.741 146.071C270.015 143.434 272.652 142.818 276.168 142.115" stroke="#241249" stroke-width="2.06041" stroke-linecap="round" stroke-linejoin="round"/>
<path d="M294.397 44.9104C304.418 53.0552 315.5 70.859 313.693 79.8411C311.885 88.8232 299.143 81.1623 289.413 69.9324C289.682 72.0149 289.711 76.9446 287.674 80.0027" stroke="#241249" stroke-width="2.06041" stroke-linecap="round" stroke-linejoin="round"/>
<path d="M217.184 48.0513C210.405 59.0431 194.186 72.3365 185.045 71.7066C175.905 71.0768 181.852 57.4504 191.728 46.3488C189.697 46.885 184.813 47.5516 181.517 45.928" stroke="#241249" stroke-width="2.06041" stroke-linecap="round" stroke-linejoin="round"/>
<path d="M164.94 22.4649C168.89 38.6731 184.226 62.9172 213.973 30.2285C206.618 25.0528 186.515 16.2541 164.94 22.4649Z" fill="#ECF5DF"/>
<ellipse cx="173.509" cy="24.8209" rx="4.81384" ry="2.45165" transform="rotate(5.06623 173.509 24.8209)" fill="#67A011"/>
<ellipse cx="183.899" cy="26.5622" rx="4.81384" ry="2.45165" transform="rotate(5.06623 183.899 26.5622)" fill="#84CC16"/>
<ellipse cx="182.81" cy="28.927" rx="2.18811" ry="2.45165" transform="rotate(5.06623 182.81 28.927)" fill="#84CC16"/>
<ellipse cx="177.652" cy="27.6492" rx="4.81384" ry="2.45165" transform="rotate(5.06623 177.652 27.6492)" fill="#84CC16"/>
<ellipse cx="178.848" cy="24.0636" rx="4.81384" ry="3.67748" transform="rotate(5.06623 178.848 24.0636)" fill="#84CC16"/>
<ellipse cx="197.105" cy="27.7834" rx="4.07325" ry="2.07448" transform="rotate(5.06623 197.105 27.7834)" fill="#84CC16"/>
<ellipse cx="205.896" cy="29.2569" rx="4.07325" ry="2.07448" transform="rotate(5.06623 205.896 29.2569)" fill="#84CC16"/>
<ellipse cx="204.975" cy="31.2579" rx="1.85148" ry="2.07448" transform="rotate(5.06623 204.975 31.2579)" fill="#67A011"/>
<ellipse cx="200.61" cy="30.1767" rx="4.07325" ry="2.07448" transform="rotate(5.06623 200.61 30.1767)" fill="#84CC16"/>
<ellipse cx="201.623" cy="27.1427" rx="4.07325" ry="3.11172" transform="rotate(5.06623 201.623 27.1427)" fill="#84CC16"/>
<ellipse cx="5.18229" cy="2.64132" rx="5.18229" ry="2.64132" transform="matrix(-0.999825 -0.0187298 0.00852345 -0.999964 203.101 28.0377)" fill="#67A011"/>
<ellipse cx="5.18229" cy="2.64132" rx="5.18229" ry="2.64132" transform="matrix(-0.999825 -0.0187298 0.00852345 -0.999964 191.803 26.9584)" fill="#67A011"/>
<ellipse cx="2.35559" cy="2.64132" rx="2.35559" ry="2.64132" transform="matrix(-0.999825 -0.0187298 0.00852345 -0.999964 189.942 24.269)" fill="#84CC16"/>
<ellipse cx="5.18229" cy="2.64132" rx="5.18229" ry="2.64132" transform="matrix(-0.999825 -0.0187298 0.00852345 -0.999964 198.413 25.3085)" fill="#84CC16"/>
<ellipse cx="5.18229" cy="3.96198" rx="5.18229" ry="3.96198" transform="matrix(-0.999825 -0.0187298 0.00852345 -0.999964 197.426 30.5731)" fill="#84CC16"/>
<circle cx="175.155" cy="23.189" r="1.22583" fill="#FF2026"/>
<ellipse cx="204.575" cy="26.8664" rx="1.22583" ry="1.63444" fill="#FF2026"/>
<ellipse cx="192.725" cy="26.4578" rx="1.63444" ry="1.22583" fill="#FF2026"/>
<ellipse cx="182.102" cy="26.4706" rx="1.63444" ry="2.04305" fill="#FF2026"/>
<path d="M178.016 25.2319L175.564 26.8664" stroke="#FF7A16" stroke-width="0.796659" stroke-linecap="round"/>
<path d="M198.446 26.0492L195.994 27.6836" stroke="#FF7A16" stroke-width="0.796659" stroke-linecap="round"/>
<path d="M193.543 19.5114L191.091 21.1458" stroke="#FF7A16" stroke-width="0.796659" stroke-linecap="round"/>
<path d="M187.822 22.7803L189.308 24.6026" stroke="#FF7A16" stroke-width="0.796659" stroke-linecap="round"/>
<path d="M202.532 29.3181L204.018 31.1403" stroke="#FF7A16" stroke-width="0.796659" stroke-linecap="round"/>
<path d="M200.898 22.7803L202.384 24.6026" stroke="#FF7A16" stroke-width="0.796659" stroke-linecap="round"/>
<path d="M170.661 22.7803L172.146 24.6026" stroke="#FF7A16" stroke-width="0.796659" stroke-linecap="round"/>
<path d="M187.005 27.6837L184.553 29.3181" stroke="#FF7A16" stroke-width="0.796659" stroke-linecap="round"/>
<path d="M178.833 21.1459L176.381 22.7804" stroke="#FF7A16" stroke-width="0.796659" stroke-linecap="round"/>
</g>
<defs>
<radialGradient id="paint0_radial_3471_124" cx="0" cy="0" r="1" gradientUnits="userSpaceOnUse" gradientTransform="translate(53.4783 100.5) rotate(-18.673) scale(236.24 254.495)">
<stop offset="0.341373" stop-color="#3A1B76"/>
<stop offset="1" stop-color="#874FFF"/>
</radialGradient>
<clipPath id="clip0_3471_124">
<rect y="0.5" width="328" height="120" rx="9" fill="white"/>
</clipPath>
</defs>
</svg>
