<svg width="328" height="108" viewBox="0 0 328 108" fill="none" xmlns="http://www.w3.org/2000/svg">
<g clip-path="url(#clip0_1416_8321)">
<rect width="328" height="108" rx="8" fill="white"/>
<path d="M19.248 34.128L18.752 35.728H21.904L21.408 34.128C21.216 33.5413 21.0347 32.96 20.864 32.384C20.6933 31.7973 20.5227 31.2 20.352 30.592H20.288C20.128 31.2 19.9627 31.7973 19.792 32.384C19.6213 32.96 19.44 33.5413 19.248 34.128ZM16.048 40L19.6 29.504H21.104L24.656 40H23.232L22.24 36.8H18.416L17.408 40H16.048ZM28.6391 43.584C27.6898 43.584 26.9165 43.4027 26.3191 43.04C25.7218 42.6773 25.4231 42.16 25.4231 41.488C25.4231 41.1573 25.5245 40.8373 25.7271 40.528C25.9298 40.2293 26.2071 39.9627 26.5591 39.728V39.664C26.3671 39.5467 26.2018 39.3813 26.0631 39.168C25.9351 38.9547 25.8711 38.6987 25.8711 38.4C25.8711 38.0693 25.9618 37.7813 26.1431 37.536C26.3245 37.2907 26.5165 37.0987 26.7191 36.96V36.896C26.4631 36.6827 26.2285 36.3947 26.0151 36.032C25.8125 35.6693 25.7111 35.2587 25.7111 34.8C25.7111 34.2347 25.8445 33.744 26.1111 33.328C26.3778 32.912 26.7351 32.592 27.1831 32.368C27.6311 32.144 28.1165 32.032 28.6391 32.032C28.8525 32.032 29.0551 32.0533 29.2471 32.096C29.4391 32.128 29.6045 32.1707 29.7431 32.224H32.4471V33.232H30.8471C31.0285 33.4027 31.1778 33.632 31.2951 33.92C31.4231 34.1973 31.4871 34.5013 31.4871 34.832C31.4871 35.3867 31.3591 35.8667 31.1031 36.272C30.8471 36.6773 30.5058 36.992 30.0791 37.216C29.6525 37.4293 29.1725 37.536 28.6391 37.536C28.2231 37.536 27.8338 37.4453 27.4711 37.264C27.3325 37.3813 27.2151 37.5147 27.1191 37.664C27.0231 37.8027 26.9751 37.9787 26.9751 38.192C26.9751 38.4373 27.0711 38.64 27.2631 38.8C27.4658 38.96 27.8285 39.04 28.3511 39.04H29.8551C30.7618 39.04 31.4391 39.1893 31.8871 39.488C32.3458 39.776 32.5751 40.2453 32.5751 40.896C32.5751 41.376 32.4151 41.8187 32.0951 42.224C31.7751 42.6293 31.3218 42.9547 30.7351 43.2C30.1485 43.456 29.4498 43.584 28.6391 43.584ZM28.6391 36.656C29.0871 36.656 29.4711 36.4907 29.7911 36.16C30.1218 35.8187 30.2871 35.3653 30.2871 34.8C30.2871 34.2347 30.1271 33.792 29.8071 33.472C29.4871 33.152 29.0978 32.992 28.6391 32.992C28.1805 32.992 27.7911 33.152 27.4711 33.472C27.1511 33.792 26.9911 34.2347 26.9911 34.8C26.9911 35.3653 27.1511 35.8187 27.4711 36.16C27.8018 36.4907 28.1911 36.656 28.6391 36.656ZM28.8311 42.672C29.5778 42.672 30.1751 42.5067 30.6231 42.176C31.0711 41.856 31.2951 41.4933 31.2951 41.088C31.2951 40.7253 31.1565 40.4747 30.8791 40.336C30.6125 40.1973 30.2285 40.128 29.7271 40.128H28.3831C28.2338 40.128 28.0685 40.1173 27.8871 40.096C27.7165 40.0747 27.5458 40.0427 27.3751 40C27.0978 40.2027 26.8951 40.416 26.7671 40.64C26.6391 40.864 26.5751 41.088 26.5751 41.312C26.5751 41.728 26.7725 42.0587 27.1671 42.304C27.5725 42.5493 28.1271 42.672 28.8311 42.672ZM36.8829 40.192C36.2535 40.192 35.6615 40.032 35.1069 39.712C34.5629 39.392 34.1202 38.928 33.7789 38.32C33.4482 37.712 33.2829 36.9813 33.2829 36.128C33.2829 35.2533 33.4482 34.512 33.7789 33.904C34.1202 33.296 34.5629 32.832 35.1069 32.512C35.6615 32.192 36.2535 32.032 36.8829 32.032C37.5229 32.032 38.1149 32.192 38.6589 32.512C39.2029 32.832 39.6402 33.296 39.9709 33.904C40.3122 34.512 40.4829 35.2533 40.4829 36.128C40.4829 36.9813 40.3122 37.712 39.9709 38.32C39.6402 38.928 39.2029 39.392 38.6589 39.712C38.1149 40.032 37.5229 40.192 36.8829 40.192ZM36.8829 39.104C37.5549 39.104 38.0935 38.832 38.4989 38.288C38.9149 37.7333 39.1229 37.0133 39.1229 36.128C39.1229 35.232 38.9149 34.5067 38.4989 33.952C38.0935 33.3973 37.5549 33.12 36.8829 33.12C36.2215 33.12 35.6829 33.3973 35.2669 33.952C34.8509 34.5067 34.6429 35.232 34.6429 36.128C34.6429 37.0133 34.8509 37.7333 35.2669 38.288C35.6829 38.832 36.2215 39.104 36.8829 39.104ZM42.5308 40V32.224H43.6188L43.7308 33.632H43.7788C44.0454 33.1413 44.3708 32.752 44.7548 32.464C45.1388 32.176 45.5494 32.032 45.9868 32.032C46.2961 32.032 46.5734 32.0853 46.8188 32.192L46.5628 33.344C46.4348 33.3013 46.3174 33.2693 46.2108 33.248C46.1041 33.2267 45.9708 33.216 45.8108 33.216C45.4801 33.216 45.1334 33.3493 44.7708 33.616C44.4188 33.8827 44.1094 34.3467 43.8428 35.008V40H42.5308ZM49.479 40.192C48.8283 40.192 48.2843 40 47.847 39.616C47.4203 39.2213 47.207 38.6773 47.207 37.984C47.207 37.1307 47.5857 36.48 48.343 36.032C49.111 35.5733 50.3217 35.2533 51.975 35.072C51.975 34.7413 51.927 34.4267 51.831 34.128C51.7457 33.8293 51.5857 33.5893 51.351 33.408C51.127 33.216 50.8017 33.12 50.375 33.12C49.927 33.12 49.5057 33.2053 49.111 33.376C48.7163 33.5467 48.3643 33.7387 48.055 33.952L47.543 33.04C47.9057 32.8053 48.3483 32.5813 48.871 32.368C49.4043 32.144 49.9803 32.032 50.599 32.032C51.5483 32.032 52.2363 32.3253 52.663 32.912C53.0897 33.488 53.303 34.2613 53.303 35.232V40H52.215L52.103 39.072H52.055C51.6923 39.3707 51.2923 39.632 50.855 39.856C50.4283 40.08 49.9697 40.192 49.479 40.192ZM49.863 39.136C50.2363 39.136 50.5883 39.0453 50.919 38.864C51.2497 38.6827 51.6017 38.4267 51.975 38.096V35.936C50.6843 36.096 49.7777 36.336 49.255 36.656C48.743 36.976 48.487 37.3867 48.487 37.888C48.487 38.3253 48.6203 38.6453 48.887 38.848C49.1537 39.04 49.479 39.136 49.863 39.136ZM60.6326 40L57.8326 32.224H59.1926L60.6646 36.64C60.782 37.024 60.8993 37.408 61.0166 37.792C61.1446 38.176 61.2673 38.5547 61.3846 38.928H61.4486C61.566 38.5547 61.6833 38.176 61.8006 37.792C61.9286 37.408 62.046 37.024 62.1526 36.64L63.6246 32.224H64.9206L62.1686 40H60.6326ZM69.3829 40.192C68.7535 40.192 68.1615 40.032 67.6069 39.712C67.0629 39.392 66.6202 38.928 66.2789 38.32C65.9482 37.712 65.7829 36.9813 65.7829 36.128C65.7829 35.2533 65.9482 34.512 66.2789 33.904C66.6202 33.296 67.0629 32.832 67.6069 32.512C68.1615 32.192 68.7535 32.032 69.3829 32.032C70.0229 32.032 70.6149 32.192 71.1589 32.512C71.7029 32.832 72.1402 33.296 72.4709 33.904C72.8122 34.512 72.9829 35.2533 72.9829 36.128C72.9829 36.9813 72.8122 37.712 72.4709 38.32C72.1402 38.928 71.7029 39.392 71.1589 39.712C70.6149 40.032 70.0229 40.192 69.3829 40.192ZM69.3829 39.104C70.0549 39.104 70.5935 38.832 70.9989 38.288C71.4149 37.7333 71.6229 37.0133 71.6229 36.128C71.6229 35.232 71.4149 34.5067 70.9989 33.952C70.5935 33.3973 70.0549 33.12 69.3829 33.12C68.7215 33.12 68.1829 33.3973 67.7669 33.952C67.3509 34.5067 67.1429 35.232 67.1429 36.128C67.1429 37.0133 67.3509 37.7333 67.7669 38.288C68.1829 38.832 68.7215 39.104 69.3829 39.104ZM78.1028 40.192C77.4201 40.192 76.8014 40.032 76.2468 39.712C75.6921 39.392 75.2548 38.928 74.9348 38.32C74.6148 37.712 74.4548 36.9813 74.4548 36.128C74.4548 35.2533 74.6254 34.512 74.9668 33.904C75.3188 33.296 75.7774 32.832 76.3428 32.512C76.9188 32.192 77.5374 32.032 78.1988 32.032C78.7108 32.032 79.1481 32.1227 79.5108 32.304C79.8841 32.4853 80.2041 32.6987 80.4708 32.944L79.7988 33.808C79.5748 33.6053 79.3348 33.44 79.0788 33.312C78.8334 33.184 78.5561 33.12 78.2468 33.12C77.7774 33.12 77.3561 33.248 76.9828 33.504C76.6201 33.7493 76.3321 34.1013 76.1188 34.56C75.9161 35.008 75.8148 35.5307 75.8148 36.128C75.8148 37.0133 76.0334 37.7333 76.4708 38.288C76.9188 38.832 77.5001 39.104 78.2148 39.104C78.5774 39.104 78.9134 39.0293 79.2228 38.88C79.5321 38.72 79.8041 38.5333 80.0388 38.32L80.6148 39.2C80.2628 39.5093 79.8734 39.7547 79.4468 39.936C79.0201 40.1067 78.5721 40.192 78.1028 40.192ZM85.1359 40.192C84.4425 40.192 83.8132 40.032 83.2479 39.712C82.6825 39.3813 82.2345 38.912 81.9039 38.304C81.5732 37.696 81.4079 36.9707 81.4079 36.128C81.4079 35.2747 81.5732 34.544 81.9039 33.936C82.2452 33.328 82.6825 32.8587 83.2159 32.528C83.7492 32.1973 84.3092 32.032 84.8959 32.032C85.8879 32.032 86.6505 32.3627 87.1839 33.024C87.7279 33.6853 87.9999 34.5707 87.9999 35.68C87.9999 35.8187 87.9945 35.9573 87.9839 36.096C87.9839 36.224 87.9732 36.336 87.9519 36.432H82.7039C82.7572 37.2533 83.0132 37.9093 83.4719 38.4C83.9412 38.8907 84.5492 39.136 85.2959 39.136C85.6692 39.136 86.0105 39.0827 86.3199 38.976C86.6399 38.8587 86.9439 38.7093 87.2319 38.528L87.6959 39.392C87.3652 39.6053 86.9865 39.792 86.5599 39.952C86.1439 40.112 85.6692 40.192 85.1359 40.192ZM82.6879 35.488H86.8479C86.8479 34.6987 86.6772 34.1013 86.3359 33.696C86.0052 33.28 85.5359 33.072 84.9279 33.072C84.3839 33.072 83.8932 33.2853 83.4559 33.712C83.0292 34.128 82.7732 34.72 82.6879 35.488ZM82.4159 30.4L84.2399 28.16H85.5519L87.3759 30.4L86.8159 30.912L84.9279 29.104H84.8639L82.9759 30.912L82.4159 30.4ZM93.1245 43.28V32.224H94.2125L94.3245 33.12H94.3725C94.7245 32.8213 95.1085 32.5653 95.5245 32.352C95.9512 32.1387 96.3938 32.032 96.8525 32.032C97.8552 32.032 98.6178 32.3947 99.1405 33.12C99.6632 33.8347 99.9245 34.7947 99.9245 36C99.9245 36.8747 99.7645 37.6267 99.4445 38.256C99.1352 38.8853 98.7245 39.3653 98.2125 39.696C97.7112 40.0267 97.1618 40.192 96.5645 40.192C96.2018 40.192 95.8392 40.112 95.4765 39.952C95.1245 39.792 94.7672 39.5733 94.4045 39.296L94.4365 40.656V43.28H93.1245ZM96.3405 39.088C96.9805 39.088 97.5085 38.816 97.9245 38.272C98.3512 37.7173 98.5645 36.96 98.5645 36C98.5645 35.1467 98.4045 34.4587 98.0845 33.936C97.7752 33.4027 97.2525 33.136 96.5165 33.136C96.1858 33.136 95.8498 33.2267 95.5085 33.408C95.1778 33.5893 94.8205 33.8507 94.4365 34.192V38.272C94.7885 38.5707 95.1298 38.784 95.4605 38.912C95.7912 39.0293 96.0845 39.088 96.3405 39.088ZM105.024 40.192C104.394 40.192 103.802 40.032 103.248 39.712C102.704 39.392 102.261 38.928 101.92 38.32C101.589 37.712 101.424 36.9813 101.424 36.128C101.424 35.2533 101.589 34.512 101.92 33.904C102.261 33.296 102.704 32.832 103.248 32.512C103.802 32.192 104.394 32.032 105.024 32.032C105.664 32.032 106.256 32.192 106.8 32.512C107.344 32.832 107.781 33.296 108.112 33.904C108.453 34.512 108.624 35.2533 108.624 36.128C108.624 36.9813 108.453 37.712 108.112 38.32C107.781 38.928 107.344 39.392 106.8 39.712C106.256 40.032 105.664 40.192 105.024 40.192ZM105.024 39.104C105.696 39.104 106.234 38.832 106.64 38.288C107.056 37.7333 107.264 37.0133 107.264 36.128C107.264 35.232 107.056 34.5067 106.64 33.952C106.234 33.3973 105.696 33.12 105.024 33.12C104.362 33.12 103.824 33.3973 103.408 33.952C102.992 34.5067 102.784 35.232 102.784 36.128C102.784 37.0133 102.992 37.7333 103.408 38.288C103.824 38.832 104.362 39.104 105.024 39.104ZM113.327 40.192C112.357 40.192 111.578 39.84 110.991 39.136C110.405 38.4213 110.111 37.4187 110.111 36.128C110.111 35.2853 110.266 34.56 110.575 33.952C110.895 33.3333 111.311 32.8587 111.823 32.528C112.346 32.1973 112.901 32.032 113.487 32.032C113.935 32.032 114.325 32.112 114.655 32.272C114.986 32.432 115.322 32.6507 115.663 32.928L115.599 31.6V28.608H116.927V40H115.839L115.727 39.088H115.679C115.381 39.3867 115.029 39.648 114.623 39.872C114.218 40.0853 113.786 40.192 113.327 40.192ZM113.615 39.088C114.298 39.088 114.959 38.7307 115.599 38.016V33.952C115.269 33.6533 114.949 33.4453 114.639 33.328C114.341 33.2 114.031 33.136 113.711 33.136C113.295 33.136 112.917 33.264 112.575 33.52C112.245 33.7653 111.978 34.112 111.775 34.56C111.573 34.9973 111.471 35.5147 111.471 36.112C111.471 37.04 111.658 37.7707 112.031 38.304C112.405 38.8267 112.933 39.088 113.615 39.088ZM122.698 40.192C122.005 40.192 121.376 40.032 120.81 39.712C120.245 39.3813 119.797 38.912 119.466 38.304C119.136 37.696 118.97 36.9707 118.97 36.128C118.97 35.2747 119.136 34.544 119.466 33.936C119.808 33.328 120.245 32.8587 120.778 32.528C121.312 32.1973 121.872 32.032 122.458 32.032C123.45 32.032 124.213 32.3627 124.746 33.024C125.29 33.6853 125.562 34.5707 125.562 35.68C125.562 35.8187 125.557 35.9573 125.546 36.096C125.546 36.224 125.536 36.336 125.514 36.432H120.266C120.32 37.2533 120.576 37.9093 121.034 38.4C121.504 38.8907 122.112 39.136 122.858 39.136C123.232 39.136 123.573 39.0827 123.882 38.976C124.202 38.8587 124.506 38.7093 124.794 38.528L125.258 39.392C124.928 39.6053 124.549 39.792 124.122 39.952C123.706 40.112 123.232 40.192 122.698 40.192ZM120.25 35.488H124.41C124.41 34.6987 124.24 34.1013 123.898 33.696C123.568 33.28 123.098 33.072 122.49 33.072C121.946 33.072 121.456 33.2853 121.018 33.712C120.592 34.128 120.336 34.72 120.25 35.488ZM134.127 40.192C133.764 40.192 133.386 40.1067 132.991 39.936C132.607 39.7547 132.244 39.5093 131.903 39.2H131.855L131.743 40H130.687V28.608H131.999V31.712L131.967 33.12C132.319 32.8107 132.703 32.5547 133.119 32.352C133.546 32.1387 133.972 32.032 134.399 32.032C135.412 32.032 136.18 32.3893 136.703 33.104C137.226 33.8187 137.487 34.7787 137.487 35.984C137.487 36.8693 137.327 37.6267 137.007 38.256C136.698 38.8853 136.287 39.3653 135.775 39.696C135.274 40.0267 134.724 40.192 134.127 40.192ZM133.903 39.088C134.543 39.088 135.071 38.816 135.487 38.272C135.914 37.7173 136.127 36.96 136.127 36C136.127 35.1467 135.967 34.4587 135.647 33.936C135.338 33.4027 134.815 33.136 134.079 33.136C133.748 33.136 133.412 33.2267 133.071 33.408C132.73 33.5893 132.372 33.8507 131.999 34.192V38.272C132.34 38.5707 132.676 38.784 133.007 38.912C133.348 39.0293 133.647 39.088 133.903 39.088ZM141.803 40.192C140.981 40.192 140.379 39.936 139.995 39.424C139.611 38.9013 139.419 38.144 139.419 37.152V32.224H140.747V36.976C140.747 37.7013 140.859 38.2293 141.083 38.56C141.317 38.8907 141.691 39.056 142.203 39.056C142.608 39.056 142.965 38.9547 143.275 38.752C143.595 38.5387 143.936 38.2027 144.299 37.744V32.224H145.611V40H144.523L144.411 38.784H144.363C144 39.2107 143.616 39.552 143.211 39.808C142.805 40.064 142.336 40.192 141.803 40.192ZM150.266 40.192C149.711 40.192 149.183 40.0907 148.682 39.888C148.181 39.6747 147.743 39.4187 147.37 39.12L148.026 38.24C148.367 38.5067 148.719 38.7307 149.082 38.912C149.445 39.0827 149.855 39.168 150.314 39.168C150.826 39.168 151.21 39.0507 151.466 38.816C151.722 38.5707 151.85 38.2827 151.85 37.952C151.85 37.6853 151.759 37.4613 151.578 37.28C151.407 37.0987 151.183 36.9493 150.906 36.832C150.639 36.704 150.362 36.5867 150.074 36.48C149.711 36.3413 149.354 36.1867 149.002 36.016C148.65 35.8347 148.362 35.6053 148.138 35.328C147.914 35.04 147.802 34.6773 147.802 34.24C147.802 33.6107 148.037 33.088 148.506 32.672C148.986 32.2453 149.647 32.032 150.49 32.032C150.97 32.032 151.418 32.1173 151.834 32.288C152.25 32.4587 152.607 32.6667 152.906 32.912L152.266 33.744C151.999 33.5413 151.722 33.376 151.434 33.248C151.146 33.12 150.831 33.056 150.49 33.056C149.999 33.056 149.637 33.168 149.402 33.392C149.178 33.616 149.066 33.8773 149.066 34.176C149.066 34.4213 149.146 34.624 149.306 34.784C149.466 34.9333 149.674 35.0667 149.93 35.184C150.186 35.2907 150.458 35.4027 150.746 35.52C151.119 35.6587 151.487 35.8187 151.85 36C152.213 36.1707 152.511 36.4053 152.746 36.704C152.991 36.992 153.114 37.3813 153.114 37.872C153.114 38.288 153.002 38.672 152.778 39.024C152.565 39.376 152.245 39.6587 151.818 39.872C151.402 40.0853 150.885 40.192 150.266 40.192ZM158.009 40.192C157.326 40.192 156.708 40.032 156.153 39.712C155.598 39.392 155.161 38.928 154.841 38.32C154.521 37.712 154.361 36.9813 154.361 36.128C154.361 35.2533 154.532 34.512 154.873 33.904C155.225 33.296 155.684 32.832 156.249 32.512C156.825 32.192 157.444 32.032 158.105 32.032C158.617 32.032 159.054 32.1227 159.417 32.304C159.79 32.4853 160.11 32.6987 160.377 32.944L159.705 33.808C159.481 33.6053 159.241 33.44 158.985 33.312C158.74 33.184 158.462 33.12 158.153 33.12C157.684 33.12 157.262 33.248 156.889 33.504C156.526 33.7493 156.238 34.1013 156.025 34.56C155.822 35.008 155.721 35.5307 155.721 36.128C155.721 37.0133 155.94 37.7333 156.377 38.288C156.825 38.832 157.406 39.104 158.121 39.104C158.484 39.104 158.82 39.0293 159.129 38.88C159.438 38.72 159.71 38.5333 159.945 38.32L160.521 39.2C160.169 39.5093 159.78 39.7547 159.353 39.936C158.926 40.1067 158.478 40.192 158.009 40.192ZM163.87 40.192C163.219 40.192 162.675 40 162.238 39.616C161.811 39.2213 161.598 38.6773 161.598 37.984C161.598 37.1307 161.976 36.48 162.734 36.032C163.502 35.5733 164.712 35.2533 166.366 35.072C166.366 34.7413 166.318 34.4267 166.222 34.128C166.136 33.8293 165.976 33.5893 165.742 33.408C165.518 33.216 165.192 33.12 164.766 33.12C164.318 33.12 163.896 33.2053 163.502 33.376C163.107 33.5467 162.755 33.7387 162.446 33.952L161.934 33.04C162.296 32.8053 162.739 32.5813 163.262 32.368C163.795 32.144 164.371 32.032 164.99 32.032C165.939 32.032 166.627 32.3253 167.054 32.912C167.48 33.488 167.694 34.2613 167.694 35.232V40H166.606L166.494 39.072H166.446C166.083 39.3707 165.683 39.632 165.246 39.856C164.819 40.08 164.36 40.192 163.87 40.192ZM164.254 39.136C164.627 39.136 164.979 39.0453 165.31 38.864C165.64 38.6827 165.992 38.4267 166.366 38.096V35.936C165.075 36.096 164.168 36.336 163.646 36.656C163.134 36.976 162.878 37.3867 162.878 37.888C162.878 38.3253 163.011 38.6453 163.278 38.848C163.544 39.04 163.87 39.136 164.254 39.136ZM170.14 40V32.224H171.228L171.34 33.632H171.388C171.655 33.1413 171.98 32.752 172.364 32.464C172.748 32.176 173.159 32.032 173.596 32.032C173.905 32.032 174.183 32.0853 174.428 32.192L174.172 33.344C174.044 33.3013 173.927 33.2693 173.82 33.248C173.713 33.2267 173.58 33.216 173.42 33.216C173.089 33.216 172.743 33.3493 172.38 33.616C172.028 33.8827 171.719 34.3467 171.452 35.008V40H170.14ZM20.592 60.192C19.8347 60.192 19.152 60.0267 18.544 59.696C17.936 59.3653 17.456 58.8907 17.104 58.272C16.752 57.6533 16.576 56.9067 16.576 56.032C16.576 55.168 16.752 54.4267 17.104 53.808C17.4667 53.1893 17.936 52.7147 18.512 52.384C19.088 52.0427 19.6907 51.872 20.32 51.872C21.0773 51.872 21.7013 52.0427 22.192 52.384C22.6933 52.7147 23.0667 53.168 23.312 53.744C23.568 54.3093 23.696 54.9547 23.696 55.68C23.696 55.8827 23.6853 56.0853 23.664 56.288C23.6427 56.48 23.6213 56.624 23.6 56.72H18.848C18.9547 57.296 19.1947 57.7227 19.568 58C19.9413 58.2667 20.3893 58.4 20.912 58.4C21.4773 58.4 22.048 58.224 22.624 57.872L23.408 59.296C23.0027 59.5733 22.5493 59.792 22.048 59.952C21.5467 60.112 21.0613 60.192 20.592 60.192ZM18.832 55.168H21.696C21.696 54.7307 21.5893 54.3733 21.376 54.096C21.1733 53.808 20.8373 53.664 20.368 53.664C20.0053 53.664 19.68 53.792 19.392 54.048C19.104 54.2933 18.9173 54.6667 18.832 55.168ZM27.6573 60.192C27.1346 60.192 26.5959 60.0907 26.0413 59.888C25.4973 59.6853 25.0226 59.4187 24.6173 59.088L25.6733 57.616C26.0359 57.8827 26.3826 58.0907 26.7133 58.24C27.0546 58.3787 27.3906 58.448 27.7213 58.448C28.0733 58.448 28.3293 58.3893 28.4893 58.272C28.6493 58.144 28.7293 57.9787 28.7293 57.776C28.7293 57.5947 28.6493 57.4453 28.4893 57.328C28.3399 57.2107 28.1426 57.104 27.8973 57.008C27.6519 56.9013 27.3906 56.7947 27.1133 56.688C26.7933 56.56 26.4733 56.4 26.1533 56.208C25.8439 56.016 25.5826 55.7707 25.3693 55.472C25.1559 55.1627 25.0493 54.7893 25.0493 54.352C25.0493 53.616 25.3266 53.0187 25.8813 52.56C26.4466 52.1013 27.1826 51.872 28.0893 51.872C28.6973 51.872 29.2306 51.9787 29.6893 52.192C30.1586 52.3947 30.5586 52.624 30.8893 52.88L29.8333 54.288C29.5559 54.0747 29.2786 53.9093 29.0013 53.792C28.7239 53.6747 28.4466 53.616 28.1693 53.616C27.5613 53.616 27.2573 53.824 27.2573 54.24C27.2573 54.496 27.4066 54.6933 27.7053 54.832C28.0146 54.96 28.3719 55.0987 28.7773 55.248C29.1186 55.3653 29.4493 55.52 29.7693 55.712C30.0999 55.8933 30.3719 56.1387 30.5853 56.448C30.8093 56.7467 30.9213 57.1413 30.9213 57.632C30.9213 58.3467 30.6439 58.9547 30.0893 59.456C29.5346 59.9467 28.7239 60.192 27.6573 60.192ZM32.415 62.944V52.064H34.335L34.495 52.848H34.559C34.8683 52.5707 35.215 52.3413 35.599 52.16C35.9937 51.968 36.399 51.872 36.815 51.872C37.775 51.872 38.5323 52.24 39.087 52.976C39.6417 53.7013 39.919 54.6773 39.919 55.904C39.919 56.8107 39.759 57.584 39.439 58.224C39.119 58.864 38.703 59.3547 38.191 59.696C37.6897 60.0267 37.151 60.192 36.575 60.192C36.2337 60.192 35.903 60.1227 35.583 59.984C35.263 59.8347 34.9643 59.6267 34.687 59.36L34.767 60.624V62.944H32.415ZM36.031 58.272C36.4363 58.272 36.783 58.0853 37.071 57.712C37.359 57.3387 37.503 56.7467 37.503 55.936C37.503 54.5067 37.0443 53.792 36.127 53.792C35.6683 53.792 35.215 54.032 34.767 54.512V57.76C34.9803 57.952 35.1937 58.0853 35.407 58.16C35.6203 58.2347 35.8283 58.272 36.031 58.272ZM45.1389 60.192C44.3815 60.192 43.6989 60.0267 43.0909 59.696C42.4829 59.3653 42.0029 58.8907 41.6509 58.272C41.2989 57.6533 41.1229 56.9067 41.1229 56.032C41.1229 55.168 41.2989 54.4267 41.6509 53.808C42.0135 53.1893 42.4829 52.7147 43.0589 52.384C43.6349 52.0427 44.2375 51.872 44.8669 51.872C45.6242 51.872 46.2482 52.0427 46.7389 52.384C47.2402 52.7147 47.6135 53.168 47.8589 53.744C48.1149 54.3093 48.2429 54.9547 48.2429 55.68C48.2429 55.8827 48.2322 56.0853 48.2109 56.288C48.1895 56.48 48.1682 56.624 48.1469 56.72H43.3949C43.5015 57.296 43.7415 57.7227 44.1149 58C44.4882 58.2667 44.9362 58.4 45.4589 58.4C46.0242 58.4 46.5949 58.224 47.1709 57.872L47.9549 59.296C47.5495 59.5733 47.0962 59.792 46.5949 59.952C46.0935 60.112 45.6082 60.192 45.1389 60.192ZM43.3789 55.168H46.2429C46.2429 54.7307 46.1362 54.3733 45.9229 54.096C45.7202 53.808 45.3842 53.664 44.9149 53.664C44.5522 53.664 44.2269 53.792 43.9389 54.048C43.6509 54.2933 43.4642 54.6667 43.3789 55.168ZM53.3241 60.192C52.5881 60.192 51.9215 60.032 51.3241 59.712C50.7375 59.3813 50.2681 58.9067 49.9161 58.288C49.5748 57.6587 49.4041 56.9067 49.4041 56.032C49.4041 55.1467 49.5961 54.3947 49.9801 53.776C50.3641 53.1573 50.8708 52.688 51.5001 52.368C52.1295 52.0373 52.8068 51.872 53.5321 51.872C54.0228 51.872 54.4548 51.952 54.8281 52.112C55.2121 52.272 55.5535 52.4747 55.8521 52.72L54.7481 54.24C54.3748 53.9307 54.0175 53.776 53.6761 53.776C53.1108 53.776 52.6575 53.9787 52.3161 54.384C51.9855 54.7893 51.8201 55.3387 51.8201 56.032C51.8201 56.7147 51.9855 57.264 52.3161 57.68C52.6575 58.0853 53.0841 58.288 53.5961 58.288C53.8521 58.288 54.1028 58.2347 54.3481 58.128C54.5935 58.0107 54.8175 57.872 55.0201 57.712L55.9481 59.248C55.5535 59.5893 55.1268 59.8347 54.6681 59.984C54.2095 60.1227 53.7615 60.192 53.3241 60.192ZM57.3369 60V52.064H59.6889V60H57.3369ZM58.5049 50.896C58.1102 50.896 57.7902 50.784 57.5449 50.56C57.2995 50.336 57.1769 50.0373 57.1769 49.664C57.1769 49.2907 57.2995 48.992 57.5449 48.768C57.7902 48.544 58.1102 48.432 58.5049 48.432C58.8995 48.432 59.2195 48.544 59.4649 48.768C59.7102 48.992 59.8329 49.2907 59.8329 49.664C59.8329 50.0373 59.7102 50.336 59.4649 50.56C59.2195 50.784 58.8995 50.896 58.5049 50.896ZM63.7588 60.192C63.0334 60.192 62.4574 59.9627 62.0308 59.504C61.6041 59.0347 61.3908 58.464 61.3908 57.792C61.3908 56.96 61.7428 56.3093 62.4468 55.84C63.1508 55.3707 64.2868 55.056 65.8548 54.896C65.8334 54.544 65.7268 54.2667 65.5348 54.064C65.3534 53.8507 65.0441 53.744 64.6068 53.744C64.2761 53.744 63.9401 53.808 63.5988 53.936C63.2574 54.064 62.8948 54.24 62.5108 54.464L61.6628 52.912C62.1641 52.6027 62.6974 52.352 63.2628 52.16C63.8388 51.968 64.4361 51.872 65.0548 51.872C66.0681 51.872 66.8468 52.1653 67.3908 52.752C67.9348 53.3387 68.2068 54.24 68.2068 55.456V60H66.2868L66.1268 59.184H66.0628C65.7321 59.4827 65.3748 59.728 64.9908 59.92C64.6174 60.1013 64.2068 60.192 63.7588 60.192ZM64.5588 58.368C64.8254 58.368 65.0548 58.3093 65.2468 58.192C65.4494 58.064 65.6521 57.8987 65.8548 57.696V56.304C65.0228 56.4107 64.4468 56.5813 64.1268 56.816C63.8068 57.04 63.6468 57.3067 63.6468 57.616C63.6468 57.872 63.7268 58.064 63.8868 58.192C64.0574 58.3093 64.2814 58.368 64.5588 58.368ZM72.3563 60.192C71.5456 60.192 70.9803 59.952 70.6603 59.472C70.3509 58.9813 70.1963 58.336 70.1963 57.536V48.784H72.5483V57.632C72.5483 57.8773 72.5909 58.048 72.6763 58.144C72.7723 58.24 72.8683 58.288 72.9643 58.288C73.0176 58.288 73.0603 58.288 73.0923 58.288C73.1349 58.2773 73.1883 58.2667 73.2523 58.256L73.5403 60C73.4123 60.0533 73.2469 60.096 73.0443 60.128C72.8523 60.1707 72.6229 60.192 72.3563 60.192ZM74.7744 60V52.064H77.1264V60H74.7744ZM75.9424 50.896C75.5477 50.896 75.2277 50.784 74.9824 50.56C74.737 50.336 74.6144 50.0373 74.6144 49.664C74.6144 49.2907 74.737 48.992 74.9824 48.768C75.2277 48.544 75.5477 48.432 75.9424 48.432C76.337 48.432 76.657 48.544 76.9024 48.768C77.1477 48.992 77.2704 49.2907 77.2704 49.664C77.2704 50.0373 77.1477 50.336 76.9024 50.56C76.657 50.784 76.337 50.896 75.9424 50.896ZM81.5323 60.192C81.0096 60.192 80.4709 60.0907 79.9163 59.888C79.3723 59.6853 78.8976 59.4187 78.4923 59.088L79.5483 57.616C79.9109 57.8827 80.2576 58.0907 80.5883 58.24C80.9296 58.3787 81.2656 58.448 81.5963 58.448C81.9483 58.448 82.2043 58.3893 82.3643 58.272C82.5243 58.144 82.6043 57.9787 82.6043 57.776C82.6043 57.5947 82.5243 57.4453 82.3643 57.328C82.2149 57.2107 82.0176 57.104 81.7723 57.008C81.5269 56.9013 81.2656 56.7947 80.9883 56.688C80.6683 56.56 80.3483 56.4 80.0283 56.208C79.7189 56.016 79.4576 55.7707 79.2443 55.472C79.0309 55.1627 78.9243 54.7893 78.9243 54.352C78.9243 53.616 79.2016 53.0187 79.7563 52.56C80.3216 52.1013 81.0576 51.872 81.9643 51.872C82.5723 51.872 83.1056 51.9787 83.5643 52.192C84.0336 52.3947 84.4336 52.624 84.7643 52.88L83.7083 54.288C83.4309 54.0747 83.1536 53.9093 82.8763 53.792C82.5989 53.6747 82.3216 53.616 82.0443 53.616C81.4363 53.616 81.1323 53.824 81.1323 54.24C81.1323 54.496 81.2816 54.6933 81.5803 54.832C81.8896 54.96 82.2469 55.0987 82.6523 55.248C82.9936 55.3653 83.3243 55.52 83.6443 55.712C83.9749 55.8933 84.2469 56.1387 84.4603 56.448C84.6843 56.7467 84.7963 57.1413 84.7963 57.632C84.7963 58.3467 84.5189 58.9547 83.9643 59.456C83.4096 59.9467 82.5989 60.192 81.5323 60.192ZM89.0335 60.192C88.0522 60.192 87.3482 59.9093 86.9215 59.344C86.5055 58.7787 86.2975 58.0373 86.2975 57.12V53.904H85.2095V52.16L86.4255 52.064L86.6975 49.952H88.6495V52.064H90.5535V53.904H88.6495V57.088C88.6495 57.536 88.7402 57.8613 88.9215 58.064C89.1135 58.256 89.3642 58.352 89.6735 58.352C89.8015 58.352 89.9295 58.336 90.0575 58.304C90.1962 58.272 90.3188 58.2347 90.4255 58.192L90.7935 59.904C90.5908 59.968 90.3402 60.032 90.0415 60.096C89.7535 60.16 89.4175 60.192 89.0335 60.192ZM93.79 60.192C93.0647 60.192 92.4887 59.9627 92.062 59.504C91.6353 59.0347 91.422 58.464 91.422 57.792C91.422 56.96 91.774 56.3093 92.478 55.84C93.182 55.3707 94.318 55.056 95.886 54.896C95.8647 54.544 95.758 54.2667 95.566 54.064C95.3847 53.8507 95.0753 53.744 94.638 53.744C94.3073 53.744 93.9713 53.808 93.63 53.936C93.2887 54.064 92.926 54.24 92.542 54.464L91.694 52.912C92.1953 52.6027 92.7287 52.352 93.294 52.16C93.87 51.968 94.4673 51.872 95.086 51.872C96.0993 51.872 96.878 52.1653 97.422 52.752C97.966 53.3387 98.238 54.24 98.238 55.456V60H96.318L96.158 59.184H96.094C95.7633 59.4827 95.406 59.728 95.022 59.92C94.6487 60.1013 94.238 60.192 93.79 60.192ZM94.59 58.368C94.8567 58.368 95.086 58.3093 95.278 58.192C95.4807 58.064 95.6833 57.8987 95.886 57.696V56.304C95.054 56.4107 94.478 56.5813 94.158 56.816C93.838 57.04 93.678 57.3067 93.678 57.616C93.678 57.872 93.758 58.064 93.918 58.192C94.0887 58.3093 94.3127 58.368 94.59 58.368ZM102.564 60.192C102.041 60.192 101.502 60.0907 100.948 59.888C100.404 59.6853 99.9288 59.4187 99.5235 59.088L100.58 57.616C100.942 57.8827 101.289 58.0907 101.62 58.24C101.961 58.3787 102.297 58.448 102.628 58.448C102.98 58.448 103.236 58.3893 103.396 58.272C103.556 58.144 103.636 57.9787 103.636 57.776C103.636 57.5947 103.556 57.4453 103.396 57.328C103.246 57.2107 103.049 57.104 102.804 57.008C102.558 56.9013 102.297 56.7947 102.02 56.688C101.7 56.56 101.38 56.4 101.06 56.208C100.75 56.016 100.489 55.7707 100.276 55.472C100.062 55.1627 99.9555 54.7893 99.9555 54.352C99.9555 53.616 100.233 53.0187 100.788 52.56C101.353 52.1013 102.089 51.872 102.996 51.872C103.604 51.872 104.137 51.9787 104.596 52.192C105.065 52.3947 105.465 52.624 105.796 52.88L104.74 54.288C104.462 54.0747 104.185 53.9093 103.908 53.792C103.63 53.6747 103.353 53.616 103.076 53.616C102.468 53.616 102.164 53.824 102.164 54.24C102.164 54.496 102.313 54.6933 102.612 54.832C102.921 54.96 103.278 55.0987 103.684 55.248C104.025 55.3653 104.356 55.52 104.676 55.712C105.006 55.8933 105.278 56.1387 105.492 56.448C105.716 56.7467 105.828 57.1413 105.828 57.632C105.828 58.3467 105.55 58.9547 104.996 59.456C104.441 59.9467 103.63 60.192 102.564 60.192ZM110.716 60V49.568H113.068V58.016H117.196V60H110.716ZM123.028 60.192C122.078 60.192 121.214 59.9893 120.436 59.584C119.668 59.1787 119.054 58.5813 118.596 57.792C118.148 56.992 117.924 56.0107 117.924 54.848C117.924 53.696 118.153 52.7147 118.612 51.904C119.081 51.0827 119.7 50.4587 120.468 50.032C121.236 49.5947 122.084 49.376 123.012 49.376C123.769 49.376 124.42 49.5147 124.964 49.792C125.508 50.0693 125.95 50.384 126.292 50.736L125.06 52.24C124.793 52.0053 124.51 51.808 124.212 51.648C123.913 51.488 123.54 51.408 123.092 51.408C122.281 51.408 121.62 51.7067 121.108 52.304C120.596 52.9013 120.34 53.7227 120.34 54.768C120.34 55.8347 120.585 56.6667 121.076 57.264C121.566 57.8613 122.297 58.16 123.268 58.16C123.481 58.16 123.689 58.1333 123.892 58.08C124.094 58.0267 124.26 57.9467 124.388 57.84V56.048H122.66V54.128H126.468V58.928C126.105 59.28 125.62 59.5787 125.012 59.824C124.414 60.0693 123.753 60.192 123.028 60.192ZM128.623 60V49.568H132.191C132.916 49.568 133.567 49.648 134.143 49.808C134.719 49.9573 135.177 50.2187 135.519 50.592C135.86 50.9653 136.031 51.488 136.031 52.16C136.031 52.6187 135.908 53.072 135.663 53.52C135.428 53.9573 135.097 54.256 134.671 54.416V54.48C135.204 54.6187 135.647 54.8907 135.999 55.296C136.361 55.6907 136.543 56.2347 136.543 56.928C136.543 57.6427 136.361 58.224 135.999 58.672C135.636 59.12 135.151 59.456 134.543 59.68C133.935 59.8933 133.252 60 132.495 60H128.623ZM130.975 53.744H132.079C132.655 53.744 133.071 53.632 133.327 53.408C133.593 53.184 133.727 52.8853 133.727 52.512C133.727 52.1067 133.593 51.8187 133.327 51.648C133.06 51.4773 132.649 51.392 132.095 51.392H130.975V53.744ZM130.975 58.176H132.303C133.593 58.176 134.239 57.7067 134.239 56.768C134.239 56.3093 134.079 55.984 133.759 55.792C133.439 55.5893 132.953 55.488 132.303 55.488H130.975V58.176ZM139.889 60V51.552H137.025V49.568H145.121V51.552H142.257V60H139.889ZM150.535 58.272C151.249 58.272 151.815 57.9627 152.231 57.344C152.647 56.7147 152.855 55.8453 152.855 54.736C152.855 53.6907 152.647 52.8747 152.231 52.288C151.815 51.7013 151.249 51.408 150.535 51.408C149.82 51.408 149.255 51.7013 148.839 52.288C148.423 52.8747 148.215 53.6907 148.215 54.736C148.215 55.8453 148.423 56.7147 148.839 57.344C149.255 57.9627 149.82 58.272 150.535 58.272ZM153.975 62.912C152.876 62.912 151.943 62.64 151.175 62.096C150.407 61.5627 149.836 60.8907 149.463 60.08C148.353 59.8453 147.463 59.264 146.791 58.336C146.129 57.408 145.799 56.208 145.799 54.736C145.799 53.5947 145.996 52.6293 146.391 51.84C146.796 51.04 147.351 50.432 148.055 50.016C148.769 49.5893 149.596 49.376 150.535 49.376C151.473 49.376 152.295 49.5893 152.999 50.016C153.713 50.432 154.268 51.04 154.663 51.84C155.068 52.64 155.271 53.6053 155.271 54.736C155.271 56.1333 154.972 57.2907 154.375 58.208C153.777 59.1147 152.972 59.712 151.959 60C152.204 60.3627 152.535 60.624 152.951 60.784C153.377 60.944 153.809 61.024 154.247 61.024C154.471 61.024 154.679 61.0027 154.871 60.96C155.073 60.928 155.249 60.8907 155.399 60.848L155.815 62.56C155.623 62.656 155.367 62.736 155.047 62.8C154.737 62.8747 154.38 62.912 153.975 62.912ZM157.232 60V49.568H159.584V60H157.232ZM164.493 54.72L164.237 55.68H166.461L166.221 54.72C166.082 54.1973 165.938 53.6427 165.789 53.056C165.65 52.4693 165.511 51.904 165.373 51.36H165.309C165.181 51.9147 165.047 52.4853 164.909 53.072C164.781 53.648 164.642 54.1973 164.493 54.72ZM160.716 60L163.981 49.568H166.813L170.077 60H167.581L166.941 57.52H163.757L163.117 60H160.716ZM171.216 60V49.568H174.8C175.568 49.568 176.262 49.6747 176.88 49.888C177.51 50.0907 178.011 50.4373 178.384 50.928C178.758 51.4187 178.944 52.0853 178.944 52.928C178.944 53.7387 178.758 54.4053 178.384 54.928C178.011 55.4507 177.515 55.84 176.896 56.096C176.278 56.3413 175.6 56.464 174.864 56.464H173.568V60H171.216ZM173.568 54.592H174.72C176 54.592 176.64 54.0373 176.64 52.928C176.64 52.384 176.47 52 176.128 51.776C175.787 51.552 175.296 51.44 174.656 51.44H173.568V54.592ZM180.748 60V49.568H183.164L185.884 54.752L186.908 57.056H186.972C186.929 56.5013 186.87 55.8827 186.796 55.2C186.721 54.5173 186.684 53.8667 186.684 53.248V49.568H188.924V60H186.508L183.788 54.8L182.764 52.528H182.7C182.753 53.104 182.812 53.7227 182.876 54.384C182.95 55.0453 182.988 55.6853 182.988 56.304V60H180.748ZM193.516 58.496V55.552H190.7V53.888H193.516V50.944H195.244V53.888H198.06V55.552H195.244V58.496H193.516Z" fill="#3A1C76"/>
<path d="M20.056 80.144C19.4 80.144 18.812 79.984 18.292 79.664C17.78 79.336 17.372 78.868 17.068 78.26C16.772 77.652 16.624 76.92 16.624 76.064C16.624 75.216 16.776 74.488 17.08 73.88C17.384 73.272 17.8 72.804 18.328 72.476C18.856 72.148 19.452 71.984 20.116 71.984C20.596 71.984 21.02 72.084 21.388 72.284C21.756 72.476 22.052 72.7 22.276 72.956L21.736 73.604C21.528 73.38 21.292 73.2 21.028 73.064C20.764 72.928 20.464 72.86 20.128 72.86C19.632 72.86 19.196 72.992 18.82 73.256C18.452 73.512 18.164 73.876 17.956 74.348C17.756 74.82 17.656 75.384 17.656 76.04C17.656 76.696 17.756 77.268 17.956 77.756C18.156 78.236 18.436 78.608 18.796 78.872C19.164 79.136 19.596 79.268 20.092 79.268C20.468 79.268 20.804 79.188 21.1 79.028C21.396 78.868 21.668 78.652 21.916 78.38L22.468 79.004C22.156 79.364 21.804 79.644 21.412 79.844C21.02 80.044 20.568 80.144 20.056 80.144ZM24.8835 80.144C24.5155 80.144 24.2475 80.032 24.0795 79.808C23.9195 79.576 23.8395 79.248 23.8395 78.824V71.456H24.8235V78.896C24.8235 79.048 24.8515 79.16 24.9075 79.232C24.9635 79.296 25.0275 79.328 25.0995 79.328C25.1315 79.328 25.1595 79.328 25.1835 79.328C25.2155 79.32 25.2595 79.312 25.3155 79.304L25.4475 80.048C25.3835 80.08 25.3075 80.104 25.2195 80.12C25.1315 80.136 25.0195 80.144 24.8835 80.144ZM26.8981 80V74.168H27.8821V80H26.8981ZM27.4021 72.968C27.2101 72.968 27.0501 72.912 26.9221 72.8C26.8021 72.68 26.7421 72.52 26.7421 72.32C26.7421 72.128 26.8021 71.972 26.9221 71.852C27.0501 71.732 27.2101 71.672 27.4021 71.672C27.5941 71.672 27.7501 71.732 27.8701 71.852C27.9981 71.972 28.0621 72.128 28.0621 72.32C28.0621 72.52 27.9981 72.68 27.8701 72.8C27.7501 72.912 27.5941 72.968 27.4021 72.968ZM33.5472 82.46V80.384L33.5952 79.328C33.3632 79.552 33.0952 79.744 32.7912 79.904C32.4952 80.064 32.1792 80.144 31.8432 80.144C31.1152 80.144 30.5312 79.88 30.0912 79.352C29.6512 78.816 29.4312 78.064 29.4312 77.096C29.4312 76.464 29.5472 75.92 29.7792 75.464C30.0192 75 30.3312 74.644 30.7152 74.396C31.1072 74.148 31.5232 74.024 31.9632 74.024C32.2992 74.024 32.5952 74.084 32.8512 74.204C33.1072 74.316 33.3672 74.488 33.6312 74.72H33.6552L33.7512 74.168H34.5432V82.46H33.5472ZM32.0592 79.316C32.5712 79.316 33.0672 79.048 33.5472 78.512V75.464C33.2992 75.24 33.0592 75.084 32.8272 74.996C32.6032 74.9 32.3712 74.852 32.1312 74.852C31.8192 74.852 31.5352 74.948 31.2792 75.14C31.0312 75.324 30.8312 75.584 30.6792 75.92C30.5272 76.248 30.4512 76.636 30.4512 77.084C30.4512 77.78 30.5912 78.328 30.8712 78.728C31.1512 79.12 31.5472 79.316 32.0592 79.316ZM38.2114 80.144C37.5954 80.144 37.1434 79.952 36.8554 79.568C36.5674 79.176 36.4234 78.608 36.4234 77.864V74.168H37.4194V77.732C37.4194 78.276 37.5034 78.672 37.6714 78.92C37.8474 79.168 38.1274 79.292 38.5114 79.292C38.8154 79.292 39.0834 79.216 39.3154 79.064C39.5554 78.904 39.8114 78.652 40.0834 78.308V74.168H41.0674V80H40.2514L40.1674 79.088H40.1314C39.8594 79.408 39.5714 79.664 39.2674 79.856C38.9634 80.048 38.6114 80.144 38.2114 80.144ZM45.3988 80.144C44.8788 80.144 44.4068 80.024 43.9828 79.784C43.5588 79.536 43.2228 79.184 42.9748 78.728C42.7268 78.272 42.6028 77.728 42.6028 77.096C42.6028 76.456 42.7268 75.908 42.9748 75.452C43.2308 74.996 43.5588 74.644 43.9588 74.396C44.3588 74.148 44.7788 74.024 45.2188 74.024C45.9628 74.024 46.5348 74.272 46.9348 74.768C47.3428 75.264 47.5468 75.928 47.5468 76.76C47.5468 76.864 47.5428 76.968 47.5348 77.072C47.5348 77.168 47.5268 77.252 47.5108 77.324H43.5748C43.6148 77.94 43.8068 78.432 44.1508 78.8C44.5028 79.168 44.9588 79.352 45.5188 79.352C45.7988 79.352 46.0548 79.312 46.2868 79.232C46.5268 79.144 46.7548 79.032 46.9708 78.896L47.3188 79.544C47.0708 79.704 46.7868 79.844 46.4668 79.964C46.1548 80.084 45.7988 80.144 45.3988 80.144ZM43.5628 76.616H46.6828C46.6828 76.024 46.5548 75.576 46.2988 75.272C46.0508 74.96 45.6988 74.804 45.2428 74.804C44.8348 74.804 44.4668 74.964 44.1388 75.284C43.8188 75.596 43.6268 76.04 43.5628 76.616ZM53.7543 80.144C53.2343 80.144 52.7623 80.024 52.3383 79.784C51.9143 79.536 51.5783 79.184 51.3303 78.728C51.0823 78.272 50.9583 77.728 50.9583 77.096C50.9583 76.456 51.0823 75.908 51.3303 75.452C51.5863 74.996 51.9143 74.644 52.3143 74.396C52.7143 74.148 53.1343 74.024 53.5742 74.024C54.3183 74.024 54.8903 74.272 55.2903 74.768C55.6983 75.264 55.9023 75.928 55.9023 76.76C55.9023 76.864 55.8983 76.968 55.8903 77.072C55.8903 77.168 55.8823 77.252 55.8663 77.324H51.9303C51.9703 77.94 52.1623 78.432 52.5063 78.8C52.8583 79.168 53.3143 79.352 53.8743 79.352C54.1543 79.352 54.4103 79.312 54.6423 79.232C54.8823 79.144 55.1103 79.032 55.3263 78.896L55.6743 79.544C55.4263 79.704 55.1423 79.844 54.8223 79.964C54.5103 80.084 54.1543 80.144 53.7543 80.144ZM51.9183 76.616H55.0383C55.0383 76.024 54.9103 75.576 54.6543 75.272C54.4063 74.96 54.0543 74.804 53.5983 74.804C53.1903 74.804 52.8223 74.964 52.4943 75.284C52.1743 75.596 51.9823 76.04 51.9183 76.616ZM61.4497 80.144C60.8337 80.144 60.3817 79.952 60.0937 79.568C59.8057 79.176 59.6617 78.608 59.6617 77.864V74.168H60.6577V77.732C60.6577 78.276 60.7417 78.672 60.9097 78.92C61.0857 79.168 61.3657 79.292 61.7497 79.292C62.0537 79.292 62.3217 79.216 62.5537 79.064C62.7937 78.904 63.0497 78.652 63.3217 78.308V74.168H64.3057V80H63.4897L63.4057 79.088H63.3697C63.0977 79.408 62.8097 79.664 62.5057 79.856C62.2017 80.048 61.8497 80.144 61.4497 80.144ZM68.1091 80.144C67.4851 80.144 67.0491 79.964 66.8011 79.604C66.5611 79.244 66.4411 78.776 66.4411 78.2V74.972H65.5771V74.228L66.4891 74.168L66.6091 72.536H67.4371V74.168H69.0091V74.972H67.4371V78.212C67.4371 78.572 67.5011 78.852 67.6291 79.052C67.7651 79.244 68.0011 79.34 68.3371 79.34C68.4411 79.34 68.5531 79.324 68.6731 79.292C68.7931 79.252 68.9011 79.216 68.9971 79.184L69.1891 79.928C69.0291 79.984 68.8531 80.032 68.6611 80.072C68.4771 80.12 68.2931 80.144 68.1091 80.144ZM70.3278 80V74.168H71.3118V80H70.3278ZM70.8318 72.968C70.6398 72.968 70.4798 72.912 70.3518 72.8C70.2318 72.68 70.1718 72.52 70.1718 72.32C70.1718 72.128 70.2318 71.972 70.3518 71.852C70.4798 71.732 70.6398 71.672 70.8318 71.672C71.0238 71.672 71.1798 71.732 71.2998 71.852C71.4278 71.972 71.4918 72.128 71.4918 72.32C71.4918 72.52 71.4278 72.68 71.2998 72.8C71.1798 72.912 71.0238 72.968 70.8318 72.968ZM74.3249 80.144C73.9569 80.144 73.6889 80.032 73.5209 79.808C73.3609 79.576 73.2809 79.248 73.2809 78.824V71.456H74.2649V78.896C74.2649 79.048 74.2929 79.16 74.3489 79.232C74.4049 79.296 74.4689 79.328 74.5409 79.328C74.5729 79.328 74.6009 79.328 74.6249 79.328C74.6569 79.32 74.7009 79.312 74.7569 79.304L74.8889 80.048C74.8249 80.08 74.7489 80.104 74.6609 80.12C74.5729 80.136 74.4609 80.144 74.3249 80.144ZM76.3395 80V74.168H77.3235V80H76.3395ZM76.8435 72.968C76.6515 72.968 76.4915 72.912 76.3635 72.8C76.2435 72.68 76.1835 72.52 76.1835 72.32C76.1835 72.128 76.2435 71.972 76.3635 71.852C76.4915 71.732 76.6515 71.672 76.8435 71.672C77.0355 71.672 77.1915 71.732 77.3115 71.852C77.4395 71.972 77.5035 72.128 77.5035 72.32C77.5035 72.52 77.4395 72.68 77.3115 72.8C77.1915 72.912 77.0355 72.968 76.8435 72.968ZM78.6806 80V79.472L81.7526 74.972H79.0166V74.168H83.0006V74.696L79.9286 79.196H83.0966V80H78.6806ZM86.6371 80.144C86.1171 80.144 85.6451 80.024 85.2211 79.784C84.7971 79.536 84.4611 79.184 84.2131 78.728C83.9651 78.272 83.8411 77.728 83.8411 77.096C83.8411 76.456 83.9651 75.908 84.2131 75.452C84.4691 74.996 84.7971 74.644 85.1971 74.396C85.5971 74.148 86.0171 74.024 86.4571 74.024C87.2011 74.024 87.7731 74.272 88.1731 74.768C88.5811 75.264 88.7851 75.928 88.7851 76.76C88.7851 76.864 88.7811 76.968 88.7731 77.072C88.7731 77.168 88.7651 77.252 88.7491 77.324H84.8131C84.8531 77.94 85.0451 78.432 85.3891 78.8C85.7411 79.168 86.1971 79.352 86.7571 79.352C87.0371 79.352 87.2931 79.312 87.5251 79.232C87.7651 79.144 87.9931 79.032 88.2091 78.896L88.5571 79.544C88.3091 79.704 88.0251 79.844 87.7051 79.964C87.3931 80.084 87.0371 80.144 86.6371 80.144ZM84.8011 76.616H87.9211C87.9211 76.024 87.7931 75.576 87.5371 75.272C87.2891 74.96 86.9371 74.804 86.4811 74.804C86.0731 74.804 85.7051 74.964 85.3771 75.284C85.0571 75.596 84.8651 76.04 84.8011 76.616ZM94.8965 80.144C94.4245 80.144 93.9805 80.024 93.5645 79.784C93.1565 79.544 92.8245 79.196 92.5685 78.74C92.3205 78.284 92.1965 77.736 92.1965 77.096C92.1965 76.44 92.3205 75.884 92.5685 75.428C92.8245 74.972 93.1565 74.624 93.5645 74.384C93.9805 74.144 94.4245 74.024 94.8965 74.024C95.3765 74.024 95.8205 74.144 96.2285 74.384C96.6365 74.624 96.9645 74.972 97.2125 75.428C97.4685 75.884 97.5965 76.44 97.5965 77.096C97.5965 77.736 97.4685 78.284 97.2125 78.74C96.9645 79.196 96.6365 79.544 96.2285 79.784C95.8205 80.024 95.3765 80.144 94.8965 80.144ZM94.8965 79.328C95.4005 79.328 95.8045 79.124 96.1085 78.716C96.4205 78.3 96.5765 77.76 96.5765 77.096C96.5765 76.424 96.4205 75.88 96.1085 75.464C95.8045 75.048 95.4005 74.84 94.8965 74.84C94.4005 74.84 93.9965 75.048 93.6845 75.464C93.3725 75.88 93.2165 76.424 93.2165 77.096C93.2165 77.76 93.3725 78.3 93.6845 78.716C93.9965 79.124 94.4005 79.328 94.8965 79.328ZM101.703 80V74.972H100.911V74.228L101.703 74.168V73.244C101.703 72.652 101.839 72.184 102.111 71.84C102.391 71.488 102.823 71.312 103.407 71.312C103.591 71.312 103.767 71.332 103.935 71.372C104.103 71.404 104.251 71.448 104.379 71.504L104.163 72.26C103.947 72.164 103.727 72.116 103.503 72.116C102.959 72.116 102.687 72.492 102.687 73.244V74.168H103.923V74.972H102.687V80H101.703ZM105.039 80V74.168H106.023V80H105.039ZM105.543 72.968C105.351 72.968 105.191 72.912 105.063 72.8C104.943 72.68 104.883 72.52 104.883 72.32C104.883 72.128 104.943 71.972 105.063 71.852C105.191 71.732 105.351 71.672 105.543 71.672C105.735 71.672 105.891 71.732 106.011 71.852C106.139 71.972 106.203 72.128 106.203 72.32C106.203 72.52 106.139 72.68 106.011 72.8C105.891 72.912 105.735 72.968 105.543 72.968ZM109.036 80.144C108.668 80.144 108.4 80.032 108.232 79.808C108.072 79.576 107.992 79.248 107.992 78.824V71.456H108.976V78.896C108.976 79.048 109.004 79.16 109.06 79.232C109.116 79.296 109.18 79.328 109.252 79.328C109.284 79.328 109.312 79.328 109.336 79.328C109.368 79.32 109.412 79.312 109.468 79.304L109.6 80.048C109.536 80.08 109.46 80.104 109.372 80.12C109.284 80.136 109.172 80.144 109.036 80.144ZM112.886 80.144C112.262 80.144 111.826 79.964 111.578 79.604C111.338 79.244 111.218 78.776 111.218 78.2V74.972H110.354V74.228L111.266 74.168L111.386 72.536H112.214V74.168H113.786V74.972H112.214V78.212C112.214 78.572 112.278 78.852 112.406 79.052C112.542 79.244 112.778 79.34 113.114 79.34C113.218 79.34 113.33 79.324 113.45 79.292C113.57 79.252 113.678 79.216 113.774 79.184L113.966 79.928C113.806 79.984 113.63 80.032 113.438 80.072C113.254 80.12 113.07 80.144 112.886 80.144ZM115.105 80V74.168H115.921L116.005 75.224H116.041C116.241 74.856 116.485 74.564 116.773 74.348C117.061 74.132 117.369 74.024 117.697 74.024C117.929 74.024 118.137 74.064 118.321 74.144L118.129 75.008C118.033 74.976 117.945 74.952 117.865 74.936C117.785 74.92 117.685 74.912 117.565 74.912C117.317 74.912 117.057 75.012 116.785 75.212C116.521 75.412 116.289 75.76 116.089 76.256V80H115.105ZM121.416 80.144C120.944 80.144 120.5 80.024 120.084 79.784C119.676 79.544 119.344 79.196 119.088 78.74C118.84 78.284 118.716 77.736 118.716 77.096C118.716 76.44 118.84 75.884 119.088 75.428C119.344 74.972 119.676 74.624 120.084 74.384C120.5 74.144 120.944 74.024 121.416 74.024C121.896 74.024 122.34 74.144 122.748 74.384C123.156 74.624 123.484 74.972 123.732 75.428C123.988 75.884 124.116 76.44 124.116 77.096C124.116 77.736 123.988 78.284 123.732 78.74C123.484 79.196 123.156 79.544 122.748 79.784C122.34 80.024 121.896 80.144 121.416 80.144ZM121.416 79.328C121.92 79.328 122.324 79.124 122.628 78.716C122.94 78.3 123.096 77.76 123.096 77.096C123.096 76.424 122.94 75.88 122.628 75.464C122.324 75.048 121.92 74.84 121.416 74.84C120.92 74.84 120.516 75.048 120.204 75.464C119.892 75.88 119.736 76.424 119.736 77.096C119.736 77.76 119.892 78.3 120.204 78.716C120.516 79.124 120.92 79.328 121.416 79.328ZM128.054 80V74.168H128.87L128.954 75.008H128.99C129.27 74.728 129.566 74.496 129.878 74.312C130.19 74.12 130.546 74.024 130.946 74.024C131.562 74.024 132.01 74.22 132.29 74.612C132.578 74.996 132.722 75.56 132.722 76.304V80H131.738V76.436C131.738 75.892 131.65 75.496 131.474 75.248C131.298 75 131.018 74.876 130.634 74.876C130.338 74.876 130.07 74.952 129.83 75.104C129.598 75.256 129.334 75.48 129.038 75.776V80H128.054ZM135.961 80.144C135.473 80.144 135.065 80 134.737 79.712C134.417 79.416 134.257 79.008 134.257 78.488C134.257 77.848 134.541 77.36 135.109 77.024C135.685 76.68 136.593 76.44 137.833 76.304C137.833 76.056 137.797 75.82 137.725 75.596C137.661 75.372 137.541 75.192 137.365 75.056C137.197 74.912 136.953 74.84 136.633 74.84C136.297 74.84 135.981 74.904 135.685 75.032C135.389 75.16 135.125 75.304 134.893 75.464L134.509 74.78C134.781 74.604 135.113 74.436 135.505 74.276C135.905 74.108 136.337 74.024 136.801 74.024C137.513 74.024 138.029 74.244 138.349 74.684C138.669 75.116 138.829 75.696 138.829 76.424V80H138.013L137.929 79.304H137.893C137.621 79.528 137.321 79.724 136.993 79.892C136.673 80.06 136.329 80.144 135.961 80.144ZM136.249 79.352C136.529 79.352 136.793 79.284 137.041 79.148C137.289 79.012 137.553 78.82 137.833 78.572V76.952C136.865 77.072 136.185 77.252 135.793 77.492C135.409 77.732 135.217 78.04 135.217 78.416C135.217 78.744 135.317 78.984 135.517 79.136C135.717 79.28 135.961 79.352 136.249 79.352ZM145.646 80.144C145.374 80.144 145.09 80.08 144.794 79.952C144.506 79.816 144.234 79.632 143.978 79.4H143.942L143.858 80H143.066V71.456H144.05V73.784L144.026 74.84C144.29 74.608 144.578 74.416 144.89 74.264C145.21 74.104 145.53 74.024 145.85 74.024C146.61 74.024 147.186 74.292 147.578 74.828C147.97 75.364 148.166 76.084 148.166 76.988C148.166 77.652 148.046 78.22 147.806 78.692C147.574 79.164 147.266 79.524 146.882 79.772C146.506 80.02 146.094 80.144 145.646 80.144ZM145.478 79.316C145.958 79.316 146.354 79.112 146.666 78.704C146.986 78.288 147.146 77.72 147.146 77C147.146 76.36 147.026 75.844 146.786 75.452C146.554 75.052 146.162 74.852 145.61 74.852C145.362 74.852 145.11 74.92 144.854 75.056C144.598 75.192 144.33 75.388 144.05 75.644V78.704C144.306 78.928 144.558 79.088 144.806 79.184C145.062 79.272 145.286 79.316 145.478 79.316ZM151.403 80.144C150.787 80.144 150.335 79.952 150.047 79.568C149.759 79.176 149.615 78.608 149.615 77.864V74.168H150.611V77.732C150.611 78.276 150.695 78.672 150.863 78.92C151.039 79.168 151.319 79.292 151.703 79.292C152.007 79.292 152.275 79.216 152.507 79.064C152.747 78.904 153.003 78.652 153.275 78.308V74.168H154.259V80H153.443L153.359 79.088H153.323C153.051 79.408 152.763 79.664 152.459 79.856C152.155 80.048 151.803 80.144 151.403 80.144ZM157.75 80.144C157.334 80.144 156.938 80.068 156.562 79.916C156.186 79.756 155.858 79.564 155.578 79.34L156.07 78.68C156.326 78.88 156.59 79.048 156.862 79.184C157.134 79.312 157.442 79.376 157.786 79.376C158.17 79.376 158.458 79.288 158.65 79.112C158.842 78.928 158.938 78.712 158.938 78.464C158.938 78.264 158.87 78.096 158.734 77.96C158.606 77.824 158.438 77.712 158.23 77.624C158.03 77.528 157.822 77.44 157.606 77.36C157.334 77.256 157.066 77.14 156.802 77.012C156.538 76.876 156.322 76.704 156.154 76.496C155.986 76.28 155.902 76.008 155.902 75.68C155.902 75.208 156.078 74.816 156.43 74.504C156.79 74.184 157.286 74.024 157.918 74.024C158.278 74.024 158.614 74.088 158.926 74.216C159.238 74.344 159.506 74.5 159.73 74.684L159.25 75.308C159.05 75.156 158.842 75.032 158.626 74.936C158.41 74.84 158.174 74.792 157.918 74.792C157.55 74.792 157.278 74.876 157.102 75.044C156.934 75.212 156.85 75.408 156.85 75.632C156.85 75.816 156.91 75.968 157.03 76.088C157.15 76.2 157.306 76.3 157.498 76.388C157.69 76.468 157.894 76.552 158.11 76.64C158.39 76.744 158.666 76.864 158.938 77C159.21 77.128 159.434 77.304 159.61 77.528C159.794 77.744 159.886 78.036 159.886 78.404C159.886 78.716 159.802 79.004 159.634 79.268C159.474 79.532 159.234 79.744 158.914 79.904C158.602 80.064 158.214 80.144 157.75 80.144ZM163.558 80.144C163.046 80.144 162.582 80.024 162.166 79.784C161.75 79.544 161.422 79.196 161.182 78.74C160.942 78.284 160.822 77.736 160.822 77.096C160.822 76.44 160.95 75.884 161.206 75.428C161.47 74.972 161.814 74.624 162.238 74.384C162.67 74.144 163.134 74.024 163.63 74.024C164.014 74.024 164.342 74.092 164.614 74.228C164.894 74.364 165.134 74.524 165.334 74.708L164.83 75.356C164.662 75.204 164.482 75.08 164.29 74.984C164.106 74.888 163.898 74.84 163.666 74.84C163.314 74.84 162.998 74.936 162.718 75.128C162.446 75.312 162.23 75.576 162.07 75.92C161.918 76.256 161.842 76.648 161.842 77.096C161.842 77.76 162.006 78.3 162.334 78.716C162.67 79.124 163.106 79.328 163.642 79.328C163.914 79.328 164.166 79.272 164.398 79.16C164.63 79.04 164.834 78.9 165.01 78.74L165.442 79.4C165.178 79.632 164.886 79.816 164.566 79.952C164.246 80.08 163.91 80.144 163.558 80.144ZM167.953 80.144C167.465 80.144 167.057 80 166.729 79.712C166.409 79.416 166.249 79.008 166.249 78.488C166.249 77.848 166.533 77.36 167.101 77.024C167.677 76.68 168.585 76.44 169.825 76.304C169.825 76.056 169.789 75.82 169.717 75.596C169.653 75.372 169.533 75.192 169.357 75.056C169.189 74.912 168.945 74.84 168.625 74.84C168.289 74.84 167.973 74.904 167.677 75.032C167.381 75.16 167.117 75.304 166.885 75.464L166.501 74.78C166.773 74.604 167.105 74.436 167.497 74.276C167.897 74.108 168.329 74.024 168.793 74.024C169.505 74.024 170.021 74.244 170.341 74.684C170.661 75.116 170.821 75.696 170.821 76.424V80H170.005L169.921 79.304H169.885C169.613 79.528 169.313 79.724 168.985 79.892C168.665 80.06 168.321 80.144 167.953 80.144ZM168.241 79.352C168.521 79.352 168.785 79.284 169.033 79.148C169.281 79.012 169.545 78.82 169.825 78.572V76.952C168.857 77.072 168.177 77.252 167.785 77.492C167.401 77.732 167.209 78.04 167.209 78.416C167.209 78.744 167.309 78.984 167.509 79.136C167.709 79.28 167.953 79.352 168.241 79.352ZM173.064 77.624L172.932 73.088L172.908 71.96H173.904L173.88 73.088L173.748 77.624H173.064ZM173.412 80.144C173.212 80.144 173.04 80.076 172.896 79.94C172.76 79.796 172.692 79.616 172.692 79.4C172.692 79.168 172.76 78.984 172.896 78.848C173.04 78.704 173.212 78.632 173.412 78.632C173.604 78.632 173.768 78.704 173.904 78.848C174.048 78.984 174.12 79.168 174.12 79.4C174.12 79.616 174.048 79.796 173.904 79.94C173.768 80.076 173.604 80.144 173.412 80.144Z" fill="#5A6570"/>
<path d="M285.41 31.3011C277.1 12.6178 260.344 20.8876 258.306 28.0223C247.125 25.3098 241.144 35.5784 240.179 41.1277C235.293 39.0219 226.981 43.7902 225.003 53.3282C223.024 62.8661 229.12 70.2587 240.866 69.4276C245.759 83.346 260.661 80.5479 267.5 77.4091C278.908 91.8436 289.219 80.7164 292.949 73.3484C294.73 74.8103 299.694 76.816 305.306 73.1434C319.633 61.3762 309.512 45.5334 299.867 45.2886C298.914 33.7506 289.832 31.1561 285.41 31.3011Z" fill="#EEE6FC"/>
<path fill-rule="evenodd" clip-rule="evenodd" d="M225.12 52.7976C225.133 60.5796 231.083 66.1377 241.352 65.4111C246.245 79.3295 261.147 76.5314 267.986 73.3926C279.394 87.8271 289.705 76.6999 293.435 69.3319C295.216 70.7938 300.18 72.7995 305.792 69.1269C309.498 66.0832 311.568 62.7668 312.434 59.5183C312.528 63.9609 310.562 68.8265 305.306 73.1435C299.694 76.8161 294.73 74.8104 292.949 73.3485C289.22 80.7165 278.908 91.8437 267.501 77.4092C260.661 80.548 245.759 83.3461 240.866 69.4277C229.12 70.2588 223.024 62.8662 225.003 53.3283C225.04 53.1497 225.079 52.9728 225.12 52.7976Z" fill="#B89FEA"/>
<path d="M255.182 68.4248C254.17 78.0998 254.102 102.58 261.932 123.1C260.132 123.437 255.857 123.977 253.157 123.437" stroke="#241249" stroke-width="1.62309" stroke-linecap="round" stroke-linejoin="round"/>
<path d="M278.131 68.4248C277.119 78.0998 277.051 102.58 284.881 123.1C283.081 123.437 278.806 123.977 276.106 123.437" stroke="#241249" stroke-width="1.62309" stroke-linecap="round" stroke-linejoin="round"/>
<path d="M235.17 48.3965C229.217 55.7585 223.656 70.7374 225.944 77.533C228.232 84.3286 236.114 77.0629 241.507 67.3329C241.564 68.9793 242.117 72.8139 243.874 74.9814" stroke="#241249" stroke-width="1.62309" stroke-linecap="round" stroke-linejoin="round"/>
<path d="M293.369 51.3458C301.065 58.4079 309.575 73.8451 308.187 81.6332C306.799 89.4213 297.014 82.7788 289.542 73.0416C289.749 74.8473 289.771 79.1217 288.207 81.7733" stroke="#241249" stroke-width="1.62309" stroke-linecap="round" stroke-linejoin="round"/>
<path d="M296.252 11.0137C296.494 10.3217 297.511 10.458 297.562 11.1895L297.908 16.1189C297.924 16.3424 298.05 16.5436 298.244 16.6559L303.687 19.8046C304.258 20.135 304.065 21.0041 303.408 21.0614L298.444 21.4944C298.142 21.5207 297.895 21.7448 297.839 22.0424L296.594 28.6831C296.456 29.4216 295.396 29.4154 295.266 28.6753L294.082 21.93C294.04 21.6886 293.87 21.4891 293.638 21.4089L288.743 19.7124C288.123 19.4975 288.143 18.6137 288.772 18.4274L293.89 16.912C294.098 16.8504 294.264 16.6926 294.335 16.4878L296.252 11.0137Z" fill="#FECF4A"/>
<path d="M264.97 33.4381C265.082 30.963 264.362 27.363 260.582 32.7631" stroke="#241249" stroke-width="1.62309" stroke-linecap="round" stroke-linejoin="round"/>
<path d="M275.769 34.5631C275.882 32.088 275.162 28.488 271.382 33.8881" stroke="#241249" stroke-width="1.62309" stroke-linecap="round" stroke-linejoin="round"/>
<path d="M259.231 40.043C271.131 46.968 279.176 40.1004 281.71 35.801" stroke="#241249" stroke-width="1.62309" stroke-linecap="round" stroke-linejoin="round"/>
<mask id="mask0_1416_8321" style="mask-type:alpha" maskUnits="userSpaceOnUse" x="275" y="48" width="13" height="13">
<ellipse cx="6.01687" cy="6.01688" rx="6.01687" ry="6.01688" transform="matrix(0.905396 0.424568 -0.424565 0.905397 278.408 46.8257)" fill="#D9D9D9"/>
</mask>
<g mask="url(#mask0_1416_8321)">
<path d="M301.243 80.8575C296.292 91.4171 310.606 64.7004 282.789 51.6559C254.971 38.6115 243.585 66.7014 248.537 56.1417C253.488 45.5821 269.301 42.5547 283.856 49.3797C298.41 56.2048 306.195 70.2979 301.243 80.8575Z" fill="#FF2026"/>
<path d="M300.39 82.6788C295.438 93.2384 309.752 66.5216 281.935 53.4772C254.118 40.4328 242.732 68.5227 247.683 57.963C252.635 47.4034 268.448 44.376 283.002 51.201C297.557 58.0261 305.342 72.1192 300.39 82.6788Z" fill="#FF7A16"/>
<path d="M299.536 84.5001C294.585 95.0597 308.899 68.3429 281.081 55.2985C253.264 42.2541 241.878 70.3439 246.83 59.7843C251.781 49.2247 267.594 46.1972 282.149 53.0223C296.703 59.8474 304.488 73.9405 299.536 84.5001Z" fill="#FECF4A"/>
<path d="M298.682 86.3204C293.73 96.88 308.044 70.1632 280.227 57.1188C252.41 44.0744 241.023 72.1643 245.975 61.6046C250.927 51.045 266.74 48.0176 281.294 54.8426C295.849 61.6677 303.634 75.7608 298.682 86.3204Z" fill="#22C55E"/>
<path d="M297.828 88.1417C292.877 98.7013 307.191 71.9845 279.373 58.9401C251.556 45.8957 240.17 73.9855 245.122 63.4259C250.073 52.8663 265.886 49.8388 280.441 56.6639C294.995 63.489 302.78 77.5821 297.828 88.1417Z" fill="#1764E3"/>
<path d="M296.974 89.963C292.022 100.523 306.336 73.8058 278.519 60.7614C250.702 47.7169 239.315 75.8068 244.267 65.2472C249.219 54.6876 265.032 51.6601 279.586 58.4852C294.141 65.3103 301.926 79.4034 296.974 89.963Z" fill="#6732D1"/>
</g>
</g>
<defs>
<clipPath id="clip0_1416_8321">
<rect width="328" height="108" rx="8" fill="white"/>
</clipPath>
</defs>
</svg>
