<svg width="328" height="108" viewBox="0 0 328 108" fill="none" xmlns="http://www.w3.org/2000/svg">
<g clip-path="url(#clip0_3565_4958)">
<rect width="328" height="108" rx="9" fill="white"/>
<path d="M20.416 51.0785C19.7333 51.0785 19.0507 50.9505 18.368 50.6945C17.696 50.4385 17.0933 50.0652 16.56 49.5745L17.904 47.9585C18.2773 48.2785 18.6933 48.5399 19.152 48.7425C19.6107 48.9452 20.0533 49.0465 20.48 49.0465C20.9707 49.0465 21.3333 48.9559 21.568 48.7745C21.8133 48.5932 21.936 48.3479 21.936 48.0385C21.936 47.7079 21.7973 47.4679 21.52 47.3185C21.2533 47.1585 20.8907 46.9825 20.432 46.7905L19.072 46.2145C18.72 46.0652 18.384 45.8679 18.064 45.6225C17.744 45.3665 17.4827 45.0519 17.28 44.6785C17.0773 44.3052 16.976 43.8679 16.976 43.3665C16.976 42.7905 17.1307 42.2679 17.44 41.7985C17.76 41.3292 18.1973 40.9559 18.752 40.6785C19.3173 40.4012 19.9627 40.2625 20.688 40.2625C21.2853 40.2625 21.8827 40.3799 22.48 40.6145C23.0773 40.8492 23.6 41.1905 24.048 41.6385L22.848 43.1265C22.5067 42.8599 22.1653 42.6572 21.824 42.5185C21.4827 42.3692 21.104 42.2945 20.688 42.2945C20.2827 42.2945 19.9573 42.3799 19.712 42.5505C19.4773 42.7105 19.36 42.9399 19.36 43.2385C19.36 43.5585 19.5093 43.7985 19.808 43.9585C20.1173 44.1185 20.496 44.2892 20.944 44.4705L22.288 45.0145C22.9173 45.2705 23.4187 45.6225 23.792 46.0705C24.1653 46.5185 24.352 47.1105 24.352 47.8465C24.352 48.4225 24.1973 48.9559 23.888 49.4465C23.5787 49.9372 23.1307 50.3319 22.544 50.6305C21.9573 50.9292 21.248 51.0785 20.416 51.0785ZM29.4826 51.0785C28.7253 51.0785 28.0426 50.9132 27.4346 50.5825C26.8266 50.2519 26.3466 49.7772 25.9946 49.1585C25.6426 48.5399 25.4666 47.7932 25.4666 46.9185C25.4666 46.0545 25.6426 45.3132 25.9946 44.6945C26.3573 44.0759 26.8266 43.6012 27.4026 43.2705C27.9786 42.9292 28.5813 42.7585 29.2106 42.7585C29.968 42.7585 30.592 42.9292 31.0826 43.2705C31.584 43.6012 31.9573 44.0545 32.2026 44.6305C32.4586 45.1959 32.5866 45.8412 32.5866 46.5665C32.5866 46.7692 32.576 46.9719 32.5546 47.1745C32.5333 47.3665 32.512 47.5105 32.4906 47.6065H27.7386C27.8453 48.1825 28.0853 48.6092 28.4586 48.8865C28.832 49.1532 29.28 49.2865 29.8026 49.2865C30.368 49.2865 30.9386 49.1105 31.5146 48.7585L32.2986 50.1825C31.8933 50.4599 31.44 50.6785 30.9386 50.8385C30.4373 50.9985 29.952 51.0785 29.4826 51.0785ZM27.7226 46.0545H30.5866C30.5866 45.6172 30.48 45.2599 30.2666 44.9825C30.064 44.6945 29.728 44.5505 29.2586 44.5505C28.896 44.5505 28.5706 44.6785 28.2826 44.9345C27.9946 45.1799 27.808 45.5532 27.7226 46.0545ZM36.5959 51.0785C35.7319 51.0785 35.1025 50.7959 34.7079 50.2305C34.3239 49.6545 34.1319 48.8705 34.1319 47.8785V42.9505H36.4839V47.5745C36.4839 48.1399 36.5639 48.5345 36.7239 48.7585C36.8839 48.9719 37.1345 49.0785 37.4759 49.0785C37.7745 49.0785 38.0252 49.0092 38.2279 48.8705C38.4305 48.7319 38.6492 48.5079 38.8839 48.1985V42.9505H41.2359V50.8865H39.3159L39.1399 49.7825H39.0919C38.7612 50.1772 38.3985 50.4919 38.0039 50.7265C37.6092 50.9612 37.1399 51.0785 36.5959 51.0785ZM49.9648 51.0785C49.2288 51.0785 48.5621 50.9185 47.9648 50.5985C47.3781 50.2679 46.9088 49.7932 46.5568 49.1745C46.2154 48.5452 46.0448 47.7932 46.0448 46.9185C46.0448 46.0332 46.2368 45.2812 46.6208 44.6625C47.0048 44.0439 47.5114 43.5745 48.1408 43.2545C48.7701 42.9239 49.4474 42.7585 50.1727 42.7585C50.6634 42.7585 51.0954 42.8385 51.4688 42.9985C51.8528 43.1585 52.1941 43.3612 52.4928 43.6065L51.3888 45.1265C51.0154 44.8172 50.6581 44.6625 50.3168 44.6625C49.7514 44.6625 49.2981 44.8652 48.9568 45.2705C48.6261 45.6759 48.4608 46.2252 48.4608 46.9185C48.4608 47.6012 48.6261 48.1505 48.9568 48.5665C49.2981 48.9719 49.7248 49.1745 50.2368 49.1745C50.4928 49.1745 50.7434 49.1212 50.9888 49.0145C51.2341 48.8972 51.4581 48.7585 51.6608 48.5985L52.5888 50.1345C52.1941 50.4759 51.7674 50.7212 51.3088 50.8705C50.8501 51.0092 50.4021 51.0785 49.9648 51.0785ZM56.9324 51.0785C56.2604 51.0785 55.6257 50.9185 55.0284 50.5985C54.4417 50.2679 53.967 49.7932 53.6044 49.1745C53.2417 48.5452 53.0604 47.7932 53.0604 46.9185C53.0604 46.0332 53.2417 45.2812 53.6044 44.6625C53.967 44.0439 54.4417 43.5745 55.0284 43.2545C55.6257 42.9239 56.2604 42.7585 56.9324 42.7585C57.6044 42.7585 58.2337 42.9239 58.8204 43.2545C59.407 43.5745 59.8817 44.0439 60.2444 44.6625C60.607 45.2812 60.7884 46.0332 60.7884 46.9185C60.7884 47.7932 60.607 48.5452 60.2444 49.1745C59.8817 49.7932 59.407 50.2679 58.8204 50.5985C58.2337 50.9185 57.6044 51.0785 56.9324 51.0785ZM56.9324 49.1745C57.4124 49.1745 57.775 48.9719 58.0204 48.5665C58.2657 48.1505 58.3884 47.6012 58.3884 46.9185C58.3884 46.2252 58.2657 45.6759 58.0204 45.2705C57.775 44.8652 57.4124 44.6625 56.9324 44.6625C56.4417 44.6625 56.0737 44.8652 55.8284 45.2705C55.5937 45.6759 55.4764 46.2252 55.4764 46.9185C55.4764 47.6012 55.5937 48.1505 55.8284 48.5665C56.0737 48.9719 56.4417 49.1745 56.9324 49.1745ZM62.3994 50.8865V42.9505H64.3194L64.4794 44.3425H64.5434C64.8314 43.8092 65.178 43.4145 65.5834 43.1585C65.9887 42.8919 66.394 42.7585 66.7994 42.7585C67.0234 42.7585 67.21 42.7745 67.3594 42.8065C67.5087 42.8279 67.6367 42.8652 67.7434 42.9185L67.3594 44.9505C67.2207 44.9079 67.082 44.8759 66.9434 44.8545C66.8154 44.8332 66.666 44.8225 66.4954 44.8225C66.1967 44.8225 65.882 44.9345 65.5514 45.1585C65.2314 45.3719 64.9647 45.7452 64.7514 46.2785V50.8865H62.3994ZM68.7744 53.8305V42.9505H70.6944L70.8544 43.7345H70.9184C71.2277 43.4572 71.5744 43.2279 71.9584 43.0465C72.353 42.8545 72.7584 42.7585 73.1744 42.7585C74.1344 42.7585 74.8917 43.1265 75.4464 43.8625C76.001 44.5879 76.2784 45.5639 76.2784 46.7905C76.2784 47.6972 76.1184 48.4705 75.7984 49.1105C75.4784 49.7505 75.0624 50.2412 74.5504 50.5825C74.049 50.9132 73.5104 51.0785 72.9344 51.0785C72.593 51.0785 72.2624 51.0092 71.9424 50.8705C71.6224 50.7212 71.3237 50.5132 71.0464 50.2465L71.1264 51.5105V53.8305H68.7744ZM72.3904 49.1585C72.7957 49.1585 73.1424 48.9719 73.4304 48.5985C73.7184 48.2252 73.8624 47.6332 73.8624 46.8225C73.8624 45.3932 73.4037 44.6785 72.4864 44.6785C72.0277 44.6785 71.5744 44.9185 71.1264 45.3985V48.6465C71.3397 48.8385 71.553 48.9719 71.7664 49.0465C71.9797 49.1212 72.1877 49.1585 72.3904 49.1585ZM81.3543 51.0785C80.6823 51.0785 80.0476 50.9185 79.4503 50.5985C78.8636 50.2679 78.3889 49.7932 78.0263 49.1745C77.6636 48.5452 77.4823 47.7932 77.4823 46.9185C77.4823 46.0332 77.6636 45.2812 78.0263 44.6625C78.3889 44.0439 78.8636 43.5745 79.4503 43.2545C80.0476 42.9239 80.6823 42.7585 81.3543 42.7585C82.0263 42.7585 82.6556 42.9239 83.2423 43.2545C83.8289 43.5745 84.3036 44.0439 84.6663 44.6625C85.0289 45.2812 85.2103 46.0332 85.2103 46.9185C85.2103 47.7932 85.0289 48.5452 84.6663 49.1745C84.3036 49.7932 83.8289 50.2679 83.2423 50.5985C82.6556 50.9185 82.0263 51.0785 81.3543 51.0785ZM81.3543 49.1745C81.8343 49.1745 82.1969 48.9719 82.4423 48.5665C82.6876 48.1505 82.8103 47.6012 82.8103 46.9185C82.8103 46.2252 82.6876 45.6759 82.4423 45.2705C82.1969 44.8652 81.8343 44.6625 81.3543 44.6625C80.8636 44.6625 80.4956 44.8652 80.2503 45.2705C80.0156 45.6759 79.8983 46.2252 79.8983 46.9185C79.8983 47.6012 80.0156 48.1505 80.2503 48.5665C80.4956 48.9719 80.8636 49.1745 81.3543 49.1745ZM90.0244 50.8865V42.9505H91.9444L92.1044 43.9745H92.1684C92.499 43.6439 92.851 43.3612 93.2244 43.1265C93.5977 42.8812 94.0457 42.7585 94.5684 42.7585C95.1337 42.7585 95.587 42.8759 95.9284 43.1105C96.2804 43.3345 96.5577 43.6599 96.7604 44.0865C97.1124 43.7239 97.4857 43.4145 97.8804 43.1585C98.275 42.8919 98.7337 42.7585 99.2564 42.7585C100.11 42.7585 100.734 43.0465 101.128 43.6225C101.534 44.1879 101.736 44.9665 101.736 45.9585V50.8865H99.3844V46.2625C99.3844 45.6865 99.3044 45.2919 99.1444 45.0785C98.995 44.8652 98.7497 44.7585 98.4084 44.7585C98.0137 44.7585 97.5604 45.0145 97.0484 45.5265V50.8865H94.6964V46.2625C94.6964 45.6865 94.6164 45.2919 94.4564 45.0785C94.307 44.8652 94.0617 44.7585 93.7204 44.7585C93.3257 44.7585 92.8777 45.0145 92.3764 45.5265V50.8865H90.0244ZM107.295 51.0785C106.538 51.0785 105.855 50.9132 105.247 50.5825C104.639 50.2519 104.159 49.7772 103.807 49.1585C103.455 48.5399 103.279 47.7932 103.279 46.9185C103.279 46.0545 103.455 45.3132 103.807 44.6945C104.17 44.0759 104.639 43.6012 105.215 43.2705C105.791 42.9292 106.394 42.7585 107.023 42.7585C107.78 42.7585 108.404 42.9292 108.895 43.2705C109.396 43.6012 109.77 44.0545 110.015 44.6305C110.271 45.1959 110.399 45.8412 110.399 46.5665C110.399 46.7692 110.388 46.9719 110.367 47.1745C110.346 47.3665 110.324 47.5105 110.303 47.6065H105.551C105.658 48.1825 105.898 48.6092 106.271 48.8865C106.644 49.1532 107.092 49.2865 107.615 49.2865C108.18 49.2865 108.751 49.1105 109.327 48.7585L110.111 50.1825C109.706 50.4599 109.252 50.6785 108.751 50.8385C108.25 50.9985 107.764 51.0785 107.295 51.0785ZM105.535 46.0545H108.399C108.399 45.6172 108.292 45.2599 108.079 44.9825C107.876 44.6945 107.54 44.5505 107.071 44.5505C106.708 44.5505 106.383 44.6785 106.095 44.9345C105.807 45.1799 105.62 45.5532 105.535 46.0545ZM112.024 50.8865V42.9505H113.944L114.104 44.3425H114.168C114.456 43.8092 114.803 43.4145 115.208 43.1585C115.614 42.8919 116.019 42.7585 116.424 42.7585C116.648 42.7585 116.835 42.7745 116.984 42.8065C117.134 42.8279 117.262 42.8652 117.368 42.9185L116.984 44.9505C116.846 44.9079 116.707 44.8759 116.568 44.8545C116.44 44.8332 116.291 44.8225 116.12 44.8225C115.822 44.8225 115.507 44.9345 115.176 45.1585C114.856 45.3719 114.59 45.7452 114.376 46.2785V50.8865H112.024ZM121.795 51.0785C121.038 51.0785 120.355 50.9132 119.747 50.5825C119.139 50.2519 118.659 49.7772 118.307 49.1585C117.955 48.5399 117.779 47.7932 117.779 46.9185C117.779 46.0545 117.955 45.3132 118.307 44.6945C118.67 44.0759 119.139 43.6012 119.715 43.2705C120.291 42.9292 120.894 42.7585 121.523 42.7585C122.28 42.7585 122.904 42.9292 123.395 43.2705C123.896 43.6012 124.27 44.0545 124.515 44.6305C124.771 45.1959 124.899 45.8412 124.899 46.5665C124.899 46.7692 124.888 46.9719 124.867 47.1745C124.846 47.3665 124.824 47.5105 124.803 47.6065H120.051C120.158 48.1825 120.398 48.6092 120.771 48.8865C121.144 49.1532 121.592 49.2865 122.115 49.2865C122.68 49.2865 123.251 49.1105 123.827 48.7585L124.611 50.1825C124.206 50.4599 123.752 50.6785 123.251 50.8385C122.75 50.9985 122.264 51.0785 121.795 51.0785ZM120.035 46.0545H122.899C122.899 45.6172 122.792 45.2599 122.579 44.9825C122.376 44.6945 122.04 44.5505 121.571 44.5505C121.208 44.5505 120.883 44.6785 120.595 44.9345C120.307 45.1799 120.12 45.5532 120.035 46.0545ZM129.98 51.0785C129.244 51.0785 128.578 50.9185 127.98 50.5985C127.394 50.2679 126.924 49.7932 126.572 49.1745C126.231 48.5452 126.06 47.7932 126.06 46.9185C126.06 46.0332 126.252 45.2812 126.636 44.6625C127.02 44.0439 127.527 43.5745 128.156 43.2545C128.786 42.9239 129.463 42.7585 130.188 42.7585C130.679 42.7585 131.111 42.8385 131.484 42.9985C131.868 43.1585 132.21 43.3612 132.508 43.6065L131.404 45.1265C131.031 44.8172 130.674 44.6625 130.332 44.6625C129.767 44.6625 129.314 44.8652 128.972 45.2705C128.642 45.6759 128.476 46.2252 128.476 46.9185C128.476 47.6012 128.642 48.1505 128.972 48.5665C129.314 48.9719 129.74 49.1745 130.252 49.1745C130.508 49.1745 130.759 49.1212 131.004 49.0145C131.25 48.8972 131.474 48.7585 131.676 48.5985L132.604 50.1345C132.21 50.4759 131.783 50.7212 131.324 50.8705C130.866 51.0092 130.418 51.0785 129.98 51.0785ZM137.092 51.0785C136.335 51.0785 135.652 50.9132 135.044 50.5825C134.436 50.2519 133.956 49.7772 133.604 49.1585C133.252 48.5399 133.076 47.7932 133.076 46.9185C133.076 46.0545 133.252 45.3132 133.604 44.6945C133.967 44.0759 134.436 43.6012 135.012 43.2705C135.588 42.9292 136.191 42.7585 136.82 42.7585C137.577 42.7585 138.201 42.9292 138.692 43.2705C139.193 43.6012 139.567 44.0545 139.812 44.6305C140.068 45.1959 140.196 45.8412 140.196 46.5665C140.196 46.7692 140.185 46.9719 140.164 47.1745C140.143 47.3665 140.121 47.5105 140.1 47.6065H135.348C135.455 48.1825 135.695 48.6092 136.068 48.8865C136.441 49.1532 136.889 49.2865 137.412 49.2865C137.977 49.2865 138.548 49.1105 139.124 48.7585L139.908 50.1825C139.503 50.4599 139.049 50.6785 138.548 50.8385C138.047 50.9985 137.561 51.0785 137.092 51.0785ZM135.332 46.0545H138.196C138.196 45.6172 138.089 45.2599 137.876 44.9825C137.673 44.6945 137.337 44.5505 136.868 44.5505C136.505 44.5505 136.18 44.6785 135.892 44.9345C135.604 45.1799 135.417 45.5532 135.332 46.0545ZM148.432 51.0785C147.76 51.0785 147.126 50.9185 146.528 50.5985C145.942 50.2679 145.467 49.7932 145.104 49.1745C144.742 48.5452 144.56 47.7932 144.56 46.9185C144.56 46.0332 144.742 45.2812 145.104 44.6625C145.467 44.0439 145.942 43.5745 146.528 43.2545C147.126 42.9239 147.76 42.7585 148.432 42.7585C149.104 42.7585 149.734 42.9239 150.32 43.2545C150.907 43.5745 151.382 44.0439 151.744 44.6625C152.107 45.2812 152.288 46.0332 152.288 46.9185C152.288 47.7932 152.107 48.5452 151.744 49.1745C151.382 49.7932 150.907 50.2679 150.32 50.5985C149.734 50.9185 149.104 51.0785 148.432 51.0785ZM148.432 49.1745C148.912 49.1745 149.275 48.9719 149.52 48.5665C149.766 48.1505 149.888 47.6012 149.888 46.9185C149.888 46.2252 149.766 45.6759 149.52 45.2705C149.275 44.8652 148.912 44.6625 148.432 44.6625C147.942 44.6625 147.574 44.8652 147.328 45.2705C147.094 45.6759 146.976 46.2252 146.976 46.9185C146.976 47.6012 147.094 48.1505 147.328 48.5665C147.574 48.9719 147.942 49.1745 148.432 49.1745ZM157.103 50.8865V42.9505H159.023L159.183 43.9745H159.247C159.577 43.6439 159.929 43.3612 160.303 43.1265C160.676 42.8812 161.124 42.7585 161.647 42.7585C162.212 42.7585 162.665 42.8759 163.007 43.1105C163.359 43.3345 163.636 43.6599 163.839 44.0865C164.191 43.7239 164.564 43.4145 164.959 43.1585C165.353 42.8919 165.812 42.7585 166.335 42.7585C167.188 42.7585 167.812 43.0465 168.207 43.6225C168.612 44.1879 168.815 44.9665 168.815 45.9585V50.8865H166.463V46.2625C166.463 45.6865 166.383 45.2919 166.223 45.0785C166.073 44.8652 165.828 44.7585 165.487 44.7585C165.092 44.7585 164.639 45.0145 164.127 45.5265V50.8865H161.775V46.2625C161.775 45.6865 161.695 45.2919 161.535 45.0785C161.385 44.8652 161.14 44.7585 160.799 44.7585C160.404 44.7585 159.956 45.0145 159.455 45.5265V50.8865H157.103ZM174.373 51.0785C173.616 51.0785 172.933 50.9132 172.325 50.5825C171.717 50.2519 171.237 49.7772 170.885 49.1585C170.533 48.5399 170.357 47.7932 170.357 46.9185C170.357 46.0545 170.533 45.3132 170.885 44.6945C171.248 44.0759 171.717 43.6012 172.293 43.2705C172.869 42.9292 173.472 42.7585 174.101 42.7585C174.859 42.7585 175.483 42.9292 175.973 43.2705C176.475 43.6012 176.848 44.0545 177.093 44.6305C177.349 45.1959 177.477 45.8412 177.477 46.5665C177.477 46.7692 177.467 46.9719 177.445 47.1745C177.424 47.3665 177.403 47.5105 177.381 47.6065H172.629C172.736 48.1825 172.976 48.6092 173.349 48.8865C173.723 49.1532 174.171 49.2865 174.693 49.2865C175.259 49.2865 175.829 49.1105 176.405 48.7585L177.189 50.1825C176.784 50.4599 176.331 50.6785 175.829 50.8385C175.328 50.9985 174.843 51.0785 174.373 51.0785ZM172.613 46.0545H175.477C175.477 45.6172 175.371 45.2599 175.157 44.9825C174.955 44.6945 174.619 44.5505 174.149 44.5505C173.787 44.5505 173.461 44.6785 173.173 44.9345C172.885 45.1799 172.699 45.5532 172.613 46.0545ZM181.263 51.0785C180.452 51.0785 179.887 50.8385 179.567 50.3585C179.257 49.8679 179.103 49.2225 179.103 48.4225V39.6705H181.455V48.5185C181.455 48.7639 181.497 48.9345 181.583 49.0305C181.679 49.1265 181.775 49.1745 181.871 49.1745C181.924 49.1745 181.967 49.1745 181.999 49.1745C182.041 49.1639 182.095 49.1532 182.159 49.1425L182.447 50.8865C182.319 50.9399 182.153 50.9825 181.951 51.0145C181.759 51.0572 181.529 51.0785 181.263 51.0785ZM183.681 50.8865V39.6705H186.033V42.4225L185.921 43.8465C186.219 43.5799 186.566 43.3345 186.961 43.1105C187.366 42.8759 187.835 42.7585 188.369 42.7585C189.233 42.7585 189.857 43.0465 190.241 43.6225C190.635 44.1879 190.833 44.9665 190.833 45.9585V50.8865H188.481V46.2625C188.481 45.6865 188.401 45.2919 188.241 45.0785C188.091 44.8652 187.846 44.7585 187.505 44.7585C187.206 44.7585 186.95 44.8279 186.737 44.9665C186.523 45.0945 186.289 45.2812 186.033 45.5265V50.8865H183.681ZM196.229 51.0785C195.557 51.0785 194.923 50.9185 194.325 50.5985C193.739 50.2679 193.264 49.7932 192.901 49.1745C192.539 48.5452 192.357 47.7932 192.357 46.9185C192.357 46.0332 192.539 45.2812 192.901 44.6625C193.264 44.0439 193.739 43.5745 194.325 43.2545C194.923 42.9239 195.557 42.7585 196.229 42.7585C196.901 42.7585 197.531 42.9239 198.117 43.2545C198.704 43.5745 199.179 44.0439 199.541 44.6625C199.904 45.2812 200.085 46.0332 200.085 46.9185C200.085 47.7932 199.904 48.5452 199.541 49.1745C199.179 49.7932 198.704 50.2679 198.117 50.5985C197.531 50.9185 196.901 51.0785 196.229 51.0785ZM196.229 49.1745C196.709 49.1745 197.072 48.9719 197.317 48.5665C197.563 48.1505 197.685 47.6012 197.685 46.9185C197.685 46.2252 197.563 45.6759 197.317 45.2705C197.072 44.8652 196.709 44.6625 196.229 44.6625C195.739 44.6625 195.371 44.8652 195.125 45.2705C194.891 45.6759 194.773 46.2252 194.773 46.9185C194.773 47.6012 194.891 48.1505 195.125 48.5665C195.371 48.9719 195.739 49.1745 196.229 49.1745ZM201.696 50.8865V42.9505H203.616L203.776 44.3425H203.84C204.128 43.8092 204.475 43.4145 204.88 43.1585C205.286 42.8919 205.691 42.7585 206.096 42.7585C206.32 42.7585 206.507 42.7745 206.656 42.8065C206.806 42.8279 206.934 42.8652 207.04 42.9185L206.656 44.9505C206.518 44.9079 206.379 44.8759 206.24 44.8545C206.112 44.8332 205.963 44.8225 205.792 44.8225C205.494 44.8225 205.179 44.9345 204.848 45.1585C204.528 45.3719 204.262 45.7452 204.048 46.2785V50.8865H201.696Z" fill="#3A1C76"/>
<path d="M20.056 71.0305C19.4 71.0305 18.812 70.8705 18.292 70.5505C17.78 70.2225 17.372 69.7545 17.068 69.1465C16.772 68.5385 16.624 67.8065 16.624 66.9505C16.624 66.1025 16.776 65.3745 17.08 64.7665C17.384 64.1585 17.8 63.6905 18.328 63.3625C18.856 63.0345 19.452 62.8705 20.116 62.8705C20.596 62.8705 21.02 62.9705 21.388 63.1705C21.756 63.3625 22.052 63.5865 22.276 63.8425L21.736 64.4905C21.528 64.2665 21.292 64.0865 21.028 63.9505C20.764 63.8145 20.464 63.7465 20.128 63.7465C19.632 63.7465 19.196 63.8785 18.82 64.1425C18.452 64.3985 18.164 64.7625 17.956 65.2345C17.756 65.7065 17.656 66.2705 17.656 66.9265C17.656 67.5825 17.756 68.1545 17.956 68.6425C18.156 69.1225 18.436 69.4945 18.796 69.7585C19.164 70.0225 19.596 70.1545 20.092 70.1545C20.468 70.1545 20.804 70.0745 21.1 69.9145C21.396 69.7545 21.668 69.5385 21.916 69.2665L22.468 69.8905C22.156 70.2505 21.804 70.5305 21.412 70.7305C21.02 70.9305 20.568 71.0305 20.056 71.0305ZM26.1075 71.0305C25.6355 71.0305 25.1915 70.9105 24.7755 70.6705C24.3675 70.4305 24.0355 70.0825 23.7795 69.6265C23.5315 69.1705 23.4075 68.6225 23.4075 67.9825C23.4075 67.3265 23.5315 66.7705 23.7795 66.3145C24.0355 65.8585 24.3675 65.5105 24.7755 65.2705C25.1915 65.0305 25.6355 64.9105 26.1075 64.9105C26.5875 64.9105 27.0315 65.0305 27.4395 65.2705C27.8475 65.5105 28.1755 65.8585 28.4235 66.3145C28.6795 66.7705 28.8075 67.3265 28.8075 67.9825C28.8075 68.6225 28.6795 69.1705 28.4235 69.6265C28.1755 70.0825 27.8475 70.4305 27.4395 70.6705C27.0315 70.9105 26.5875 71.0305 26.1075 71.0305ZM26.1075 70.2145C26.6115 70.2145 27.0155 70.0105 27.3195 69.6025C27.6315 69.1865 27.7875 68.6465 27.7875 67.9825C27.7875 67.3105 27.6315 66.7665 27.3195 66.3505C27.0155 65.9345 26.6115 65.7265 26.1075 65.7265C25.6115 65.7265 25.2075 65.9345 24.8955 66.3505C24.5835 66.7665 24.4275 67.3105 24.4275 67.9825C24.4275 68.6465 24.5835 69.1865 24.8955 69.6025C25.2075 70.0105 25.6115 70.2145 26.1075 70.2145ZM30.3434 70.8865V65.0545H31.1594L31.2434 65.8945H31.2794C31.5594 65.6145 31.8554 65.3825 32.1674 65.1985C32.4794 65.0065 32.8354 64.9105 33.2354 64.9105C33.8514 64.9105 34.2994 65.1065 34.5794 65.4985C34.8674 65.8825 35.0114 66.4465 35.0114 67.1905V70.8865H34.0274V67.3225C34.0274 66.7785 33.9394 66.3825 33.7634 66.1345C33.5874 65.8865 33.3074 65.7625 32.9234 65.7625C32.6274 65.7625 32.3594 65.8385 32.1194 65.9905C31.8874 66.1425 31.6234 66.3665 31.3274 66.6625V70.8865H30.3434ZM36.9059 70.8865V62.3425H37.8899V64.6705L37.8539 65.8705C38.1339 65.6065 38.4259 65.3825 38.7299 65.1985C39.0419 65.0065 39.3979 64.9105 39.7979 64.9105C40.4139 64.9105 40.8619 65.1065 41.1419 65.4985C41.4299 65.8825 41.5739 66.4465 41.5739 67.1905V70.8865H40.5899V67.3225C40.5899 66.7785 40.5019 66.3825 40.3259 66.1345C40.1499 65.8865 39.8699 65.7625 39.4859 65.7625C39.1899 65.7625 38.9219 65.8385 38.6819 65.9905C38.4499 66.1425 38.1859 66.3665 37.8899 66.6625V70.8865H36.9059ZM45.7972 71.0305C45.2772 71.0305 44.8052 70.9105 44.3812 70.6705C43.9572 70.4225 43.6212 70.0705 43.3732 69.6145C43.1252 69.1585 43.0012 68.6145 43.0012 67.9825C43.0012 67.3425 43.1252 66.7945 43.3732 66.3385C43.6292 65.8825 43.9572 65.5305 44.3572 65.2825C44.7572 65.0345 45.1772 64.9105 45.6172 64.9105C46.3612 64.9105 46.9332 65.1585 47.3332 65.6545C47.7412 66.1505 47.9452 66.8145 47.9452 67.6465C47.9452 67.7505 47.9412 67.8545 47.9332 67.9585C47.9332 68.0545 47.9252 68.1385 47.9092 68.2105H43.9732C44.0132 68.8265 44.2052 69.3185 44.5492 69.6865C44.9012 70.0545 45.3572 70.2385 45.9172 70.2385C46.1972 70.2385 46.4532 70.1985 46.6852 70.1185C46.9252 70.0305 47.1532 69.9185 47.3692 69.7825L47.7172 70.4305C47.4692 70.5905 47.1852 70.7305 46.8652 70.8505C46.5532 70.9705 46.1972 71.0305 45.7972 71.0305ZM43.9612 67.5025H47.0812C47.0812 66.9105 46.9532 66.4625 46.6972 66.1585C46.4492 65.8465 46.0972 65.6905 45.6412 65.6905C45.2332 65.6905 44.8652 65.8505 44.5372 66.1705C44.2172 66.4825 44.0252 66.9265 43.9612 67.5025ZM51.6903 71.0305C51.1783 71.0305 50.7143 70.9105 50.2983 70.6705C49.8823 70.4305 49.5543 70.0825 49.3143 69.6265C49.0743 69.1705 48.9543 68.6225 48.9543 67.9825C48.9543 67.3265 49.0823 66.7705 49.3383 66.3145C49.6023 65.8585 49.9463 65.5105 50.3703 65.2705C50.8023 65.0305 51.2663 64.9105 51.7623 64.9105C52.1463 64.9105 52.4743 64.9785 52.7463 65.1145C53.0263 65.2505 53.2663 65.4105 53.4663 65.5945L52.9623 66.2425C52.7943 66.0905 52.6143 65.9665 52.4223 65.8705C52.2383 65.7745 52.0303 65.7265 51.7983 65.7265C51.4463 65.7265 51.1303 65.8225 50.8503 66.0145C50.5783 66.1985 50.3623 66.4625 50.2023 66.8065C50.0503 67.1425 49.9743 67.5345 49.9743 67.9825C49.9743 68.6465 50.1383 69.1865 50.4663 69.6025C50.8023 70.0105 51.2383 70.2145 51.7743 70.2145C52.0463 70.2145 52.2983 70.1585 52.5303 70.0465C52.7623 69.9265 52.9663 69.7865 53.1423 69.6265L53.5743 70.2865C53.3103 70.5185 53.0183 70.7025 52.6983 70.8385C52.3783 70.9665 52.0423 71.0305 51.6903 71.0305ZM50.5503 73.5985L50.4543 73.1185C50.9583 73.0785 51.3023 73.0105 51.4863 72.9145C51.6703 72.8265 51.7623 72.6945 51.7623 72.5185C51.7623 72.3585 51.6943 72.2345 51.5583 72.1465C51.4223 72.0585 51.1823 71.9905 50.8383 71.9425L51.3663 70.8505H52.0023L51.6543 71.6545C51.9343 71.7185 52.1503 71.8145 52.3023 71.9425C52.4543 72.0705 52.5303 72.2585 52.5303 72.5065C52.5303 72.8505 52.3583 73.1105 52.0143 73.2865C51.6783 73.4625 51.1903 73.5665 50.5503 73.5985ZM56.0858 71.0305C55.5978 71.0305 55.1898 70.8865 54.8618 70.5985C54.5418 70.3025 54.3818 69.8945 54.3818 69.3745C54.3818 68.7345 54.6658 68.2465 55.2338 67.9105C55.8098 67.5665 56.7178 67.3265 57.9578 67.1905C57.9578 66.9425 57.9218 66.7065 57.8498 66.4825C57.7858 66.2585 57.6658 66.0785 57.4898 65.9425C57.3218 65.7985 57.0778 65.7265 56.7578 65.7265C56.4218 65.7265 56.1058 65.7905 55.8098 65.9185C55.5138 66.0465 55.2498 66.1905 55.0178 66.3505L54.6338 65.6665C54.9058 65.4905 55.2378 65.3225 55.6298 65.1625C56.0298 64.9945 56.4618 64.9105 56.9258 64.9105C57.6378 64.9105 58.1538 65.1305 58.4738 65.5705C58.7938 66.0025 58.9538 66.5825 58.9538 67.3105V70.8865H58.1378L58.0538 70.1905H58.0178C57.7458 70.4145 57.4458 70.6105 57.1178 70.7785C56.7978 70.9465 56.4538 71.0305 56.0858 71.0305ZM56.3738 70.2385C56.6538 70.2385 56.9178 70.1705 57.1658 70.0345C57.4138 69.8985 57.6778 69.7065 57.9578 69.4585V67.8385C56.9898 67.9585 56.3098 68.1385 55.9178 68.3785C55.5338 68.6185 55.3418 68.9265 55.3418 69.3025C55.3418 69.6305 55.4418 69.8705 55.6418 70.0225C55.8418 70.1665 56.0858 70.2385 56.3738 70.2385ZM63.191 70.8865V65.0545H64.007L64.091 65.8945H64.127C64.407 65.6145 64.703 65.3825 65.015 65.1985C65.327 65.0065 65.683 64.9105 66.083 64.9105C66.699 64.9105 67.147 65.1065 67.427 65.4985C67.715 65.8825 67.859 66.4465 67.859 67.1905V70.8865H66.875V67.3225C66.875 66.7785 66.787 66.3825 66.611 66.1345C66.435 65.8865 66.155 65.7625 65.771 65.7625C65.475 65.7625 65.207 65.8385 64.967 65.9905C64.735 66.1425 64.471 66.3665 64.175 66.6625V70.8865H63.191ZM72.0215 71.0305C71.5495 71.0305 71.1055 70.9105 70.6895 70.6705C70.2815 70.4305 69.9495 70.0825 69.6935 69.6265C69.4455 69.1705 69.3215 68.6225 69.3215 67.9825C69.3215 67.3265 69.4455 66.7705 69.6935 66.3145C69.9495 65.8585 70.2815 65.5105 70.6895 65.2705C71.1055 65.0305 71.5495 64.9105 72.0215 64.9105C72.5015 64.9105 72.9455 65.0305 73.3535 65.2705C73.7615 65.5105 74.0895 65.8585 74.3375 66.3145C74.5935 66.7705 74.7215 67.3265 74.7215 67.9825C74.7215 68.6225 74.5935 69.1705 74.3375 69.6265C74.0895 70.0825 73.7615 70.4305 73.3535 70.6705C72.9455 70.9105 72.5015 71.0305 72.0215 71.0305ZM72.0215 70.2145C72.5255 70.2145 72.9295 70.0105 73.2335 69.6025C73.5455 69.1865 73.7015 68.6465 73.7015 67.9825C73.7015 67.3105 73.5455 66.7665 73.2335 66.3505C72.9295 65.9345 72.5255 65.7265 72.0215 65.7265C71.5255 65.7265 71.1215 65.9345 70.8095 66.3505C70.4975 66.7665 70.3415 67.3105 70.3415 67.9825C70.3415 68.6465 70.4975 69.1865 70.8095 69.6025C71.1215 70.0105 71.5255 70.2145 72.0215 70.2145ZM77.7814 71.0305C77.3654 71.0305 76.9694 70.9545 76.5934 70.8025C76.2174 70.6425 75.8894 70.4505 75.6094 70.2265L76.1014 69.5665C76.3574 69.7665 76.6214 69.9345 76.8934 70.0705C77.1654 70.1985 77.4734 70.2625 77.8174 70.2625C78.2014 70.2625 78.4894 70.1745 78.6814 69.9985C78.8734 69.8145 78.9694 69.5985 78.9694 69.3505C78.9694 69.1505 78.9014 68.9825 78.7654 68.8465C78.6374 68.7105 78.4694 68.5985 78.2614 68.5105C78.0614 68.4145 77.8534 68.3265 77.6374 68.2465C77.3654 68.1425 77.0974 68.0265 76.8334 67.8985C76.5694 67.7625 76.3534 67.5905 76.1854 67.3825C76.0174 67.1665 75.9334 66.8945 75.9334 66.5665C75.9334 66.0945 76.1094 65.7025 76.4614 65.3905C76.8214 65.0705 77.3174 64.9105 77.9494 64.9105C78.3094 64.9105 78.6454 64.9745 78.9574 65.1025C79.2694 65.2305 79.5374 65.3865 79.7614 65.5705L79.2814 66.1945C79.0814 66.0425 78.8734 65.9185 78.6574 65.8225C78.4414 65.7265 78.2054 65.6785 77.9494 65.6785C77.5814 65.6785 77.3094 65.7625 77.1334 65.9305C76.9654 66.0985 76.8814 66.2945 76.8814 66.5185C76.8814 66.7025 76.9414 66.8545 77.0614 66.9745C77.1814 67.0865 77.3374 67.1865 77.5294 67.2745C77.7214 67.3545 77.9254 67.4385 78.1414 67.5265C78.4214 67.6305 78.6974 67.7505 78.9694 67.8865C79.2414 68.0145 79.4654 68.1905 79.6414 68.4145C79.8254 68.6305 79.9174 68.9225 79.9174 69.2905C79.9174 69.6025 79.8334 69.8905 79.6654 70.1545C79.5054 70.4185 79.2654 70.6305 78.9454 70.7905C78.6334 70.9505 78.2454 71.0305 77.7814 71.0305ZM82.8088 71.0305C82.3928 71.0305 81.9968 70.9545 81.6208 70.8025C81.2448 70.6425 80.9168 70.4505 80.6368 70.2265L81.1288 69.5665C81.3848 69.7665 81.6488 69.9345 81.9208 70.0705C82.1928 70.1985 82.5008 70.2625 82.8448 70.2625C83.2288 70.2625 83.5168 70.1745 83.7088 69.9985C83.9008 69.8145 83.9968 69.5985 83.9968 69.3505C83.9968 69.1505 83.9288 68.9825 83.7928 68.8465C83.6648 68.7105 83.4968 68.5985 83.2888 68.5105C83.0888 68.4145 82.8808 68.3265 82.6648 68.2465C82.3928 68.1425 82.1248 68.0265 81.8608 67.8985C81.5968 67.7625 81.3808 67.5905 81.2128 67.3825C81.0448 67.1665 80.9608 66.8945 80.9608 66.5665C80.9608 66.0945 81.1368 65.7025 81.4888 65.3905C81.8488 65.0705 82.3448 64.9105 82.9768 64.9105C83.3368 64.9105 83.6728 64.9745 83.9848 65.1025C84.2968 65.2305 84.5648 65.3865 84.7888 65.5705L84.3088 66.1945C84.1088 66.0425 83.9008 65.9185 83.6848 65.8225C83.4688 65.7265 83.2328 65.6785 82.9768 65.6785C82.6088 65.6785 82.3368 65.7625 82.1608 65.9305C81.9928 66.0985 81.9088 66.2945 81.9088 66.5185C81.9088 66.7025 81.9688 66.8545 82.0888 66.9745C82.2088 67.0865 82.3648 67.1865 82.5568 67.2745C82.7488 67.3545 82.9528 67.4385 83.1688 67.5265C83.4488 67.6305 83.7248 67.7505 83.9968 67.8865C84.2688 68.0145 84.4928 68.1905 84.6688 68.4145C84.8528 68.6305 84.9448 68.9225 84.9448 69.2905C84.9448 69.6025 84.8608 69.8905 84.6928 70.1545C84.5328 70.4185 84.2928 70.6305 83.9728 70.7905C83.6608 70.9505 83.2728 71.0305 82.8088 71.0305ZM88.5801 71.0305C88.1081 71.0305 87.6641 70.9105 87.2481 70.6705C86.8401 70.4305 86.5081 70.0825 86.2521 69.6265C86.0041 69.1705 85.8801 68.6225 85.8801 67.9825C85.8801 67.3265 86.0041 66.7705 86.2521 66.3145C86.5081 65.8585 86.8401 65.5105 87.2481 65.2705C87.6641 65.0305 88.1081 64.9105 88.5801 64.9105C89.0601 64.9105 89.5041 65.0305 89.9121 65.2705C90.3201 65.5105 90.6481 65.8585 90.8961 66.3145C91.1521 66.7705 91.2801 67.3265 91.2801 67.9825C91.2801 68.6225 91.1521 69.1705 90.8961 69.6265C90.6481 70.0825 90.3201 70.4305 89.9121 70.6705C89.5041 70.9105 89.0601 71.0305 88.5801 71.0305ZM88.5801 70.2145C89.0841 70.2145 89.4881 70.0105 89.7921 69.6025C90.1041 69.1865 90.2601 68.6465 90.2601 67.9825C90.2601 67.3105 90.1041 66.7665 89.7921 66.3505C89.4881 65.9345 89.0841 65.7265 88.5801 65.7265C88.0841 65.7265 87.6801 65.9345 87.3681 66.3505C87.0561 66.7665 86.9001 67.3105 86.9001 67.9825C86.9001 68.6465 87.0561 69.1865 87.3681 69.6025C87.6801 70.0105 88.0841 70.2145 88.5801 70.2145ZM94.34 71.0305C93.924 71.0305 93.528 70.9545 93.152 70.8025C92.776 70.6425 92.448 70.4505 92.168 70.2265L92.66 69.5665C92.916 69.7665 93.18 69.9345 93.452 70.0705C93.724 70.1985 94.032 70.2625 94.376 70.2625C94.76 70.2625 95.048 70.1745 95.24 69.9985C95.432 69.8145 95.528 69.5985 95.528 69.3505C95.528 69.1505 95.46 68.9825 95.324 68.8465C95.196 68.7105 95.028 68.5985 94.82 68.5105C94.62 68.4145 94.412 68.3265 94.196 68.2465C93.924 68.1425 93.656 68.0265 93.392 67.8985C93.128 67.7625 92.912 67.5905 92.744 67.3825C92.576 67.1665 92.492 66.8945 92.492 66.5665C92.492 66.0945 92.668 65.7025 93.02 65.3905C93.38 65.0705 93.876 64.9105 94.508 64.9105C94.868 64.9105 95.204 64.9745 95.516 65.1025C95.828 65.2305 96.096 65.3865 96.32 65.5705L95.84 66.1945C95.64 66.0425 95.432 65.9185 95.216 65.8225C95 65.7265 94.764 65.6785 94.508 65.6785C94.14 65.6785 93.868 65.7625 93.692 65.9305C93.524 66.0985 93.44 66.2945 93.44 66.5185C93.44 66.7025 93.5 66.8545 93.62 66.9745C93.74 67.0865 93.896 67.1865 94.088 67.2745C94.28 67.3545 94.484 67.4385 94.7 67.5265C94.98 67.6305 95.256 67.7505 95.528 67.8865C95.8 68.0145 96.024 68.1905 96.2 68.4145C96.384 68.6305 96.476 68.9225 96.476 69.2905C96.476 69.6025 96.392 69.8905 96.224 70.1545C96.064 70.4185 95.824 70.6305 95.504 70.7905C95.192 70.9505 94.804 71.0305 94.34 71.0305ZM100.246 70.8865V65.0545H101.062L101.146 65.8945H101.182C101.462 65.6145 101.758 65.3825 102.07 65.1985C102.382 65.0065 102.738 64.9105 103.138 64.9105C103.754 64.9105 104.202 65.1065 104.482 65.4985C104.77 65.8825 104.914 66.4465 104.914 67.1905V70.8865H103.93V67.3225C103.93 66.7785 103.842 66.3825 103.666 66.1345C103.49 65.8865 103.21 65.7625 102.826 65.7625C102.53 65.7625 102.262 65.8385 102.022 65.9905C101.79 66.1425 101.526 66.3665 101.23 66.6625V70.8865H100.246ZM108.512 71.0305C107.896 71.0305 107.444 70.8385 107.156 70.4545C106.868 70.0625 106.724 69.4945 106.724 68.7505V65.0545H107.72V68.6185C107.72 69.1625 107.804 69.5585 107.972 69.8065C108.148 70.0545 108.428 70.1785 108.812 70.1785C109.116 70.1785 109.384 70.1025 109.616 69.9505C109.856 69.7905 110.112 69.5385 110.384 69.1945V65.0545H111.368V70.8865H110.552L110.468 69.9745H110.432C110.16 70.2945 109.872 70.5505 109.568 70.7425C109.264 70.9345 108.912 71.0305 108.512 71.0305ZM115.172 71.0305C114.548 71.0305 114.112 70.8505 113.864 70.4905C113.624 70.1305 113.504 69.6625 113.504 69.0865V65.8585H112.64V65.1145L113.552 65.0545L113.672 63.4225H114.5V65.0545H116.072V65.8585H114.5V69.0985C114.5 69.4585 114.564 69.7385 114.692 69.9385C114.828 70.1305 115.064 70.2265 115.4 70.2265C115.504 70.2265 115.616 70.2105 115.736 70.1785C115.856 70.1385 115.964 70.1025 116.06 70.0705L116.252 70.8145C116.092 70.8705 115.916 70.9185 115.724 70.9585C115.54 71.0065 115.356 71.0305 115.172 71.0305ZM117.39 70.8865V65.0545H118.206L118.29 66.1105H118.326C118.526 65.7425 118.77 65.4505 119.058 65.2345C119.346 65.0185 119.654 64.9105 119.982 64.9105C120.214 64.9105 120.422 64.9505 120.606 65.0305L120.414 65.8945C120.318 65.8625 120.23 65.8385 120.15 65.8225C120.07 65.8065 119.97 65.7985 119.85 65.7985C119.602 65.7985 119.342 65.8985 119.07 66.0985C118.806 66.2985 118.574 66.6465 118.374 67.1425V70.8865H117.39ZM121.55 70.8865V65.0545H122.534V70.8865H121.55ZM122.054 63.8545C121.862 63.8545 121.702 63.7985 121.574 63.6865C121.454 63.5665 121.394 63.4065 121.394 63.2065C121.394 63.0145 121.454 62.8585 121.574 62.7385C121.702 62.6185 121.862 62.5585 122.054 62.5585C122.246 62.5585 122.402 62.6185 122.522 62.7385C122.65 62.8585 122.714 63.0145 122.714 63.2065C122.714 63.4065 122.65 63.5665 122.522 63.6865C122.402 63.7985 122.246 63.8545 122.054 63.8545ZM126.808 71.0305C126.296 71.0305 125.832 70.9105 125.416 70.6705C125 70.4305 124.672 70.0825 124.432 69.6265C124.192 69.1705 124.072 68.6225 124.072 67.9825C124.072 67.3265 124.2 66.7705 124.456 66.3145C124.72 65.8585 125.064 65.5105 125.488 65.2705C125.92 65.0305 126.384 64.9105 126.88 64.9105C127.264 64.9105 127.592 64.9785 127.864 65.1145C128.144 65.2505 128.384 65.4105 128.584 65.5945L128.08 66.2425C127.912 66.0905 127.732 65.9665 127.54 65.8705C127.356 65.7745 127.148 65.7265 126.916 65.7265C126.564 65.7265 126.248 65.8225 125.968 66.0145C125.696 66.1985 125.48 66.4625 125.32 66.8065C125.168 67.1425 125.092 67.5345 125.092 67.9825C125.092 68.6465 125.256 69.1865 125.584 69.6025C125.92 70.0105 126.356 70.2145 126.892 70.2145C127.164 70.2145 127.416 70.1585 127.648 70.0465C127.88 69.9265 128.084 69.7865 128.26 69.6265L128.692 70.2865C128.428 70.5185 128.136 70.7025 127.816 70.8385C127.496 70.9665 127.16 71.0305 126.808 71.0305ZM129.976 70.8865V65.0545H130.96V70.8865H129.976ZM130.48 63.8545C130.288 63.8545 130.128 63.7985 130 63.6865C129.88 63.5665 129.82 63.4065 129.82 63.2065C129.82 63.0145 129.88 62.8585 130 62.7385C130.128 62.6185 130.288 62.5585 130.48 62.5585C130.672 62.5585 130.828 62.6185 130.948 62.7385C131.076 62.8585 131.14 63.0145 131.14 63.2065C131.14 63.4065 131.076 63.5665 130.948 63.6865C130.828 63.7985 130.672 63.8545 130.48 63.8545ZM135.197 71.0305C134.725 71.0305 134.281 70.9105 133.865 70.6705C133.457 70.4305 133.125 70.0825 132.869 69.6265C132.621 69.1705 132.497 68.6225 132.497 67.9825C132.497 67.3265 132.621 66.7705 132.869 66.3145C133.125 65.8585 133.457 65.5105 133.865 65.2705C134.281 65.0305 134.725 64.9105 135.197 64.9105C135.677 64.9105 136.121 65.0305 136.529 65.2705C136.937 65.5105 137.265 65.8585 137.513 66.3145C137.769 66.7705 137.897 67.3265 137.897 67.9825C137.897 68.6225 137.769 69.1705 137.513 69.6265C137.265 70.0825 136.937 70.4305 136.529 70.6705C136.121 70.9105 135.677 71.0305 135.197 71.0305ZM135.197 70.2145C135.701 70.2145 136.105 70.0105 136.409 69.6025C136.721 69.1865 136.877 68.6465 136.877 67.9825C136.877 67.3105 136.721 66.7665 136.409 66.3505C136.105 65.9345 135.701 65.7265 135.197 65.7265C134.701 65.7265 134.297 65.9345 133.985 66.3505C133.673 66.7665 133.517 67.3105 133.517 67.9825C133.517 68.6465 133.673 69.1865 133.985 69.6025C134.297 70.0105 134.701 70.2145 135.197 70.2145ZM139.433 70.8865V65.0545H140.249L140.333 65.8945H140.369C140.649 65.6145 140.945 65.3825 141.257 65.1985C141.569 65.0065 141.925 64.9105 142.325 64.9105C142.941 64.9105 143.389 65.1065 143.669 65.4985C143.957 65.8825 144.101 66.4465 144.101 67.1905V70.8865H143.117V67.3225C143.117 66.7785 143.029 66.3825 142.853 66.1345C142.677 65.8865 142.397 65.7625 142.013 65.7625C141.717 65.7625 141.449 65.8385 141.209 65.9905C140.977 66.1425 140.713 66.3665 140.417 66.6625V70.8865H139.433ZM145.996 70.8865V65.0545H146.98V70.8865H145.996ZM146.5 63.8545C146.308 63.8545 146.148 63.7985 146.02 63.6865C145.9 63.5665 145.84 63.4065 145.84 63.2065C145.84 63.0145 145.9 62.8585 146.02 62.7385C146.148 62.6185 146.308 62.5585 146.5 62.5585C146.692 62.5585 146.848 62.6185 146.968 62.7385C147.096 62.8585 147.16 63.0145 147.16 63.2065C147.16 63.4065 147.096 63.5665 146.968 63.6865C146.848 63.7985 146.692 63.8545 146.5 63.8545ZM150.473 71.0305C150.057 71.0305 149.661 70.9545 149.285 70.8025C148.909 70.6425 148.581 70.4505 148.301 70.2265L148.793 69.5665C149.049 69.7665 149.313 69.9345 149.585 70.0705C149.857 70.1985 150.165 70.2625 150.509 70.2625C150.893 70.2625 151.181 70.1745 151.373 69.9985C151.565 69.8145 151.661 69.5985 151.661 69.3505C151.661 69.1505 151.593 68.9825 151.457 68.8465C151.329 68.7105 151.161 68.5985 150.953 68.5105C150.753 68.4145 150.545 68.3265 150.329 68.2465C150.057 68.1425 149.789 68.0265 149.525 67.8985C149.261 67.7625 149.045 67.5905 148.877 67.3825C148.709 67.1665 148.625 66.8945 148.625 66.5665C148.625 66.0945 148.801 65.7025 149.153 65.3905C149.513 65.0705 150.009 64.9105 150.641 64.9105C151.001 64.9105 151.337 64.9745 151.649 65.1025C151.961 65.2305 152.229 65.3865 152.453 65.5705L151.973 66.1945C151.773 66.0425 151.565 65.9185 151.349 65.8225C151.133 65.7265 150.897 65.6785 150.641 65.6785C150.273 65.6785 150.001 65.7625 149.825 65.9305C149.657 66.0985 149.573 66.2945 149.573 66.5185C149.573 66.7025 149.633 66.8545 149.753 66.9745C149.873 67.0865 150.029 67.1865 150.221 67.2745C150.413 67.3545 150.617 67.4385 150.833 67.5265C151.113 67.6305 151.389 67.7505 151.661 67.8865C151.933 68.0145 152.157 68.1905 152.333 68.4145C152.517 68.6305 152.609 68.9225 152.609 69.2905C152.609 69.6025 152.525 69.8905 152.357 70.1545C152.197 70.4185 151.957 70.6305 151.637 70.7905C151.325 70.9505 150.937 71.0305 150.473 71.0305ZM155.578 71.0305C154.954 71.0305 154.518 70.8505 154.27 70.4905C154.03 70.1305 153.91 69.6625 153.91 69.0865V65.8585H153.046V65.1145L153.958 65.0545L154.078 63.4225H154.906V65.0545H156.478V65.8585H154.906V69.0985C154.906 69.4585 154.97 69.7385 155.098 69.9385C155.234 70.1305 155.47 70.2265 155.806 70.2265C155.91 70.2265 156.022 70.2105 156.142 70.1785C156.262 70.1385 156.37 70.1025 156.466 70.0705L156.658 70.8145C156.498 70.8705 156.322 70.9185 156.13 70.9585C155.946 71.0065 155.762 71.0305 155.578 71.0305ZM158.883 71.0305C158.395 71.0305 157.987 70.8865 157.659 70.5985C157.339 70.3025 157.179 69.8945 157.179 69.3745C157.179 68.7345 157.463 68.2465 158.031 67.9105C158.607 67.5665 159.515 67.3265 160.755 67.1905C160.755 66.9425 160.719 66.7065 160.647 66.4825C160.583 66.2585 160.463 66.0785 160.287 65.9425C160.119 65.7985 159.875 65.7265 159.555 65.7265C159.219 65.7265 158.903 65.7905 158.607 65.9185C158.311 66.0465 158.047 66.1905 157.815 66.3505L157.431 65.6665C157.703 65.4905 158.035 65.3225 158.427 65.1625C158.827 64.9945 159.259 64.9105 159.723 64.9105C160.435 64.9105 160.951 65.1305 161.271 65.5705C161.591 66.0025 161.751 66.5825 161.751 67.3105V70.8865H160.935L160.851 70.1905H160.815C160.543 70.4145 160.243 70.6105 159.915 70.7785C159.595 70.9465 159.251 71.0305 158.883 71.0305ZM159.171 70.2385C159.451 70.2385 159.715 70.1705 159.963 70.0345C160.211 69.8985 160.475 69.7065 160.755 69.4585V67.8385C159.787 67.9585 159.107 68.1385 158.715 68.3785C158.331 68.6185 158.139 68.9265 158.139 69.3025C158.139 69.6305 158.239 69.8705 158.439 70.0225C158.639 70.1665 158.883 70.2385 159.171 70.2385ZM165.11 71.0305C164.694 71.0305 164.298 70.9545 163.922 70.8025C163.546 70.6425 163.218 70.4505 162.938 70.2265L163.43 69.5665C163.686 69.7665 163.95 69.9345 164.222 70.0705C164.494 70.1985 164.802 70.2625 165.146 70.2625C165.53 70.2625 165.818 70.1745 166.01 69.9985C166.202 69.8145 166.298 69.5985 166.298 69.3505C166.298 69.1505 166.23 68.9825 166.094 68.8465C165.966 68.7105 165.798 68.5985 165.59 68.5105C165.39 68.4145 165.182 68.3265 164.966 68.2465C164.694 68.1425 164.426 68.0265 164.162 67.8985C163.898 67.7625 163.682 67.5905 163.514 67.3825C163.346 67.1665 163.262 66.8945 163.262 66.5665C163.262 66.0945 163.438 65.7025 163.79 65.3905C164.15 65.0705 164.646 64.9105 165.278 64.9105C165.638 64.9105 165.974 64.9745 166.286 65.1025C166.598 65.2305 166.866 65.3865 167.09 65.5705L166.61 66.1945C166.41 66.0425 166.202 65.9185 165.986 65.8225C165.77 65.7265 165.534 65.6785 165.278 65.6785C164.91 65.6785 164.638 65.7625 164.462 65.9305C164.294 66.0985 164.21 66.2945 164.21 66.5185C164.21 66.7025 164.27 66.8545 164.39 66.9745C164.51 67.0865 164.666 67.1865 164.858 67.2745C165.05 67.3545 165.254 67.4385 165.47 67.5265C165.75 67.6305 166.026 67.7505 166.298 67.8865C166.57 68.0145 166.794 68.1905 166.97 68.4145C167.154 68.6305 167.246 68.9225 167.246 69.2905C167.246 69.6025 167.162 69.8905 166.994 70.1545C166.834 70.4185 166.594 70.6305 166.274 70.7905C165.962 70.9505 165.574 71.0305 165.11 71.0305ZM171.015 70.8865V65.0545H171.999V70.8865H171.015ZM171.519 63.8545C171.327 63.8545 171.167 63.7985 171.039 63.6865C170.919 63.5665 170.859 63.4065 170.859 63.2065C170.859 63.0145 170.919 62.8585 171.039 62.7385C171.167 62.6185 171.327 62.5585 171.519 62.5585C171.711 62.5585 171.867 62.6185 171.987 62.7385C172.115 62.8585 172.179 63.0145 172.179 63.2065C172.179 63.4065 172.115 63.5665 171.987 63.6865C171.867 63.7985 171.711 63.8545 171.519 63.8545ZM173.968 70.8865V65.0545H174.784L174.868 65.8945H174.904C175.184 65.6145 175.48 65.3825 175.792 65.1985C176.104 65.0065 176.46 64.9105 176.86 64.9105C177.476 64.9105 177.924 65.1065 178.204 65.4985C178.492 65.8825 178.636 66.4465 178.636 67.1905V70.8865H177.652V67.3225C177.652 66.7785 177.564 66.3825 177.388 66.1345C177.212 65.8865 176.932 65.7625 176.548 65.7625C176.252 65.7625 175.984 65.8385 175.744 65.9905C175.512 66.1425 175.248 66.3665 174.952 66.6625V70.8865H173.968ZM182.835 71.0305C182.323 71.0305 181.859 70.9105 181.443 70.6705C181.027 70.4305 180.699 70.0825 180.459 69.6265C180.219 69.1705 180.099 68.6225 180.099 67.9825C180.099 67.3265 180.227 66.7705 180.483 66.3145C180.747 65.8585 181.091 65.5105 181.515 65.2705C181.947 65.0305 182.411 64.9105 182.907 64.9105C183.291 64.9105 183.619 64.9785 183.891 65.1145C184.171 65.2505 184.411 65.4105 184.611 65.5945L184.107 66.2425C183.939 66.0905 183.759 65.9665 183.567 65.8705C183.383 65.7745 183.175 65.7265 182.943 65.7265C182.591 65.7265 182.275 65.8225 181.995 66.0145C181.723 66.1985 181.507 66.4625 181.347 66.8065C181.195 67.1425 181.119 67.5345 181.119 67.9825C181.119 68.6465 181.283 69.1865 181.611 69.6025C181.947 70.0105 182.383 70.2145 182.919 70.2145C183.191 70.2145 183.443 70.1585 183.675 70.0465C183.907 69.9265 184.111 69.7865 184.287 69.6265L184.719 70.2865C184.455 70.5185 184.163 70.7025 183.843 70.8385C183.523 70.9665 183.187 71.0305 182.835 71.0305ZM186.004 70.8865V65.0545H186.82L186.904 66.1105H186.94C187.14 65.7425 187.384 65.4505 187.672 65.2345C187.96 65.0185 188.268 64.9105 188.596 64.9105C188.828 64.9105 189.036 64.9505 189.22 65.0305L189.028 65.8945C188.932 65.8625 188.844 65.8385 188.764 65.8225C188.684 65.8065 188.584 65.7985 188.464 65.7985C188.216 65.7985 187.956 65.8985 187.684 66.0985C187.42 66.2985 187.188 66.6465 186.988 67.1425V70.8865H186.004ZM190.164 70.8865V65.0545H191.148V70.8865H190.164ZM190.5 64.0105L189.996 63.5185L191.688 61.5145L192.384 62.1745L190.5 64.0105ZM194.377 70.8865L192.277 65.0545H193.297L194.401 68.3665C194.489 68.6545 194.577 68.9425 194.665 69.2305C194.761 69.5185 194.853 69.8025 194.941 70.0825H194.989C195.077 69.8025 195.165 69.5185 195.253 69.2305C195.349 68.9425 195.437 68.6545 195.517 68.3665L196.621 65.0545H197.593L195.529 70.8865H194.377ZM201.036 71.0305C200.516 71.0305 200.044 70.9105 199.62 70.6705C199.196 70.4225 198.86 70.0705 198.612 69.6145C198.364 69.1585 198.24 68.6145 198.24 67.9825C198.24 67.3425 198.364 66.7945 198.612 66.3385C198.868 65.8825 199.196 65.5305 199.596 65.2825C199.996 65.0345 200.416 64.9105 200.855 64.9105C201.6 64.9105 202.172 65.1585 202.572 65.6545C202.98 66.1505 203.184 66.8145 203.184 67.6465C203.184 67.7505 203.18 67.8545 203.172 67.9585C203.172 68.0545 203.164 68.1385 203.148 68.2105H199.212C199.252 68.8265 199.444 69.3185 199.788 69.6865C200.14 70.0545 200.596 70.2385 201.156 70.2385C201.436 70.2385 201.692 70.1985 201.924 70.1185C202.164 70.0305 202.392 69.9185 202.608 69.7825L202.956 70.4305C202.708 70.5905 202.424 70.7305 202.104 70.8505C201.792 70.9705 201.436 71.0305 201.036 71.0305ZM199.2 67.5025H202.32C202.32 66.9105 202.192 66.4625 201.936 66.1585C201.688 65.8465 201.336 65.6905 200.88 65.6905C200.472 65.6905 200.104 65.8505 199.776 66.1705C199.456 66.4825 199.264 66.9265 199.2 67.5025ZM204.625 70.8865V65.0545H205.609V70.8865H204.625ZM205.129 63.8545C204.937 63.8545 204.777 63.7985 204.649 63.6865C204.529 63.5665 204.469 63.4065 204.469 63.2065C204.469 63.0145 204.529 62.8585 204.649 62.7385C204.777 62.6185 204.937 62.5585 205.129 62.5585C205.321 62.5585 205.477 62.6185 205.597 62.7385C205.725 62.8585 205.789 63.0145 205.789 63.2065C205.789 63.4065 205.725 63.5665 205.597 63.6865C205.477 63.7985 205.321 63.8545 205.129 63.8545ZM209.102 71.0305C208.686 71.0305 208.29 70.9545 207.914 70.8025C207.538 70.6425 207.21 70.4505 206.93 70.2265L207.422 69.5665C207.678 69.7665 207.942 69.9345 208.214 70.0705C208.486 70.1985 208.794 70.2625 209.138 70.2625C209.522 70.2625 209.81 70.1745 210.002 69.9985C210.194 69.8145 210.29 69.5985 210.29 69.3505C210.29 69.1505 210.222 68.9825 210.086 68.8465C209.958 68.7105 209.79 68.5985 209.582 68.5105C209.382 68.4145 209.174 68.3265 208.958 68.2465C208.686 68.1425 208.418 68.0265 208.154 67.8985C207.89 67.7625 207.674 67.5905 207.506 67.3825C207.338 67.1665 207.254 66.8945 207.254 66.5665C207.254 66.0945 207.43 65.7025 207.782 65.3905C208.142 65.0705 208.638 64.9105 209.27 64.9105C209.63 64.9105 209.966 64.9745 210.278 65.1025C210.59 65.2305 210.858 65.3865 211.082 65.5705L210.602 66.1945C210.402 66.0425 210.194 65.9185 209.978 65.8225C209.762 65.7265 209.526 65.6785 209.27 65.6785C208.902 65.6785 208.63 65.7625 208.454 65.9305C208.286 66.0985 208.202 66.2945 208.202 66.5185C208.202 66.7025 208.262 66.8545 208.382 66.9745C208.502 67.0865 208.658 67.1865 208.85 67.2745C209.042 67.3545 209.246 67.4385 209.462 67.5265C209.742 67.6305 210.018 67.7505 210.29 67.8865C210.562 68.0145 210.786 68.1905 210.962 68.4145C211.146 68.6305 211.238 68.9225 211.238 69.2905C211.238 69.6025 211.154 69.8905 210.986 70.1545C210.826 70.4185 210.586 70.6305 210.266 70.7905C209.954 70.9505 209.566 71.0305 209.102 71.0305ZM213.013 68.5105L212.881 63.9745L212.857 62.8465H213.853L213.829 63.9745L213.697 68.5105H213.013ZM213.361 71.0305C213.161 71.0305 212.989 70.9625 212.845 70.8265C212.709 70.6825 212.641 70.5025 212.641 70.2865C212.641 70.0545 212.709 69.8705 212.845 69.7345C212.989 69.5905 213.161 69.5185 213.361 69.5185C213.553 69.5185 213.717 69.5905 213.853 69.7345C213.997 69.8705 214.069 70.0545 214.069 70.2865C214.069 70.5025 213.997 70.6825 213.853 70.8265C213.717 70.9625 213.553 71.0305 213.361 71.0305Z" fill="#384252"/>
<path d="M258.965 67.0523C258.072 75.5864 258.012 97.1798 264.919 115.28C261.347 113.494 259.56 113.077 257.179 112.601" stroke="#241249" stroke-width="1.4317" stroke-linecap="round" stroke-linejoin="round"/>
<path d="M285.758 67.0523C286.651 75.5864 286.711 97.1798 279.804 115.28C283.376 113.494 285.163 113.077 287.544 112.601" stroke="#241249" stroke-width="1.4317" stroke-linecap="round" stroke-linejoin="round"/>
<path d="M284.39 31.4718C274.959 15.6988 260.901 24.886 259.853 31.4718C249.583 30.2585 245.355 40.0661 245.093 45.1215C240.507 43.77 233.605 48.9216 232.869 57.6453C232.134 66.369 238.37 72.3071 248.761 70.2977C254.629 82.1881 267.623 78.083 273.387 74.5442C285.124 86.192 293.123 75.1509 295.655 68.1744C297.401 69.2866 302.047 70.5403 306.658 66.6577C318.172 54.612 307.431 41.569 298.799 42.3916C296.703 32.1998 288.32 30.8652 284.39 31.4718Z" fill="#EEE6FC"/>
<path d="M267.684 41.0066V45.2847" stroke="#241249" stroke-width="1.39749" stroke-linecap="round" stroke-linejoin="round"/>
<path d="M277.042 41.0066V45.2847" stroke="#241249" stroke-width="1.39749" stroke-linecap="round" stroke-linejoin="round"/>
<path fill-rule="evenodd" clip-rule="evenodd" d="M232.917 57.1594C233.768 64.1016 239.677 68.4187 248.761 66.6621C254.629 78.5525 267.623 74.4475 273.387 70.9087C285.124 82.5564 293.123 71.5153 295.655 64.5388C297.401 65.651 302.047 66.9047 306.658 63.0222C309.636 59.9064 311.125 56.724 311.547 53.732C312.111 57.6857 310.882 62.239 306.658 66.658C302.047 70.5406 297.401 69.2868 295.655 68.1747C293.123 75.1512 285.124 86.1923 273.387 74.5445C267.623 78.0833 254.629 82.1884 248.761 70.2979C238.37 72.3074 232.134 66.3693 232.869 57.6456C232.883 57.4823 232.899 57.3202 232.917 57.1594Z" fill="#B89FEA"/>
<path d="M281.543 47.6317C281.156 50.255 281.792 55.1059 287.435 53.5238" stroke="#241249" stroke-width="1.45875" stroke-linecap="round" stroke-linejoin="round"/>
<path d="M278.31 55.5298C279.479 55.6277 281.996 55.2568 282.709 52.9902" stroke="#241249" stroke-width="1.45875" stroke-linecap="round" stroke-linejoin="round"/>
<path d="M271.213 51.3211C272.503 51.1111 273.288 51.6121 273.641 52.03C273.766 52.1767 273.806 52.371 273.806 52.5633V58.5842C273.806 58.9907 274.009 59.3701 274.348 59.5949L281.414 64.2884C281.726 64.4953 281.925 64.8339 281.953 65.2069C282.179 68.1914 282.556 73.243 282.556 73.4798C282.556 73.733 281.476 75.2736 280.936 76.0122C279.964 77.0674 277.76 79.1144 276.723 78.8612C276.13 78.7165 275.58 78.4272 275.156 78.1466C274.713 77.8528 274.136 77.7698 273.658 78.0034C272.567 78.5361 271.049 79.1777 270.241 79.1777C269.331 79.1777 268.188 77.8784 267.557 76.9895C267.4 76.7698 267.186 76.5969 266.933 76.5047C265.643 76.0355 263.487 75.2023 262.786 74.746C262.093 74.2945 262.893 71.2935 263.534 69.3766C263.669 68.974 263.596 68.5313 263.331 68.1992C261.63 66.0634 258.897 62.465 258.897 61.7674C258.897 60.8177 259.869 60.1846 259.869 59.2349C259.869 58.2853 259.545 57.0191 259.869 55.7529C260.193 54.4867 261.49 54.4867 262.786 54.1701C263.737 53.938 265.849 53.5109 267.027 53.2788C267.222 53.2402 267.403 53.1538 267.563 53.0348C268.327 52.4658 269.822 51.5476 271.213 51.3211Z" fill="#98E4B4"/>
<path d="M267.01 53.1926C267.761 53.0593 268.238 53.3464 268.479 53.6165C268.597 53.7497 268.63 53.9318 268.63 54.1101V57.9635C268.63 58.3526 268.817 58.7181 269.132 58.9463L273.234 61.9158C273.525 62.1266 273.708 62.4552 273.733 62.8139C273.875 64.8623 274.098 68.1287 274.098 68.2858C274.098 68.4583 273.423 69.5076 273.086 70.0107C272.478 70.7294 271.101 72.1238 270.453 71.9513C270.222 71.8899 270.002 71.7903 269.805 71.6777C269.311 71.3962 268.689 71.298 268.181 71.5511C267.554 71.8626 266.824 72.1669 266.403 72.1669C265.871 72.1669 265.213 71.3937 264.807 70.7983C264.653 70.5721 264.441 70.3888 264.187 70.2868C263.373 69.9601 262.156 69.4406 261.745 69.1482C261.329 68.8531 261.773 66.9585 262.163 65.6522C262.276 65.2737 262.212 64.8637 261.98 64.5442C260.913 63.077 259.314 60.7677 259.314 60.3079C259.314 59.6611 259.922 59.2298 259.922 58.583C259.922 57.9361 259.719 57.0737 259.922 56.2112C260.124 55.3487 260.935 55.3487 261.745 55.1331C262.306 54.9838 263.515 54.7158 264.267 54.5533C264.472 54.5091 264.661 54.4115 264.827 54.2827C265.326 53.8942 266.197 53.3369 267.01 53.1926Z" fill="#FF5C60"/>
<path d="M273.764 59.3038C274.515 59.1705 274.992 59.4576 275.232 59.7277C275.351 59.8609 275.384 60.043 275.384 60.2213V64.0747C275.384 64.4638 275.57 64.8293 275.886 65.0575L279.987 68.027C280.278 68.2379 280.461 68.5664 280.486 68.9251C280.628 70.9735 280.852 74.2399 280.852 74.397C280.852 74.5695 280.177 75.6188 279.839 76.1219C279.232 76.8406 277.854 78.235 277.206 78.0625C276.976 78.0011 276.755 77.9015 276.558 77.7889C276.065 77.5074 275.443 77.4092 274.934 77.6623C274.308 77.9738 273.578 78.2781 273.156 78.2781C272.625 78.2781 271.966 77.5049 271.56 76.9095C271.406 76.6833 271.194 76.5 270.94 76.398C270.127 76.0713 268.91 75.5518 268.498 75.2594C268.082 74.9643 268.526 73.0697 268.917 71.7634C269.03 71.3849 268.966 70.9749 268.733 70.6554C267.666 69.1882 266.068 66.8789 266.068 66.4191C266.068 65.7723 266.675 65.3411 266.675 64.6942C266.675 64.0473 266.473 63.1849 266.675 62.3224C266.878 61.4599 267.688 61.4599 268.498 61.2443C269.059 61.095 270.268 60.827 271.021 60.6645C271.226 60.6203 271.414 60.5227 271.58 60.3939C272.08 60.0054 272.95 59.4481 273.764 59.3038Z" fill="#FF5C60"/>
<path fill-rule="evenodd" clip-rule="evenodd" d="M272.547 52.4849C273.518 52.4849 274.463 52.5528 275.371 52.6812C275.309 52.9087 275.277 53.1479 275.277 53.3948C275.277 54.5732 276.023 55.5773 277.069 55.9596C276.706 56.4232 276.49 57.007 276.49 57.6414C276.49 59.1491 277.712 60.3714 279.22 60.3714C280.077 60.3714 280.843 59.9759 281.343 59.3574C281.844 59.9759 282.609 60.3714 283.466 60.3714C284.027 60.3714 284.547 60.2027 284.98 59.9134C284.982 59.9648 284.983 60.0164 284.983 60.068C284.983 62.0461 283.741 63.8473 281.706 65.1974L281.101 75.691C281.066 76.2979 280.587 76.7852 279.981 76.831L266.136 77.8759C265.483 77.9252 264.908 77.4468 264.838 76.7953L263.611 65.3424C261.444 63.9776 260.11 62.1178 260.11 60.068C260.11 55.88 265.678 52.4849 272.547 52.4849Z" fill="#FDBE08"/>
<path d="M294.564 58.5515C298.631 63.3034 305.73 74.2529 301.593 80.0349C297.455 85.8168 286.298 75.1945 281.237 69.1605" stroke="#241249" stroke-width="1.45875" stroke-linecap="round" stroke-linejoin="round"/>
<path d="M275.276 65.8989C275.34 67.4333 275.423 69.219 276.459 70.4708C277.39 71.5953 278.336 70.275 278.596 69.3068C278.837 68.4056 278.908 67.5141 278.306 66.7403C278.073 66.4412 277.663 65.9567 277.422 66.4926C277.088 67.2347 277.069 67.8828 277.338 68.6289C277.521 69.1383 277.79 69.9329 278.413 70.022C279.722 70.2089 280.682 70.0598 281.288 68.7505C281.584 68.1105 281.804 67.235 281.69 66.5253C281.609 66.0224 281.138 65.7575 280.793 65.4361C280.384 65.0558 279.724 64.3035 279.063 64.4871C278.457 64.6554 278.519 65.1688 278.661 65.6465C278.971 66.6898 281.233 66.639 281.989 66.3196C282.993 65.8958 283.478 64.4227 282.448 63.814C281.93 63.5082 281.36 63.3745 280.765 63.3745C280.5 63.3745 279.609 63.2927 279.484 63.5428" stroke="#241249" stroke-width="1.45875" stroke-linecap="round"/>
<path d="M249.585 58.5515C245.518 63.3034 238.418 74.2529 242.556 80.0349C246.694 85.8168 257.851 75.1945 262.912 69.1605" stroke="#241249" stroke-width="1.45875" stroke-linecap="round" stroke-linejoin="round"/>
<path d="M268.872 65.8989C268.808 67.4333 268.726 69.219 267.69 70.4708C266.759 71.5953 265.813 70.275 265.553 69.3068C265.311 68.4056 265.241 67.5141 265.843 66.7403C266.076 66.4412 266.485 65.9567 266.727 66.4926C267.06 67.2347 267.079 67.8828 266.811 68.6289C266.627 69.1383 266.359 69.9329 265.736 70.022C264.427 70.2089 263.467 70.0598 262.861 68.7505C262.564 68.1105 262.344 67.235 262.459 66.5253C262.539 66.0224 263.011 65.7575 263.356 65.4361C263.765 65.0558 264.425 64.3035 265.086 64.4871C265.692 64.6554 265.63 65.1688 265.488 65.6465C265.178 66.6898 262.916 66.639 262.159 66.3196C261.156 65.8958 260.671 64.4227 261.701 63.814C262.219 63.5082 262.788 63.3745 263.384 63.3745C263.649 63.3745 264.54 63.2927 264.665 63.5428" stroke="#241249" stroke-width="1.45875" stroke-linecap="round"/>
</g>
<defs>
<clipPath id="clip0_3565_4958">
<rect width="328" height="108" rx="9" fill="white"/>
</clipPath>
</defs>
</svg>
