<svg width="328" height="108" viewBox="0 0 328 108" fill="none" xmlns="http://www.w3.org/2000/svg">
<g clip-path="url(#clip0_3565_5839)">
<rect width="328" height="108" rx="9" fill="white"/>
<path d="M20.384 51.0785C19.68 51.0785 18.9973 50.9452 18.336 50.6785C17.6853 50.4119 17.1093 50.0332 16.608 49.5425L17.696 48.2785C18.0693 48.6305 18.496 48.9185 18.976 49.1425C19.456 49.3559 19.936 49.4625 20.416 49.4625C21.0133 49.4625 21.4667 49.3399 21.776 49.0945C22.0853 48.8492 22.24 48.5239 22.24 48.1185C22.24 47.6812 22.0853 47.3665 21.776 47.1745C21.4773 46.9825 21.0933 46.7852 20.624 46.5825L19.184 45.9585C18.8427 45.8092 18.5067 45.6172 18.176 45.3825C17.856 45.1479 17.5893 44.8492 17.376 44.4865C17.1733 44.1239 17.072 43.6865 17.072 43.1745C17.072 42.6199 17.2213 42.1239 17.52 41.6865C17.8293 41.2385 18.2453 40.8865 18.768 40.6305C19.3013 40.3639 19.9093 40.2305 20.592 40.2305C21.2 40.2305 21.7867 40.3532 22.352 40.5985C22.9173 40.8332 23.4027 41.1532 23.808 41.5585L22.864 42.7425C22.5333 42.4652 22.1813 42.2465 21.808 42.0865C21.4453 41.9265 21.04 41.8465 20.592 41.8465C20.1013 41.8465 19.7013 41.9585 19.392 42.1825C19.0933 42.3959 18.944 42.6945 18.944 43.0785C18.944 43.3452 19.0187 43.5692 19.168 43.7505C19.328 43.9212 19.536 44.0705 19.792 44.1985C20.048 44.3159 20.32 44.4332 20.608 44.5505L22.032 45.1425C22.6507 45.4092 23.1573 45.7612 23.552 46.1985C23.9467 46.6252 24.144 47.2172 24.144 47.9745C24.144 48.5399 23.9947 49.0572 23.696 49.5265C23.3973 49.9959 22.9653 50.3745 22.4 50.6625C21.8453 50.9399 21.1733 51.0785 20.384 51.0785ZM29.2468 51.0785C28.5214 51.0785 27.8654 50.9185 27.2788 50.5985C26.6921 50.2679 26.2281 49.7985 25.8868 49.1905C25.5454 48.5719 25.3748 47.8305 25.3748 46.9665C25.3748 46.1132 25.5454 45.3772 25.8868 44.7585C26.2388 44.1399 26.6921 43.6652 27.2468 43.3345C27.8014 43.0039 28.3828 42.8385 28.9908 42.8385C29.7054 42.8385 30.3028 42.9985 30.7828 43.3185C31.2628 43.6279 31.6254 44.0652 31.8708 44.6305C32.1161 45.1852 32.2388 45.8305 32.2388 46.5665C32.2388 46.9505 32.2121 47.2492 32.1588 47.4625H27.1668C27.2521 48.1559 27.5028 48.6945 27.9188 49.0785C28.3348 49.4625 28.8574 49.6545 29.4868 49.6545C29.8281 49.6545 30.1428 49.6065 30.4308 49.5105C30.7294 49.4039 31.0228 49.2599 31.3108 49.0785L31.9348 50.2305C31.5614 50.4759 31.1454 50.6785 30.6868 50.8385C30.2281 50.9985 29.7481 51.0785 29.2468 51.0785ZM27.1508 46.2145H30.6388C30.6388 45.6065 30.5054 45.1319 30.2388 44.7905C29.9721 44.4385 29.5721 44.2625 29.0388 44.2625C28.5801 44.2625 28.1694 44.4332 27.8068 44.7745C27.4548 45.1052 27.2361 45.5852 27.1508 46.2145ZM36.3321 51.0785C35.4895 51.0785 34.8761 50.8065 34.4921 50.2625C34.1081 49.7185 33.9161 48.9505 33.9161 47.9585V43.0305H35.7561V47.7185C35.7561 48.3692 35.8521 48.8279 36.0441 49.0945C36.2361 49.3612 36.5455 49.4945 36.9721 49.4945C37.3135 49.4945 37.6121 49.4092 37.8681 49.2385C38.1348 49.0679 38.4175 48.7905 38.7161 48.4065V43.0305H40.5561V50.8865H39.0521L38.9081 49.7345H38.8601C38.5188 50.1399 38.1455 50.4652 37.7401 50.7105C37.3348 50.9559 36.8655 51.0785 36.3321 51.0785ZM49.3699 51.0785C48.6552 51.0785 48.0099 50.9185 47.4339 50.5985C46.8685 50.2679 46.4152 49.7985 46.0739 49.1905C45.7432 48.5719 45.5779 47.8305 45.5779 46.9665C45.5779 46.0919 45.7592 45.3505 46.1219 44.7425C46.4845 44.1239 46.9645 43.6545 47.5619 43.3345C48.1699 43.0039 48.8205 42.8385 49.5139 42.8385C50.0152 42.8385 50.4525 42.9239 50.8259 43.0945C51.1992 43.2652 51.5299 43.4732 51.8179 43.7185L50.9219 44.9185C50.7192 44.7372 50.5112 44.5985 50.2979 44.5025C50.0845 44.3959 49.8552 44.3425 49.6099 44.3425C48.9805 44.3425 48.4632 44.5825 48.0579 45.0625C47.6632 45.5425 47.4659 46.1772 47.4659 46.9665C47.4659 47.7452 47.6579 48.3745 48.0419 48.8545C48.4365 49.3345 48.9432 49.5745 49.5619 49.5745C49.8712 49.5745 50.1592 49.5105 50.4259 49.3825C50.7032 49.2439 50.9539 49.0839 51.1779 48.9025L51.9299 50.1185C51.5672 50.4385 51.1619 50.6785 50.7139 50.8385C50.2659 50.9985 49.8179 51.0785 49.3699 51.0785ZM56.3059 51.0785C55.6552 51.0785 55.0472 50.9185 54.4819 50.5985C53.9165 50.2679 53.4579 49.7985 53.1059 49.1905C52.7539 48.5719 52.5779 47.8305 52.5779 46.9665C52.5779 46.0919 52.7539 45.3505 53.1059 44.7425C53.4579 44.1239 53.9165 43.6545 54.4819 43.3345C55.0472 43.0039 55.6552 42.8385 56.3059 42.8385C56.9672 42.8385 57.5805 43.0039 58.1459 43.3345C58.7112 43.6545 59.1699 44.1239 59.5219 44.7425C59.8739 45.3505 60.0499 46.0919 60.0499 46.9665C60.0499 47.8305 59.8739 48.5719 59.5219 49.1905C59.1699 49.7985 58.7112 50.2679 58.1459 50.5985C57.5805 50.9185 56.9672 51.0785 56.3059 51.0785ZM56.3059 49.5745C56.8819 49.5745 57.3352 49.3345 57.6659 48.8545C57.9965 48.3745 58.1619 47.7452 58.1619 46.9665C58.1619 46.1772 57.9965 45.5425 57.6659 45.0625C57.3352 44.5825 56.8819 44.3425 56.3059 44.3425C55.7299 44.3425 55.2765 44.5825 54.9459 45.0625C54.6259 45.5425 54.4659 46.1772 54.4659 46.9665C54.4659 47.7452 54.6259 48.3745 54.9459 48.8545C55.2765 49.3345 55.7299 49.5745 56.3059 49.5745ZM61.8711 50.8865V43.0305H63.3911L63.5191 44.4225H63.5831C63.8605 43.9105 64.1965 43.5212 64.5911 43.2545C64.9858 42.9772 65.3911 42.8385 65.8071 42.8385C66.1805 42.8385 66.4791 42.8919 66.7031 42.9985L66.3831 44.5985C66.2445 44.5559 66.1165 44.5239 65.9991 44.5025C65.8818 44.4812 65.7378 44.4705 65.5671 44.4705C65.2578 44.4705 64.9325 44.5932 64.5911 44.8385C64.2498 45.0732 63.9565 45.4892 63.7111 46.0865V50.8865H61.8711ZM67.8399 53.9905V43.0305H69.3599L69.4879 43.8625H69.5519C69.8825 43.5852 70.2505 43.3452 70.6559 43.1425C71.0719 42.9399 71.4932 42.8385 71.9199 42.8385C72.9012 42.8385 73.6585 43.2012 74.1919 43.9265C74.7359 44.6519 75.0079 45.6225 75.0079 46.8385C75.0079 47.7345 74.8479 48.5025 74.5279 49.1425C74.2079 49.7719 73.7919 50.2519 73.2799 50.5825C72.7785 50.9132 72.2345 51.0785 71.6479 51.0785C71.3065 51.0785 70.9652 51.0039 70.6239 50.8545C70.2825 50.6945 69.9519 50.4812 69.6319 50.2145L69.6799 51.5265V53.9905H67.8399ZM71.2639 49.5585C71.7865 49.5585 72.2239 49.3292 72.5759 48.8705C72.9279 48.4119 73.1039 47.7399 73.1039 46.8545C73.1039 46.0652 72.9705 45.4519 72.7039 45.0145C72.4372 44.5772 72.0052 44.3585 71.4079 44.3585C70.8532 44.3585 70.2772 44.6519 69.6799 45.2385V48.9025C69.9679 49.1372 70.2452 49.3079 70.5119 49.4145C70.7785 49.5105 71.0292 49.5585 71.2639 49.5585ZM80.0871 51.0785C79.4365 51.0785 78.8285 50.9185 78.2631 50.5985C77.6978 50.2679 77.2391 49.7985 76.8871 49.1905C76.5351 48.5719 76.3591 47.8305 76.3591 46.9665C76.3591 46.0919 76.5351 45.3505 76.8871 44.7425C77.2391 44.1239 77.6978 43.6545 78.2631 43.3345C78.8285 43.0039 79.4365 42.8385 80.0871 42.8385C80.7485 42.8385 81.3618 43.0039 81.9271 43.3345C82.4925 43.6545 82.9511 44.1239 83.3031 44.7425C83.6551 45.3505 83.8311 46.0919 83.8311 46.9665C83.8311 47.8305 83.6551 48.5719 83.3031 49.1905C82.9511 49.7985 82.4925 50.2679 81.9271 50.5985C81.3618 50.9185 80.7485 51.0785 80.0871 51.0785ZM80.0871 49.5745C80.6631 49.5745 81.1165 49.3345 81.4471 48.8545C81.7778 48.3745 81.9431 47.7452 81.9431 46.9665C81.9431 46.1772 81.7778 45.5425 81.4471 45.0625C81.1165 44.5825 80.6631 44.3425 80.0871 44.3425C79.5111 44.3425 79.0578 44.5825 78.7271 45.0625C78.4071 45.5425 78.2471 46.1772 78.2471 46.9665C78.2471 47.7452 78.4071 48.3745 78.7271 48.8545C79.0578 49.3345 79.5111 49.5745 80.0871 49.5745ZM88.8555 50.8865V43.0305H90.3755L90.5035 44.1025H90.5675C90.8982 43.7505 91.2555 43.4519 91.6395 43.2065C92.0342 42.9612 92.4768 42.8385 92.9675 42.8385C93.5435 42.8385 94.0022 42.9665 94.3435 43.2225C94.6955 43.4679 94.9622 43.8092 95.1435 44.2465C95.5168 43.8412 95.9062 43.5052 96.3115 43.2385C96.7275 42.9719 97.1808 42.8385 97.6715 42.8385C98.5035 42.8385 99.1168 43.1105 99.5115 43.6545C99.9062 44.1985 100.104 44.9665 100.104 45.9585V50.8865H98.2475V46.1985C98.2475 45.5479 98.1462 45.0892 97.9435 44.8225C97.7515 44.5559 97.4528 44.4225 97.0475 44.4225C96.5568 44.4225 96.0075 44.7479 95.3995 45.3985V50.8865H93.5595V46.1985C93.5595 45.5479 93.4582 45.0892 93.2555 44.8225C93.0635 44.5559 92.7595 44.4225 92.3435 44.4225C91.8528 44.4225 91.3035 44.7479 90.6955 45.3985V50.8865H88.8555ZM105.7 51.0785C104.975 51.0785 104.319 50.9185 103.732 50.5985C103.145 50.2679 102.681 49.7985 102.34 49.1905C101.999 48.5719 101.828 47.8305 101.828 46.9665C101.828 46.1132 101.999 45.3772 102.34 44.7585C102.692 44.1399 103.145 43.6652 103.7 43.3345C104.255 43.0039 104.836 42.8385 105.444 42.8385C106.159 42.8385 106.756 42.9985 107.236 43.3185C107.716 43.6279 108.079 44.0652 108.324 44.6305C108.569 45.1852 108.692 45.8305 108.692 46.5665C108.692 46.9505 108.665 47.2492 108.612 47.4625H103.62C103.705 48.1559 103.956 48.6945 104.372 49.0785C104.788 49.4625 105.311 49.6545 105.94 49.6545C106.281 49.6545 106.596 49.6065 106.884 49.5105C107.183 49.4039 107.476 49.2599 107.764 49.0785L108.388 50.2305C108.015 50.4759 107.599 50.6785 107.14 50.8385C106.681 50.9985 106.201 51.0785 105.7 51.0785ZM103.604 46.2145H107.092C107.092 45.6065 106.959 45.1319 106.692 44.7905C106.425 44.4385 106.025 44.2625 105.492 44.2625C105.033 44.2625 104.623 44.4332 104.26 44.7745C103.908 45.1052 103.689 45.5852 103.604 46.2145ZM110.449 50.8865V43.0305H111.969L112.097 44.4225H112.161C112.439 43.9105 112.775 43.5212 113.169 43.2545C113.564 42.9772 113.969 42.8385 114.385 42.8385C114.759 42.8385 115.057 42.8919 115.281 42.9985L114.961 44.5985C114.823 44.5559 114.695 44.5239 114.577 44.5025C114.46 44.4812 114.316 44.4705 114.145 44.4705C113.836 44.4705 113.511 44.5932 113.169 44.8385C112.828 45.0732 112.535 45.4892 112.289 46.0865V50.8865H110.449ZM119.622 51.0785C118.896 51.0785 118.24 50.9185 117.654 50.5985C117.067 50.2679 116.603 49.7985 116.262 49.1905C115.92 48.5719 115.75 47.8305 115.75 46.9665C115.75 46.1132 115.92 45.3772 116.262 44.7585C116.614 44.1399 117.067 43.6652 117.622 43.3345C118.176 43.0039 118.758 42.8385 119.366 42.8385C120.08 42.8385 120.678 42.9985 121.158 43.3185C121.638 43.6279 122 44.0652 122.246 44.6305C122.491 45.1852 122.614 45.8305 122.614 46.5665C122.614 46.9505 122.587 47.2492 122.534 47.4625H117.542C117.627 48.1559 117.878 48.6945 118.294 49.0785C118.71 49.4625 119.232 49.6545 119.862 49.6545C120.203 49.6545 120.518 49.6065 120.806 49.5105C121.104 49.4039 121.398 49.2599 121.686 49.0785L122.31 50.2305C121.936 50.4759 121.52 50.6785 121.062 50.8385C120.603 50.9985 120.123 51.0785 119.622 51.0785ZM117.526 46.2145H121.014C121.014 45.6065 120.88 45.1319 120.614 44.7905C120.347 44.4385 119.947 44.2625 119.414 44.2625C118.955 44.2625 118.544 44.4332 118.182 44.7745C117.83 45.1052 117.611 45.5852 117.526 46.2145ZM127.651 51.0785C126.936 51.0785 126.291 50.9185 125.715 50.5985C125.15 50.2679 124.696 49.7985 124.355 49.1905C124.024 48.5719 123.859 47.8305 123.859 46.9665C123.859 46.0919 124.04 45.3505 124.403 44.7425C124.766 44.1239 125.246 43.6545 125.843 43.3345C126.451 43.0039 127.102 42.8385 127.795 42.8385C128.296 42.8385 128.734 42.9239 129.107 43.0945C129.48 43.2652 129.811 43.4732 130.099 43.7185L129.203 44.9185C129 44.7372 128.792 44.5985 128.579 44.5025C128.366 44.3959 128.136 44.3425 127.891 44.3425C127.262 44.3425 126.744 44.5825 126.339 45.0625C125.944 45.5425 125.747 46.1772 125.747 46.9665C125.747 47.7452 125.939 48.3745 126.323 48.8545C126.718 49.3345 127.224 49.5745 127.843 49.5745C128.152 49.5745 128.44 49.5105 128.707 49.3825C128.984 49.2439 129.235 49.0839 129.459 48.9025L130.211 50.1185C129.848 50.4385 129.443 50.6785 128.995 50.8385C128.547 50.9985 128.099 51.0785 127.651 51.0785ZM134.731 51.0785C134.006 51.0785 133.35 50.9185 132.763 50.5985C132.176 50.2679 131.712 49.7985 131.371 49.1905C131.03 48.5719 130.859 47.8305 130.859 46.9665C130.859 46.1132 131.03 45.3772 131.371 44.7585C131.723 44.1399 132.176 43.6652 132.731 43.3345C133.286 43.0039 133.867 42.8385 134.475 42.8385C135.19 42.8385 135.787 42.9985 136.267 43.3185C136.747 43.6279 137.11 44.0652 137.355 44.6305C137.6 45.1852 137.723 45.8305 137.723 46.5665C137.723 46.9505 137.696 47.2492 137.643 47.4625H132.651C132.736 48.1559 132.987 48.6945 133.403 49.0785C133.819 49.4625 134.342 49.6545 134.971 49.6545C135.312 49.6545 135.627 49.6065 135.915 49.5105C136.214 49.4039 136.507 49.2599 136.795 49.0785L137.419 50.2305C137.046 50.4759 136.63 50.6785 136.171 50.8385C135.712 50.9985 135.232 51.0785 134.731 51.0785ZM132.635 46.2145H136.123C136.123 45.6065 135.99 45.1319 135.723 44.7905C135.456 44.4385 135.056 44.2625 134.523 44.2625C134.064 44.2625 133.654 44.4332 133.291 44.7745C132.939 45.1052 132.72 45.5852 132.635 46.2145ZM145.9 51.0785C145.249 51.0785 144.641 50.9185 144.076 50.5985C143.51 50.2679 143.052 49.7985 142.7 49.1905C142.348 48.5719 142.172 47.8305 142.172 46.9665C142.172 46.0919 142.348 45.3505 142.7 44.7425C143.052 44.1239 143.51 43.6545 144.076 43.3345C144.641 43.0039 145.249 42.8385 145.9 42.8385C146.561 42.8385 147.174 43.0039 147.74 43.3345C148.305 43.6545 148.764 44.1239 149.116 44.7425C149.468 45.3505 149.644 46.0919 149.644 46.9665C149.644 47.8305 149.468 48.5719 149.116 49.1905C148.764 49.7985 148.305 50.2679 147.74 50.5985C147.174 50.9185 146.561 51.0785 145.9 51.0785ZM145.9 49.5745C146.476 49.5745 146.929 49.3345 147.26 48.8545C147.59 48.3745 147.756 47.7452 147.756 46.9665C147.756 46.1772 147.59 45.5425 147.26 45.0625C146.929 44.5825 146.476 44.3425 145.9 44.3425C145.324 44.3425 144.87 44.5825 144.54 45.0625C144.22 45.5425 144.06 46.1772 144.06 46.9665C144.06 47.7452 144.22 48.3745 144.54 48.8545C144.87 49.3345 145.324 49.5745 145.9 49.5745ZM154.668 50.8865V43.0305H156.188L156.316 44.1025H156.38C156.711 43.7505 157.068 43.4519 157.452 43.2065C157.847 42.9612 158.289 42.8385 158.78 42.8385C159.356 42.8385 159.815 42.9665 160.156 43.2225C160.508 43.4679 160.775 43.8092 160.956 44.2465C161.329 43.8412 161.719 43.5052 162.124 43.2385C162.54 42.9719 162.993 42.8385 163.484 42.8385C164.316 42.8385 164.929 43.1105 165.324 43.6545C165.719 44.1985 165.916 44.9665 165.916 45.9585V50.8865H164.06V46.1985C164.06 45.5479 163.959 45.0892 163.756 44.8225C163.564 44.5559 163.265 44.4225 162.86 44.4225C162.369 44.4225 161.82 44.7479 161.212 45.3985V50.8865H159.372V46.1985C159.372 45.5479 159.271 45.0892 159.068 44.8225C158.876 44.5559 158.572 44.4225 158.156 44.4225C157.665 44.4225 157.116 44.7479 156.508 45.3985V50.8865H154.668ZM171.512 51.0785C170.787 51.0785 170.131 50.9185 169.544 50.5985C168.958 50.2679 168.494 49.7985 168.152 49.1905C167.811 48.5719 167.64 47.8305 167.64 46.9665C167.64 46.1132 167.811 45.3772 168.152 44.7585C168.504 44.1399 168.958 43.6652 169.512 43.3345C170.067 43.0039 170.648 42.8385 171.256 42.8385C171.971 42.8385 172.568 42.9985 173.048 43.3185C173.528 43.6279 173.891 44.0652 174.136 44.6305C174.382 45.1852 174.504 45.8305 174.504 46.5665C174.504 46.9505 174.478 47.2492 174.424 47.4625H169.432C169.518 48.1559 169.768 48.6945 170.184 49.0785C170.6 49.4625 171.123 49.6545 171.752 49.6545C172.094 49.6545 172.408 49.6065 172.696 49.5105C172.995 49.4039 173.288 49.2599 173.576 49.0785L174.2 50.2305C173.827 50.4759 173.411 50.6785 172.952 50.8385C172.494 50.9985 172.014 51.0785 171.512 51.0785ZM169.416 46.2145H172.904C172.904 45.6065 172.771 45.1319 172.504 44.7905C172.238 44.4385 171.838 44.2625 171.304 44.2625C170.846 44.2625 170.435 44.4332 170.072 44.7745C169.72 45.1052 169.502 45.5852 169.416 46.2145ZM178.054 51.0785C177.403 51.0785 176.939 50.8812 176.662 50.4865C176.395 50.0919 176.262 49.5532 176.262 48.8705V39.5905H178.102V48.9665C178.102 49.1905 178.144 49.3505 178.23 49.4465C178.315 49.5319 178.406 49.5745 178.502 49.5745C178.544 49.5745 178.582 49.5745 178.614 49.5745C178.656 49.5639 178.715 49.5532 178.79 49.5425L179.03 50.9185C178.923 50.9612 178.784 50.9985 178.614 51.0305C178.454 51.0625 178.267 51.0785 178.054 51.0785ZM180.606 50.8865V39.5905H182.446V42.5025L182.382 44.0225C182.712 43.7132 183.08 43.4412 183.486 43.2065C183.891 42.9612 184.36 42.8385 184.894 42.8385C185.736 42.8385 186.35 43.1105 186.734 43.6545C187.118 44.1985 187.31 44.9665 187.31 45.9585V50.8865H185.47V46.1985C185.47 45.5479 185.374 45.0892 185.182 44.8225C184.99 44.5559 184.675 44.4225 184.238 44.4225C183.896 44.4225 183.592 44.5079 183.326 44.6785C183.07 44.8385 182.776 45.0785 182.446 45.3985V50.8865H180.606ZM192.743 51.0785C192.093 51.0785 191.485 50.9185 190.919 50.5985C190.354 50.2679 189.895 49.7985 189.543 49.1905C189.191 48.5719 189.015 47.8305 189.015 46.9665C189.015 46.0919 189.191 45.3505 189.543 44.7425C189.895 44.1239 190.354 43.6545 190.919 43.3345C191.485 43.0039 192.093 42.8385 192.743 42.8385C193.405 42.8385 194.018 43.0039 194.583 43.3345C195.149 43.6545 195.607 44.1239 195.959 44.7425C196.311 45.3505 196.487 46.0919 196.487 46.9665C196.487 47.8305 196.311 48.5719 195.959 49.1905C195.607 49.7985 195.149 50.2679 194.583 50.5985C194.018 50.9185 193.405 51.0785 192.743 51.0785ZM192.743 49.5745C193.319 49.5745 193.773 49.3345 194.103 48.8545C194.434 48.3745 194.599 47.7452 194.599 46.9665C194.599 46.1772 194.434 45.5425 194.103 45.0625C193.773 44.5825 193.319 44.3425 192.743 44.3425C192.167 44.3425 191.714 44.5825 191.383 45.0625C191.063 45.5425 190.903 46.1772 190.903 46.9665C190.903 47.7452 191.063 48.3745 191.383 48.8545C191.714 49.3345 192.167 49.5745 192.743 49.5745ZM198.309 50.8865V43.0305H199.829L199.957 44.4225H200.021C200.298 43.9105 200.634 43.5212 201.029 43.2545C201.423 42.9772 201.829 42.8385 202.245 42.8385C202.618 42.8385 202.917 42.8919 203.141 42.9985L202.821 44.5985C202.682 44.5559 202.554 44.5239 202.437 44.5025C202.319 44.4812 202.175 44.4705 202.005 44.4705C201.695 44.4705 201.37 44.5932 201.029 44.8385C200.687 45.0732 200.394 45.4892 200.149 46.0865V50.8865H198.309Z" fill="#241249"/>
<path d="M20.056 71.0305C19.4 71.0305 18.812 70.8705 18.292 70.5505C17.78 70.2225 17.372 69.7545 17.068 69.1465C16.772 68.5385 16.624 67.8065 16.624 66.9505C16.624 66.1025 16.776 65.3745 17.08 64.7665C17.384 64.1585 17.8 63.6905 18.328 63.3625C18.856 63.0345 19.452 62.8705 20.116 62.8705C20.596 62.8705 21.02 62.9705 21.388 63.1705C21.756 63.3625 22.052 63.5865 22.276 63.8425L21.736 64.4905C21.528 64.2665 21.292 64.0865 21.028 63.9505C20.764 63.8145 20.464 63.7465 20.128 63.7465C19.632 63.7465 19.196 63.8785 18.82 64.1425C18.452 64.3985 18.164 64.7625 17.956 65.2345C17.756 65.7065 17.656 66.2705 17.656 66.9265C17.656 67.5825 17.756 68.1545 17.956 68.6425C18.156 69.1225 18.436 69.4945 18.796 69.7585C19.164 70.0225 19.596 70.1545 20.092 70.1545C20.468 70.1545 20.804 70.0745 21.1 69.9145C21.396 69.7545 21.668 69.5385 21.916 69.2665L22.468 69.8905C22.156 70.2505 21.804 70.5305 21.412 70.7305C21.02 70.9305 20.568 71.0305 20.056 71.0305ZM26.1075 71.0305C25.6355 71.0305 25.1915 70.9105 24.7755 70.6705C24.3675 70.4305 24.0355 70.0825 23.7795 69.6265C23.5315 69.1705 23.4075 68.6225 23.4075 67.9825C23.4075 67.3265 23.5315 66.7705 23.7795 66.3145C24.0355 65.8585 24.3675 65.5105 24.7755 65.2705C25.1915 65.0305 25.6355 64.9105 26.1075 64.9105C26.5875 64.9105 27.0315 65.0305 27.4395 65.2705C27.8475 65.5105 28.1755 65.8585 28.4235 66.3145C28.6795 66.7705 28.8075 67.3265 28.8075 67.9825C28.8075 68.6225 28.6795 69.1705 28.4235 69.6265C28.1755 70.0825 27.8475 70.4305 27.4395 70.6705C27.0315 70.9105 26.5875 71.0305 26.1075 71.0305ZM26.1075 70.2145C26.6115 70.2145 27.0155 70.0105 27.3195 69.6025C27.6315 69.1865 27.7875 68.6465 27.7875 67.9825C27.7875 67.3105 27.6315 66.7665 27.3195 66.3505C27.0155 65.9345 26.6115 65.7265 26.1075 65.7265C25.6115 65.7265 25.2075 65.9345 24.8955 66.3505C24.5835 66.7665 24.4275 67.3105 24.4275 67.9825C24.4275 68.6465 24.5835 69.1865 24.8955 69.6025C25.2075 70.0105 25.6115 70.2145 26.1075 70.2145ZM30.3434 70.8865V65.0545H31.1594L31.2434 65.8945H31.2794C31.5594 65.6145 31.8554 65.3825 32.1674 65.1985C32.4794 65.0065 32.8354 64.9105 33.2354 64.9105C33.8514 64.9105 34.2994 65.1065 34.5794 65.4985C34.8674 65.8825 35.0114 66.4465 35.0114 67.1905V70.8865H34.0274V67.3225C34.0274 66.7785 33.9394 66.3825 33.7634 66.1345C33.5874 65.8865 33.3074 65.7625 32.9234 65.7625C32.6274 65.7625 32.3594 65.8385 32.1194 65.9905C31.8874 66.1425 31.6234 66.3665 31.3274 66.6625V70.8865H30.3434ZM36.9059 70.8865V62.3425H37.8899V64.6705L37.8539 65.8705C38.1339 65.6065 38.4259 65.3825 38.7299 65.1985C39.0419 65.0065 39.3979 64.9105 39.7979 64.9105C40.4139 64.9105 40.8619 65.1065 41.1419 65.4985C41.4299 65.8825 41.5739 66.4465 41.5739 67.1905V70.8865H40.5899V67.3225C40.5899 66.7785 40.5019 66.3825 40.3259 66.1345C40.1499 65.8865 39.8699 65.7625 39.4859 65.7625C39.1899 65.7625 38.9219 65.8385 38.6819 65.9905C38.4499 66.1425 38.1859 66.3665 37.8899 66.6625V70.8865H36.9059ZM45.7972 71.0305C45.2772 71.0305 44.8052 70.9105 44.3812 70.6705C43.9572 70.4225 43.6212 70.0705 43.3732 69.6145C43.1252 69.1585 43.0012 68.6145 43.0012 67.9825C43.0012 67.3425 43.1252 66.7945 43.3732 66.3385C43.6292 65.8825 43.9572 65.5305 44.3572 65.2825C44.7572 65.0345 45.1772 64.9105 45.6172 64.9105C46.3612 64.9105 46.9332 65.1585 47.3332 65.6545C47.7412 66.1505 47.9452 66.8145 47.9452 67.6465C47.9452 67.7505 47.9412 67.8545 47.9332 67.9585C47.9332 68.0545 47.9252 68.1385 47.9092 68.2105H43.9732C44.0132 68.8265 44.2052 69.3185 44.5492 69.6865C44.9012 70.0545 45.3572 70.2385 45.9172 70.2385C46.1972 70.2385 46.4532 70.1985 46.6852 70.1185C46.9252 70.0305 47.1532 69.9185 47.3692 69.7825L47.7172 70.4305C47.4692 70.5905 47.1852 70.7305 46.8652 70.8505C46.5532 70.9705 46.1972 71.0305 45.7972 71.0305ZM43.9612 67.5025H47.0812C47.0812 66.9105 46.9532 66.4625 46.6972 66.1585C46.4492 65.8465 46.0972 65.6905 45.6412 65.6905C45.2332 65.6905 44.8652 65.8505 44.5372 66.1705C44.2172 66.4825 44.0252 66.9265 43.9612 67.5025ZM51.6903 71.0305C51.1783 71.0305 50.7143 70.9105 50.2983 70.6705C49.8823 70.4305 49.5543 70.0825 49.3143 69.6265C49.0743 69.1705 48.9543 68.6225 48.9543 67.9825C48.9543 67.3265 49.0823 66.7705 49.3383 66.3145C49.6023 65.8585 49.9463 65.5105 50.3703 65.2705C50.8023 65.0305 51.2663 64.9105 51.7623 64.9105C52.1463 64.9105 52.4743 64.9785 52.7463 65.1145C53.0263 65.2505 53.2663 65.4105 53.4663 65.5945L52.9623 66.2425C52.7943 66.0905 52.6143 65.9665 52.4223 65.8705C52.2383 65.7745 52.0303 65.7265 51.7983 65.7265C51.4463 65.7265 51.1303 65.8225 50.8503 66.0145C50.5783 66.1985 50.3623 66.4625 50.2023 66.8065C50.0503 67.1425 49.9743 67.5345 49.9743 67.9825C49.9743 68.6465 50.1383 69.1865 50.4663 69.6025C50.8023 70.0105 51.2383 70.2145 51.7743 70.2145C52.0463 70.2145 52.2983 70.1585 52.5303 70.0465C52.7623 69.9265 52.9663 69.7865 53.1423 69.6265L53.5743 70.2865C53.3103 70.5185 53.0183 70.7025 52.6983 70.8385C52.3783 70.9665 52.0423 71.0305 51.6903 71.0305ZM50.5503 73.5985L50.4543 73.1185C50.9583 73.0785 51.3023 73.0105 51.4863 72.9145C51.6703 72.8265 51.7623 72.6945 51.7623 72.5185C51.7623 72.3585 51.6943 72.2345 51.5583 72.1465C51.4223 72.0585 51.1823 71.9905 50.8383 71.9425L51.3663 70.8505H52.0023L51.6543 71.6545C51.9343 71.7185 52.1503 71.8145 52.3023 71.9425C52.4543 72.0705 52.5303 72.2585 52.5303 72.5065C52.5303 72.8505 52.3583 73.1105 52.0143 73.2865C51.6783 73.4625 51.1903 73.5665 50.5503 73.5985ZM56.0858 71.0305C55.5978 71.0305 55.1898 70.8865 54.8618 70.5985C54.5418 70.3025 54.3818 69.8945 54.3818 69.3745C54.3818 68.7345 54.6658 68.2465 55.2338 67.9105C55.8098 67.5665 56.7178 67.3265 57.9578 67.1905C57.9578 66.9425 57.9218 66.7065 57.8498 66.4825C57.7858 66.2585 57.6658 66.0785 57.4898 65.9425C57.3218 65.7985 57.0778 65.7265 56.7578 65.7265C56.4218 65.7265 56.1058 65.7905 55.8098 65.9185C55.5138 66.0465 55.2498 66.1905 55.0178 66.3505L54.6338 65.6665C54.9058 65.4905 55.2378 65.3225 55.6298 65.1625C56.0298 64.9945 56.4618 64.9105 56.9258 64.9105C57.6378 64.9105 58.1538 65.1305 58.4738 65.5705C58.7938 66.0025 58.9538 66.5825 58.9538 67.3105V70.8865H58.1378L58.0538 70.1905H58.0178C57.7458 70.4145 57.4458 70.6105 57.1178 70.7785C56.7978 70.9465 56.4538 71.0305 56.0858 71.0305ZM56.3738 70.2385C56.6538 70.2385 56.9178 70.1705 57.1658 70.0345C57.4138 69.8985 57.6778 69.7065 57.9578 69.4585V67.8385C56.9898 67.9585 56.3098 68.1385 55.9178 68.3785C55.5338 68.6185 55.3418 68.9265 55.3418 69.3025C55.3418 69.6305 55.4418 69.8705 55.6418 70.0225C55.8418 70.1665 56.0858 70.2385 56.3738 70.2385ZM63.191 70.8865V65.0545H64.007L64.091 65.8945H64.127C64.407 65.6145 64.703 65.3825 65.015 65.1985C65.327 65.0065 65.683 64.9105 66.083 64.9105C66.699 64.9105 67.147 65.1065 67.427 65.4985C67.715 65.8825 67.859 66.4465 67.859 67.1905V70.8865H66.875V67.3225C66.875 66.7785 66.787 66.3825 66.611 66.1345C66.435 65.8865 66.155 65.7625 65.771 65.7625C65.475 65.7625 65.207 65.8385 64.967 65.9905C64.735 66.1425 64.471 66.3665 64.175 66.6625V70.8865H63.191ZM72.0215 71.0305C71.5495 71.0305 71.1055 70.9105 70.6895 70.6705C70.2815 70.4305 69.9495 70.0825 69.6935 69.6265C69.4455 69.1705 69.3215 68.6225 69.3215 67.9825C69.3215 67.3265 69.4455 66.7705 69.6935 66.3145C69.9495 65.8585 70.2815 65.5105 70.6895 65.2705C71.1055 65.0305 71.5495 64.9105 72.0215 64.9105C72.5015 64.9105 72.9455 65.0305 73.3535 65.2705C73.7615 65.5105 74.0895 65.8585 74.3375 66.3145C74.5935 66.7705 74.7215 67.3265 74.7215 67.9825C74.7215 68.6225 74.5935 69.1705 74.3375 69.6265C74.0895 70.0825 73.7615 70.4305 73.3535 70.6705C72.9455 70.9105 72.5015 71.0305 72.0215 71.0305ZM72.0215 70.2145C72.5255 70.2145 72.9295 70.0105 73.2335 69.6025C73.5455 69.1865 73.7015 68.6465 73.7015 67.9825C73.7015 67.3105 73.5455 66.7665 73.2335 66.3505C72.9295 65.9345 72.5255 65.7265 72.0215 65.7265C71.5255 65.7265 71.1215 65.9345 70.8095 66.3505C70.4975 66.7665 70.3415 67.3105 70.3415 67.9825C70.3415 68.6465 70.4975 69.1865 70.8095 69.6025C71.1215 70.0105 71.5255 70.2145 72.0215 70.2145ZM77.7814 71.0305C77.3654 71.0305 76.9694 70.9545 76.5934 70.8025C76.2174 70.6425 75.8894 70.4505 75.6094 70.2265L76.1014 69.5665C76.3574 69.7665 76.6214 69.9345 76.8934 70.0705C77.1654 70.1985 77.4734 70.2625 77.8174 70.2625C78.2014 70.2625 78.4894 70.1745 78.6814 69.9985C78.8734 69.8145 78.9694 69.5985 78.9694 69.3505C78.9694 69.1505 78.9014 68.9825 78.7654 68.8465C78.6374 68.7105 78.4694 68.5985 78.2614 68.5105C78.0614 68.4145 77.8534 68.3265 77.6374 68.2465C77.3654 68.1425 77.0974 68.0265 76.8334 67.8985C76.5694 67.7625 76.3534 67.5905 76.1854 67.3825C76.0174 67.1665 75.9334 66.8945 75.9334 66.5665C75.9334 66.0945 76.1094 65.7025 76.4614 65.3905C76.8214 65.0705 77.3174 64.9105 77.9494 64.9105C78.3094 64.9105 78.6454 64.9745 78.9574 65.1025C79.2694 65.2305 79.5374 65.3865 79.7614 65.5705L79.2814 66.1945C79.0814 66.0425 78.8734 65.9185 78.6574 65.8225C78.4414 65.7265 78.2054 65.6785 77.9494 65.6785C77.5814 65.6785 77.3094 65.7625 77.1334 65.9305C76.9654 66.0985 76.8814 66.2945 76.8814 66.5185C76.8814 66.7025 76.9414 66.8545 77.0614 66.9745C77.1814 67.0865 77.3374 67.1865 77.5294 67.2745C77.7214 67.3545 77.9254 67.4385 78.1414 67.5265C78.4214 67.6305 78.6974 67.7505 78.9694 67.8865C79.2414 68.0145 79.4654 68.1905 79.6414 68.4145C79.8254 68.6305 79.9174 68.9225 79.9174 69.2905C79.9174 69.6025 79.8334 69.8905 79.6654 70.1545C79.5054 70.4185 79.2654 70.6305 78.9454 70.7905C78.6334 70.9505 78.2454 71.0305 77.7814 71.0305ZM82.8088 71.0305C82.3928 71.0305 81.9968 70.9545 81.6208 70.8025C81.2448 70.6425 80.9168 70.4505 80.6368 70.2265L81.1288 69.5665C81.3848 69.7665 81.6488 69.9345 81.9208 70.0705C82.1928 70.1985 82.5008 70.2625 82.8448 70.2625C83.2288 70.2625 83.5168 70.1745 83.7088 69.9985C83.9008 69.8145 83.9968 69.5985 83.9968 69.3505C83.9968 69.1505 83.9288 68.9825 83.7928 68.8465C83.6648 68.7105 83.4968 68.5985 83.2888 68.5105C83.0888 68.4145 82.8808 68.3265 82.6648 68.2465C82.3928 68.1425 82.1248 68.0265 81.8608 67.8985C81.5968 67.7625 81.3808 67.5905 81.2128 67.3825C81.0448 67.1665 80.9608 66.8945 80.9608 66.5665C80.9608 66.0945 81.1368 65.7025 81.4888 65.3905C81.8488 65.0705 82.3448 64.9105 82.9768 64.9105C83.3368 64.9105 83.6728 64.9745 83.9848 65.1025C84.2968 65.2305 84.5648 65.3865 84.7888 65.5705L84.3088 66.1945C84.1088 66.0425 83.9008 65.9185 83.6848 65.8225C83.4688 65.7265 83.2328 65.6785 82.9768 65.6785C82.6088 65.6785 82.3368 65.7625 82.1608 65.9305C81.9928 66.0985 81.9088 66.2945 81.9088 66.5185C81.9088 66.7025 81.9688 66.8545 82.0888 66.9745C82.2088 67.0865 82.3648 67.1865 82.5568 67.2745C82.7488 67.3545 82.9528 67.4385 83.1688 67.5265C83.4488 67.6305 83.7248 67.7505 83.9968 67.8865C84.2688 68.0145 84.4928 68.1905 84.6688 68.4145C84.8528 68.6305 84.9448 68.9225 84.9448 69.2905C84.9448 69.6025 84.8608 69.8905 84.6928 70.1545C84.5328 70.4185 84.2928 70.6305 83.9728 70.7905C83.6608 70.9505 83.2728 71.0305 82.8088 71.0305ZM88.5801 71.0305C88.1081 71.0305 87.6641 70.9105 87.2481 70.6705C86.8401 70.4305 86.5081 70.0825 86.2521 69.6265C86.0041 69.1705 85.8801 68.6225 85.8801 67.9825C85.8801 67.3265 86.0041 66.7705 86.2521 66.3145C86.5081 65.8585 86.8401 65.5105 87.2481 65.2705C87.6641 65.0305 88.1081 64.9105 88.5801 64.9105C89.0601 64.9105 89.5041 65.0305 89.9121 65.2705C90.3201 65.5105 90.6481 65.8585 90.8961 66.3145C91.1521 66.7705 91.2801 67.3265 91.2801 67.9825C91.2801 68.6225 91.1521 69.1705 90.8961 69.6265C90.6481 70.0825 90.3201 70.4305 89.9121 70.6705C89.5041 70.9105 89.0601 71.0305 88.5801 71.0305ZM88.5801 70.2145C89.0841 70.2145 89.4881 70.0105 89.7921 69.6025C90.1041 69.1865 90.2601 68.6465 90.2601 67.9825C90.2601 67.3105 90.1041 66.7665 89.7921 66.3505C89.4881 65.9345 89.0841 65.7265 88.5801 65.7265C88.0841 65.7265 87.6801 65.9345 87.3681 66.3505C87.0561 66.7665 86.9001 67.3105 86.9001 67.9825C86.9001 68.6465 87.0561 69.1865 87.3681 69.6025C87.6801 70.0105 88.0841 70.2145 88.5801 70.2145ZM94.34 71.0305C93.924 71.0305 93.528 70.9545 93.152 70.8025C92.776 70.6425 92.448 70.4505 92.168 70.2265L92.66 69.5665C92.916 69.7665 93.18 69.9345 93.452 70.0705C93.724 70.1985 94.032 70.2625 94.376 70.2625C94.76 70.2625 95.048 70.1745 95.24 69.9985C95.432 69.8145 95.528 69.5985 95.528 69.3505C95.528 69.1505 95.46 68.9825 95.324 68.8465C95.196 68.7105 95.028 68.5985 94.82 68.5105C94.62 68.4145 94.412 68.3265 94.196 68.2465C93.924 68.1425 93.656 68.0265 93.392 67.8985C93.128 67.7625 92.912 67.5905 92.744 67.3825C92.576 67.1665 92.492 66.8945 92.492 66.5665C92.492 66.0945 92.668 65.7025 93.02 65.3905C93.38 65.0705 93.876 64.9105 94.508 64.9105C94.868 64.9105 95.204 64.9745 95.516 65.1025C95.828 65.2305 96.096 65.3865 96.32 65.5705L95.84 66.1945C95.64 66.0425 95.432 65.9185 95.216 65.8225C95 65.7265 94.764 65.6785 94.508 65.6785C94.14 65.6785 93.868 65.7625 93.692 65.9305C93.524 66.0985 93.44 66.2945 93.44 66.5185C93.44 66.7025 93.5 66.8545 93.62 66.9745C93.74 67.0865 93.896 67.1865 94.088 67.2745C94.28 67.3545 94.484 67.4385 94.7 67.5265C94.98 67.6305 95.256 67.7505 95.528 67.8865C95.8 68.0145 96.024 68.1905 96.2 68.4145C96.384 68.6305 96.476 68.9225 96.476 69.2905C96.476 69.6025 96.392 69.8905 96.224 70.1545C96.064 70.4185 95.824 70.6305 95.504 70.7905C95.192 70.9505 94.804 71.0305 94.34 71.0305ZM100.246 70.8865V65.0545H101.062L101.146 65.8945H101.182C101.462 65.6145 101.758 65.3825 102.07 65.1985C102.382 65.0065 102.738 64.9105 103.138 64.9105C103.754 64.9105 104.202 65.1065 104.482 65.4985C104.77 65.8825 104.914 66.4465 104.914 67.1905V70.8865H103.93V67.3225C103.93 66.7785 103.842 66.3825 103.666 66.1345C103.49 65.8865 103.21 65.7625 102.826 65.7625C102.53 65.7625 102.262 65.8385 102.022 65.9905C101.79 66.1425 101.526 66.3665 101.23 66.6625V70.8865H100.246ZM108.512 71.0305C107.896 71.0305 107.444 70.8385 107.156 70.4545C106.868 70.0625 106.724 69.4945 106.724 68.7505V65.0545H107.72V68.6185C107.72 69.1625 107.804 69.5585 107.972 69.8065C108.148 70.0545 108.428 70.1785 108.812 70.1785C109.116 70.1785 109.384 70.1025 109.616 69.9505C109.856 69.7905 110.112 69.5385 110.384 69.1945V65.0545H111.368V70.8865H110.552L110.468 69.9745H110.432C110.16 70.2945 109.872 70.5505 109.568 70.7425C109.264 70.9345 108.912 71.0305 108.512 71.0305ZM115.172 71.0305C114.548 71.0305 114.112 70.8505 113.864 70.4905C113.624 70.1305 113.504 69.6625 113.504 69.0865V65.8585H112.64V65.1145L113.552 65.0545L113.672 63.4225H114.5V65.0545H116.072V65.8585H114.5V69.0985C114.5 69.4585 114.564 69.7385 114.692 69.9385C114.828 70.1305 115.064 70.2265 115.4 70.2265C115.504 70.2265 115.616 70.2105 115.736 70.1785C115.856 70.1385 115.964 70.1025 116.06 70.0705L116.252 70.8145C116.092 70.8705 115.916 70.9185 115.724 70.9585C115.54 71.0065 115.356 71.0305 115.172 71.0305ZM117.39 70.8865V65.0545H118.206L118.29 66.1105H118.326C118.526 65.7425 118.77 65.4505 119.058 65.2345C119.346 65.0185 119.654 64.9105 119.982 64.9105C120.214 64.9105 120.422 64.9505 120.606 65.0305L120.414 65.8945C120.318 65.8625 120.23 65.8385 120.15 65.8225C120.07 65.8065 119.97 65.7985 119.85 65.7985C119.602 65.7985 119.342 65.8985 119.07 66.0985C118.806 66.2985 118.574 66.6465 118.374 67.1425V70.8865H117.39ZM121.55 70.8865V65.0545H122.534V70.8865H121.55ZM122.054 63.8545C121.862 63.8545 121.702 63.7985 121.574 63.6865C121.454 63.5665 121.394 63.4065 121.394 63.2065C121.394 63.0145 121.454 62.8585 121.574 62.7385C121.702 62.6185 121.862 62.5585 122.054 62.5585C122.246 62.5585 122.402 62.6185 122.522 62.7385C122.65 62.8585 122.714 63.0145 122.714 63.2065C122.714 63.4065 122.65 63.5665 122.522 63.6865C122.402 63.7985 122.246 63.8545 122.054 63.8545ZM126.808 71.0305C126.296 71.0305 125.832 70.9105 125.416 70.6705C125 70.4305 124.672 70.0825 124.432 69.6265C124.192 69.1705 124.072 68.6225 124.072 67.9825C124.072 67.3265 124.2 66.7705 124.456 66.3145C124.72 65.8585 125.064 65.5105 125.488 65.2705C125.92 65.0305 126.384 64.9105 126.88 64.9105C127.264 64.9105 127.592 64.9785 127.864 65.1145C128.144 65.2505 128.384 65.4105 128.584 65.5945L128.08 66.2425C127.912 66.0905 127.732 65.9665 127.54 65.8705C127.356 65.7745 127.148 65.7265 126.916 65.7265C126.564 65.7265 126.248 65.8225 125.968 66.0145C125.696 66.1985 125.48 66.4625 125.32 66.8065C125.168 67.1425 125.092 67.5345 125.092 67.9825C125.092 68.6465 125.256 69.1865 125.584 69.6025C125.92 70.0105 126.356 70.2145 126.892 70.2145C127.164 70.2145 127.416 70.1585 127.648 70.0465C127.88 69.9265 128.084 69.7865 128.26 69.6265L128.692 70.2865C128.428 70.5185 128.136 70.7025 127.816 70.8385C127.496 70.9665 127.16 71.0305 126.808 71.0305ZM129.976 70.8865V65.0545H130.96V70.8865H129.976ZM130.48 63.8545C130.288 63.8545 130.128 63.7985 130 63.6865C129.88 63.5665 129.82 63.4065 129.82 63.2065C129.82 63.0145 129.88 62.8585 130 62.7385C130.128 62.6185 130.288 62.5585 130.48 62.5585C130.672 62.5585 130.828 62.6185 130.948 62.7385C131.076 62.8585 131.14 63.0145 131.14 63.2065C131.14 63.4065 131.076 63.5665 130.948 63.6865C130.828 63.7985 130.672 63.8545 130.48 63.8545ZM135.197 71.0305C134.725 71.0305 134.281 70.9105 133.865 70.6705C133.457 70.4305 133.125 70.0825 132.869 69.6265C132.621 69.1705 132.497 68.6225 132.497 67.9825C132.497 67.3265 132.621 66.7705 132.869 66.3145C133.125 65.8585 133.457 65.5105 133.865 65.2705C134.281 65.0305 134.725 64.9105 135.197 64.9105C135.677 64.9105 136.121 65.0305 136.529 65.2705C136.937 65.5105 137.265 65.8585 137.513 66.3145C137.769 66.7705 137.897 67.3265 137.897 67.9825C137.897 68.6225 137.769 69.1705 137.513 69.6265C137.265 70.0825 136.937 70.4305 136.529 70.6705C136.121 70.9105 135.677 71.0305 135.197 71.0305ZM135.197 70.2145C135.701 70.2145 136.105 70.0105 136.409 69.6025C136.721 69.1865 136.877 68.6465 136.877 67.9825C136.877 67.3105 136.721 66.7665 136.409 66.3505C136.105 65.9345 135.701 65.7265 135.197 65.7265C134.701 65.7265 134.297 65.9345 133.985 66.3505C133.673 66.7665 133.517 67.3105 133.517 67.9825C133.517 68.6465 133.673 69.1865 133.985 69.6025C134.297 70.0105 134.701 70.2145 135.197 70.2145ZM139.433 70.8865V65.0545H140.249L140.333 65.8945H140.369C140.649 65.6145 140.945 65.3825 141.257 65.1985C141.569 65.0065 141.925 64.9105 142.325 64.9105C142.941 64.9105 143.389 65.1065 143.669 65.4985C143.957 65.8825 144.101 66.4465 144.101 67.1905V70.8865H143.117V67.3225C143.117 66.7785 143.029 66.3825 142.853 66.1345C142.677 65.8865 142.397 65.7625 142.013 65.7625C141.717 65.7625 141.449 65.8385 141.209 65.9905C140.977 66.1425 140.713 66.3665 140.417 66.6625V70.8865H139.433ZM145.996 70.8865V65.0545H146.98V70.8865H145.996ZM146.5 63.8545C146.308 63.8545 146.148 63.7985 146.02 63.6865C145.9 63.5665 145.84 63.4065 145.84 63.2065C145.84 63.0145 145.9 62.8585 146.02 62.7385C146.148 62.6185 146.308 62.5585 146.5 62.5585C146.692 62.5585 146.848 62.6185 146.968 62.7385C147.096 62.8585 147.16 63.0145 147.16 63.2065C147.16 63.4065 147.096 63.5665 146.968 63.6865C146.848 63.7985 146.692 63.8545 146.5 63.8545ZM150.473 71.0305C150.057 71.0305 149.661 70.9545 149.285 70.8025C148.909 70.6425 148.581 70.4505 148.301 70.2265L148.793 69.5665C149.049 69.7665 149.313 69.9345 149.585 70.0705C149.857 70.1985 150.165 70.2625 150.509 70.2625C150.893 70.2625 151.181 70.1745 151.373 69.9985C151.565 69.8145 151.661 69.5985 151.661 69.3505C151.661 69.1505 151.593 68.9825 151.457 68.8465C151.329 68.7105 151.161 68.5985 150.953 68.5105C150.753 68.4145 150.545 68.3265 150.329 68.2465C150.057 68.1425 149.789 68.0265 149.525 67.8985C149.261 67.7625 149.045 67.5905 148.877 67.3825C148.709 67.1665 148.625 66.8945 148.625 66.5665C148.625 66.0945 148.801 65.7025 149.153 65.3905C149.513 65.0705 150.009 64.9105 150.641 64.9105C151.001 64.9105 151.337 64.9745 151.649 65.1025C151.961 65.2305 152.229 65.3865 152.453 65.5705L151.973 66.1945C151.773 66.0425 151.565 65.9185 151.349 65.8225C151.133 65.7265 150.897 65.6785 150.641 65.6785C150.273 65.6785 150.001 65.7625 149.825 65.9305C149.657 66.0985 149.573 66.2945 149.573 66.5185C149.573 66.7025 149.633 66.8545 149.753 66.9745C149.873 67.0865 150.029 67.1865 150.221 67.2745C150.413 67.3545 150.617 67.4385 150.833 67.5265C151.113 67.6305 151.389 67.7505 151.661 67.8865C151.933 68.0145 152.157 68.1905 152.333 68.4145C152.517 68.6305 152.609 68.9225 152.609 69.2905C152.609 69.6025 152.525 69.8905 152.357 70.1545C152.197 70.4185 151.957 70.6305 151.637 70.7905C151.325 70.9505 150.937 71.0305 150.473 71.0305ZM155.578 71.0305C154.954 71.0305 154.518 70.8505 154.27 70.4905C154.03 70.1305 153.91 69.6625 153.91 69.0865V65.8585H153.046V65.1145L153.958 65.0545L154.078 63.4225H154.906V65.0545H156.478V65.8585H154.906V69.0985C154.906 69.4585 154.97 69.7385 155.098 69.9385C155.234 70.1305 155.47 70.2265 155.806 70.2265C155.91 70.2265 156.022 70.2105 156.142 70.1785C156.262 70.1385 156.37 70.1025 156.466 70.0705L156.658 70.8145C156.498 70.8705 156.322 70.9185 156.13 70.9585C155.946 71.0065 155.762 71.0305 155.578 71.0305ZM158.883 71.0305C158.395 71.0305 157.987 70.8865 157.659 70.5985C157.339 70.3025 157.179 69.8945 157.179 69.3745C157.179 68.7345 157.463 68.2465 158.031 67.9105C158.607 67.5665 159.515 67.3265 160.755 67.1905C160.755 66.9425 160.719 66.7065 160.647 66.4825C160.583 66.2585 160.463 66.0785 160.287 65.9425C160.119 65.7985 159.875 65.7265 159.555 65.7265C159.219 65.7265 158.903 65.7905 158.607 65.9185C158.311 66.0465 158.047 66.1905 157.815 66.3505L157.431 65.6665C157.703 65.4905 158.035 65.3225 158.427 65.1625C158.827 64.9945 159.259 64.9105 159.723 64.9105C160.435 64.9105 160.951 65.1305 161.271 65.5705C161.591 66.0025 161.751 66.5825 161.751 67.3105V70.8865H160.935L160.851 70.1905H160.815C160.543 70.4145 160.243 70.6105 159.915 70.7785C159.595 70.9465 159.251 71.0305 158.883 71.0305ZM159.171 70.2385C159.451 70.2385 159.715 70.1705 159.963 70.0345C160.211 69.8985 160.475 69.7065 160.755 69.4585V67.8385C159.787 67.9585 159.107 68.1385 158.715 68.3785C158.331 68.6185 158.139 68.9265 158.139 69.3025C158.139 69.6305 158.239 69.8705 158.439 70.0225C158.639 70.1665 158.883 70.2385 159.171 70.2385ZM165.11 71.0305C164.694 71.0305 164.298 70.9545 163.922 70.8025C163.546 70.6425 163.218 70.4505 162.938 70.2265L163.43 69.5665C163.686 69.7665 163.95 69.9345 164.222 70.0705C164.494 70.1985 164.802 70.2625 165.146 70.2625C165.53 70.2625 165.818 70.1745 166.01 69.9985C166.202 69.8145 166.298 69.5985 166.298 69.3505C166.298 69.1505 166.23 68.9825 166.094 68.8465C165.966 68.7105 165.798 68.5985 165.59 68.5105C165.39 68.4145 165.182 68.3265 164.966 68.2465C164.694 68.1425 164.426 68.0265 164.162 67.8985C163.898 67.7625 163.682 67.5905 163.514 67.3825C163.346 67.1665 163.262 66.8945 163.262 66.5665C163.262 66.0945 163.438 65.7025 163.79 65.3905C164.15 65.0705 164.646 64.9105 165.278 64.9105C165.638 64.9105 165.974 64.9745 166.286 65.1025C166.598 65.2305 166.866 65.3865 167.09 65.5705L166.61 66.1945C166.41 66.0425 166.202 65.9185 165.986 65.8225C165.77 65.7265 165.534 65.6785 165.278 65.6785C164.91 65.6785 164.638 65.7625 164.462 65.9305C164.294 66.0985 164.21 66.2945 164.21 66.5185C164.21 66.7025 164.27 66.8545 164.39 66.9745C164.51 67.0865 164.666 67.1865 164.858 67.2745C165.05 67.3545 165.254 67.4385 165.47 67.5265C165.75 67.6305 166.026 67.7505 166.298 67.8865C166.57 68.0145 166.794 68.1905 166.97 68.4145C167.154 68.6305 167.246 68.9225 167.246 69.2905C167.246 69.6025 167.162 69.8905 166.994 70.1545C166.834 70.4185 166.594 70.6305 166.274 70.7905C165.962 70.9505 165.574 71.0305 165.11 71.0305ZM171.015 70.8865V65.0545H171.999V70.8865H171.015ZM171.519 63.8545C171.327 63.8545 171.167 63.7985 171.039 63.6865C170.919 63.5665 170.859 63.4065 170.859 63.2065C170.859 63.0145 170.919 62.8585 171.039 62.7385C171.167 62.6185 171.327 62.5585 171.519 62.5585C171.711 62.5585 171.867 62.6185 171.987 62.7385C172.115 62.8585 172.179 63.0145 172.179 63.2065C172.179 63.4065 172.115 63.5665 171.987 63.6865C171.867 63.7985 171.711 63.8545 171.519 63.8545ZM173.968 70.8865V65.0545H174.784L174.868 65.8945H174.904C175.184 65.6145 175.48 65.3825 175.792 65.1985C176.104 65.0065 176.46 64.9105 176.86 64.9105C177.476 64.9105 177.924 65.1065 178.204 65.4985C178.492 65.8825 178.636 66.4465 178.636 67.1905V70.8865H177.652V67.3225C177.652 66.7785 177.564 66.3825 177.388 66.1345C177.212 65.8865 176.932 65.7625 176.548 65.7625C176.252 65.7625 175.984 65.8385 175.744 65.9905C175.512 66.1425 175.248 66.3665 174.952 66.6625V70.8865H173.968ZM182.835 71.0305C182.323 71.0305 181.859 70.9105 181.443 70.6705C181.027 70.4305 180.699 70.0825 180.459 69.6265C180.219 69.1705 180.099 68.6225 180.099 67.9825C180.099 67.3265 180.227 66.7705 180.483 66.3145C180.747 65.8585 181.091 65.5105 181.515 65.2705C181.947 65.0305 182.411 64.9105 182.907 64.9105C183.291 64.9105 183.619 64.9785 183.891 65.1145C184.171 65.2505 184.411 65.4105 184.611 65.5945L184.107 66.2425C183.939 66.0905 183.759 65.9665 183.567 65.8705C183.383 65.7745 183.175 65.7265 182.943 65.7265C182.591 65.7265 182.275 65.8225 181.995 66.0145C181.723 66.1985 181.507 66.4625 181.347 66.8065C181.195 67.1425 181.119 67.5345 181.119 67.9825C181.119 68.6465 181.283 69.1865 181.611 69.6025C181.947 70.0105 182.383 70.2145 182.919 70.2145C183.191 70.2145 183.443 70.1585 183.675 70.0465C183.907 69.9265 184.111 69.7865 184.287 69.6265L184.719 70.2865C184.455 70.5185 184.163 70.7025 183.843 70.8385C183.523 70.9665 183.187 71.0305 182.835 71.0305ZM186.004 70.8865V65.0545H186.82L186.904 66.1105H186.94C187.14 65.7425 187.384 65.4505 187.672 65.2345C187.96 65.0185 188.268 64.9105 188.596 64.9105C188.828 64.9105 189.036 64.9505 189.22 65.0305L189.028 65.8945C188.932 65.8625 188.844 65.8385 188.764 65.8225C188.684 65.8065 188.584 65.7985 188.464 65.7985C188.216 65.7985 187.956 65.8985 187.684 66.0985C187.42 66.2985 187.188 66.6465 186.988 67.1425V70.8865H186.004ZM190.164 70.8865V65.0545H191.148V70.8865H190.164ZM190.5 64.0105L189.996 63.5185L191.688 61.5145L192.384 62.1745L190.5 64.0105ZM194.377 70.8865L192.277 65.0545H193.297L194.401 68.3665C194.489 68.6545 194.577 68.9425 194.665 69.2305C194.761 69.5185 194.853 69.8025 194.941 70.0825H194.989C195.077 69.8025 195.165 69.5185 195.253 69.2305C195.349 68.9425 195.437 68.6545 195.517 68.3665L196.621 65.0545H197.593L195.529 70.8865H194.377ZM201.036 71.0305C200.516 71.0305 200.044 70.9105 199.62 70.6705C199.196 70.4225 198.86 70.0705 198.612 69.6145C198.364 69.1585 198.24 68.6145 198.24 67.9825C198.24 67.3425 198.364 66.7945 198.612 66.3385C198.868 65.8825 199.196 65.5305 199.596 65.2825C199.996 65.0345 200.416 64.9105 200.855 64.9105C201.6 64.9105 202.172 65.1585 202.572 65.6545C202.98 66.1505 203.184 66.8145 203.184 67.6465C203.184 67.7505 203.18 67.8545 203.172 67.9585C203.172 68.0545 203.164 68.1385 203.148 68.2105H199.212C199.252 68.8265 199.444 69.3185 199.788 69.6865C200.14 70.0545 200.596 70.2385 201.156 70.2385C201.436 70.2385 201.692 70.1985 201.924 70.1185C202.164 70.0305 202.392 69.9185 202.608 69.7825L202.956 70.4305C202.708 70.5905 202.424 70.7305 202.104 70.8505C201.792 70.9705 201.436 71.0305 201.036 71.0305ZM199.2 67.5025H202.32C202.32 66.9105 202.192 66.4625 201.936 66.1585C201.688 65.8465 201.336 65.6905 200.88 65.6905C200.472 65.6905 200.104 65.8505 199.776 66.1705C199.456 66.4825 199.264 66.9265 199.2 67.5025ZM204.625 70.8865V65.0545H205.609V70.8865H204.625ZM205.129 63.8545C204.937 63.8545 204.777 63.7985 204.649 63.6865C204.529 63.5665 204.469 63.4065 204.469 63.2065C204.469 63.0145 204.529 62.8585 204.649 62.7385C204.777 62.6185 204.937 62.5585 205.129 62.5585C205.321 62.5585 205.477 62.6185 205.597 62.7385C205.725 62.8585 205.789 63.0145 205.789 63.2065C205.789 63.4065 205.725 63.5665 205.597 63.6865C205.477 63.7985 205.321 63.8545 205.129 63.8545ZM209.102 71.0305C208.686 71.0305 208.29 70.9545 207.914 70.8025C207.538 70.6425 207.21 70.4505 206.93 70.2265L207.422 69.5665C207.678 69.7665 207.942 69.9345 208.214 70.0705C208.486 70.1985 208.794 70.2625 209.138 70.2625C209.522 70.2625 209.81 70.1745 210.002 69.9985C210.194 69.8145 210.29 69.5985 210.29 69.3505C210.29 69.1505 210.222 68.9825 210.086 68.8465C209.958 68.7105 209.79 68.5985 209.582 68.5105C209.382 68.4145 209.174 68.3265 208.958 68.2465C208.686 68.1425 208.418 68.0265 208.154 67.8985C207.89 67.7625 207.674 67.5905 207.506 67.3825C207.338 67.1665 207.254 66.8945 207.254 66.5665C207.254 66.0945 207.43 65.7025 207.782 65.3905C208.142 65.0705 208.638 64.9105 209.27 64.9105C209.63 64.9105 209.966 64.9745 210.278 65.1025C210.59 65.2305 210.858 65.3865 211.082 65.5705L210.602 66.1945C210.402 66.0425 210.194 65.9185 209.978 65.8225C209.762 65.7265 209.526 65.6785 209.27 65.6785C208.902 65.6785 208.63 65.7625 208.454 65.9305C208.286 66.0985 208.202 66.2945 208.202 66.5185C208.202 66.7025 208.262 66.8545 208.382 66.9745C208.502 67.0865 208.658 67.1865 208.85 67.2745C209.042 67.3545 209.246 67.4385 209.462 67.5265C209.742 67.6305 210.018 67.7505 210.29 67.8865C210.562 68.0145 210.786 68.1905 210.962 68.4145C211.146 68.6305 211.238 68.9225 211.238 69.2905C211.238 69.6025 211.154 69.8905 210.986 70.1545C210.826 70.4185 210.586 70.6305 210.266 70.7905C209.954 70.9505 209.566 71.0305 209.102 71.0305ZM213.013 68.5105L212.881 63.9745L212.857 62.8465H213.853L213.829 63.9745L213.697 68.5105H213.013ZM213.361 71.0305C213.161 71.0305 212.989 70.9625 212.845 70.8265C212.709 70.6825 212.641 70.5025 212.641 70.2865C212.641 70.0545 212.709 69.8705 212.845 69.7345C212.989 69.5905 213.161 69.5185 213.361 69.5185C213.553 69.5185 213.717 69.5905 213.853 69.7345C213.997 69.8705 214.069 70.0545 214.069 70.2865C214.069 70.5025 213.997 70.6825 213.853 70.8265C213.717 70.9625 213.553 71.0305 213.361 71.0305Z" fill="#5A6570"/>
<path d="M258.965 67.0523C258.072 75.5864 258.012 97.1798 264.919 115.28C261.347 113.494 259.56 113.077 257.179 112.601" stroke="#241249" stroke-width="1.4317" stroke-linecap="round" stroke-linejoin="round"/>
<path d="M285.758 67.0523C286.651 75.5864 286.711 97.1798 279.804 115.28C283.376 113.494 285.163 113.077 287.544 112.601" stroke="#241249" stroke-width="1.4317" stroke-linecap="round" stroke-linejoin="round"/>
<path d="M284.39 31.4718C274.959 15.6988 260.901 24.886 259.853 31.4718C249.583 30.2585 245.355 40.0661 245.093 45.1215C240.507 43.77 233.605 48.9216 232.869 57.6453C232.134 66.369 238.37 72.3071 248.761 70.2977C254.629 82.1881 267.623 78.083 273.387 74.5442C285.124 86.192 293.123 75.1509 295.655 68.1744C297.401 69.2866 302.047 70.5403 306.658 66.6577C318.172 54.612 307.431 41.569 298.799 42.3916C296.703 32.1998 288.32 30.8652 284.39 31.4718Z" fill="#EEE6FC"/>
<path d="M267.684 41.0066V45.2847" stroke="#241249" stroke-width="1.39749" stroke-linecap="round" stroke-linejoin="round"/>
<path d="M277.042 41.0066V45.2847" stroke="#241249" stroke-width="1.39749" stroke-linecap="round" stroke-linejoin="round"/>
<path fill-rule="evenodd" clip-rule="evenodd" d="M232.917 57.1594C233.768 64.1016 239.677 68.4187 248.761 66.6621C254.629 78.5525 267.623 74.4475 273.387 70.9087C285.124 82.5564 293.123 71.5153 295.655 64.5388C297.401 65.651 302.047 66.9047 306.658 63.0222C309.636 59.9064 311.125 56.724 311.547 53.732C312.111 57.6857 310.882 62.239 306.658 66.658C302.047 70.5406 297.401 69.2868 295.655 68.1747C293.123 75.1512 285.124 86.1923 273.387 74.5445C267.623 78.0833 254.629 82.1884 248.761 70.2979C238.37 72.3074 232.134 66.3693 232.869 57.6456C232.883 57.4823 232.899 57.3202 232.917 57.1594Z" fill="#B89FEA"/>
<path d="M281.543 47.6317C281.156 50.2549 281.792 55.1059 287.435 53.5237" stroke="#241249" stroke-width="1.45875" stroke-linecap="round" stroke-linejoin="round"/>
<path d="M278.31 55.5298C279.479 55.6277 281.996 55.2568 282.709 52.9902" stroke="#241249" stroke-width="1.45875" stroke-linecap="round" stroke-linejoin="round"/>
<path d="M271.213 51.3211C272.503 51.1111 273.288 51.6121 273.641 52.03C273.766 52.1767 273.806 52.371 273.806 52.5633V58.5842C273.806 58.9907 274.009 59.3701 274.348 59.5949L281.414 64.2884C281.726 64.4953 281.925 64.8339 281.953 65.2069C282.179 68.1914 282.556 73.243 282.556 73.4798C282.556 73.733 281.476 75.2736 280.936 76.0122C279.964 77.0674 277.76 79.1144 276.723 78.8612C276.13 78.7165 275.58 78.4272 275.156 78.1466C274.713 77.8528 274.136 77.7698 273.658 78.0034C272.567 78.5361 271.049 79.1777 270.241 79.1777C269.331 79.1777 268.188 77.8784 267.557 76.9895C267.4 76.7698 267.186 76.5969 266.933 76.5047C265.643 76.0355 263.487 75.2023 262.786 74.746C262.093 74.2945 262.893 71.2935 263.534 69.3766C263.669 68.974 263.596 68.5313 263.331 68.1992C261.63 66.0634 258.897 62.465 258.897 61.7674C258.897 60.8177 259.869 60.1846 259.869 59.2349C259.869 58.2853 259.545 57.0191 259.869 55.7529C260.193 54.4867 261.49 54.4867 262.786 54.1701C263.737 53.938 265.849 53.5109 267.027 53.2788C267.222 53.2402 267.403 53.1538 267.563 53.0348C268.327 52.4658 269.822 51.5476 271.213 51.3211Z" fill="#98E4B4"/>
<path d="M267.01 53.1926C267.761 53.0593 268.238 53.3464 268.479 53.6165C268.597 53.7497 268.63 53.9318 268.63 54.1101V57.9635C268.63 58.3526 268.817 58.7181 269.132 58.9463L273.234 61.9158C273.525 62.1266 273.708 62.4552 273.733 62.8139C273.875 64.8623 274.098 68.1287 274.098 68.2858C274.098 68.4583 273.423 69.5076 273.086 70.0107C272.478 70.7294 271.101 72.1238 270.453 71.9513C270.222 71.8899 270.002 71.7903 269.805 71.6777C269.311 71.3962 268.689 71.298 268.181 71.5511C267.554 71.8626 266.824 72.1669 266.403 72.1669C265.871 72.1669 265.213 71.3937 264.807 70.7983C264.653 70.5721 264.441 70.3888 264.187 70.2868C263.373 69.9601 262.156 69.4406 261.745 69.1482C261.329 68.8531 261.773 66.9585 262.163 65.6522C262.276 65.2737 262.212 64.8637 261.98 64.5442C260.913 63.077 259.314 60.7677 259.314 60.3079C259.314 59.6611 259.922 59.2298 259.922 58.583C259.922 57.9361 259.719 57.0737 259.922 56.2112C260.124 55.3487 260.935 55.3487 261.745 55.1331C262.306 54.9838 263.515 54.7158 264.267 54.5533C264.472 54.5091 264.661 54.4115 264.827 54.2827C265.326 53.8942 266.197 53.3369 267.01 53.1926Z" fill="#FF5C60"/>
<path d="M273.764 59.3037C274.515 59.1705 274.992 59.4576 275.232 59.7277C275.351 59.8608 275.384 60.043 275.384 60.2213V64.0747C275.384 64.4638 275.57 64.8293 275.886 65.0575L279.987 68.027C280.278 68.2378 280.461 68.5664 280.486 68.9251C280.628 70.9735 280.852 74.2399 280.852 74.3969C280.852 74.5694 280.177 75.6188 279.839 76.1219C279.232 76.8406 277.854 78.2349 277.206 78.0624C276.976 78.001 276.755 77.9014 276.558 77.7889C276.065 77.5073 275.443 77.4092 274.934 77.6622C274.308 77.9738 273.578 78.278 273.156 78.278C272.625 78.278 271.966 77.5049 271.56 76.9095C271.406 76.6833 271.194 76.4999 270.94 76.3979C270.127 76.0713 268.91 75.5518 268.498 75.2594C268.082 74.9642 268.526 73.0697 268.917 71.7634C269.03 71.3848 268.966 70.9749 268.733 70.6553C267.666 69.1882 266.068 66.8789 266.068 66.4191C266.068 65.7723 266.675 65.341 266.675 64.6942C266.675 64.0473 266.473 63.1848 266.675 62.3224C266.878 61.4599 267.688 61.4599 268.498 61.2443C269.059 61.0949 270.268 60.827 271.021 60.6645C271.226 60.6202 271.414 60.5227 271.58 60.3939C272.08 60.0053 272.95 59.4481 273.764 59.3037Z" fill="#FF5C60"/>
<path fill-rule="evenodd" clip-rule="evenodd" d="M272.547 52.4849C273.518 52.4849 274.463 52.5528 275.371 52.6812C275.309 52.9087 275.277 53.1479 275.277 53.3948C275.277 54.5732 276.023 55.5773 277.069 55.9596C276.706 56.4232 276.49 57.007 276.49 57.6414C276.49 59.1491 277.712 60.3714 279.22 60.3714C280.077 60.3714 280.843 59.9759 281.343 59.3574C281.844 59.9759 282.609 60.3714 283.466 60.3714C284.027 60.3714 284.547 60.2027 284.98 59.9134C284.982 59.9648 284.983 60.0164 284.983 60.068C284.983 62.0461 283.741 63.8473 281.706 65.1974L281.101 75.691C281.066 76.2979 280.587 76.7852 279.981 76.831L266.136 77.8759C265.483 77.9252 264.908 77.4468 264.838 76.7953L263.611 65.3424C261.444 63.9776 260.11 62.1178 260.11 60.068C260.11 55.88 265.678 52.4849 272.547 52.4849Z" fill="#FDBE08"/>
<path d="M294.564 58.5515C298.631 63.3034 305.73 74.2529 301.593 80.0349C297.455 85.8168 286.298 75.1945 281.237 69.1605" stroke="#241249" stroke-width="1.45875" stroke-linecap="round" stroke-linejoin="round"/>
<path d="M275.276 65.8989C275.34 67.4333 275.423 69.219 276.459 70.4708C277.39 71.5953 278.336 70.275 278.596 69.3068C278.837 68.4056 278.908 67.5141 278.306 66.7403C278.073 66.4412 277.663 65.9567 277.422 66.4926C277.088 67.2347 277.069 67.8828 277.338 68.6289C277.521 69.1383 277.79 69.9329 278.413 70.022C279.722 70.2089 280.682 70.0598 281.288 68.7505C281.584 68.1105 281.804 67.235 281.69 66.5253C281.609 66.0224 281.138 65.7575 280.793 65.4361C280.384 65.0558 279.724 64.3035 279.063 64.4871C278.457 64.6554 278.519 65.1688 278.661 65.6465C278.971 66.6898 281.233 66.639 281.989 66.3196C282.993 65.8958 283.478 64.4227 282.448 63.814C281.93 63.5082 281.36 63.3745 280.765 63.3745C280.5 63.3745 279.609 63.2927 279.484 63.5428" stroke="#241249" stroke-width="1.45875" stroke-linecap="round"/>
<path d="M249.585 58.5515C245.518 63.3034 238.419 74.2529 242.556 80.0349C246.694 85.8168 257.851 75.1945 262.912 69.1605" stroke="#241249" stroke-width="1.45875" stroke-linecap="round" stroke-linejoin="round"/>
<path d="M268.872 65.8989C268.808 67.4333 268.726 69.219 267.69 70.4708C266.759 71.5953 265.813 70.275 265.553 69.3068C265.311 68.4056 265.241 67.5141 265.843 66.7403C266.076 66.4412 266.485 65.9567 266.727 66.4926C267.061 67.2347 267.079 67.8828 266.811 68.6289C266.627 69.1383 266.359 69.9329 265.736 70.022C264.427 70.2089 263.467 70.0598 262.861 68.7505C262.564 68.1105 262.344 67.235 262.459 66.5253C262.539 66.0224 263.011 65.7575 263.356 65.4361C263.765 65.0558 264.425 64.3035 265.086 64.4871C265.692 64.6554 265.63 65.1688 265.488 65.6465C265.178 66.6898 262.916 66.639 262.159 66.3196C261.156 65.8958 260.671 64.4227 261.701 63.814C262.219 63.5082 262.788 63.3745 263.384 63.3745C263.649 63.3745 264.54 63.2927 264.665 63.5428" stroke="#241249" stroke-width="1.45875" stroke-linecap="round"/>
</g>
<defs>
<clipPath id="clip0_3565_5839">
<rect width="328" height="108" rx="9" fill="white"/>
</clipPath>
</defs>
</svg>
