<svg width="328" height="108" viewBox="0 0 328 108" fill="none" xmlns="http://www.w3.org/2000/svg">
<g clip-path="url(#clip0_3606_8747)">
<rect width="328" height="108" rx="9" fill="white"/>
<path d="M22.92 26.3665C24.08 26.3665 25.0933 26.6465 25.96 27.2065C26.84 27.7532 27.52 28.5599 28 29.6265C28.4933 30.6932 28.74 31.9865 28.74 33.5065C28.74 34.9999 28.4933 36.2799 28 37.3465C27.52 38.4132 26.84 39.2265 25.96 39.7865C25.0933 40.3465 24.08 40.6265 22.92 40.6265C21.76 40.6265 20.74 40.3532 19.86 39.8065C18.9933 39.2599 18.3133 38.4532 17.82 37.3865C17.34 36.3199 17.1 35.0332 17.1 33.5265C17.1 32.0465 17.34 30.7665 17.82 29.6865C18.3133 28.6065 19 27.7865 19.88 27.2265C20.76 26.6532 21.7733 26.3665 22.92 26.3665ZM22.92 27.9265C21.72 27.9265 20.7867 28.3799 20.12 29.2865C19.4533 30.1932 19.12 31.6065 19.12 33.5265C19.12 35.4332 19.4533 36.8332 20.12 37.7265C20.8 38.6199 21.7333 39.0665 22.92 39.0665C25.4533 39.0665 26.72 37.2132 26.72 33.5065C26.72 29.7865 25.4533 27.9265 22.92 27.9265ZM39.9006 29.6065C40.6206 29.6065 41.2673 29.7065 41.8406 29.9065C42.414 30.1065 42.9606 30.4065 43.4806 30.8065L42.7006 31.9665C42.2206 31.6599 41.7606 31.4332 41.3206 31.2865C40.894 31.1399 40.4406 31.0665 39.9606 31.0665C39.3606 31.0665 38.8873 31.1932 38.5406 31.4465C38.194 31.6865 38.0206 32.0199 38.0206 32.4465C38.0206 32.8732 38.1806 33.2065 38.5006 33.4465C38.834 33.6865 39.4273 33.9199 40.2806 34.1465C41.454 34.4399 42.3273 34.8399 42.9006 35.3465C43.4873 35.8532 43.7806 36.5465 43.7806 37.4265C43.7806 38.4665 43.374 39.2599 42.5606 39.8065C41.7606 40.3532 40.7806 40.6265 39.6206 40.6265C38.0206 40.6265 36.694 40.1665 35.6406 39.2465L36.6206 38.1265C37.514 38.8065 38.5006 39.1465 39.5806 39.1465C40.274 39.1465 40.8206 39.0065 41.2206 38.7265C41.634 38.4332 41.8406 38.0399 41.8406 37.5465C41.8406 37.1865 41.7673 36.8999 41.6206 36.6865C41.474 36.4599 41.2206 36.2665 40.8606 36.1065C40.5006 35.9332 39.974 35.7532 39.2806 35.5665C38.1606 35.2732 37.3473 34.8799 36.8406 34.3865C36.3473 33.8932 36.1006 33.2665 36.1006 32.5065C36.1006 31.9599 36.2606 31.4665 36.5806 31.0265C36.914 30.5732 37.3673 30.2265 37.9406 29.9865C38.5273 29.7332 39.1806 29.6065 39.9006 29.6065ZM54.3366 34.8065C54.3366 35.1132 54.3232 35.4265 54.2966 35.7465H47.5766C47.6566 36.9065 47.9499 37.7599 48.4566 38.3065C48.9632 38.8532 49.6166 39.1265 50.4166 39.1265C50.9232 39.1265 51.3899 39.0532 51.8166 38.9065C52.2432 38.7599 52.6899 38.5265 53.1566 38.2065L53.9566 39.3065C52.8366 40.1865 51.6099 40.6265 50.2766 40.6265C48.8099 40.6265 47.6632 40.1465 46.8366 39.1865C46.0232 38.2265 45.6166 36.9065 45.6166 35.2265C45.6166 34.1332 45.7899 33.1665 46.1366 32.3265C46.4966 31.4732 47.0032 30.8065 47.6566 30.3265C48.3232 29.8465 49.1032 29.6065 49.9966 29.6065C51.3966 29.6065 52.4699 30.0665 53.2166 30.9865C53.9632 31.9065 54.3366 33.1799 54.3366 34.8065ZM52.5166 34.2665C52.5166 33.2265 52.3099 32.4332 51.8966 31.8865C51.4832 31.3399 50.8632 31.0665 50.0366 31.0665C48.5299 31.0665 47.7099 32.1732 47.5766 34.3865H52.5166V34.2665ZM65.115 40.3865H63.535L63.395 38.7465C62.995 39.3999 62.535 39.8799 62.015 40.1865C61.495 40.4799 60.8617 40.6265 60.115 40.6265C59.195 40.6265 58.475 40.3465 57.955 39.7865C57.435 39.2265 57.175 38.4332 57.175 37.4065V29.8465H59.015V37.2065C59.015 37.9265 59.1417 38.4399 59.395 38.7465C59.6483 39.0399 60.0617 39.1865 60.635 39.1865C61.6617 39.1865 62.5417 38.5799 63.275 37.3665V29.8465H65.115V40.3865ZM78.0486 29.6065C78.6753 29.6065 79.2486 29.6999 79.7686 29.8865C80.2886 30.0599 80.7886 30.3465 81.2686 30.7465L80.3886 31.9065C80.0153 31.6399 79.6486 31.4465 79.2886 31.3265C78.9419 31.1932 78.5553 31.1265 78.1286 31.1265C77.2753 31.1265 76.6086 31.4665 76.1286 32.1465C75.6619 32.8265 75.4286 33.8332 75.4286 35.1665C75.4286 36.4999 75.6619 37.4865 76.1286 38.1265C76.5953 38.7532 77.2619 39.0665 78.1286 39.0665C78.5419 39.0665 78.9219 39.0065 79.2686 38.8865C79.6153 38.7532 80.0019 38.5465 80.4286 38.2665L81.2686 39.4665C80.3086 40.2399 79.2353 40.6265 78.0486 40.6265C76.6219 40.6265 75.4953 40.1465 74.6686 39.1865C73.8553 38.2265 73.4486 36.8999 73.4486 35.2065C73.4486 34.0865 73.6353 33.1065 74.0086 32.2665C74.3819 31.4265 74.9086 30.7732 75.5886 30.3065C76.2819 29.8399 77.1019 29.6065 78.0486 29.6065ZM87.3288 29.6065C88.8088 29.6065 89.9554 30.0999 90.7688 31.0865C91.5954 32.0732 92.0088 33.4132 92.0088 35.1065C92.0088 36.1999 91.8221 37.1665 91.4488 38.0065C91.0754 38.8332 90.5354 39.4799 89.8288 39.9465C89.1221 40.3999 88.2821 40.6265 87.3088 40.6265C85.8288 40.6265 84.6754 40.1332 83.8488 39.1465C83.0221 38.1599 82.6088 36.8199 82.6088 35.1265C82.6088 34.0332 82.7954 33.0732 83.1688 32.2465C83.5421 31.4065 84.0821 30.7599 84.7888 30.3065C85.4954 29.8399 86.3421 29.6065 87.3288 29.6065ZM87.3288 31.0865C85.5021 31.0865 84.5888 32.4332 84.5888 35.1265C84.5888 37.8065 85.4954 39.1465 87.3088 39.1465C89.1221 39.1465 90.0288 37.7999 90.0288 35.1065C90.0288 32.4265 89.1288 31.0865 87.3288 31.0865ZM99.6284 29.6065C100.002 29.6065 100.348 29.6465 100.668 29.7265L100.328 31.5265C100.008 31.4465 99.7018 31.4065 99.4084 31.4065C98.7551 31.4065 98.2284 31.6465 97.8284 32.1265C97.4284 32.6065 97.1151 33.3532 96.8884 34.3665V40.3865H95.0484V29.8465H96.6284L96.8084 31.9865C97.0884 31.1999 97.4684 30.6065 97.9484 30.2065C98.4284 29.8065 98.9884 29.6065 99.6284 29.6065ZM107.603 29.6065C108.95 29.6065 109.937 30.0865 110.563 31.0465C111.19 32.0065 111.503 33.3599 111.503 35.1065C111.503 36.7599 111.143 38.0932 110.423 39.1065C109.703 40.1199 108.683 40.6265 107.363 40.6265C106.19 40.6265 105.27 40.2265 104.603 39.4265V44.4265L102.763 44.6465V29.8465H104.343L104.483 31.2665C104.87 30.7332 105.337 30.3265 105.883 30.0465C106.43 29.7532 107.003 29.6065 107.603 29.6065ZM106.923 39.1265C108.657 39.1265 109.523 37.7865 109.523 35.1065C109.523 32.4132 108.73 31.0665 107.143 31.0665C106.623 31.0665 106.15 31.2199 105.723 31.5265C105.297 31.8332 104.923 32.2265 104.603 32.7065V37.8465C104.87 38.2599 105.203 38.5799 105.603 38.8065C106.003 39.0199 106.443 39.1265 106.923 39.1265ZM118.598 29.6065C120.078 29.6065 121.225 30.0999 122.038 31.0865C122.865 32.0732 123.278 33.4132 123.278 35.1065C123.278 36.1999 123.092 37.1665 122.718 38.0065C122.345 38.8332 121.805 39.4799 121.098 39.9465C120.392 40.3999 119.552 40.6265 118.578 40.6265C117.098 40.6265 115.945 40.1332 115.118 39.1465C114.292 38.1599 113.878 36.8199 113.878 35.1265C113.878 34.0332 114.065 33.0732 114.438 32.2465C114.812 31.4065 115.352 30.7599 116.058 30.3065C116.765 29.8399 117.612 29.6065 118.598 29.6065ZM118.598 31.0865C116.772 31.0865 115.858 32.4332 115.858 35.1265C115.858 37.8065 116.765 39.1465 118.578 39.1465C120.392 39.1465 121.298 37.7999 121.298 35.1065C121.298 32.4265 120.398 31.0865 118.598 31.0865ZM28.48 53.6065C29.3467 53.6065 30.04 53.8999 30.56 54.4865C31.08 55.0599 31.34 55.8399 31.34 56.8265V64.3865H29.5V57.0865C29.5 55.7265 29.0067 55.0465 28.02 55.0465C27.5 55.0465 27.06 55.1999 26.7 55.5065C26.34 55.7999 25.9533 56.2665 25.54 56.9065V64.3865H23.7V57.0865C23.7 55.7265 23.2067 55.0465 22.22 55.0465C21.6867 55.0465 21.24 55.1999 20.88 55.5065C20.52 55.8132 20.14 56.2799 19.74 56.9065V64.3865H17.9V53.8465H19.48L19.64 55.3865C20.4267 54.1999 21.44 53.6065 22.68 53.6065C23.3333 53.6065 23.8867 53.7732 24.34 54.1065C24.8067 54.4399 25.14 54.9065 25.34 55.5065C25.7533 54.8932 26.2067 54.4265 26.7 54.1065C27.2067 53.7732 27.8 53.6065 28.48 53.6065ZM43.0084 58.8065C43.0084 59.1132 42.9951 59.4265 42.9684 59.7465H36.2484C36.3284 60.9065 36.6218 61.7599 37.1284 62.3065C37.6351 62.8532 38.2884 63.1265 39.0884 63.1265C39.5951 63.1265 40.0618 63.0532 40.4884 62.9065C40.9151 62.7599 41.3618 62.5265 41.8284 62.2065L42.6284 63.3065C41.5084 64.1865 40.2818 64.6265 38.9484 64.6265C37.4818 64.6265 36.3351 64.1465 35.5084 63.1865C34.6951 62.2265 34.2884 60.9065 34.2884 59.2265C34.2884 58.1332 34.4618 57.1665 34.8084 56.3265C35.1684 55.4732 35.6751 54.8065 36.3284 54.3265C36.9951 53.8465 37.7751 53.6065 38.6684 53.6065C40.0684 53.6065 41.1418 54.0665 41.8884 54.9865C42.6351 55.9065 43.0084 57.1799 43.0084 58.8065ZM41.1884 58.2665C41.1884 57.2265 40.9818 56.4332 40.5684 55.8865C40.1551 55.3399 39.5351 55.0665 38.7084 55.0665C37.2018 55.0665 36.3818 56.1732 36.2484 58.3865H41.1884V58.2665ZM50.5269 53.6065C50.9002 53.6065 51.2469 53.6465 51.5669 53.7265L51.2269 55.5265C50.9069 55.4465 50.6002 55.4065 50.3069 55.4065C49.6535 55.4065 49.1269 55.6465 48.7269 56.1265C48.3269 56.6065 48.0135 57.3532 47.7869 58.3665V64.3865H45.9469V53.8465H47.5269L47.7069 55.9865C47.9869 55.1999 48.3669 54.6065 48.8469 54.2065C49.3269 53.8065 49.8869 53.6065 50.5269 53.6065ZM61.0163 58.8065C61.0163 59.1132 61.0029 59.4265 60.9763 59.7465H54.2563C54.3363 60.9065 54.6296 61.7599 55.1363 62.3065C55.6429 62.8532 56.2963 63.1265 57.0963 63.1265C57.6029 63.1265 58.0696 63.0532 58.4963 62.9065C58.9229 62.7599 59.3696 62.5265 59.8363 62.2065L60.6363 63.3065C59.5163 64.1865 58.2896 64.6265 56.9563 64.6265C55.4896 64.6265 54.3429 64.1465 53.5163 63.1865C52.7029 62.2265 52.2963 60.9065 52.2963 59.2265C52.2963 58.1332 52.4696 57.1665 52.8163 56.3265C53.1763 55.4732 53.6829 54.8065 54.3363 54.3265C55.0029 53.8465 55.7829 53.6065 56.6763 53.6065C58.0763 53.6065 59.1496 54.0665 59.8963 54.9865C60.6429 55.9065 61.0163 57.1799 61.0163 58.8065ZM59.1963 58.2665C59.1963 57.2265 58.9896 56.4332 58.5763 55.8865C58.1629 55.3399 57.5429 55.0665 56.7163 55.0665C55.2096 55.0665 54.3896 56.1732 54.2563 58.3865H59.1963V58.2665ZM67.7947 53.6065C68.4214 53.6065 68.9947 53.6999 69.5147 53.8865C70.0347 54.0599 70.5347 54.3465 71.0147 54.7465L70.1347 55.9065C69.7614 55.6399 69.3947 55.4465 69.0347 55.3265C68.688 55.1932 68.3014 55.1265 67.8747 55.1265C67.0214 55.1265 66.3547 55.4665 65.8747 56.1465C65.408 56.8265 65.1747 57.8332 65.1747 59.1665C65.1747 60.4999 65.408 61.4865 65.8747 62.1265C66.3414 62.7532 67.008 63.0665 67.8747 63.0665C68.288 63.0665 68.668 63.0065 69.0147 62.8865C69.3614 62.7532 69.748 62.5465 70.1747 62.2665L71.0147 63.4665C70.0547 64.2399 68.9814 64.6265 67.7947 64.6265C66.368 64.6265 65.2414 64.1465 64.4147 63.1865C63.6014 62.2265 63.1947 60.8999 63.1947 59.2065C63.1947 58.0865 63.3814 57.1065 63.7547 56.2665C64.128 55.4265 64.6547 54.7732 65.3347 54.3065C66.028 53.8399 66.848 53.6065 67.7947 53.6065ZM81.0748 58.8065C81.0748 59.1132 81.0615 59.4265 81.0348 59.7465H74.3148C74.3948 60.9065 74.6882 61.7599 75.1948 62.3065C75.7015 62.8532 76.3548 63.1265 77.1548 63.1265C77.6615 63.1265 78.1282 63.0532 78.5548 62.9065C78.9815 62.7599 79.4282 62.5265 79.8948 62.2065L80.6948 63.3065C79.5748 64.1865 78.3482 64.6265 77.0148 64.6265C75.5482 64.6265 74.4015 64.1465 73.5748 63.1865C72.7615 62.2265 72.3548 60.9065 72.3548 59.2265C72.3548 58.1332 72.5282 57.1665 72.8748 56.3265C73.2348 55.4732 73.7415 54.8065 74.3948 54.3265C75.0615 53.8465 75.8415 53.6065 76.7348 53.6065C78.1348 53.6065 79.2082 54.0665 79.9548 54.9865C80.7015 55.9065 81.0748 57.1799 81.0748 58.8065ZM79.2548 58.2665C79.2548 57.2265 79.0482 56.4332 78.6348 55.8865C78.2215 55.3399 77.6015 55.0665 76.7748 55.0665C75.2682 55.0665 74.4482 56.1732 74.3148 58.3865H79.2548V58.2665ZM93.2663 53.6065C94.7463 53.6065 95.8929 54.0999 96.7063 55.0865C97.5329 56.0732 97.9463 57.4132 97.9463 59.1065C97.9463 60.1999 97.7596 61.1665 97.3863 62.0065C97.0129 62.8332 96.4729 63.4799 95.7663 63.9465C95.0596 64.3999 94.2196 64.6265 93.2463 64.6265C91.7663 64.6265 90.6129 64.1332 89.7863 63.1465C88.9596 62.1599 88.5463 60.8199 88.5463 59.1265C88.5463 58.0332 88.7329 57.0732 89.1063 56.2465C89.4796 55.4065 90.0196 54.7599 90.7263 54.3065C91.4329 53.8399 92.2796 53.6065 93.2663 53.6065ZM93.2663 55.0865C91.4396 55.0865 90.5263 56.4332 90.5263 59.1265C90.5263 61.8065 91.4329 63.1465 93.2463 63.1465C95.0596 63.1465 95.9663 61.7999 95.9663 59.1065C95.9663 56.4265 95.0663 55.0865 93.2663 55.0865ZM116.859 53.6065C117.726 53.6065 118.419 53.8999 118.939 54.4865C119.459 55.0599 119.719 55.8399 119.719 56.8265V64.3865H117.879V57.0865C117.879 55.7265 117.386 55.0465 116.399 55.0465C115.879 55.0465 115.439 55.1999 115.079 55.5065C114.719 55.7999 114.332 56.2665 113.919 56.9065V64.3865H112.079V57.0865C112.079 55.7265 111.586 55.0465 110.599 55.0465C110.066 55.0465 109.619 55.1999 109.259 55.5065C108.899 55.8132 108.519 56.2799 108.119 56.9065V64.3865H106.279V53.8465H107.859L108.019 55.3865C108.806 54.1999 109.819 53.6065 111.059 53.6065C111.712 53.6065 112.266 53.7732 112.719 54.1065C113.186 54.4399 113.519 54.9065 113.719 55.5065C114.132 54.8932 114.586 54.4265 115.079 54.1065C115.586 53.7732 116.179 53.6065 116.859 53.6065ZM131.387 58.8065C131.387 59.1132 131.374 59.4265 131.347 59.7465H124.627C124.707 60.9065 125.001 61.7599 125.507 62.3065C126.014 62.8532 126.667 63.1265 127.467 63.1265C127.974 63.1265 128.441 63.0532 128.867 62.9065C129.294 62.7599 129.741 62.5265 130.207 62.2065L131.007 63.3065C129.887 64.1865 128.661 64.6265 127.327 64.6265C125.861 64.6265 124.714 64.1465 123.887 63.1865C123.074 62.2265 122.667 60.9065 122.667 59.2265C122.667 58.1332 122.841 57.1665 123.187 56.3265C123.547 55.4732 124.054 54.8065 124.707 54.3265C125.374 53.8465 126.154 53.6065 127.047 53.6065C128.447 53.6065 129.521 54.0665 130.267 54.9865C131.014 55.9065 131.387 57.1799 131.387 58.8065ZM129.567 58.2665C129.567 57.2265 129.361 56.4332 128.947 55.8865C128.534 55.3399 127.914 55.0665 127.087 55.0665C125.581 55.0665 124.761 56.1732 124.627 58.3865H129.567V58.2665ZM136.426 64.6265C135.746 64.6265 135.206 64.4265 134.806 64.0265C134.419 63.6132 134.226 63.0399 134.226 62.3065V49.6065L136.066 49.3865V62.2665C136.066 62.5599 136.112 62.7732 136.206 62.9065C136.312 63.0399 136.486 63.1065 136.726 63.1065C136.979 63.1065 137.206 63.0665 137.406 62.9865L137.886 64.2665C137.446 64.5065 136.959 64.6265 136.426 64.6265ZM145.145 53.6065C146.105 53.6065 146.852 53.8932 147.385 54.4665C147.932 55.0399 148.205 55.8265 148.205 56.8265V64.3865H146.365V57.0865C146.365 56.3399 146.218 55.8132 145.925 55.5065C145.645 55.1999 145.232 55.0465 144.685 55.0465C144.138 55.0465 143.652 55.2065 143.225 55.5265C142.798 55.8465 142.398 56.2999 142.025 56.8865V64.3865H140.185V49.6265L142.025 49.4265V55.3065C142.852 54.1732 143.892 53.6065 145.145 53.6065ZM155.864 53.6065C157.344 53.6065 158.491 54.0999 159.304 55.0865C160.131 56.0732 160.544 57.4132 160.544 59.1065C160.544 60.1999 160.357 61.1665 159.984 62.0065C159.611 62.8332 159.071 63.4799 158.364 63.9465C157.657 64.3999 156.817 64.6265 155.844 64.6265C154.364 64.6265 153.211 64.1332 152.384 63.1465C151.557 62.1599 151.144 60.8199 151.144 59.1265C151.144 58.0332 151.331 57.0732 151.704 56.2465C152.077 55.4065 152.617 54.7599 153.324 54.3065C154.031 53.8399 154.877 53.6065 155.864 53.6065ZM155.864 55.0865C154.037 55.0865 153.124 56.4332 153.124 59.1265C153.124 61.8065 154.031 63.1465 155.844 63.1465C157.657 63.1465 158.564 61.7999 158.564 59.1065C158.564 56.4265 157.664 55.0865 155.864 55.0865ZM168.164 53.6065C168.537 53.6065 168.884 53.6465 169.204 53.7265L168.864 55.5265C168.544 55.4465 168.237 55.4065 167.944 55.4065C167.29 55.4065 166.764 55.6465 166.364 56.1265C165.964 56.6065 165.65 57.3532 165.424 58.3665V64.3865H163.584V53.8465H165.164L165.344 55.9865C165.624 55.1999 166.004 54.6065 166.484 54.2065C166.964 53.8065 167.524 53.6065 168.164 53.6065Z" fill="#241249"/>
<path d="M20.092 75.9745C20.588 75.9745 21.004 76.0385 21.34 76.1665C21.684 76.2945 22.032 76.5025 22.384 76.7905L21.76 77.5225C21.256 77.1145 20.724 76.9105 20.164 76.9105C19.476 76.9105 18.92 77.1745 18.496 77.7025C18.08 78.2305 17.872 79.0785 17.872 80.2465C17.872 81.3825 18.08 82.2225 18.496 82.7665C18.912 83.3025 19.464 83.5705 20.152 83.5705C20.504 83.5705 20.812 83.5105 21.076 83.3905C21.34 83.2705 21.62 83.1025 21.916 82.8865L22.48 83.6065C22.224 83.8705 21.896 84.0905 21.496 84.2665C21.096 84.4425 20.636 84.5305 20.116 84.5305C19.444 84.5305 18.844 84.3665 18.316 84.0385C17.796 83.7025 17.388 83.2145 17.092 82.5745C16.804 81.9265 16.66 81.1505 16.66 80.2465C16.66 79.3425 16.812 78.5705 17.116 77.9305C17.42 77.2825 17.832 76.7945 18.352 76.4665C18.872 76.1385 19.452 75.9745 20.092 75.9745ZM25.9965 77.9185C26.8845 77.9185 27.5725 78.2145 28.0605 78.8065C28.5565 79.3985 28.8045 80.2025 28.8045 81.2185C28.8045 81.8745 28.6925 82.4545 28.4685 82.9585C28.2445 83.4545 27.9205 83.8425 27.4965 84.1225C27.0725 84.3945 26.5685 84.5305 25.9845 84.5305C25.0965 84.5305 24.4045 84.2345 23.9085 83.6425C23.4125 83.0505 23.1645 82.2465 23.1645 81.2305C23.1645 80.5745 23.2765 79.9985 23.5005 79.5025C23.7245 78.9985 24.0485 78.6105 24.4725 78.3385C24.8965 78.0585 25.4045 77.9185 25.9965 77.9185ZM25.9965 78.8065C24.9005 78.8065 24.3525 79.6145 24.3525 81.2305C24.3525 82.8385 24.8965 83.6425 25.9845 83.6425C27.0725 83.6425 27.6165 82.8345 27.6165 81.2185C27.6165 79.6105 27.0765 78.8065 25.9965 78.8065ZM33.6043 77.9185C34.1803 77.9185 34.6283 78.0905 34.9483 78.4345C35.2763 78.7785 35.4403 79.2505 35.4403 79.8505V84.3865H34.3363V80.0065C34.3363 79.5585 34.2523 79.2425 34.0843 79.0585C33.9163 78.8745 33.6683 78.7825 33.3403 78.7825C33.0043 78.7825 32.7083 78.8785 32.4523 79.0705C32.1963 79.2625 31.9563 79.5385 31.7323 79.8985V84.3865H30.6283V78.0625H31.5763L31.6723 78.9985C31.8963 78.6625 32.1723 78.3985 32.5003 78.2065C32.8363 78.0145 33.2043 77.9185 33.6043 77.9185ZM40.6355 77.9185C41.2115 77.9185 41.6595 78.0905 41.9795 78.4345C42.3075 78.7785 42.4715 79.2505 42.4715 79.8505V84.3865H41.3675V80.0065C41.3675 79.5585 41.2795 79.2425 41.1035 79.0585C40.9355 78.8745 40.6875 78.7825 40.3595 78.7825C40.0315 78.7825 39.7395 78.8785 39.4835 79.0705C39.2275 79.2625 38.9875 79.5345 38.7635 79.8865V84.3865H37.6595V75.5305L38.7635 75.4105V78.9385C39.2595 78.2585 39.8835 77.9185 40.6355 77.9185ZM49.4668 81.0385C49.4668 81.2225 49.4588 81.4105 49.4428 81.6025H45.4108C45.4588 82.2985 45.6348 82.8105 45.9388 83.1385C46.2428 83.4665 46.6348 83.6305 47.1148 83.6305C47.4188 83.6305 47.6988 83.5865 47.9548 83.4985C48.2108 83.4105 48.4788 83.2705 48.7588 83.0785L49.2388 83.7385C48.5668 84.2665 47.8308 84.5305 47.0308 84.5305C46.1508 84.5305 45.4628 84.2425 44.9668 83.6665C44.4788 83.0905 44.2348 82.2985 44.2348 81.2905C44.2348 80.6345 44.3388 80.0545 44.5468 79.5505C44.7628 79.0385 45.0668 78.6385 45.4588 78.3505C45.8588 78.0625 46.3268 77.9185 46.8628 77.9185C47.7028 77.9185 48.3468 78.1945 48.7948 78.7465C49.2428 79.2985 49.4668 80.0625 49.4668 81.0385ZM48.3748 80.7145C48.3748 80.0905 48.2508 79.6145 48.0028 79.2865C47.7548 78.9585 47.3828 78.7945 46.8868 78.7945C45.9828 78.7945 45.4908 79.4585 45.4108 80.7865H48.3748V80.7145ZM55.4658 83.8345C54.9618 84.2425 54.4018 84.4705 53.7858 84.5185V85.0585C54.1698 85.0905 54.4498 85.1985 54.6258 85.3825C54.8098 85.5745 54.9018 85.8065 54.9018 86.0785C54.9018 86.4625 54.7618 86.7585 54.4818 86.9665C54.2018 87.1745 53.8458 87.2785 53.4138 87.2785C53.1898 87.2785 52.9818 87.2505 52.7898 87.1945C52.5978 87.1465 52.4418 87.0785 52.3218 86.9905L52.6218 86.3665C52.8618 86.4945 53.1138 86.5585 53.3778 86.5585C53.5618 86.5585 53.7058 86.5185 53.8098 86.4385C53.9218 86.3665 53.9778 86.2465 53.9778 86.0785C53.9778 85.9105 53.8938 85.7825 53.7258 85.6945C53.5578 85.6145 53.2858 85.5745 52.9098 85.5745L53.0418 84.4945C52.3298 84.3825 51.7738 84.0465 51.3738 83.4865C50.9738 82.9265 50.7738 82.1905 50.7738 81.2785C50.7738 80.6065 50.8858 80.0185 51.1098 79.5145C51.3338 79.0105 51.6498 78.6185 52.0578 78.3385C52.4738 78.0585 52.9658 77.9185 53.5338 77.9185C53.9098 77.9185 54.2538 77.9745 54.5658 78.0865C54.8778 78.1905 55.1778 78.3625 55.4658 78.6025L54.9378 79.2985C54.7138 79.1385 54.4938 79.0225 54.2778 78.9505C54.0698 78.8705 53.8378 78.8305 53.5818 78.8305C53.0698 78.8305 52.6698 79.0345 52.3818 79.4425C52.1018 79.8505 51.9618 80.4545 51.9618 81.2545C51.9618 82.0545 52.1018 82.6465 52.3818 83.0305C52.6618 83.4065 53.0618 83.5945 53.5818 83.5945C53.8298 83.5945 54.0578 83.5585 54.2658 83.4865C54.4738 83.4065 54.7058 83.2825 54.9618 83.1145L55.4658 83.8345ZM61.1031 82.9105C61.1031 83.1665 61.1471 83.3585 61.2351 83.4865C61.3231 83.6065 61.4551 83.6985 61.6311 83.7625L61.3791 84.5305C61.0511 84.4905 60.7871 84.3985 60.5871 84.2545C60.3871 84.1105 60.2391 83.8865 60.1431 83.5825C59.7191 84.2145 59.0911 84.5305 58.2591 84.5305C57.6351 84.5305 57.1431 84.3545 56.7831 84.0025C56.4231 83.6505 56.2431 83.1905 56.2431 82.6225C56.2431 81.9505 56.4831 81.4345 56.9631 81.0745C57.4511 80.7145 58.1391 80.5345 59.0271 80.5345H59.9991V80.0665C59.9991 79.6185 59.8911 79.2985 59.6751 79.1065C59.4591 78.9145 59.1271 78.8185 58.6791 78.8185C58.2151 78.8185 57.6471 78.9305 56.9751 79.1545L56.6991 78.3505C57.4831 78.0625 58.2111 77.9185 58.8831 77.9185C59.6271 77.9185 60.1831 78.1025 60.5511 78.4705C60.9191 78.8305 61.1031 79.3465 61.1031 80.0185V82.9105ZM58.5111 83.7025C59.1431 83.7025 59.6391 83.3745 59.9991 82.7185V81.2665H59.1711C58.0031 81.2665 57.4191 81.6985 57.4191 82.5625C57.4191 82.9385 57.5111 83.2225 57.6951 83.4145C57.8791 83.6065 58.1511 83.7025 58.5111 83.7025ZM69.5223 77.9185C70.0983 77.9185 70.5463 78.0905 70.8663 78.4345C71.1943 78.7785 71.3583 79.2505 71.3583 79.8505V84.3865H70.2543V80.0065C70.2543 79.5585 70.1703 79.2425 70.0023 79.0585C69.8343 78.8745 69.5863 78.7825 69.2583 78.7825C68.9223 78.7825 68.6263 78.8785 68.3703 79.0705C68.1143 79.2625 67.8743 79.5385 67.6503 79.8985V84.3865H66.5463V78.0625H67.4943L67.5903 78.9985C67.8143 78.6625 68.0903 78.3985 68.4183 78.2065C68.7543 78.0145 69.1223 77.9185 69.5223 77.9185ZM78.2815 84.3865H77.3335L77.2495 83.4025C77.0095 83.7945 76.7335 84.0825 76.4215 84.2665C76.1095 84.4425 75.7295 84.5305 75.2815 84.5305C74.7295 84.5305 74.2975 84.3625 73.9855 84.0265C73.6735 83.6905 73.5175 83.2145 73.5175 82.5985V78.0625H74.6215V82.4785C74.6215 82.9105 74.6975 83.2185 74.8495 83.4025C75.0015 83.5785 75.2495 83.6665 75.5935 83.6665C76.2095 83.6665 76.7375 83.3025 77.1775 82.5745V78.0625H78.2815V84.3865ZM83.7539 84.0985C83.3379 84.3865 82.8659 84.5305 82.3379 84.5305C81.8019 84.5305 81.3819 84.3785 81.0779 84.0745C80.7819 83.7625 80.6339 83.3145 80.6339 82.7305V78.9145H79.5299V78.0625H80.6339V76.6345L81.7379 76.5025V78.0625H83.2379L83.1179 78.9145H81.7379V82.6825C81.7379 83.0105 81.7939 83.2505 81.9059 83.4025C82.0259 83.5465 82.2219 83.6185 82.4939 83.6185C82.7419 83.6185 83.0219 83.5345 83.3339 83.3665L83.7539 84.0985ZM87.6458 77.9185C87.8698 77.9185 88.0778 77.9425 88.2698 77.9905L88.0658 79.0705C87.8738 79.0225 87.6898 78.9985 87.5138 78.9985C87.1218 78.9985 86.8058 79.1425 86.5658 79.4305C86.3258 79.7185 86.1378 80.1665 86.0018 80.7745V84.3865H84.8978V78.0625H85.8458L85.9538 79.3465C86.1218 78.8745 86.3498 78.5185 86.6378 78.2785C86.9258 78.0385 87.2618 77.9185 87.6458 77.9185ZM90.6307 78.0625V84.3865H89.5267V78.0625H90.6307ZM90.0667 75.0265C90.2987 75.0265 90.4867 75.0985 90.6307 75.2425C90.7747 75.3865 90.8467 75.5665 90.8467 75.7825C90.8467 75.9985 90.7747 76.1785 90.6307 76.3225C90.4867 76.4585 90.2987 76.5265 90.0667 76.5265C89.8427 76.5265 89.6587 76.4585 89.5147 76.3225C89.3707 76.1785 89.2987 75.9985 89.2987 75.7825C89.2987 75.5665 89.3707 75.3865 89.5147 75.2425C89.6587 75.0985 89.8427 75.0265 90.0667 75.0265ZM95.2174 77.9185C95.5934 77.9185 95.9374 77.9745 96.2494 78.0865C96.5614 78.1905 96.8614 78.3625 97.1494 78.6025L96.6214 79.2985C96.3974 79.1385 96.1774 79.0225 95.9614 78.9505C95.7534 78.8705 95.5214 78.8305 95.2654 78.8305C94.7534 78.8305 94.3534 79.0345 94.0654 79.4425C93.7854 79.8505 93.6454 80.4545 93.6454 81.2545C93.6454 82.0545 93.7854 82.6465 94.0654 83.0305C94.3454 83.4065 94.7454 83.5945 95.2654 83.5945C95.5134 83.5945 95.7414 83.5585 95.9494 83.4865C96.1574 83.4065 96.3894 83.2825 96.6454 83.1145L97.1494 83.8345C96.5734 84.2985 95.9294 84.5305 95.2174 84.5305C94.3614 84.5305 93.6854 84.2425 93.1894 83.6665C92.7014 83.0905 92.4574 82.2945 92.4574 81.2785C92.4574 80.6065 92.5694 80.0185 92.7934 79.5145C93.0174 79.0105 93.3334 78.6185 93.7414 78.3385C94.1574 78.0585 94.6494 77.9185 95.2174 77.9185ZM99.7479 78.0625V84.3865H98.6439V78.0625H99.7479ZM99.1839 75.0265C99.4159 75.0265 99.6039 75.0985 99.7479 75.2425C99.8919 75.3865 99.9639 75.5665 99.9639 75.7825C99.9639 75.9985 99.8919 76.1785 99.7479 76.3225C99.6039 76.4585 99.4159 76.5265 99.1839 76.5265C98.9599 76.5265 98.7759 76.4585 98.6319 76.3225C98.4879 76.1785 98.4159 75.9985 98.4159 75.7825C98.4159 75.5665 98.4879 75.3865 98.6319 75.2425C98.7759 75.0985 98.9599 75.0265 99.1839 75.0265ZM104.407 77.9185C105.295 77.9185 105.983 78.2145 106.471 78.8065C106.967 79.3985 107.215 80.2025 107.215 81.2185C107.215 81.8745 107.103 82.4545 106.879 82.9585C106.655 83.4545 106.331 83.8425 105.907 84.1225C105.483 84.3945 104.979 84.5305 104.395 84.5305C103.507 84.5305 102.815 84.2345 102.319 83.6425C101.823 83.0505 101.575 82.2465 101.575 81.2305C101.575 80.5745 101.687 79.9985 101.911 79.5025C102.135 78.9985 102.459 78.6105 102.883 78.3385C103.307 78.0585 103.815 77.9185 104.407 77.9185ZM104.407 78.8065C103.311 78.8065 102.763 79.6145 102.763 81.2305C102.763 82.8385 103.307 83.6425 104.395 83.6425C105.483 83.6425 106.027 82.8345 106.027 81.2185C106.027 79.6105 105.487 78.8065 104.407 78.8065ZM112.014 77.9185C112.59 77.9185 113.038 78.0905 113.358 78.4345C113.686 78.7785 113.85 79.2505 113.85 79.8505V84.3865H112.746V80.0065C112.746 79.5585 112.662 79.2425 112.494 79.0585C112.326 78.8745 112.078 78.7825 111.75 78.7825C111.414 78.7825 111.118 78.8785 110.862 79.0705C110.606 79.2625 110.366 79.5385 110.142 79.8985V84.3865H109.038V78.0625H109.986L110.082 78.9985C110.306 78.6625 110.582 78.3985 110.91 78.2065C111.246 78.0145 111.614 77.9185 112.014 77.9185ZM117.174 78.0625V84.3865H116.07V78.0625H117.174ZM116.61 75.0265C116.842 75.0265 117.03 75.0985 117.174 75.2425C117.318 75.3865 117.39 75.5665 117.39 75.7825C117.39 75.9985 117.318 76.1785 117.174 76.3225C117.03 76.4585 116.842 76.5265 116.61 76.5265C116.386 76.5265 116.202 76.4585 116.058 76.3225C115.914 76.1785 115.842 75.9985 115.842 75.7825C115.842 75.5665 115.914 75.3865 116.058 75.2425C116.202 75.0985 116.386 75.0265 116.61 75.0265ZM121.172 77.9185C121.604 77.9185 121.992 77.9785 122.336 78.0985C122.68 78.2185 123.008 78.3985 123.32 78.6385L122.852 79.3345C122.564 79.1505 122.288 79.0145 122.024 78.9265C121.768 78.8385 121.496 78.7945 121.208 78.7945C120.848 78.7945 120.564 78.8705 120.356 79.0225C120.148 79.1665 120.044 79.3665 120.044 79.6225C120.044 79.8785 120.14 80.0785 120.332 80.2225C120.532 80.3665 120.888 80.5065 121.4 80.6425C122.104 80.8185 122.628 81.0585 122.972 81.3625C123.324 81.6665 123.5 82.0825 123.5 82.6105C123.5 83.2345 123.256 83.7105 122.768 84.0385C122.288 84.3665 121.7 84.5305 121.004 84.5305C120.044 84.5305 119.248 84.2545 118.616 83.7025L119.204 83.0305C119.74 83.4385 120.332 83.6425 120.98 83.6425C121.396 83.6425 121.724 83.5585 121.964 83.3905C122.212 83.2145 122.336 82.9785 122.336 82.6825C122.336 82.4665 122.292 82.2945 122.204 82.1665C122.116 82.0305 121.964 81.9145 121.748 81.8185C121.532 81.7145 121.216 81.6065 120.8 81.4945C120.128 81.3185 119.64 81.0825 119.336 80.7865C119.04 80.4905 118.892 80.1145 118.892 79.6585C118.892 79.3305 118.988 79.0345 119.18 78.7705C119.38 78.4985 119.652 78.2905 119.996 78.1465C120.348 77.9945 120.74 77.9185 121.172 77.9185ZM128.25 84.0985C127.834 84.3865 127.362 84.5305 126.834 84.5305C126.298 84.5305 125.878 84.3785 125.574 84.0745C125.278 83.7625 125.13 83.3145 125.13 82.7305V78.9145H124.026V78.0625H125.13V76.6345L126.234 76.5025V78.0625H127.734L127.614 78.9145H126.234V82.6825C126.234 83.0105 126.29 83.2505 126.402 83.4025C126.522 83.5465 126.718 83.6185 126.99 83.6185C127.238 83.6185 127.518 83.5345 127.83 83.3665L128.25 84.0985ZM133.572 82.9105C133.572 83.1665 133.616 83.3585 133.704 83.4865C133.792 83.6065 133.924 83.6985 134.1 83.7625L133.848 84.5305C133.52 84.4905 133.256 84.3985 133.056 84.2545C132.856 84.1105 132.708 83.8865 132.612 83.5825C132.188 84.2145 131.56 84.5305 130.728 84.5305C130.104 84.5305 129.612 84.3545 129.252 84.0025C128.892 83.6505 128.712 83.1905 128.712 82.6225C128.712 81.9505 128.952 81.4345 129.432 81.0745C129.92 80.7145 130.608 80.5345 131.496 80.5345H132.468V80.0665C132.468 79.6185 132.36 79.2985 132.144 79.1065C131.928 78.9145 131.596 78.8185 131.148 78.8185C130.684 78.8185 130.116 78.9305 129.444 79.1545L129.168 78.3505C129.952 78.0625 130.68 77.9185 131.352 77.9185C132.096 77.9185 132.652 78.1025 133.02 78.4705C133.388 78.8305 133.572 79.3465 133.572 80.0185V82.9105ZM130.98 83.7025C131.612 83.7025 132.108 83.3745 132.468 82.7185V81.2665H131.64C130.472 81.2665 129.888 81.6985 129.888 82.5625C129.888 82.9385 129.98 83.2225 130.164 83.4145C130.348 83.6065 130.62 83.7025 130.98 83.7025ZM137.438 77.9185C137.87 77.9185 138.258 77.9785 138.602 78.0985C138.946 78.2185 139.274 78.3985 139.586 78.6385L139.118 79.3345C138.83 79.1505 138.554 79.0145 138.29 78.9265C138.034 78.8385 137.762 78.7945 137.474 78.7945C137.114 78.7945 136.83 78.8705 136.622 79.0225C136.414 79.1665 136.31 79.3665 136.31 79.6225C136.31 79.8785 136.406 80.0785 136.598 80.2225C136.798 80.3665 137.154 80.5065 137.666 80.6425C138.37 80.8185 138.894 81.0585 139.238 81.3625C139.59 81.6665 139.766 82.0825 139.766 82.6105C139.766 83.2345 139.522 83.7105 139.034 84.0385C138.554 84.3665 137.966 84.5305 137.27 84.5305C136.31 84.5305 135.514 84.2545 134.882 83.7025L135.47 83.0305C136.006 83.4385 136.598 83.6425 137.246 83.6425C137.662 83.6425 137.99 83.5585 138.23 83.3905C138.478 83.2145 138.602 82.9785 138.602 82.6825C138.602 82.4665 138.558 82.2945 138.47 82.1665C138.382 82.0305 138.23 81.9145 138.014 81.8185C137.798 81.7145 137.482 81.6065 137.066 81.4945C136.394 81.3185 135.906 81.0825 135.602 80.7865C135.306 80.4905 135.158 80.1145 135.158 79.6585C135.158 79.3305 135.254 79.0345 135.446 78.7705C135.646 78.4985 135.918 78.2905 136.262 78.1465C136.614 77.9945 137.006 77.9185 137.438 77.9185ZM145.603 78.0625V84.3865H144.499V78.0625H145.603ZM145.039 75.0265C145.271 75.0265 145.459 75.0985 145.603 75.2425C145.747 75.3865 145.819 75.5665 145.819 75.7825C145.819 75.9985 145.747 76.1785 145.603 76.3225C145.459 76.4585 145.271 76.5265 145.039 76.5265C144.815 76.5265 144.631 76.4585 144.487 76.3225C144.343 76.1785 144.271 75.9985 144.271 75.7825C144.271 75.5665 144.343 75.3865 144.487 75.2425C144.631 75.0985 144.815 75.0265 145.039 75.0265ZM150.862 77.9185C151.438 77.9185 151.886 78.0905 152.206 78.4345C152.534 78.7785 152.698 79.2505 152.698 79.8505V84.3865H151.594V80.0065C151.594 79.5585 151.51 79.2425 151.342 79.0585C151.174 78.8745 150.926 78.7825 150.598 78.7825C150.262 78.7825 149.966 78.8785 149.71 79.0705C149.454 79.2625 149.214 79.5385 148.99 79.8985V84.3865H147.886V78.0625H148.834L148.93 78.9985C149.154 78.6625 149.43 78.3985 149.758 78.2065C150.094 78.0145 150.462 77.9185 150.862 77.9185ZM157.221 77.9185C157.597 77.9185 157.941 77.9745 158.253 78.0865C158.565 78.1905 158.865 78.3625 159.153 78.6025L158.625 79.2985C158.401 79.1385 158.181 79.0225 157.965 78.9505C157.757 78.8705 157.525 78.8305 157.269 78.8305C156.757 78.8305 156.357 79.0345 156.069 79.4425C155.789 79.8505 155.649 80.4545 155.649 81.2545C155.649 82.0545 155.789 82.6465 156.069 83.0305C156.349 83.4065 156.749 83.5945 157.269 83.5945C157.517 83.5945 157.745 83.5585 157.953 83.4865C158.161 83.4065 158.393 83.2825 158.649 83.1145L159.153 83.8345C158.577 84.2985 157.933 84.5305 157.221 84.5305C156.365 84.5305 155.689 84.2425 155.193 83.6665C154.705 83.0905 154.461 82.2945 154.461 81.2785C154.461 80.6065 154.573 80.0185 154.797 79.5145C155.021 79.0105 155.337 78.6185 155.745 78.3385C156.161 78.0585 156.653 77.9185 157.221 77.9185ZM163.396 77.9185C163.62 77.9185 163.828 77.9425 164.02 77.9905L163.816 79.0705C163.624 79.0225 163.44 78.9985 163.264 78.9985C162.872 78.9985 162.556 79.1425 162.316 79.4305C162.076 79.7185 161.888 80.1665 161.752 80.7745V84.3865H160.648V78.0625H161.596L161.704 79.3465C161.872 78.8745 162.1 78.5185 162.388 78.2785C162.676 78.0385 163.012 77.9185 163.396 77.9185ZM166.381 78.0625V84.3865H165.277V78.0625H166.381ZM166.777 74.7745L167.269 75.6985L164.725 76.7305L164.389 76.1425L166.777 74.7745ZM173.307 78.0625L171.159 84.3865H169.827L167.643 78.0625H168.843L170.499 83.4025L172.143 78.0625H173.307ZM179.299 81.0385C179.299 81.2225 179.291 81.4105 179.275 81.6025H175.243C175.291 82.2985 175.467 82.8105 175.771 83.1385C176.075 83.4665 176.467 83.6305 176.947 83.6305C177.251 83.6305 177.531 83.5865 177.787 83.4985C178.043 83.4105 178.311 83.2705 178.591 83.0785L179.071 83.7385C178.399 84.2665 177.663 84.5305 176.863 84.5305C175.983 84.5305 175.295 84.2425 174.799 83.6665C174.311 83.0905 174.067 82.2985 174.067 81.2905C174.067 80.6345 174.171 80.0545 174.379 79.5505C174.595 79.0385 174.899 78.6385 175.291 78.3505C175.691 78.0625 176.159 77.9185 176.695 77.9185C177.535 77.9185 178.179 78.1945 178.627 78.7465C179.075 79.2985 179.299 80.0625 179.299 81.0385ZM178.207 80.7145C178.207 80.0905 178.083 79.6145 177.835 79.2865C177.587 78.9585 177.215 78.7945 176.719 78.7945C175.815 78.7945 175.323 79.4585 175.243 80.7865H178.207V80.7145ZM182.166 78.0625V84.3865H181.062V78.0625H182.166ZM181.602 75.0265C181.834 75.0265 182.022 75.0985 182.166 75.2425C182.31 75.3865 182.382 75.5665 182.382 75.7825C182.382 75.9985 182.31 76.1785 182.166 76.3225C182.022 76.4585 181.834 76.5265 181.602 76.5265C181.378 76.5265 181.194 76.4585 181.05 76.3225C180.906 76.1785 180.834 75.9985 180.834 75.7825C180.834 75.5665 180.906 75.3865 181.05 75.2425C181.194 75.0985 181.378 75.0265 181.602 75.0265ZM186.165 77.9185C186.597 77.9185 186.985 77.9785 187.329 78.0985C187.673 78.2185 188.001 78.3985 188.313 78.6385L187.845 79.3345C187.557 79.1505 187.281 79.0145 187.017 78.9265C186.761 78.8385 186.489 78.7945 186.201 78.7945C185.841 78.7945 185.557 78.8705 185.349 79.0225C185.141 79.1665 185.037 79.3665 185.037 79.6225C185.037 79.8785 185.133 80.0785 185.325 80.2225C185.525 80.3665 185.881 80.5065 186.393 80.6425C187.097 80.8185 187.621 81.0585 187.965 81.3625C188.317 81.6665 188.493 82.0825 188.493 82.6105C188.493 83.2345 188.249 83.7105 187.761 84.0385C187.281 84.3665 186.693 84.5305 185.997 84.5305C185.037 84.5305 184.241 84.2545 183.609 83.7025L184.197 83.0305C184.733 83.4385 185.325 83.6425 185.973 83.6425C186.389 83.6425 186.717 83.5585 186.957 83.3905C187.205 83.2145 187.329 82.9785 187.329 82.6825C187.329 82.4665 187.285 82.2945 187.197 82.1665C187.109 82.0305 186.957 81.9145 186.741 81.8185C186.525 81.7145 186.209 81.6065 185.793 81.4945C185.121 81.3185 184.633 81.0825 184.329 80.7865C184.033 80.4905 183.885 80.1145 183.885 79.6585C183.885 79.3305 183.981 79.0345 184.173 78.7705C184.373 78.4985 184.645 78.2905 184.989 78.1465C185.341 77.9945 185.733 77.9185 186.165 77.9185ZM190.95 76.1185L190.83 81.6265H189.858L189.726 76.1185H190.95ZM190.35 82.8625C190.59 82.8625 190.79 82.9425 190.95 83.1025C191.11 83.2625 191.19 83.4585 191.19 83.6905C191.19 83.9225 191.11 84.1225 190.95 84.2905C190.79 84.4505 190.59 84.5305 190.35 84.5305C190.118 84.5305 189.922 84.4505 189.762 84.2905C189.602 84.1225 189.522 83.9225 189.522 83.6905C189.522 83.4585 189.602 83.2625 189.762 83.1025C189.922 82.9425 190.118 82.8625 190.35 82.8625Z" fill="#5A6570"/>
<path d="M258.965 67.0523C258.072 75.5864 258.012 97.1798 264.919 115.28C261.347 113.494 259.56 113.077 257.179 112.601" stroke="#241249" stroke-width="1.4317" stroke-linecap="round" stroke-linejoin="round"/>
<path d="M285.758 67.0523C286.651 75.5864 286.711 97.1798 279.804 115.28C283.376 113.494 285.163 113.077 287.544 112.601" stroke="#241249" stroke-width="1.4317" stroke-linecap="round" stroke-linejoin="round"/>
<path d="M284.39 31.4718C274.959 15.6988 260.901 24.886 259.853 31.4718C249.583 30.2585 245.356 40.0661 245.094 45.1215C240.507 43.77 233.605 48.9216 232.869 57.6453C232.134 66.369 238.37 72.3071 248.761 70.2977C254.629 82.1881 267.624 78.083 273.387 74.5442C285.124 86.192 293.123 75.1509 295.655 68.1744C297.402 69.2866 302.047 70.5403 306.658 66.6577C318.172 54.612 307.431 41.569 298.799 42.3916C296.703 32.1998 288.32 30.8652 284.39 31.4718Z" fill="#EEE6FC"/>
<path d="M267.684 41.0066V45.2847" stroke="#241249" stroke-width="1.39749" stroke-linecap="round" stroke-linejoin="round"/>
<path d="M277.042 41.0066V45.2847" stroke="#241249" stroke-width="1.39749" stroke-linecap="round" stroke-linejoin="round"/>
<path fill-rule="evenodd" clip-rule="evenodd" d="M232.917 57.1594C233.769 64.1016 239.677 68.4187 248.761 66.6621C254.629 78.5525 267.624 74.4475 273.387 70.9087C285.124 82.5564 293.123 71.5153 295.655 64.5388C297.402 65.651 302.047 66.9047 306.658 63.0222C309.636 59.9064 311.125 56.724 311.547 53.732C312.111 57.6857 310.882 62.239 306.658 66.658C302.047 70.5406 297.402 69.2868 295.655 68.1747C293.123 75.1512 285.124 86.1923 273.387 74.5445C267.624 78.0833 254.629 82.1884 248.761 70.2979C238.37 72.3074 232.134 66.3693 232.869 57.6456C232.883 57.4823 232.899 57.3202 232.917 57.1594Z" fill="#B89FEA"/>
<path d="M281.543 47.6317C281.156 50.2549 281.792 55.1059 287.435 53.5237" stroke="#241249" stroke-width="1.45875" stroke-linecap="round" stroke-linejoin="round"/>
<path d="M278.31 55.5298C279.479 55.6277 281.996 55.2568 282.709 52.9902" stroke="#241249" stroke-width="1.45875" stroke-linecap="round" stroke-linejoin="round"/>
<path d="M271.213 51.3211C272.503 51.1111 273.288 51.6121 273.641 52.03C273.766 52.1767 273.806 52.371 273.806 52.5633V58.5842C273.806 58.9907 274.009 59.3701 274.348 59.5949L281.415 64.2884C281.726 64.4953 281.925 64.8339 281.953 65.2069C282.179 68.1914 282.556 73.243 282.556 73.4798C282.556 73.733 281.476 75.2736 280.936 76.0122C279.964 77.0674 277.76 79.1144 276.723 78.8612C276.13 78.7165 275.58 78.4272 275.157 78.1466C274.713 77.8528 274.136 77.7698 273.658 78.0034C272.568 78.5361 271.049 79.1777 270.241 79.1777C269.331 79.1777 268.188 77.8784 267.557 76.9895C267.401 76.7698 267.186 76.5969 266.933 76.5047C265.643 76.0355 263.487 75.2023 262.786 74.746C262.093 74.2945 262.893 71.2935 263.535 69.3766C263.669 68.974 263.596 68.5313 263.332 68.1992C261.63 66.0634 258.897 62.465 258.897 61.7674C258.897 60.8177 259.869 60.1846 259.869 59.2349C259.869 58.2853 259.545 57.0191 259.869 55.7529C260.193 54.4867 261.49 54.4867 262.786 54.1701C263.737 53.938 265.849 53.5109 267.027 53.2788C267.222 53.2402 267.403 53.1538 267.563 53.0348C268.327 52.4658 269.822 51.5476 271.213 51.3211Z" fill="#98E4B4"/>
<path d="M267.01 53.1926C267.761 53.0593 268.238 53.3464 268.479 53.6165C268.597 53.7497 268.63 53.9318 268.63 54.1101V57.9635C268.63 58.3526 268.817 58.7181 269.132 58.9463L273.234 61.9158C273.525 62.1266 273.708 62.4552 273.733 62.8139C273.875 64.8623 274.098 68.1287 274.098 68.2858C274.098 68.4583 273.423 69.5076 273.086 70.0107C272.478 70.7294 271.101 72.1238 270.453 71.9513C270.222 71.8899 270.002 71.7903 269.805 71.6777C269.311 71.3962 268.689 71.298 268.181 71.5511C267.555 71.8626 266.824 72.1669 266.403 72.1669C265.871 72.1669 265.213 71.3937 264.807 70.7983C264.653 70.5721 264.441 70.3888 264.187 70.2868C263.373 69.9601 262.157 69.4406 261.745 69.1482C261.329 68.8531 261.773 66.9585 262.163 65.6522C262.277 65.2737 262.212 64.8637 261.98 64.5442C260.913 63.077 259.314 60.7677 259.314 60.3079C259.314 59.6611 259.922 59.2298 259.922 58.583C259.922 57.9361 259.72 57.0737 259.922 56.2112C260.125 55.3487 260.935 55.3487 261.745 55.1331C262.306 54.9838 263.515 54.7158 264.267 54.5533C264.472 54.5091 264.661 54.4115 264.827 54.2827C265.326 53.8942 266.197 53.3369 267.01 53.1926Z" fill="#FF5C60"/>
<path d="M273.764 59.3037C274.515 59.1705 274.992 59.4576 275.232 59.7277C275.351 59.8608 275.384 60.043 275.384 60.2213V64.0747C275.384 64.4638 275.57 64.8293 275.886 65.0575L279.987 68.027C280.279 68.2378 280.461 68.5664 280.486 68.9251C280.628 70.9735 280.852 74.2399 280.852 74.3969C280.852 74.5694 280.177 75.6188 279.839 76.1219C279.232 76.8406 277.855 78.2349 277.207 78.0624C276.976 78.001 276.756 77.9014 276.558 77.7889C276.065 77.5073 275.443 77.4092 274.934 77.6622C274.308 77.9738 273.578 78.278 273.156 78.278C272.625 78.278 271.966 77.5049 271.56 76.9095C271.406 76.6833 271.194 76.4999 270.94 76.3979C270.127 76.0713 268.91 75.5518 268.498 75.2594C268.082 74.9642 268.526 73.0697 268.917 71.7634C269.03 71.3848 268.966 70.9749 268.733 70.6553C267.667 69.1882 266.068 66.8789 266.068 66.4191C266.068 65.7723 266.675 65.341 266.675 64.6942C266.675 64.0473 266.473 63.1848 266.675 62.3224C266.878 61.4599 267.688 61.4599 268.498 61.2443C269.059 61.0949 270.268 60.827 271.021 60.6645C271.226 60.6202 271.414 60.5227 271.58 60.3939C272.08 60.0053 272.95 59.4481 273.764 59.3037Z" fill="#FF5C60"/>
<path fill-rule="evenodd" clip-rule="evenodd" d="M272.547 52.4849C273.518 52.4849 274.464 52.5528 275.371 52.6812C275.309 52.9087 275.277 53.1479 275.277 53.3948C275.277 54.5732 276.023 55.5773 277.069 55.9596C276.706 56.4232 276.49 57.007 276.49 57.6414C276.49 59.1491 277.712 60.3714 279.22 60.3714C280.077 60.3714 280.843 59.9759 281.343 59.3574C281.844 59.9759 282.609 60.3714 283.467 60.3714C284.027 60.3714 284.547 60.2027 284.981 59.9134C284.982 59.9648 284.983 60.0164 284.983 60.068C284.983 62.0461 283.741 63.8473 281.707 65.1974L281.101 75.691C281.066 76.2979 280.587 76.7852 279.981 76.831L266.136 77.8759C265.483 77.9252 264.908 77.4468 264.838 76.7953L263.611 65.3424C261.444 63.9776 260.11 62.1178 260.11 60.068C260.11 55.88 265.678 52.4849 272.547 52.4849Z" fill="#FDBE08"/>
<path d="M294.564 58.5515C298.631 63.3034 305.73 74.2529 301.593 80.0349C297.455 85.8168 286.298 75.1945 281.237 69.1605" stroke="#241249" stroke-width="1.45875" stroke-linecap="round" stroke-linejoin="round"/>
<path d="M275.277 65.8989C275.341 67.4333 275.423 69.219 276.459 70.4708C277.39 71.5953 278.336 70.275 278.596 69.3068C278.837 68.4056 278.908 67.5141 278.306 66.7403C278.073 66.4412 277.663 65.9567 277.422 66.4926C277.088 67.2347 277.07 67.8828 277.338 68.6289C277.522 69.1383 277.79 69.9329 278.413 70.022C279.722 70.2089 280.682 70.0598 281.288 68.7505C281.585 68.1105 281.804 67.235 281.69 66.5253C281.61 66.0224 281.138 65.7575 280.793 65.4361C280.384 65.0558 279.724 64.3035 279.063 64.4871C278.457 64.6554 278.519 65.1688 278.661 65.6465C278.971 66.6898 281.233 66.639 281.99 66.3196C282.993 65.8958 283.478 64.4227 282.448 63.814C281.93 63.5082 281.361 63.3745 280.765 63.3745C280.5 63.3745 279.609 63.2927 279.484 63.5428" stroke="#241249" stroke-width="1.45875" stroke-linecap="round"/>
<path d="M249.585 58.5515C245.518 63.3034 238.419 74.2529 242.556 80.0349C246.694 85.8168 257.851 75.1945 262.912 69.1605" stroke="#241249" stroke-width="1.45875" stroke-linecap="round" stroke-linejoin="round"/>
<path d="M268.872 65.8989C268.808 67.4333 268.726 69.219 267.69 70.4708C266.759 71.5953 265.813 70.275 265.553 69.3068C265.311 68.4056 265.241 67.5141 265.843 66.7403C266.076 66.4412 266.485 65.9567 266.727 66.4926C267.061 67.2347 267.079 67.8828 266.811 68.6289C266.627 69.1383 266.359 69.9329 265.736 70.022C264.427 70.2089 263.467 70.0598 262.861 68.7505C262.564 68.1105 262.345 67.235 262.459 66.5253C262.539 66.0224 263.011 65.7575 263.356 65.4361C263.765 65.0558 264.425 64.3035 265.086 64.4871C265.692 64.6554 265.63 65.1688 265.488 65.6465C265.178 66.6898 262.916 66.639 262.159 66.3196C261.156 65.8958 260.671 64.4227 261.701 63.814C262.219 63.5082 262.788 63.3745 263.384 63.3745C263.649 63.3745 264.54 63.2927 264.665 63.5428" stroke="#241249" stroke-width="1.45875" stroke-linecap="round"/>
</g>
<defs>
<clipPath id="clip0_3606_8747">
<rect width="328" height="108" rx="9" fill="white"/>
</clipPath>
</defs>
</svg>
