<svg width="328" height="77" viewBox="0 0 328 77" fill="none" xmlns="http://www.w3.org/2000/svg">
<g clip-path="url(#clip0_3559_8217)">
<rect width="328" height="76.7731" rx="9" fill="white"/>
<path d="M20.416 35.0785C19.7333 35.0785 19.0507 34.9505 18.368 34.6945C17.696 34.4385 17.0933 34.0652 16.56 33.5745L17.904 31.9585C18.2773 32.2785 18.6933 32.5399 19.152 32.7425C19.6107 32.9452 20.0533 33.0465 20.48 33.0465C20.9707 33.0465 21.3333 32.9559 21.568 32.7745C21.8133 32.5932 21.936 32.3479 21.936 32.0385C21.936 31.7079 21.7973 31.4679 21.52 31.3185C21.2533 31.1585 20.8907 30.9825 20.432 30.7905L19.072 30.2145C18.72 30.0652 18.384 29.8679 18.064 29.6225C17.744 29.3665 17.4827 29.0519 17.28 28.6785C17.0773 28.3052 16.976 27.8679 16.976 27.3665C16.976 26.7905 17.1307 26.2679 17.44 25.7985C17.76 25.3292 18.1973 24.9559 18.752 24.6785C19.3173 24.4012 19.9627 24.2625 20.688 24.2625C21.2853 24.2625 21.8827 24.3799 22.48 24.6145C23.0773 24.8492 23.6 25.1905 24.048 25.6385L22.848 27.1265C22.5067 26.8599 22.1653 26.6572 21.824 26.5185C21.4827 26.3692 21.104 26.2945 20.688 26.2945C20.2827 26.2945 19.9573 26.3799 19.712 26.5505C19.4773 26.7105 19.36 26.9399 19.36 27.2385C19.36 27.5585 19.5093 27.7985 19.808 27.9585C20.1173 28.1185 20.496 28.2892 20.944 28.4705L22.288 29.0145C22.9173 29.2705 23.4187 29.6225 23.792 30.0705C24.1653 30.5185 24.352 31.1105 24.352 31.8465C24.352 32.4225 24.1973 32.9559 23.888 33.4465C23.5787 33.9372 23.1307 34.3319 22.544 34.6305C21.9573 34.9292 21.248 35.0785 20.416 35.0785ZM29.4826 35.0785C28.7253 35.0785 28.0426 34.9132 27.4346 34.5825C26.8266 34.2519 26.3466 33.7772 25.9946 33.1585C25.6426 32.5399 25.4666 31.7932 25.4666 30.9185C25.4666 30.0545 25.6426 29.3132 25.9946 28.6945C26.3573 28.0759 26.8266 27.6012 27.4026 27.2705C27.9786 26.9292 28.5813 26.7585 29.2106 26.7585C29.968 26.7585 30.592 26.9292 31.0826 27.2705C31.584 27.6012 31.9573 28.0545 32.2026 28.6305C32.4586 29.1959 32.5866 29.8412 32.5866 30.5665C32.5866 30.7692 32.576 30.9719 32.5546 31.1745C32.5333 31.3665 32.512 31.5105 32.4906 31.6065H27.7386C27.8453 32.1825 28.0853 32.6092 28.4586 32.8865C28.832 33.1532 29.28 33.2865 29.8026 33.2865C30.368 33.2865 30.9386 33.1105 31.5146 32.7585L32.2986 34.1825C31.8933 34.4599 31.44 34.6785 30.9386 34.8385C30.4373 34.9985 29.952 35.0785 29.4826 35.0785ZM27.7226 30.0545H30.5866C30.5866 29.6172 30.48 29.2599 30.2666 28.9825C30.064 28.6945 29.728 28.5505 29.2586 28.5505C28.896 28.5505 28.5706 28.6785 28.2826 28.9345C27.9946 29.1799 27.808 29.5532 27.7226 30.0545ZM36.5959 35.0785C35.7319 35.0785 35.1025 34.7959 34.7079 34.2305C34.3239 33.6545 34.1319 32.8705 34.1319 31.8785V26.9505H36.4839V31.5745C36.4839 32.1399 36.5639 32.5345 36.7239 32.7585C36.8839 32.9719 37.1345 33.0785 37.4759 33.0785C37.7745 33.0785 38.0252 33.0092 38.2279 32.8705C38.4305 32.7319 38.6492 32.5079 38.8839 32.1985V26.9505H41.2359V34.8865H39.3159L39.1399 33.7825H39.0919C38.7612 34.1772 38.3985 34.4919 38.0039 34.7265C37.6092 34.9612 37.1399 35.0785 36.5959 35.0785ZM49.9648 35.0785C49.2288 35.0785 48.5621 34.9185 47.9648 34.5985C47.3781 34.2679 46.9088 33.7932 46.5568 33.1745C46.2154 32.5452 46.0448 31.7932 46.0448 30.9185C46.0448 30.0332 46.2368 29.2812 46.6208 28.6625C47.0048 28.0439 47.5114 27.5745 48.1408 27.2545C48.7701 26.9239 49.4474 26.7585 50.1727 26.7585C50.6634 26.7585 51.0954 26.8385 51.4688 26.9985C51.8528 27.1585 52.1941 27.3612 52.4928 27.6065L51.3888 29.1265C51.0154 28.8172 50.6581 28.6625 50.3168 28.6625C49.7514 28.6625 49.2981 28.8652 48.9568 29.2705C48.6261 29.6759 48.4608 30.2252 48.4608 30.9185C48.4608 31.6012 48.6261 32.1505 48.9568 32.5665C49.2981 32.9719 49.7248 33.1745 50.2368 33.1745C50.4928 33.1745 50.7434 33.1212 50.9888 33.0145C51.2341 32.8972 51.4581 32.7585 51.6608 32.5985L52.5888 34.1345C52.1941 34.4759 51.7674 34.7212 51.3088 34.8705C50.8501 35.0092 50.4021 35.0785 49.9648 35.0785ZM56.9324 35.0785C56.2604 35.0785 55.6257 34.9185 55.0284 34.5985C54.4417 34.2679 53.967 33.7932 53.6044 33.1745C53.2417 32.5452 53.0604 31.7932 53.0604 30.9185C53.0604 30.0332 53.2417 29.2812 53.6044 28.6625C53.967 28.0439 54.4417 27.5745 55.0284 27.2545C55.6257 26.9239 56.2604 26.7585 56.9324 26.7585C57.6044 26.7585 58.2337 26.9239 58.8204 27.2545C59.407 27.5745 59.8817 28.0439 60.2444 28.6625C60.607 29.2812 60.7884 30.0332 60.7884 30.9185C60.7884 31.7932 60.607 32.5452 60.2444 33.1745C59.8817 33.7932 59.407 34.2679 58.8204 34.5985C58.2337 34.9185 57.6044 35.0785 56.9324 35.0785ZM56.9324 33.1745C57.4124 33.1745 57.775 32.9719 58.0204 32.5665C58.2657 32.1505 58.3884 31.6012 58.3884 30.9185C58.3884 30.2252 58.2657 29.6759 58.0204 29.2705C57.775 28.8652 57.4124 28.6625 56.9324 28.6625C56.4417 28.6625 56.0737 28.8652 55.8284 29.2705C55.5937 29.6759 55.4764 30.2252 55.4764 30.9185C55.4764 31.6012 55.5937 32.1505 55.8284 32.5665C56.0737 32.9719 56.4417 33.1745 56.9324 33.1745ZM62.3994 34.8865V26.9505H64.3194L64.4794 28.3425H64.5434C64.8314 27.8092 65.178 27.4145 65.5834 27.1585C65.9887 26.8919 66.394 26.7585 66.7994 26.7585C67.0234 26.7585 67.21 26.7745 67.3594 26.8065C67.5087 26.8279 67.6367 26.8652 67.7434 26.9185L67.3594 28.9505C67.2207 28.9079 67.082 28.8759 66.9434 28.8545C66.8154 28.8332 66.666 28.8225 66.4954 28.8225C66.1967 28.8225 65.882 28.9345 65.5514 29.1585C65.2314 29.3719 64.9647 29.7452 64.7514 30.2785V34.8865H62.3994ZM68.7744 37.8305V26.9505H70.6944L70.8544 27.7345H70.9184C71.2277 27.4572 71.5744 27.2279 71.9584 27.0465C72.353 26.8545 72.7584 26.7585 73.1744 26.7585C74.1344 26.7585 74.8917 27.1265 75.4464 27.8625C76.001 28.5879 76.2784 29.5639 76.2784 30.7905C76.2784 31.6972 76.1184 32.4705 75.7984 33.1105C75.4784 33.7505 75.0624 34.2412 74.5504 34.5825C74.049 34.9132 73.5104 35.0785 72.9344 35.0785C72.593 35.0785 72.2624 35.0092 71.9424 34.8705C71.6224 34.7212 71.3237 34.5132 71.0464 34.2465L71.1264 35.5105V37.8305H68.7744ZM72.3904 33.1585C72.7957 33.1585 73.1424 32.9719 73.4304 32.5985C73.7184 32.2252 73.8624 31.6332 73.8624 30.8225C73.8624 29.3932 73.4037 28.6785 72.4864 28.6785C72.0277 28.6785 71.5744 28.9185 71.1264 29.3985V32.6465C71.3397 32.8385 71.553 32.9719 71.7664 33.0465C71.9797 33.1212 72.1877 33.1585 72.3904 33.1585ZM81.3543 35.0785C80.6823 35.0785 80.0476 34.9185 79.4503 34.5985C78.8636 34.2679 78.3889 33.7932 78.0263 33.1745C77.6636 32.5452 77.4823 31.7932 77.4823 30.9185C77.4823 30.0332 77.6636 29.2812 78.0263 28.6625C78.3889 28.0439 78.8636 27.5745 79.4503 27.2545C80.0476 26.9239 80.6823 26.7585 81.3543 26.7585C82.0263 26.7585 82.6556 26.9239 83.2423 27.2545C83.8289 27.5745 84.3036 28.0439 84.6663 28.6625C85.0289 29.2812 85.2103 30.0332 85.2103 30.9185C85.2103 31.7932 85.0289 32.5452 84.6663 33.1745C84.3036 33.7932 83.8289 34.2679 83.2423 34.5985C82.6556 34.9185 82.0263 35.0785 81.3543 35.0785ZM81.3543 33.1745C81.8343 33.1745 82.1969 32.9719 82.4423 32.5665C82.6876 32.1505 82.8103 31.6012 82.8103 30.9185C82.8103 30.2252 82.6876 29.6759 82.4423 29.2705C82.1969 28.8652 81.8343 28.6625 81.3543 28.6625C80.8636 28.6625 80.4956 28.8652 80.2503 29.2705C80.0156 29.6759 79.8983 30.2252 79.8983 30.9185C79.8983 31.6012 80.0156 32.1505 80.2503 32.5665C80.4956 32.9719 80.8636 33.1745 81.3543 33.1745ZM90.0244 34.8865V26.9505H91.9444L92.1044 27.9745H92.1684C92.499 27.6439 92.851 27.3612 93.2244 27.1265C93.5977 26.8812 94.0457 26.7585 94.5684 26.7585C95.1337 26.7585 95.587 26.8759 95.9284 27.1105C96.2804 27.3345 96.5577 27.6599 96.7604 28.0865C97.1124 27.7239 97.4857 27.4145 97.8804 27.1585C98.275 26.8919 98.7337 26.7585 99.2564 26.7585C100.11 26.7585 100.734 27.0465 101.128 27.6225C101.534 28.1879 101.736 28.9665 101.736 29.9585V34.8865H99.3844V30.2625C99.3844 29.6865 99.3044 29.2919 99.1444 29.0785C98.995 28.8652 98.7497 28.7585 98.4084 28.7585C98.0137 28.7585 97.5604 29.0145 97.0484 29.5265V34.8865H94.6964V30.2625C94.6964 29.6865 94.6164 29.2919 94.4564 29.0785C94.307 28.8652 94.0617 28.7585 93.7204 28.7585C93.3257 28.7585 92.8777 29.0145 92.3764 29.5265V34.8865H90.0244ZM107.295 35.0785C106.538 35.0785 105.855 34.9132 105.247 34.5825C104.639 34.2519 104.159 33.7772 103.807 33.1585C103.455 32.5399 103.279 31.7932 103.279 30.9185C103.279 30.0545 103.455 29.3132 103.807 28.6945C104.17 28.0759 104.639 27.6012 105.215 27.2705C105.791 26.9292 106.394 26.7585 107.023 26.7585C107.78 26.7585 108.404 26.9292 108.895 27.2705C109.396 27.6012 109.77 28.0545 110.015 28.6305C110.271 29.1959 110.399 29.8412 110.399 30.5665C110.399 30.7692 110.388 30.9719 110.367 31.1745C110.346 31.3665 110.324 31.5105 110.303 31.6065H105.551C105.658 32.1825 105.898 32.6092 106.271 32.8865C106.644 33.1532 107.092 33.2865 107.615 33.2865C108.18 33.2865 108.751 33.1105 109.327 32.7585L110.111 34.1825C109.706 34.4599 109.252 34.6785 108.751 34.8385C108.25 34.9985 107.764 35.0785 107.295 35.0785ZM105.535 30.0545H108.399C108.399 29.6172 108.292 29.2599 108.079 28.9825C107.876 28.6945 107.54 28.5505 107.071 28.5505C106.708 28.5505 106.383 28.6785 106.095 28.9345C105.807 29.1799 105.62 29.5532 105.535 30.0545ZM112.024 34.8865V26.9505H113.944L114.104 28.3425H114.168C114.456 27.8092 114.803 27.4145 115.208 27.1585C115.614 26.8919 116.019 26.7585 116.424 26.7585C116.648 26.7585 116.835 26.7745 116.984 26.8065C117.134 26.8279 117.262 26.8652 117.368 26.9185L116.984 28.9505C116.846 28.9079 116.707 28.8759 116.568 28.8545C116.44 28.8332 116.291 28.8225 116.12 28.8225C115.822 28.8225 115.507 28.9345 115.176 29.1585C114.856 29.3719 114.59 29.7452 114.376 30.2785V34.8865H112.024ZM121.795 35.0785C121.038 35.0785 120.355 34.9132 119.747 34.5825C119.139 34.2519 118.659 33.7772 118.307 33.1585C117.955 32.5399 117.779 31.7932 117.779 30.9185C117.779 30.0545 117.955 29.3132 118.307 28.6945C118.67 28.0759 119.139 27.6012 119.715 27.2705C120.291 26.9292 120.894 26.7585 121.523 26.7585C122.28 26.7585 122.904 26.9292 123.395 27.2705C123.896 27.6012 124.27 28.0545 124.515 28.6305C124.771 29.1959 124.899 29.8412 124.899 30.5665C124.899 30.7692 124.888 30.9719 124.867 31.1745C124.846 31.3665 124.824 31.5105 124.803 31.6065H120.051C120.158 32.1825 120.398 32.6092 120.771 32.8865C121.144 33.1532 121.592 33.2865 122.115 33.2865C122.68 33.2865 123.251 33.1105 123.827 32.7585L124.611 34.1825C124.206 34.4599 123.752 34.6785 123.251 34.8385C122.75 34.9985 122.264 35.0785 121.795 35.0785ZM120.035 30.0545H122.899C122.899 29.6172 122.792 29.2599 122.579 28.9825C122.376 28.6945 122.04 28.5505 121.571 28.5505C121.208 28.5505 120.883 28.6785 120.595 28.9345C120.307 29.1799 120.12 29.5532 120.035 30.0545ZM129.98 35.0785C129.244 35.0785 128.578 34.9185 127.98 34.5985C127.394 34.2679 126.924 33.7932 126.572 33.1745C126.231 32.5452 126.06 31.7932 126.06 30.9185C126.06 30.0332 126.252 29.2812 126.636 28.6625C127.02 28.0439 127.527 27.5745 128.156 27.2545C128.786 26.9239 129.463 26.7585 130.188 26.7585C130.679 26.7585 131.111 26.8385 131.484 26.9985C131.868 27.1585 132.21 27.3612 132.508 27.6065L131.404 29.1265C131.031 28.8172 130.674 28.6625 130.332 28.6625C129.767 28.6625 129.314 28.8652 128.972 29.2705C128.642 29.6759 128.476 30.2252 128.476 30.9185C128.476 31.6012 128.642 32.1505 128.972 32.5665C129.314 32.9719 129.74 33.1745 130.252 33.1745C130.508 33.1745 130.759 33.1212 131.004 33.0145C131.25 32.8972 131.474 32.7585 131.676 32.5985L132.604 34.1345C132.21 34.4759 131.783 34.7212 131.324 34.8705C130.866 35.0092 130.418 35.0785 129.98 35.0785ZM137.092 35.0785C136.335 35.0785 135.652 34.9132 135.044 34.5825C134.436 34.2519 133.956 33.7772 133.604 33.1585C133.252 32.5399 133.076 31.7932 133.076 30.9185C133.076 30.0545 133.252 29.3132 133.604 28.6945C133.967 28.0759 134.436 27.6012 135.012 27.2705C135.588 26.9292 136.191 26.7585 136.82 26.7585C137.577 26.7585 138.201 26.9292 138.692 27.2705C139.193 27.6012 139.567 28.0545 139.812 28.6305C140.068 29.1959 140.196 29.8412 140.196 30.5665C140.196 30.7692 140.185 30.9719 140.164 31.1745C140.143 31.3665 140.121 31.5105 140.1 31.6065H135.348C135.455 32.1825 135.695 32.6092 136.068 32.8865C136.441 33.1532 136.889 33.2865 137.412 33.2865C137.977 33.2865 138.548 33.1105 139.124 32.7585L139.908 34.1825C139.503 34.4599 139.049 34.6785 138.548 34.8385C138.047 34.9985 137.561 35.0785 137.092 35.0785ZM135.332 30.0545H138.196C138.196 29.6172 138.089 29.2599 137.876 28.9825C137.673 28.6945 137.337 28.5505 136.868 28.5505C136.505 28.5505 136.18 28.6785 135.892 28.9345C135.604 29.1799 135.417 29.5532 135.332 30.0545ZM148.432 35.0785C147.76 35.0785 147.126 34.9185 146.528 34.5985C145.942 34.2679 145.467 33.7932 145.104 33.1745C144.742 32.5452 144.56 31.7932 144.56 30.9185C144.56 30.0332 144.742 29.2812 145.104 28.6625C145.467 28.0439 145.942 27.5745 146.528 27.2545C147.126 26.9239 147.76 26.7585 148.432 26.7585C149.104 26.7585 149.734 26.9239 150.32 27.2545C150.907 27.5745 151.382 28.0439 151.744 28.6625C152.107 29.2812 152.288 30.0332 152.288 30.9185C152.288 31.7932 152.107 32.5452 151.744 33.1745C151.382 33.7932 150.907 34.2679 150.32 34.5985C149.734 34.9185 149.104 35.0785 148.432 35.0785ZM148.432 33.1745C148.912 33.1745 149.275 32.9719 149.52 32.5665C149.766 32.1505 149.888 31.6012 149.888 30.9185C149.888 30.2252 149.766 29.6759 149.52 29.2705C149.275 28.8652 148.912 28.6625 148.432 28.6625C147.942 28.6625 147.574 28.8652 147.328 29.2705C147.094 29.6759 146.976 30.2252 146.976 30.9185C146.976 31.6012 147.094 32.1505 147.328 32.5665C147.574 32.9719 147.942 33.1745 148.432 33.1745ZM157.103 34.8865V26.9505H159.023L159.183 27.9745H159.247C159.577 27.6439 159.929 27.3612 160.303 27.1265C160.676 26.8812 161.124 26.7585 161.647 26.7585C162.212 26.7585 162.665 26.8759 163.007 27.1105C163.359 27.3345 163.636 27.6599 163.839 28.0865C164.191 27.7239 164.564 27.4145 164.959 27.1585C165.353 26.8919 165.812 26.7585 166.335 26.7585C167.188 26.7585 167.812 27.0465 168.207 27.6225C168.612 28.1879 168.815 28.9665 168.815 29.9585V34.8865H166.463V30.2625C166.463 29.6865 166.383 29.2919 166.223 29.0785C166.073 28.8652 165.828 28.7585 165.487 28.7585C165.092 28.7585 164.639 29.0145 164.127 29.5265V34.8865H161.775V30.2625C161.775 29.6865 161.695 29.2919 161.535 29.0785C161.385 28.8652 161.14 28.7585 160.799 28.7585C160.404 28.7585 159.956 29.0145 159.455 29.5265V34.8865H157.103ZM174.373 35.0785C173.616 35.0785 172.933 34.9132 172.325 34.5825C171.717 34.2519 171.237 33.7772 170.885 33.1585C170.533 32.5399 170.357 31.7932 170.357 30.9185C170.357 30.0545 170.533 29.3132 170.885 28.6945C171.248 28.0759 171.717 27.6012 172.293 27.2705C172.869 26.9292 173.472 26.7585 174.101 26.7585C174.859 26.7585 175.483 26.9292 175.973 27.2705C176.475 27.6012 176.848 28.0545 177.093 28.6305C177.349 29.1959 177.477 29.8412 177.477 30.5665C177.477 30.7692 177.467 30.9719 177.445 31.1745C177.424 31.3665 177.403 31.5105 177.381 31.6065H172.629C172.736 32.1825 172.976 32.6092 173.349 32.8865C173.723 33.1532 174.171 33.2865 174.693 33.2865C175.259 33.2865 175.829 33.1105 176.405 32.7585L177.189 34.1825C176.784 34.4599 176.331 34.6785 175.829 34.8385C175.328 34.9985 174.843 35.0785 174.373 35.0785ZM172.613 30.0545H175.477C175.477 29.6172 175.371 29.2599 175.157 28.9825C174.955 28.6945 174.619 28.5505 174.149 28.5505C173.787 28.5505 173.461 28.6785 173.173 28.9345C172.885 29.1799 172.699 29.5532 172.613 30.0545ZM181.263 35.0785C180.452 35.0785 179.887 34.8385 179.567 34.3585C179.257 33.8679 179.103 33.2225 179.103 32.4225V23.6705H181.455V32.5185C181.455 32.7639 181.497 32.9345 181.583 33.0305C181.679 33.1265 181.775 33.1745 181.871 33.1745C181.924 33.1745 181.967 33.1745 181.999 33.1745C182.041 33.1639 182.095 33.1532 182.159 33.1425L182.447 34.8865C182.319 34.9399 182.153 34.9825 181.951 35.0145C181.759 35.0572 181.529 35.0785 181.263 35.0785ZM183.681 34.8865V23.6705H186.033V26.4225L185.921 27.8465C186.219 27.5799 186.566 27.3345 186.961 27.1105C187.366 26.8759 187.835 26.7585 188.369 26.7585C189.233 26.7585 189.857 27.0465 190.241 27.6225C190.635 28.1879 190.833 28.9665 190.833 29.9585V34.8865H188.481V30.2625C188.481 29.6865 188.401 29.2919 188.241 29.0785C188.091 28.8652 187.846 28.7585 187.505 28.7585C187.206 28.7585 186.95 28.8279 186.737 28.9665C186.523 29.0945 186.289 29.2812 186.033 29.5265V34.8865H183.681ZM196.229 35.0785C195.557 35.0785 194.923 34.9185 194.325 34.5985C193.739 34.2679 193.264 33.7932 192.901 33.1745C192.539 32.5452 192.357 31.7932 192.357 30.9185C192.357 30.0332 192.539 29.2812 192.901 28.6625C193.264 28.0439 193.739 27.5745 194.325 27.2545C194.923 26.9239 195.557 26.7585 196.229 26.7585C196.901 26.7585 197.531 26.9239 198.117 27.2545C198.704 27.5745 199.179 28.0439 199.541 28.6625C199.904 29.2812 200.085 30.0332 200.085 30.9185C200.085 31.7932 199.904 32.5452 199.541 33.1745C199.179 33.7932 198.704 34.2679 198.117 34.5985C197.531 34.9185 196.901 35.0785 196.229 35.0785ZM196.229 33.1745C196.709 33.1745 197.072 32.9719 197.317 32.5665C197.563 32.1505 197.685 31.6012 197.685 30.9185C197.685 30.2252 197.563 29.6759 197.317 29.2705C197.072 28.8652 196.709 28.6625 196.229 28.6625C195.739 28.6625 195.371 28.8652 195.125 29.2705C194.891 29.6759 194.773 30.2252 194.773 30.9185C194.773 31.6012 194.891 32.1505 195.125 32.5665C195.371 32.9719 195.739 33.1745 196.229 33.1745ZM201.696 34.8865V26.9505H203.616L203.776 28.3425H203.84C204.128 27.8092 204.475 27.4145 204.88 27.1585C205.286 26.8919 205.691 26.7585 206.096 26.7585C206.32 26.7585 206.507 26.7745 206.656 26.8065C206.806 26.8279 206.934 26.8652 207.04 26.9185L206.656 28.9505C206.518 28.9079 206.379 28.8759 206.24 28.8545C206.112 28.8332 205.963 28.8225 205.792 28.8225C205.494 28.8225 205.179 28.9345 204.848 29.1585C204.528 29.3719 204.262 29.7452 204.048 30.2785V34.8865H201.696Z" fill="#3A1C76"/>
<path d="M20.056 55.0305C19.4 55.0305 18.812 54.8705 18.292 54.5505C17.78 54.2225 17.372 53.7545 17.068 53.1465C16.772 52.5385 16.624 51.8065 16.624 50.9505C16.624 50.1025 16.776 49.3745 17.08 48.7665C17.384 48.1585 17.8 47.6905 18.328 47.3625C18.856 47.0345 19.452 46.8705 20.116 46.8705C20.596 46.8705 21.02 46.9705 21.388 47.1705C21.756 47.3625 22.052 47.5865 22.276 47.8425L21.736 48.4905C21.528 48.2665 21.292 48.0865 21.028 47.9505C20.764 47.8145 20.464 47.7465 20.128 47.7465C19.632 47.7465 19.196 47.8785 18.82 48.1425C18.452 48.3985 18.164 48.7625 17.956 49.2345C17.756 49.7065 17.656 50.2705 17.656 50.9265C17.656 51.5825 17.756 52.1545 17.956 52.6425C18.156 53.1225 18.436 53.4945 18.796 53.7585C19.164 54.0225 19.596 54.1545 20.092 54.1545C20.468 54.1545 20.804 54.0745 21.1 53.9145C21.396 53.7545 21.668 53.5385 21.916 53.2665L22.468 53.8905C22.156 54.2505 21.804 54.5305 21.412 54.7305C21.02 54.9305 20.568 55.0305 20.056 55.0305ZM26.1075 55.0305C25.6355 55.0305 25.1915 54.9105 24.7755 54.6705C24.3675 54.4305 24.0355 54.0825 23.7795 53.6265C23.5315 53.1705 23.4075 52.6225 23.4075 51.9825C23.4075 51.3265 23.5315 50.7705 23.7795 50.3145C24.0355 49.8585 24.3675 49.5105 24.7755 49.2705C25.1915 49.0305 25.6355 48.9105 26.1075 48.9105C26.5875 48.9105 27.0315 49.0305 27.4395 49.2705C27.8475 49.5105 28.1755 49.8585 28.4235 50.3145C28.6795 50.7705 28.8075 51.3265 28.8075 51.9825C28.8075 52.6225 28.6795 53.1705 28.4235 53.6265C28.1755 54.0825 27.8475 54.4305 27.4395 54.6705C27.0315 54.9105 26.5875 55.0305 26.1075 55.0305ZM26.1075 54.2145C26.6115 54.2145 27.0155 54.0105 27.3195 53.6025C27.6315 53.1865 27.7875 52.6465 27.7875 51.9825C27.7875 51.3105 27.6315 50.7665 27.3195 50.3505C27.0155 49.9345 26.6115 49.7265 26.1075 49.7265C25.6115 49.7265 25.2075 49.9345 24.8955 50.3505C24.5835 50.7665 24.4275 51.3105 24.4275 51.9825C24.4275 52.6465 24.5835 53.1865 24.8955 53.6025C25.2075 54.0105 25.6115 54.2145 26.1075 54.2145ZM30.3434 54.8865V49.0545H31.1594L31.2434 49.8945H31.2794C31.5594 49.6145 31.8554 49.3825 32.1674 49.1985C32.4794 49.0065 32.8354 48.9105 33.2354 48.9105C33.8514 48.9105 34.2994 49.1065 34.5794 49.4985C34.8674 49.8825 35.0114 50.4465 35.0114 51.1905V54.8865H34.0274V51.3225C34.0274 50.7785 33.9394 50.3825 33.7634 50.1345C33.5874 49.8865 33.3074 49.7625 32.9234 49.7625C32.6274 49.7625 32.3594 49.8385 32.1194 49.9905C31.8874 50.1425 31.6234 50.3665 31.3274 50.6625V54.8865H30.3434ZM36.9059 54.8865V46.3425H37.8899V48.6705L37.8539 49.8705C38.1339 49.6065 38.4259 49.3825 38.7299 49.1985C39.0419 49.0065 39.3979 48.9105 39.7979 48.9105C40.4139 48.9105 40.8619 49.1065 41.1419 49.4985C41.4299 49.8825 41.5739 50.4465 41.5739 51.1905V54.8865H40.5899V51.3225C40.5899 50.7785 40.5019 50.3825 40.3259 50.1345C40.1499 49.8865 39.8699 49.7625 39.4859 49.7625C39.1899 49.7625 38.9219 49.8385 38.6819 49.9905C38.4499 50.1425 38.1859 50.3665 37.8899 50.6625V54.8865H36.9059ZM45.7972 55.0305C45.2772 55.0305 44.8052 54.9105 44.3812 54.6705C43.9572 54.4225 43.6212 54.0705 43.3732 53.6145C43.1252 53.1585 43.0012 52.6145 43.0012 51.9825C43.0012 51.3425 43.1252 50.7945 43.3732 50.3385C43.6292 49.8825 43.9572 49.5305 44.3572 49.2825C44.7572 49.0345 45.1772 48.9105 45.6172 48.9105C46.3612 48.9105 46.9332 49.1585 47.3332 49.6545C47.7412 50.1505 47.9452 50.8145 47.9452 51.6465C47.9452 51.7505 47.9412 51.8545 47.9332 51.9585C47.9332 52.0545 47.9252 52.1385 47.9092 52.2105H43.9732C44.0132 52.8265 44.2052 53.3185 44.5492 53.6865C44.9012 54.0545 45.3572 54.2385 45.9172 54.2385C46.1972 54.2385 46.4532 54.1985 46.6852 54.1185C46.9252 54.0305 47.1532 53.9185 47.3692 53.7825L47.7172 54.4305C47.4692 54.5905 47.1852 54.7305 46.8652 54.8505C46.5532 54.9705 46.1972 55.0305 45.7972 55.0305ZM43.9612 51.5025H47.0812C47.0812 50.9105 46.9532 50.4625 46.6972 50.1585C46.4492 49.8465 46.0972 49.6905 45.6412 49.6905C45.2332 49.6905 44.8652 49.8505 44.5372 50.1705C44.2172 50.4825 44.0252 50.9265 43.9612 51.5025ZM51.6903 55.0305C51.1783 55.0305 50.7143 54.9105 50.2983 54.6705C49.8823 54.4305 49.5543 54.0825 49.3143 53.6265C49.0743 53.1705 48.9543 52.6225 48.9543 51.9825C48.9543 51.3265 49.0823 50.7705 49.3383 50.3145C49.6023 49.8585 49.9463 49.5105 50.3703 49.2705C50.8023 49.0305 51.2663 48.9105 51.7623 48.9105C52.1463 48.9105 52.4743 48.9785 52.7463 49.1145C53.0263 49.2505 53.2663 49.4105 53.4663 49.5945L52.9623 50.2425C52.7943 50.0905 52.6143 49.9665 52.4223 49.8705C52.2383 49.7745 52.0303 49.7265 51.7983 49.7265C51.4463 49.7265 51.1303 49.8225 50.8503 50.0145C50.5783 50.1985 50.3623 50.4625 50.2023 50.8065C50.0503 51.1425 49.9743 51.5345 49.9743 51.9825C49.9743 52.6465 50.1383 53.1865 50.4663 53.6025C50.8023 54.0105 51.2383 54.2145 51.7743 54.2145C52.0463 54.2145 52.2983 54.1585 52.5303 54.0465C52.7623 53.9265 52.9663 53.7865 53.1423 53.6265L53.5743 54.2865C53.3103 54.5185 53.0183 54.7025 52.6983 54.8385C52.3783 54.9665 52.0423 55.0305 51.6903 55.0305ZM50.5503 57.5985L50.4543 57.1185C50.9583 57.0785 51.3023 57.0105 51.4863 56.9145C51.6703 56.8265 51.7623 56.6945 51.7623 56.5185C51.7623 56.3585 51.6943 56.2345 51.5583 56.1465C51.4223 56.0585 51.1823 55.9905 50.8383 55.9425L51.3663 54.8505H52.0023L51.6543 55.6545C51.9343 55.7185 52.1503 55.8145 52.3023 55.9425C52.4543 56.0705 52.5303 56.2585 52.5303 56.5065C52.5303 56.8505 52.3583 57.1105 52.0143 57.2865C51.6783 57.4625 51.1903 57.5665 50.5503 57.5985ZM56.0858 55.0305C55.5978 55.0305 55.1898 54.8865 54.8618 54.5985C54.5418 54.3025 54.3818 53.8945 54.3818 53.3745C54.3818 52.7345 54.6658 52.2465 55.2338 51.9105C55.8098 51.5665 56.7178 51.3265 57.9578 51.1905C57.9578 50.9425 57.9218 50.7065 57.8498 50.4825C57.7858 50.2585 57.6658 50.0785 57.4898 49.9425C57.3218 49.7985 57.0778 49.7265 56.7578 49.7265C56.4218 49.7265 56.1058 49.7905 55.8098 49.9185C55.5138 50.0465 55.2498 50.1905 55.0178 50.3505L54.6338 49.6665C54.9058 49.4905 55.2378 49.3225 55.6298 49.1625C56.0298 48.9945 56.4618 48.9105 56.9258 48.9105C57.6378 48.9105 58.1538 49.1305 58.4738 49.5705C58.7938 50.0025 58.9538 50.5825 58.9538 51.3105V54.8865H58.1378L58.0538 54.1905H58.0178C57.7458 54.4145 57.4458 54.6105 57.1178 54.7785C56.7978 54.9465 56.4538 55.0305 56.0858 55.0305ZM56.3738 54.2385C56.6538 54.2385 56.9178 54.1705 57.1658 54.0345C57.4138 53.8985 57.6778 53.7065 57.9578 53.4585V51.8385C56.9898 51.9585 56.3098 52.1385 55.9178 52.3785C55.5338 52.6185 55.3418 52.9265 55.3418 53.3025C55.3418 53.6305 55.4418 53.8705 55.6418 54.0225C55.8418 54.1665 56.0858 54.2385 56.3738 54.2385ZM63.191 54.8865V49.0545H64.007L64.091 49.8945H64.127C64.407 49.6145 64.703 49.3825 65.015 49.1985C65.327 49.0065 65.683 48.9105 66.083 48.9105C66.699 48.9105 67.147 49.1065 67.427 49.4985C67.715 49.8825 67.859 50.4465 67.859 51.1905V54.8865H66.875V51.3225C66.875 50.7785 66.787 50.3825 66.611 50.1345C66.435 49.8865 66.155 49.7625 65.771 49.7625C65.475 49.7625 65.207 49.8385 64.967 49.9905C64.735 50.1425 64.471 50.3665 64.175 50.6625V54.8865H63.191ZM72.0215 55.0305C71.5495 55.0305 71.1055 54.9105 70.6895 54.6705C70.2815 54.4305 69.9495 54.0825 69.6935 53.6265C69.4455 53.1705 69.3215 52.6225 69.3215 51.9825C69.3215 51.3265 69.4455 50.7705 69.6935 50.3145C69.9495 49.8585 70.2815 49.5105 70.6895 49.2705C71.1055 49.0305 71.5495 48.9105 72.0215 48.9105C72.5015 48.9105 72.9455 49.0305 73.3535 49.2705C73.7615 49.5105 74.0895 49.8585 74.3375 50.3145C74.5935 50.7705 74.7215 51.3265 74.7215 51.9825C74.7215 52.6225 74.5935 53.1705 74.3375 53.6265C74.0895 54.0825 73.7615 54.4305 73.3535 54.6705C72.9455 54.9105 72.5015 55.0305 72.0215 55.0305ZM72.0215 54.2145C72.5255 54.2145 72.9295 54.0105 73.2335 53.6025C73.5455 53.1865 73.7015 52.6465 73.7015 51.9825C73.7015 51.3105 73.5455 50.7665 73.2335 50.3505C72.9295 49.9345 72.5255 49.7265 72.0215 49.7265C71.5255 49.7265 71.1215 49.9345 70.8095 50.3505C70.4975 50.7665 70.3415 51.3105 70.3415 51.9825C70.3415 52.6465 70.4975 53.1865 70.8095 53.6025C71.1215 54.0105 71.5255 54.2145 72.0215 54.2145ZM77.7814 55.0305C77.3654 55.0305 76.9694 54.9545 76.5934 54.8025C76.2174 54.6425 75.8894 54.4505 75.6094 54.2265L76.1014 53.5665C76.3574 53.7665 76.6214 53.9345 76.8934 54.0705C77.1654 54.1985 77.4734 54.2625 77.8174 54.2625C78.2014 54.2625 78.4894 54.1745 78.6814 53.9985C78.8734 53.8145 78.9694 53.5985 78.9694 53.3505C78.9694 53.1505 78.9014 52.9825 78.7654 52.8465C78.6374 52.7105 78.4694 52.5985 78.2614 52.5105C78.0614 52.4145 77.8534 52.3265 77.6374 52.2465C77.3654 52.1425 77.0974 52.0265 76.8334 51.8985C76.5694 51.7625 76.3534 51.5905 76.1854 51.3825C76.0174 51.1665 75.9334 50.8945 75.9334 50.5665C75.9334 50.0945 76.1094 49.7025 76.4614 49.3905C76.8214 49.0705 77.3174 48.9105 77.9494 48.9105C78.3094 48.9105 78.6454 48.9745 78.9574 49.1025C79.2694 49.2305 79.5374 49.3865 79.7614 49.5705L79.2814 50.1945C79.0814 50.0425 78.8734 49.9185 78.6574 49.8225C78.4414 49.7265 78.2054 49.6785 77.9494 49.6785C77.5814 49.6785 77.3094 49.7625 77.1334 49.9305C76.9654 50.0985 76.8814 50.2945 76.8814 50.5185C76.8814 50.7025 76.9414 50.8545 77.0614 50.9745C77.1814 51.0865 77.3374 51.1865 77.5294 51.2745C77.7214 51.3545 77.9254 51.4385 78.1414 51.5265C78.4214 51.6305 78.6974 51.7505 78.9694 51.8865C79.2414 52.0145 79.4654 52.1905 79.6414 52.4145C79.8254 52.6305 79.9174 52.9225 79.9174 53.2905C79.9174 53.6025 79.8334 53.8905 79.6654 54.1545C79.5054 54.4185 79.2654 54.6305 78.9454 54.7905C78.6334 54.9505 78.2454 55.0305 77.7814 55.0305ZM82.8088 55.0305C82.3928 55.0305 81.9968 54.9545 81.6208 54.8025C81.2448 54.6425 80.9168 54.4505 80.6368 54.2265L81.1288 53.5665C81.3848 53.7665 81.6488 53.9345 81.9208 54.0705C82.1928 54.1985 82.5008 54.2625 82.8448 54.2625C83.2288 54.2625 83.5168 54.1745 83.7088 53.9985C83.9008 53.8145 83.9968 53.5985 83.9968 53.3505C83.9968 53.1505 83.9288 52.9825 83.7928 52.8465C83.6648 52.7105 83.4968 52.5985 83.2888 52.5105C83.0888 52.4145 82.8808 52.3265 82.6648 52.2465C82.3928 52.1425 82.1248 52.0265 81.8608 51.8985C81.5968 51.7625 81.3808 51.5905 81.2128 51.3825C81.0448 51.1665 80.9608 50.8945 80.9608 50.5665C80.9608 50.0945 81.1368 49.7025 81.4888 49.3905C81.8488 49.0705 82.3448 48.9105 82.9768 48.9105C83.3368 48.9105 83.6728 48.9745 83.9848 49.1025C84.2968 49.2305 84.5648 49.3865 84.7888 49.5705L84.3088 50.1945C84.1088 50.0425 83.9008 49.9185 83.6848 49.8225C83.4688 49.7265 83.2328 49.6785 82.9768 49.6785C82.6088 49.6785 82.3368 49.7625 82.1608 49.9305C81.9928 50.0985 81.9088 50.2945 81.9088 50.5185C81.9088 50.7025 81.9688 50.8545 82.0888 50.9745C82.2088 51.0865 82.3648 51.1865 82.5568 51.2745C82.7488 51.3545 82.9528 51.4385 83.1688 51.5265C83.4488 51.6305 83.7248 51.7505 83.9968 51.8865C84.2688 52.0145 84.4928 52.1905 84.6688 52.4145C84.8528 52.6305 84.9448 52.9225 84.9448 53.2905C84.9448 53.6025 84.8608 53.8905 84.6928 54.1545C84.5328 54.4185 84.2928 54.6305 83.9728 54.7905C83.6608 54.9505 83.2728 55.0305 82.8088 55.0305ZM88.5801 55.0305C88.1081 55.0305 87.6641 54.9105 87.2481 54.6705C86.8401 54.4305 86.5081 54.0825 86.2521 53.6265C86.0041 53.1705 85.8801 52.6225 85.8801 51.9825C85.8801 51.3265 86.0041 50.7705 86.2521 50.3145C86.5081 49.8585 86.8401 49.5105 87.2481 49.2705C87.6641 49.0305 88.1081 48.9105 88.5801 48.9105C89.0601 48.9105 89.5041 49.0305 89.9121 49.2705C90.3201 49.5105 90.6481 49.8585 90.8961 50.3145C91.1521 50.7705 91.2801 51.3265 91.2801 51.9825C91.2801 52.6225 91.1521 53.1705 90.8961 53.6265C90.6481 54.0825 90.3201 54.4305 89.9121 54.6705C89.5041 54.9105 89.0601 55.0305 88.5801 55.0305ZM88.5801 54.2145C89.0841 54.2145 89.4881 54.0105 89.7921 53.6025C90.1041 53.1865 90.2601 52.6465 90.2601 51.9825C90.2601 51.3105 90.1041 50.7665 89.7921 50.3505C89.4881 49.9345 89.0841 49.7265 88.5801 49.7265C88.0841 49.7265 87.6801 49.9345 87.3681 50.3505C87.0561 50.7665 86.9001 51.3105 86.9001 51.9825C86.9001 52.6465 87.0561 53.1865 87.3681 53.6025C87.6801 54.0105 88.0841 54.2145 88.5801 54.2145ZM94.34 55.0305C93.924 55.0305 93.528 54.9545 93.152 54.8025C92.776 54.6425 92.448 54.4505 92.168 54.2265L92.66 53.5665C92.916 53.7665 93.18 53.9345 93.452 54.0705C93.724 54.1985 94.032 54.2625 94.376 54.2625C94.76 54.2625 95.048 54.1745 95.24 53.9985C95.432 53.8145 95.528 53.5985 95.528 53.3505C95.528 53.1505 95.46 52.9825 95.324 52.8465C95.196 52.7105 95.028 52.5985 94.82 52.5105C94.62 52.4145 94.412 52.3265 94.196 52.2465C93.924 52.1425 93.656 52.0265 93.392 51.8985C93.128 51.7625 92.912 51.5905 92.744 51.3825C92.576 51.1665 92.492 50.8945 92.492 50.5665C92.492 50.0945 92.668 49.7025 93.02 49.3905C93.38 49.0705 93.876 48.9105 94.508 48.9105C94.868 48.9105 95.204 48.9745 95.516 49.1025C95.828 49.2305 96.096 49.3865 96.32 49.5705L95.84 50.1945C95.64 50.0425 95.432 49.9185 95.216 49.8225C95 49.7265 94.764 49.6785 94.508 49.6785C94.14 49.6785 93.868 49.7625 93.692 49.9305C93.524 50.0985 93.44 50.2945 93.44 50.5185C93.44 50.7025 93.5 50.8545 93.62 50.9745C93.74 51.0865 93.896 51.1865 94.088 51.2745C94.28 51.3545 94.484 51.4385 94.7 51.5265C94.98 51.6305 95.256 51.7505 95.528 51.8865C95.8 52.0145 96.024 52.1905 96.2 52.4145C96.384 52.6305 96.476 52.9225 96.476 53.2905C96.476 53.6025 96.392 53.8905 96.224 54.1545C96.064 54.4185 95.824 54.6305 95.504 54.7905C95.192 54.9505 94.804 55.0305 94.34 55.0305ZM100.246 54.8865V49.0545H101.062L101.146 49.8945H101.182C101.462 49.6145 101.758 49.3825 102.07 49.1985C102.382 49.0065 102.738 48.9105 103.138 48.9105C103.754 48.9105 104.202 49.1065 104.482 49.4985C104.77 49.8825 104.914 50.4465 104.914 51.1905V54.8865H103.93V51.3225C103.93 50.7785 103.842 50.3825 103.666 50.1345C103.49 49.8865 103.21 49.7625 102.826 49.7625C102.53 49.7625 102.262 49.8385 102.022 49.9905C101.79 50.1425 101.526 50.3665 101.23 50.6625V54.8865H100.246ZM108.512 55.0305C107.896 55.0305 107.444 54.8385 107.156 54.4545C106.868 54.0625 106.724 53.4945 106.724 52.7505V49.0545H107.72V52.6185C107.72 53.1625 107.804 53.5585 107.972 53.8065C108.148 54.0545 108.428 54.1785 108.812 54.1785C109.116 54.1785 109.384 54.1025 109.616 53.9505C109.856 53.7905 110.112 53.5385 110.384 53.1945V49.0545H111.368V54.8865H110.552L110.468 53.9745H110.432C110.16 54.2945 109.872 54.5505 109.568 54.7425C109.264 54.9345 108.912 55.0305 108.512 55.0305ZM115.172 55.0305C114.548 55.0305 114.112 54.8505 113.864 54.4905C113.624 54.1305 113.504 53.6625 113.504 53.0865V49.8585H112.64V49.1145L113.552 49.0545L113.672 47.4225H114.5V49.0545H116.072V49.8585H114.5V53.0985C114.5 53.4585 114.564 53.7385 114.692 53.9385C114.828 54.1305 115.064 54.2265 115.4 54.2265C115.504 54.2265 115.616 54.2105 115.736 54.1785C115.856 54.1385 115.964 54.1025 116.06 54.0705L116.252 54.8145C116.092 54.8705 115.916 54.9185 115.724 54.9585C115.54 55.0065 115.356 55.0305 115.172 55.0305ZM117.39 54.8865V49.0545H118.206L118.29 50.1105H118.326C118.526 49.7425 118.77 49.4505 119.058 49.2345C119.346 49.0185 119.654 48.9105 119.982 48.9105C120.214 48.9105 120.422 48.9505 120.606 49.0305L120.414 49.8945C120.318 49.8625 120.23 49.8385 120.15 49.8225C120.07 49.8065 119.97 49.7985 119.85 49.7985C119.602 49.7985 119.342 49.8985 119.07 50.0985C118.806 50.2985 118.574 50.6465 118.374 51.1425V54.8865H117.39ZM121.55 54.8865V49.0545H122.534V54.8865H121.55ZM122.054 47.8545C121.862 47.8545 121.702 47.7985 121.574 47.6865C121.454 47.5665 121.394 47.4065 121.394 47.2065C121.394 47.0145 121.454 46.8585 121.574 46.7385C121.702 46.6185 121.862 46.5585 122.054 46.5585C122.246 46.5585 122.402 46.6185 122.522 46.7385C122.65 46.8585 122.714 47.0145 122.714 47.2065C122.714 47.4065 122.65 47.5665 122.522 47.6865C122.402 47.7985 122.246 47.8545 122.054 47.8545ZM126.808 55.0305C126.296 55.0305 125.832 54.9105 125.416 54.6705C125 54.4305 124.672 54.0825 124.432 53.6265C124.192 53.1705 124.072 52.6225 124.072 51.9825C124.072 51.3265 124.2 50.7705 124.456 50.3145C124.72 49.8585 125.064 49.5105 125.488 49.2705C125.92 49.0305 126.384 48.9105 126.88 48.9105C127.264 48.9105 127.592 48.9785 127.864 49.1145C128.144 49.2505 128.384 49.4105 128.584 49.5945L128.08 50.2425C127.912 50.0905 127.732 49.9665 127.54 49.8705C127.356 49.7745 127.148 49.7265 126.916 49.7265C126.564 49.7265 126.248 49.8225 125.968 50.0145C125.696 50.1985 125.48 50.4625 125.32 50.8065C125.168 51.1425 125.092 51.5345 125.092 51.9825C125.092 52.6465 125.256 53.1865 125.584 53.6025C125.92 54.0105 126.356 54.2145 126.892 54.2145C127.164 54.2145 127.416 54.1585 127.648 54.0465C127.88 53.9265 128.084 53.7865 128.26 53.6265L128.692 54.2865C128.428 54.5185 128.136 54.7025 127.816 54.8385C127.496 54.9665 127.16 55.0305 126.808 55.0305ZM129.976 54.8865V49.0545H130.96V54.8865H129.976ZM130.48 47.8545C130.288 47.8545 130.128 47.7985 130 47.6865C129.88 47.5665 129.82 47.4065 129.82 47.2065C129.82 47.0145 129.88 46.8585 130 46.7385C130.128 46.6185 130.288 46.5585 130.48 46.5585C130.672 46.5585 130.828 46.6185 130.948 46.7385C131.076 46.8585 131.14 47.0145 131.14 47.2065C131.14 47.4065 131.076 47.5665 130.948 47.6865C130.828 47.7985 130.672 47.8545 130.48 47.8545ZM135.197 55.0305C134.725 55.0305 134.281 54.9105 133.865 54.6705C133.457 54.4305 133.125 54.0825 132.869 53.6265C132.621 53.1705 132.497 52.6225 132.497 51.9825C132.497 51.3265 132.621 50.7705 132.869 50.3145C133.125 49.8585 133.457 49.5105 133.865 49.2705C134.281 49.0305 134.725 48.9105 135.197 48.9105C135.677 48.9105 136.121 49.0305 136.529 49.2705C136.937 49.5105 137.265 49.8585 137.513 50.3145C137.769 50.7705 137.897 51.3265 137.897 51.9825C137.897 52.6225 137.769 53.1705 137.513 53.6265C137.265 54.0825 136.937 54.4305 136.529 54.6705C136.121 54.9105 135.677 55.0305 135.197 55.0305ZM135.197 54.2145C135.701 54.2145 136.105 54.0105 136.409 53.6025C136.721 53.1865 136.877 52.6465 136.877 51.9825C136.877 51.3105 136.721 50.7665 136.409 50.3505C136.105 49.9345 135.701 49.7265 135.197 49.7265C134.701 49.7265 134.297 49.9345 133.985 50.3505C133.673 50.7665 133.517 51.3105 133.517 51.9825C133.517 52.6465 133.673 53.1865 133.985 53.6025C134.297 54.0105 134.701 54.2145 135.197 54.2145ZM139.433 54.8865V49.0545H140.249L140.333 49.8945H140.369C140.649 49.6145 140.945 49.3825 141.257 49.1985C141.569 49.0065 141.925 48.9105 142.325 48.9105C142.941 48.9105 143.389 49.1065 143.669 49.4985C143.957 49.8825 144.101 50.4465 144.101 51.1905V54.8865H143.117V51.3225C143.117 50.7785 143.029 50.3825 142.853 50.1345C142.677 49.8865 142.397 49.7625 142.013 49.7625C141.717 49.7625 141.449 49.8385 141.209 49.9905C140.977 50.1425 140.713 50.3665 140.417 50.6625V54.8865H139.433ZM145.996 54.8865V49.0545H146.98V54.8865H145.996ZM146.5 47.8545C146.308 47.8545 146.148 47.7985 146.02 47.6865C145.9 47.5665 145.84 47.4065 145.84 47.2065C145.84 47.0145 145.9 46.8585 146.02 46.7385C146.148 46.6185 146.308 46.5585 146.5 46.5585C146.692 46.5585 146.848 46.6185 146.968 46.7385C147.096 46.8585 147.16 47.0145 147.16 47.2065C147.16 47.4065 147.096 47.5665 146.968 47.6865C146.848 47.7985 146.692 47.8545 146.5 47.8545ZM150.473 55.0305C150.057 55.0305 149.661 54.9545 149.285 54.8025C148.909 54.6425 148.581 54.4505 148.301 54.2265L148.793 53.5665C149.049 53.7665 149.313 53.9345 149.585 54.0705C149.857 54.1985 150.165 54.2625 150.509 54.2625C150.893 54.2625 151.181 54.1745 151.373 53.9985C151.565 53.8145 151.661 53.5985 151.661 53.3505C151.661 53.1505 151.593 52.9825 151.457 52.8465C151.329 52.7105 151.161 52.5985 150.953 52.5105C150.753 52.4145 150.545 52.3265 150.329 52.2465C150.057 52.1425 149.789 52.0265 149.525 51.8985C149.261 51.7625 149.045 51.5905 148.877 51.3825C148.709 51.1665 148.625 50.8945 148.625 50.5665C148.625 50.0945 148.801 49.7025 149.153 49.3905C149.513 49.0705 150.009 48.9105 150.641 48.9105C151.001 48.9105 151.337 48.9745 151.649 49.1025C151.961 49.2305 152.229 49.3865 152.453 49.5705L151.973 50.1945C151.773 50.0425 151.565 49.9185 151.349 49.8225C151.133 49.7265 150.897 49.6785 150.641 49.6785C150.273 49.6785 150.001 49.7625 149.825 49.9305C149.657 50.0985 149.573 50.2945 149.573 50.5185C149.573 50.7025 149.633 50.8545 149.753 50.9745C149.873 51.0865 150.029 51.1865 150.221 51.2745C150.413 51.3545 150.617 51.4385 150.833 51.5265C151.113 51.6305 151.389 51.7505 151.661 51.8865C151.933 52.0145 152.157 52.1905 152.333 52.4145C152.517 52.6305 152.609 52.9225 152.609 53.2905C152.609 53.6025 152.525 53.8905 152.357 54.1545C152.197 54.4185 151.957 54.6305 151.637 54.7905C151.325 54.9505 150.937 55.0305 150.473 55.0305ZM155.578 55.0305C154.954 55.0305 154.518 54.8505 154.27 54.4905C154.03 54.1305 153.91 53.6625 153.91 53.0865V49.8585H153.046V49.1145L153.958 49.0545L154.078 47.4225H154.906V49.0545H156.478V49.8585H154.906V53.0985C154.906 53.4585 154.97 53.7385 155.098 53.9385C155.234 54.1305 155.47 54.2265 155.806 54.2265C155.91 54.2265 156.022 54.2105 156.142 54.1785C156.262 54.1385 156.37 54.1025 156.466 54.0705L156.658 54.8145C156.498 54.8705 156.322 54.9185 156.13 54.9585C155.946 55.0065 155.762 55.0305 155.578 55.0305ZM158.883 55.0305C158.395 55.0305 157.987 54.8865 157.659 54.5985C157.339 54.3025 157.179 53.8945 157.179 53.3745C157.179 52.7345 157.463 52.2465 158.031 51.9105C158.607 51.5665 159.515 51.3265 160.755 51.1905C160.755 50.9425 160.719 50.7065 160.647 50.4825C160.583 50.2585 160.463 50.0785 160.287 49.9425C160.119 49.7985 159.875 49.7265 159.555 49.7265C159.219 49.7265 158.903 49.7905 158.607 49.9185C158.311 50.0465 158.047 50.1905 157.815 50.3505L157.431 49.6665C157.703 49.4905 158.035 49.3225 158.427 49.1625C158.827 48.9945 159.259 48.9105 159.723 48.9105C160.435 48.9105 160.951 49.1305 161.271 49.5705C161.591 50.0025 161.751 50.5825 161.751 51.3105V54.8865H160.935L160.851 54.1905H160.815C160.543 54.4145 160.243 54.6105 159.915 54.7785C159.595 54.9465 159.251 55.0305 158.883 55.0305ZM159.171 54.2385C159.451 54.2385 159.715 54.1705 159.963 54.0345C160.211 53.8985 160.475 53.7065 160.755 53.4585V51.8385C159.787 51.9585 159.107 52.1385 158.715 52.3785C158.331 52.6185 158.139 52.9265 158.139 53.3025C158.139 53.6305 158.239 53.8705 158.439 54.0225C158.639 54.1665 158.883 54.2385 159.171 54.2385ZM165.11 55.0305C164.694 55.0305 164.298 54.9545 163.922 54.8025C163.546 54.6425 163.218 54.4505 162.938 54.2265L163.43 53.5665C163.686 53.7665 163.95 53.9345 164.222 54.0705C164.494 54.1985 164.802 54.2625 165.146 54.2625C165.53 54.2625 165.818 54.1745 166.01 53.9985C166.202 53.8145 166.298 53.5985 166.298 53.3505C166.298 53.1505 166.23 52.9825 166.094 52.8465C165.966 52.7105 165.798 52.5985 165.59 52.5105C165.39 52.4145 165.182 52.3265 164.966 52.2465C164.694 52.1425 164.426 52.0265 164.162 51.8985C163.898 51.7625 163.682 51.5905 163.514 51.3825C163.346 51.1665 163.262 50.8945 163.262 50.5665C163.262 50.0945 163.438 49.7025 163.79 49.3905C164.15 49.0705 164.646 48.9105 165.278 48.9105C165.638 48.9105 165.974 48.9745 166.286 49.1025C166.598 49.2305 166.866 49.3865 167.09 49.5705L166.61 50.1945C166.41 50.0425 166.202 49.9185 165.986 49.8225C165.77 49.7265 165.534 49.6785 165.278 49.6785C164.91 49.6785 164.638 49.7625 164.462 49.9305C164.294 50.0985 164.21 50.2945 164.21 50.5185C164.21 50.7025 164.27 50.8545 164.39 50.9745C164.51 51.0865 164.666 51.1865 164.858 51.2745C165.05 51.3545 165.254 51.4385 165.47 51.5265C165.75 51.6305 166.026 51.7505 166.298 51.8865C166.57 52.0145 166.794 52.1905 166.97 52.4145C167.154 52.6305 167.246 52.9225 167.246 53.2905C167.246 53.6025 167.162 53.8905 166.994 54.1545C166.834 54.4185 166.594 54.6305 166.274 54.7905C165.962 54.9505 165.574 55.0305 165.11 55.0305ZM171.015 54.8865V49.0545H171.999V54.8865H171.015ZM171.519 47.8545C171.327 47.8545 171.167 47.7985 171.039 47.6865C170.919 47.5665 170.859 47.4065 170.859 47.2065C170.859 47.0145 170.919 46.8585 171.039 46.7385C171.167 46.6185 171.327 46.5585 171.519 46.5585C171.711 46.5585 171.867 46.6185 171.987 46.7385C172.115 46.8585 172.179 47.0145 172.179 47.2065C172.179 47.4065 172.115 47.5665 171.987 47.6865C171.867 47.7985 171.711 47.8545 171.519 47.8545ZM173.968 54.8865V49.0545H174.784L174.868 49.8945H174.904C175.184 49.6145 175.48 49.3825 175.792 49.1985C176.104 49.0065 176.46 48.9105 176.86 48.9105C177.476 48.9105 177.924 49.1065 178.204 49.4985C178.492 49.8825 178.636 50.4465 178.636 51.1905V54.8865H177.652V51.3225C177.652 50.7785 177.564 50.3825 177.388 50.1345C177.212 49.8865 176.932 49.7625 176.548 49.7625C176.252 49.7625 175.984 49.8385 175.744 49.9905C175.512 50.1425 175.248 50.3665 174.952 50.6625V54.8865H173.968ZM182.835 55.0305C182.323 55.0305 181.859 54.9105 181.443 54.6705C181.027 54.4305 180.699 54.0825 180.459 53.6265C180.219 53.1705 180.099 52.6225 180.099 51.9825C180.099 51.3265 180.227 50.7705 180.483 50.3145C180.747 49.8585 181.091 49.5105 181.515 49.2705C181.947 49.0305 182.411 48.9105 182.907 48.9105C183.291 48.9105 183.619 48.9785 183.891 49.1145C184.171 49.2505 184.411 49.4105 184.611 49.5945L184.107 50.2425C183.939 50.0905 183.759 49.9665 183.567 49.8705C183.383 49.7745 183.175 49.7265 182.943 49.7265C182.591 49.7265 182.275 49.8225 181.995 50.0145C181.723 50.1985 181.507 50.4625 181.347 50.8065C181.195 51.1425 181.119 51.5345 181.119 51.9825C181.119 52.6465 181.283 53.1865 181.611 53.6025C181.947 54.0105 182.383 54.2145 182.919 54.2145C183.191 54.2145 183.443 54.1585 183.675 54.0465C183.907 53.9265 184.111 53.7865 184.287 53.6265L184.719 54.2865C184.455 54.5185 184.163 54.7025 183.843 54.8385C183.523 54.9665 183.187 55.0305 182.835 55.0305ZM186.004 54.8865V49.0545H186.82L186.904 50.1105H186.94C187.14 49.7425 187.384 49.4505 187.672 49.2345C187.96 49.0185 188.268 48.9105 188.596 48.9105C188.828 48.9105 189.036 48.9505 189.22 49.0305L189.028 49.8945C188.932 49.8625 188.844 49.8385 188.764 49.8225C188.684 49.8065 188.584 49.7985 188.464 49.7985C188.216 49.7985 187.956 49.8985 187.684 50.0985C187.42 50.2985 187.188 50.6465 186.988 51.1425V54.8865H186.004ZM190.164 54.8865V49.0545H191.148V54.8865H190.164ZM190.5 48.0105L189.996 47.5185L191.688 45.5145L192.384 46.1745L190.5 48.0105ZM194.377 54.8865L192.277 49.0545H193.297L194.401 52.3665C194.489 52.6545 194.577 52.9425 194.665 53.2305C194.761 53.5185 194.853 53.8025 194.941 54.0825H194.989C195.077 53.8025 195.165 53.5185 195.253 53.2305C195.349 52.9425 195.437 52.6545 195.517 52.3665L196.621 49.0545H197.593L195.529 54.8865H194.377ZM201.036 55.0305C200.516 55.0305 200.044 54.9105 199.62 54.6705C199.196 54.4225 198.86 54.0705 198.612 53.6145C198.364 53.1585 198.24 52.6145 198.24 51.9825C198.24 51.3425 198.364 50.7945 198.612 50.3385C198.868 49.8825 199.196 49.5305 199.596 49.2825C199.996 49.0345 200.416 48.9105 200.855 48.9105C201.6 48.9105 202.172 49.1585 202.572 49.6545C202.98 50.1505 203.184 50.8145 203.184 51.6465C203.184 51.7505 203.18 51.8545 203.172 51.9585C203.172 52.0545 203.164 52.1385 203.148 52.2105H199.212C199.252 52.8265 199.444 53.3185 199.788 53.6865C200.14 54.0545 200.596 54.2385 201.156 54.2385C201.436 54.2385 201.692 54.1985 201.924 54.1185C202.164 54.0305 202.392 53.9185 202.608 53.7825L202.956 54.4305C202.708 54.5905 202.424 54.7305 202.104 54.8505C201.792 54.9705 201.436 55.0305 201.036 55.0305ZM199.2 51.5025H202.32C202.32 50.9105 202.192 50.4625 201.936 50.1585C201.688 49.8465 201.336 49.6905 200.88 49.6905C200.472 49.6905 200.104 49.8505 199.776 50.1705C199.456 50.4825 199.264 50.9265 199.2 51.5025ZM204.625 54.8865V49.0545H205.609V54.8865H204.625ZM205.129 47.8545C204.937 47.8545 204.777 47.7985 204.649 47.6865C204.529 47.5665 204.469 47.4065 204.469 47.2065C204.469 47.0145 204.529 46.8585 204.649 46.7385C204.777 46.6185 204.937 46.5585 205.129 46.5585C205.321 46.5585 205.477 46.6185 205.597 46.7385C205.725 46.8585 205.789 47.0145 205.789 47.2065C205.789 47.4065 205.725 47.5665 205.597 47.6865C205.477 47.7985 205.321 47.8545 205.129 47.8545ZM209.102 55.0305C208.686 55.0305 208.29 54.9545 207.914 54.8025C207.538 54.6425 207.21 54.4505 206.93 54.2265L207.422 53.5665C207.678 53.7665 207.942 53.9345 208.214 54.0705C208.486 54.1985 208.794 54.2625 209.138 54.2625C209.522 54.2625 209.81 54.1745 210.002 53.9985C210.194 53.8145 210.29 53.5985 210.29 53.3505C210.29 53.1505 210.222 52.9825 210.086 52.8465C209.958 52.7105 209.79 52.5985 209.582 52.5105C209.382 52.4145 209.174 52.3265 208.958 52.2465C208.686 52.1425 208.418 52.0265 208.154 51.8985C207.89 51.7625 207.674 51.5905 207.506 51.3825C207.338 51.1665 207.254 50.8945 207.254 50.5665C207.254 50.0945 207.43 49.7025 207.782 49.3905C208.142 49.0705 208.638 48.9105 209.27 48.9105C209.63 48.9105 209.966 48.9745 210.278 49.1025C210.59 49.2305 210.858 49.3865 211.082 49.5705L210.602 50.1945C210.402 50.0425 210.194 49.9185 209.978 49.8225C209.762 49.7265 209.526 49.6785 209.27 49.6785C208.902 49.6785 208.63 49.7625 208.454 49.9305C208.286 50.0985 208.202 50.2945 208.202 50.5185C208.202 50.7025 208.262 50.8545 208.382 50.9745C208.502 51.0865 208.658 51.1865 208.85 51.2745C209.042 51.3545 209.246 51.4385 209.462 51.5265C209.742 51.6305 210.018 51.7505 210.29 51.8865C210.562 52.0145 210.786 52.1905 210.962 52.4145C211.146 52.6305 211.238 52.9225 211.238 53.2905C211.238 53.6025 211.154 53.8905 210.986 54.1545C210.826 54.4185 210.586 54.6305 210.266 54.7905C209.954 54.9505 209.566 55.0305 209.102 55.0305ZM213.013 52.5105L212.881 47.9745L212.857 46.8465H213.853L213.829 47.9745L213.697 52.5105H213.013ZM213.361 55.0305C213.161 55.0305 212.989 54.9625 212.845 54.8265C212.709 54.6825 212.641 54.5025 212.641 54.2865C212.641 54.0545 212.709 53.8705 212.845 53.7345C212.989 53.5905 213.161 53.5185 213.361 53.5185C213.553 53.5185 213.717 53.5905 213.853 53.7345C213.997 53.8705 214.069 54.0545 214.069 54.2865C214.069 54.5025 213.997 54.6825 213.853 54.8265C213.717 54.9625 213.553 55.0305 213.361 55.0305Z" fill="#384252"/>
<path d="M261.669 52.1566C260.823 60.2382 260.767 80.6865 267.307 97.8269C263.924 96.1354 262.233 95.7408 259.978 95.2897" stroke="#241249" stroke-width="1.35578" stroke-linecap="round" stroke-linejoin="round"/>
<path d="M287.041 52.1566C287.887 60.2382 287.943 80.6865 281.403 97.8269C284.786 96.1354 286.478 95.7408 288.733 95.2897" stroke="#241249" stroke-width="1.35578" stroke-linecap="round" stroke-linejoin="round"/>
<path d="M285.746 18.463C276.815 3.52647 263.502 12.2265 262.51 18.463C252.785 17.3141 248.781 26.6015 248.533 31.3889C244.19 30.109 237.654 34.9875 236.957 43.2485C236.261 51.5096 242.166 57.1328 252.006 55.2299C257.564 66.4898 269.869 62.6025 275.326 59.2513C286.441 70.2814 294.015 59.8258 296.413 53.2192C298.067 54.2725 302.467 55.4597 306.833 51.783C317.736 40.3761 307.565 28.0247 299.391 28.8037C297.406 19.1524 289.467 17.8885 285.746 18.463Z" fill="#EEE6FC"/>
<path d="M269.926 27.4921V31.5433" stroke="#241249" stroke-width="1.32338" stroke-linecap="round" stroke-linejoin="round"/>
<path d="M278.787 27.4921V31.5433" stroke="#241249" stroke-width="1.32338" stroke-linecap="round" stroke-linejoin="round"/>
<path fill-rule="evenodd" clip-rule="evenodd" d="M237.003 42.7884C237.809 49.3625 243.404 53.4506 252.006 51.7871C257.564 63.047 269.869 59.1597 275.326 55.8085C286.441 66.8386 294.015 56.383 296.414 49.7764C298.067 50.8297 302.467 52.0169 306.833 48.3402C309.653 45.3897 311.063 42.376 311.463 39.5427C311.997 43.2867 310.833 47.5986 306.833 51.7833C302.467 55.46 298.067 54.2727 296.414 53.2195C294.015 59.826 286.441 70.2816 275.326 59.2516C269.869 62.6027 257.564 66.49 252.006 55.2302C242.166 57.133 236.261 51.5099 236.957 43.2488C236.97 43.0941 236.986 42.9407 237.003 42.7884Z" fill="#B89FEA"/>
<path d="M283.05 33.7659C282.683 36.2501 283.286 40.8438 288.629 39.3455" stroke="#241249" stroke-width="1.38139" stroke-linecap="round" stroke-linejoin="round"/>
<path d="M279.988 41.2452C281.096 41.3379 283.479 40.9867 284.154 38.8403" stroke="#241249" stroke-width="1.38139" stroke-linecap="round" stroke-linejoin="round"/>
<path d="M273.268 37.2597C274.489 37.0609 275.232 37.5353 275.567 37.931C275.685 38.07 275.723 38.254 275.723 38.436V44.1377C275.723 44.5225 275.916 44.8818 276.236 45.0948L282.928 49.5393C283.223 49.7353 283.411 50.0559 283.438 50.4091C283.652 53.2354 284.01 58.0191 284.01 58.2433C284.01 58.4831 282.987 59.942 282.475 60.6414C281.554 61.6407 279.467 63.5791 278.485 63.3393C277.924 63.2023 277.403 62.9283 277.002 62.6627C276.582 62.3844 276.036 62.3059 275.583 62.527C274.55 63.0315 273.113 63.6391 272.347 63.6391C271.485 63.6391 270.403 62.4086 269.805 61.5669C269.657 61.3589 269.454 61.1951 269.215 61.1078C267.993 60.6635 265.951 59.8745 265.288 59.4424C264.631 59.0148 265.389 56.1729 265.996 54.3577C266.124 53.9765 266.055 53.5572 265.804 53.2428C264.193 51.2202 261.605 47.8126 261.605 47.152C261.605 46.2527 262.526 45.6532 262.526 44.7539C262.526 43.8546 262.219 42.6555 262.526 41.4564C262.832 40.2574 264.06 40.2574 265.288 39.9576C266.188 39.7378 268.188 39.3334 269.303 39.1135C269.488 39.0771 269.66 38.9952 269.811 38.8825C270.535 38.3437 271.95 37.4742 273.268 37.2597Z" fill="#98E4B4"/>
<path d="M269.288 39.0319C269.999 38.9057 270.451 39.1776 270.678 39.4333C270.79 39.5594 270.822 39.732 270.822 39.9008V43.5498C270.822 43.9183 270.999 44.2644 271.297 44.4805L275.181 47.2926C275.457 47.4922 275.63 47.8034 275.654 48.143C275.788 50.0828 276 53.176 276 53.3247C276 53.4881 275.361 54.4817 275.041 54.9582C274.466 55.6388 273.162 56.9592 272.548 56.7958C272.33 56.7377 272.121 56.6434 271.934 56.5367C271.467 56.2702 270.878 56.1772 270.396 56.4169C269.803 56.7119 269.112 57 268.712 57C268.209 57 267.586 56.2678 267.201 55.704C267.055 55.4898 266.855 55.3162 266.614 55.2196C265.844 54.9102 264.691 54.4183 264.301 54.1414C263.908 53.8619 264.328 52.0678 264.698 50.8308C264.805 50.4723 264.744 50.0841 264.524 49.7815C263.514 48.3922 262 46.2053 262 45.7699C262 45.1574 262.575 44.749 262.575 44.1365C262.575 43.5239 262.384 42.7072 262.575 41.8905C262.767 41.0737 263.534 41.0737 264.301 40.8695C264.833 40.7281 265.978 40.4744 266.69 40.3205C266.884 40.2786 267.063 40.1862 267.22 40.0642C267.693 39.6963 268.517 39.1686 269.288 39.0319Z" fill="#FF5C60"/>
<path d="M275.683 44.819C276.394 44.6928 276.846 44.9647 277.074 45.2205C277.186 45.3466 277.217 45.5191 277.217 45.6879V49.3369C277.217 49.7054 277.394 50.0515 277.692 50.2676L281.577 53.0797C281.852 53.2793 282.025 53.5905 282.049 53.9301C282.183 55.8699 282.395 58.9631 282.395 59.1118C282.395 59.2752 281.756 60.2689 281.436 60.7453C280.861 61.4259 279.557 62.7463 278.943 62.5829C278.725 62.5248 278.516 62.4305 278.329 62.3239C277.862 62.0573 277.273 61.9643 276.791 62.204C276.198 62.499 275.507 62.7871 275.108 62.7871C274.604 62.7871 273.981 62.0549 273.596 61.4911C273.45 61.2769 273.25 61.1033 273.009 61.0067C272.239 60.6974 271.087 60.2054 270.697 59.9285C270.303 59.649 270.723 57.8549 271.093 56.6179C271.2 56.2594 271.139 55.8712 270.919 55.5686C269.909 54.1793 268.395 51.9924 268.395 51.557C268.395 50.9445 268.971 50.5361 268.971 49.9236C268.971 49.311 268.779 48.4943 268.971 47.6776C269.162 46.8608 269.93 46.8608 270.697 46.6567C271.228 46.5152 272.373 46.2615 273.086 46.1076C273.28 46.0657 273.458 45.9733 273.615 45.8513C274.088 45.4834 274.912 44.9557 275.683 44.819Z" fill="#FF5C60"/>
<path fill-rule="evenodd" clip-rule="evenodd" d="M274.531 38.3617C275.45 38.3617 276.346 38.426 277.205 38.5477C277.147 38.7631 277.116 38.9896 277.116 39.2234C277.116 40.3394 277.823 41.2901 278.813 41.6522C278.47 42.0912 278.265 42.6441 278.265 43.2448C278.265 44.6726 279.422 45.83 280.85 45.83C281.662 45.83 282.387 45.4555 282.861 44.8698C283.334 45.4555 284.059 45.83 284.871 45.83C285.402 45.83 285.895 45.6703 286.305 45.3963C286.307 45.445 286.307 45.4938 286.307 45.5428C286.307 47.4159 285.131 49.1216 283.205 50.4001L282.631 60.3372C282.598 60.9119 282.145 61.3734 281.571 61.4167L268.46 62.4062C267.841 62.4529 267.297 61.9999 267.231 61.3829L266.069 50.5374C264.017 49.245 262.754 47.4838 262.754 45.5428C262.754 41.5768 268.026 38.3617 274.531 38.3617Z" fill="#FDBE08"/>
<path d="M295.381 44.1066C299.232 48.6066 305.954 58.9754 302.036 64.4507C298.118 69.9261 287.553 59.867 282.76 54.1531" stroke="#241249" stroke-width="1.38139" stroke-linecap="round" stroke-linejoin="round"/>
<path d="M277.116 51.0644C277.176 52.5175 277.255 54.2084 278.236 55.3939C279.117 56.4587 280.013 55.2085 280.259 54.2916C280.488 53.4382 280.554 52.594 279.984 51.8613C279.764 51.578 279.376 51.1191 279.148 51.6266C278.831 52.3294 278.814 52.9431 279.068 53.6497C279.242 54.1321 279.496 54.8845 280.086 54.9689C281.325 55.1459 282.235 55.0047 282.809 53.7648C283.089 53.1587 283.297 52.3297 283.189 51.6576C283.113 51.1814 282.666 50.9306 282.339 50.6262C281.953 50.2661 281.327 49.5536 280.701 49.7275C280.128 49.8869 280.186 50.3731 280.321 50.8254C280.614 51.8134 282.756 51.7653 283.473 51.4628C284.423 51.0615 284.882 49.6665 283.906 49.0901C283.417 48.8005 282.877 48.6739 282.313 48.6739C282.062 48.6739 281.218 48.5964 281.1 48.8333" stroke="#241249" stroke-width="1.38139" stroke-linecap="round"/>
<path d="M252.786 44.1066C248.935 48.6066 242.212 58.9754 246.13 64.4507C250.049 69.9261 260.614 59.867 265.407 54.1531" stroke="#241249" stroke-width="1.38139" stroke-linecap="round" stroke-linejoin="round"/>
<path d="M271.051 51.0644C270.991 52.5175 270.912 54.2084 269.931 55.3939C269.05 56.4587 268.154 55.2085 267.908 54.2916C267.679 53.4382 267.613 52.594 268.183 51.8613C268.403 51.578 268.791 51.1191 269.019 51.6266C269.335 52.3294 269.353 52.9431 269.099 53.6497C268.925 54.1321 268.671 54.8845 268.081 54.9689C266.842 55.1459 265.932 55.0047 265.358 53.7648C265.078 53.1587 264.869 52.3297 264.977 51.6576C265.054 51.1814 265.5 50.9306 265.827 50.6262C266.214 50.2661 266.839 49.5536 267.465 49.7275C268.039 49.8869 267.981 50.3731 267.846 50.8254C267.552 51.8134 265.411 51.7653 264.694 51.4628C263.744 51.0615 263.285 49.6665 264.26 49.0901C264.75 48.8005 265.29 48.6739 265.854 48.6739C266.105 48.6739 266.949 48.5964 267.067 48.8333" stroke="#241249" stroke-width="1.38139" stroke-linecap="round"/>
</g>
<defs>
<clipPath id="clip0_3559_8217">
<rect width="328" height="76.7731" rx="9" fill="white"/>
</clipPath>
</defs>
</svg>
