<svg width="73" height="56" viewBox="0 0 73 56" fill="none" xmlns="http://www.w3.org/2000/svg">
<path d="M11.263 3.32368C11.263 3.32368 5.93795 0.643359 4.91383 8.11892C4.58312 10.5325 1.43786 12.7613 4.79115 16.6782C6.70871 18.9184 3.64524 21.3107 10.2656 24.9298C12.8312 26.3327 15.8245 26.1575 16.4886 25.8748C18.9217 24.8374 25.9866 32.0124 27.7646 25.121C28.4669 22.3997 32.8834 23.6754 31.1428 17.6214C30.1409 14.1356 34.2711 11.5904 28.4331 8.23716C26.9236 7.37039 29.1025 2.57426 21.5736 2.35645C19.2453 2.28889 15.6876 -1.96851 11.2648 3.32457L11.263 3.32368Z" fill="#6732D1"/>
<path d="M10.3571 13.9151C10.2798 15.3464 10.8176 16.2399 11.7653 16.287C11.7342 16.735 11.7297 17.6382 11.9813 18.4179L10.7714 24.4755C14.2394 29.1685 18.8613 24.7644 18.8613 24.7644L19.128 24.3866L14.9061 20.9978C16.6566 21.9721 18.1358 21.9116 19.1609 21.5712C20.7584 21.0404 21.795 19.7869 22.4955 18.4241C22.5933 18.2348 22.6839 18.0427 22.7684 17.8481C22.8404 17.6809 22.908 17.5138 22.972 17.3449C23.0947 17.024 23.1996 16.7004 23.2902 16.3839C23.3525 16.1661 23.4085 15.9518 23.4583 15.7402C23.4947 15.5909 23.5267 15.4442 23.5569 15.2993C23.8894 13.6876 23.9188 13.1444 23.8894 12.4181C23.8014 10.2285 22.5995 8.23979 21.0624 8.10911C19.5049 7.97754 19.6285 9.31014 16.4628 9.38481C14.4563 9.43282 13.8865 10.9797 13.4553 12.6954C13.3424 13.1453 13.1486 13.316 12.9414 13.2742C12.8019 13.2457 12.657 13.1195 12.5263 12.9168C12.4418 12.7923 12.3476 12.6537 12.232 12.4981C11.6524 11.722 10.4612 12.0198 10.358 13.9142L10.3571 13.9151Z" fill="#FDB98E"/>
<path d="M51.6003 51.3817C53.8228 51.0004 53.1561 44.3107 51.4225 44.3107C48.5751 45.7304 47.8434 51.2342 51.6003 51.3817Z" fill="#371D15"/>
<path d="M4.37164 54.1687L5.15574 50.6563C5.46777 50.5808 26.3298 50.7017 26.3298 50.7017L26.8632 53.9909C19.986 55.1057 10.7813 55.5307 4.37164 54.1687V54.1687Z" fill="#371D15"/>
<path d="M62.9938 51.0609C62.9938 51.18 62.9778 51.2974 62.9475 51.4129L50.3176 51.4147C50.2865 51.2992 50.2704 51.1809 50.2704 51.0609C50.2704 49.4607 53.1188 48.1646 56.6321 48.1646C60.1454 48.1646 62.9938 49.4616 62.9938 51.0609Z" fill="#FFE59A"/>
<path d="M48.6436 46.879C48.6996 46.8363 51.3745 46.2851 52.3009 46.2149C54.4167 46.0549 56.4818 46.3883 57.089 46.5234C59.4893 47.0568 61.8896 48.2125 62.5225 48.9361C62.7235 49.1655 62.2452 49.8127 61.3633 49.4028C61.5349 49.6349 61.1659 50.4056 60.1125 49.9016C58.5834 49.1708 58.1567 48.9237 57.5344 48.7459C57.0828 48.617 55.223 48.5681 55.1341 49.1904C55.0781 49.5842 57.5051 49.5424 57.9789 49.6349C58.4065 49.7184 58.5825 49.8864 58.5674 50.2109C58.5567 50.4501 58.3709 50.6839 57.7122 50.7017C56.1253 50.7443 53.021 50.867 51.339 50.7799C50.154 50.7763 49.0685 50.7239 49.0685 50.7239L48.6444 46.879H48.6436Z" fill="#FDB98E"/>
<path d="M51.4226 44.3063C51.4226 44.3063 38.6868 42.9675 38.0645 42.7008C37.6245 42.5123 31.95 31.8132 29.1026 28.2724C26.104 24.543 22.5809 24.1528 18.9005 23.7678C16.782 24.8346 13.3807 25.1075 10.8995 23.8612C8.46101 23.8541 4.01603 25.0986 2.59364 26.4321C1.21481 27.7247 -0.162247 29.9881 0.0155521 34.2553C0.136455 37.1676 0.0155521 38.2558 0.993447 44.6565C1.35705 47.0355 1.61574 48.1236 2.799 49.2438L2.68254 52.3019C11.9592 53.6496 25.6408 51.7854 27.6633 51.4129L26.2409 42.1674L30.8139 49.266C31.6762 50.6048 33.1591 51.4129 34.7513 51.4129H51.6004C49.8126 51.4129 50.1113 45.3286 51.4226 44.3063Z" fill="#8BE091"/>
<path d="M25.7074 38.6113L26.2408 42.1673L30.0635 48.1014L25.7074 38.6113Z" fill="#371D15"/>
<path d="M12.9949 51.373L7.48309 51.413L14.684 42.6119L12.9949 51.373Z" fill="#371D15"/>
<path d="M18.7734 29.8103C19.1103 28.2635 13.2661 25.1271 13.1852 26.5833C13.5701 30.4975 17.4301 33.5886 18.7734 29.8103Z" fill="#371D15"/>
<path d="M15.9898 19.859C14.7417 20.3595 13.3406 21.7392 13.1753 22.3553C13.1388 22.445 13.1273 22.5295 13.113 22.6042C12.6837 24.9218 12.1174 28.8547 12.1174 28.8547C13.6153 31.2025 16.7881 32 16.381 30.8718L17.4033 25.2267C17.4033 25.2267 17.686 24.6346 17.975 24.0106C18.2861 24.183 18.6897 24.1244 18.9449 23.847C19.2444 23.5216 18.84 22.5677 18.383 21.6636C18.383 21.6618 18.3812 21.661 18.3812 21.6601C17.5189 20.0581 16.7161 19.5683 15.9898 19.8598V19.859Z" fill="#FDB98E"/>
<path d="M12.6446 24.5368L12.7117 24.5474C12.7059 24.5839 12.7303 24.617 12.7655 24.6226L12.7656 24.6226C12.8012 24.6283 12.835 24.6038 12.8406 24.5688L12.8406 24.5685C12.966 23.802 13.079 23.1446 13.1769 22.6159C13.1769 22.6159 13.1769 22.6158 13.1769 22.6157L13.183 22.5818C13.1935 22.5216 13.2059 22.4515 13.2342 22.3814L13.2361 22.3755L13.2382 22.3693C13.2795 22.2176 13.398 22.0211 13.5644 21.8081C13.733 21.5922 13.956 21.3528 14.2129 21.1158C14.7259 20.6423 15.3796 20.1733 16.0135 19.9194L16.0135 19.9193C16.393 19.7675 16.781 19.8539 17.1661 20.1552C17.5486 20.4544 17.9345 20.9694 18.3229 21.6909L18.3237 21.6924L18.3237 21.6924C18.6133 22.2645 18.8091 22.7254 18.9083 23.0713C18.9579 23.2441 18.9844 23.3915 18.985 23.5114C18.9856 23.6301 18.9608 23.7323 18.8962 23.8023C18.6657 24.0533 18.3001 24.1158 18.0061 23.9536L18.006 23.9535C17.9908 23.9451 17.9722 23.9431 17.9542 23.9489C17.9363 23.9548 17.9222 23.9676 17.9153 23.9832L17.9149 23.9839C17.7726 24.2922 17.6305 24.5944 17.5236 24.8203C17.4702 24.9333 17.4256 25.0272 17.3942 25.0932C17.3628 25.1592 17.3458 25.1948 17.345 25.1965L18.263 21.7231C17.4896 20.2865 16.7411 19.7016 16.0388 19.9825C14.7915 20.4821 13.4518 21.836 13.3033 22.389L13.298 22.405C13.2722 22.4681 13.2606 22.5321 13.25 22.5935L13.2438 22.6281C13.146 23.1562 13.0331 23.8132 12.9077 24.5795C12.8962 24.6524 12.8268 24.7013 12.7548 24.6897C12.6819 24.6781 12.633 24.6097 12.6446 24.5368ZM12.6446 24.5368C12.7699 23.7687 12.8837 23.11 12.9815 22.5792L12.9868 22.5472M12.6446 24.5368L12.7117 24.5477C12.837 23.78 12.9507 23.1217 13.0484 22.5915L13.0484 22.5916L13.0486 22.5904L13.0538 22.559L12.9868 22.5472M12.9868 22.5472L12.9871 22.5458C12.9986 22.4802 13.0129 22.399 13.0473 22.3125L12.9868 22.5472ZM17.1783 20.0022C17.5934 20.3042 18.0146 20.8438 18.4366 21.6275L13.0539 22.5587C13.0654 22.4927 13.0787 22.4174 13.1105 22.3377L13.1108 22.3378L13.1127 22.331C13.1573 22.1724 13.2781 21.9652 13.4596 21.7325C13.64 21.5013 13.8764 21.25 14.146 21.0038C14.6861 20.5108 15.354 20.0433 15.9645 19.7984C16.3635 19.6384 16.7665 19.7026 17.1783 20.0022ZM16.3718 30.9369L16.3718 30.9369L16.3716 30.9369C16.3715 30.9369 16.3715 30.9369 16.3714 30.9369L16.3718 30.9369Z" fill="#371D15" stroke="#F38A6E" stroke-width="0.135981"/>
<path d="M17.5562 20.5355L17.5293 20.473C16.6415 20.8546 15.1248 21.7541 15.0983 21.77L15.0983 21.77C15.0698 21.7873 15.0314 21.7783 15.0131 21.7483C14.9957 21.7198 15.0047 21.6813 15.0348 21.663L15.0351 21.6628C15.035 21.6629 15.0351 21.6628 15.0356 21.6625C15.0363 21.6621 15.0375 21.6614 15.0397 21.6601L15.0536 21.6519L15.1056 21.6212C15.1504 21.5949 15.2149 21.5572 15.2948 21.5109C15.4545 21.4184 15.6759 21.2917 15.925 21.1531C16.4241 20.8754 17.0322 20.5516 17.4808 20.3588L17.4809 20.3587C17.5121 20.3453 17.5484 20.3594 17.5621 20.3915L17.5622 20.3918C17.5675 20.404 17.5686 20.4172 17.5655 20.4305L17.5624 20.4382C17.5561 20.4539 17.5444 20.4665 17.5292 20.4731L17.5562 20.5355ZM17.5562 20.5355C17.5891 20.5212 17.6131 20.4946 17.6255 20.4635L14.9994 21.6049C14.9381 21.6423 14.9177 21.7223 14.955 21.7836C14.9923 21.845 15.0723 21.8654 15.1337 21.8281C15.1452 21.821 16.669 20.9168 17.5562 20.5355Z" fill="#371D15" stroke="#F38A6E" stroke-width="0.135981"/>
<path d="M18.1207 21.4617L18.0939 21.3993C17.2081 21.78 15.8383 22.5171 15.8113 22.5327L15.8113 22.5327C15.7829 22.55 15.7444 22.541 15.7261 22.511C15.7087 22.4825 15.7177 22.444 15.7478 22.4257L15.7481 22.4255C15.7478 22.4257 15.7502 22.4244 15.7553 22.4216C15.7646 22.4166 15.7826 22.4069 15.8099 22.3922C15.8507 22.3704 15.9094 22.339 15.9823 22.3004C16.1282 22.2232 16.3311 22.1169 16.5618 21.9986C17.0236 21.7619 17.5955 21.4784 18.0453 21.2851L18.0455 21.285C18.0767 21.2715 18.113 21.2857 18.1267 21.3177L18.1268 21.318C18.1321 21.3303 18.1331 21.3434 18.13 21.3568L18.127 21.3645C18.1207 21.3802 18.1089 21.3928 18.0937 21.3993L18.1207 21.4617ZM18.1207 21.4617C18.1536 21.4475 18.1776 21.4208 18.1901 21.3897L15.7125 22.3676C15.6511 22.405 15.6307 22.485 15.668 22.5463C15.7053 22.6077 15.7853 22.6281 15.8467 22.5908C15.8582 22.5837 17.2335 21.8431 18.1207 21.4617Z" fill="#371D15" stroke="#F38A6E" stroke-width="0.135981"/>
<path d="M18.6407 22.2129C18.6123 22.1463 18.5358 22.116 18.4701 22.1445L18.6407 22.2129ZM18.6407 22.2129C18.655 22.2458 18.6541 22.2805 18.6425 22.3116L18.6407 22.2129ZM16.4731 23.4154L16.4731 23.4154L18.5773 22.292C18.5706 22.3055 18.5598 22.3162 18.5462 22.3221L18.5732 22.3845L18.5463 22.322C18.0995 22.5141 17.5831 22.7866 17.178 23.0111C16.9751 23.1235 16.7998 23.2242 16.6744 23.2971C16.6117 23.3336 16.5615 23.3631 16.5266 23.3838C16.4899 23.4054 16.473 23.4155 16.4731 23.4154Z" fill="#371D15" stroke="#F38A6E" stroke-width="0.135981"/>
<path d="M7.08396 51.3754C10.0656 51.475 12.0446 49.3059 13.8572 44.8022C16.2371 38.8904 18.7725 29.8102 18.7725 29.8102C18.3084 30.7623 12.225 29.2457 12.2828 27.4099L7.03773 36.5666C7.03773 36.5666 5.44287 51.3212 7.08396 51.3754V51.3754Z" fill="#8BE091"/>
<path d="M6.84125 36.5908L10.7528 30.1011C10.7911 30.038 10.7706 29.9562 10.7075 29.918C10.6444 29.8797 10.5626 29.9002 10.5244 29.9633L6.84125 36.5908ZM6.84125 36.5908C6.81636 36.6325 6.77191 36.6556 6.72657 36.6556C6.70346 36.6556 6.67945 36.6494 6.65812 36.6361L6.84125 36.5908ZM6.69415 36.5784L6.69334 36.5779C6.66206 36.559 6.65233 36.5189 6.67093 36.4882L6.67101 36.4881L10.5825 29.9985C10.5825 29.9985 10.5825 29.9985 10.5825 29.9985C10.6015 29.9672 10.6416 29.9575 10.6723 29.9761C10.7035 29.9951 10.7133 30.0351 10.6947 30.0659L10.6946 30.066L6.78302 36.5557L6.78284 36.556C6.77082 36.5761 6.74917 36.5877 6.72657 36.5877C6.7155 36.5877 6.7041 36.5847 6.69415 36.5784Z" fill="#371D15" stroke="#291454" stroke-width="0.135981"/>
<path d="M69.2309 40.2222H31.1331L34.0401 16.0406H72.138L69.2309 40.2222Z" fill="#FFD457"/>
<path d="M50.3567 27.8547L43.3781 40.2118H52.8761L50.3567 27.8547Z" fill="#371D15"/>
<path d="M53.2424 51.3819H57.298L54.0381 27.2003H49.9825L53.2424 51.3819Z" fill="#FFE59A"/>
</svg>
