<svg width="328" height="120" viewBox="0 0 328 120" fill="none" xmlns="http://www.w3.org/2000/svg">
<rect width="328" height="120" rx="8" fill="white"/>
<g clip-path="url(#clip0_123_1385)">
<path d="M262.486 23.4084C251.861 5.63741 236.022 15.9884 234.841 23.4084C223.271 22.0414 218.507 33.0913 218.212 38.7872C213.045 37.2644 205.268 43.0686 204.44 52.8974C203.611 62.7261 210.637 69.4163 222.344 67.1524C228.956 80.549 243.596 75.924 250.09 71.9369C263.313 85.0601 272.325 72.6204 275.178 64.7601C277.146 66.0132 282.38 67.4258 287.575 63.0514C300.547 49.4798 288.446 34.7846 278.72 35.7114C276.359 24.2286 266.914 22.7249 262.486 23.4084Z" fill="#EEE6FC"/>
<path fill-rule="evenodd" clip-rule="evenodd" d="M204.493 52.3495C205.453 60.1711 212.11 65.035 222.344 63.0558C228.956 76.4524 243.596 71.8274 250.09 67.8403C263.313 80.9635 272.325 68.5238 275.178 60.6636C277.146 61.9167 282.38 63.3292 287.575 58.9548C290.931 55.4445 292.608 51.8589 293.084 48.4879C293.719 52.9424 292.334 58.0725 287.575 63.0513C282.38 67.4257 277.146 66.0132 275.178 64.7601C272.325 72.6203 263.313 85.06 250.09 71.9368C243.596 75.9239 228.956 80.5489 222.344 67.1523C210.637 69.4163 203.611 62.726 204.44 52.8973C204.455 52.7133 204.473 52.5307 204.493 52.3495Z" fill="#B89FEA"/>
<path d="M237.134 62.8036C226.29 78.653 209.518 107.182 229.183 94.5023L242.65 84.1517L240.297 94.5023" stroke="#241249" stroke-width="1.64353" stroke-linecap="round" stroke-linejoin="round"/>
<path d="M264.353 62.1418C266.578 70.5729 269.545 78.3169 268.831 88.6285C268.467 93.8968 263.055 102.333 262.406 103.389L269.545 107.836" stroke="#241249" stroke-width="1.64353" stroke-linecap="round" stroke-linejoin="round"/>
<path d="M217.627 43.5898C203.56 49.7036 177.715 58.986 186.873 47.2052C196.031 35.4245 199.358 36.1825 199.877 38.0341C200.377 39.9475 198.034 41.3991 196.8 41.8857" stroke="#241249" stroke-width="1.64353" stroke-linecap="round" stroke-linejoin="round"/>
<path d="M280.242 43.5898C294.309 49.7036 320.154 58.986 310.996 47.2052C301.838 35.4245 298.51 36.1825 297.992 38.0341C297.492 39.9475 299.834 41.3991 301.068 41.8857" stroke="#241249" stroke-width="1.64353" stroke-linecap="round" stroke-linejoin="round"/>
<path d="M258.855 31.99C248.977 29.7514 241.766 30.836 238.661 31.8902C238.246 32.0311 238.122 32.5414 238.393 32.886C247.675 44.6905 255.855 38.3215 259.273 32.9694C259.517 32.5871 259.298 32.0902 258.855 31.99Z" fill="#241249"/>
<path d="M257.687 25.8945C256.649 24.3472 254.103 22.1809 252.219 25.8945" stroke="#241249" stroke-width="1.64353" stroke-linecap="round" stroke-linejoin="round"/>
<path d="M246.067 25.8945C245.03 24.3472 242.483 22.1809 240.599 25.8945" stroke="#241249" stroke-width="1.64353" stroke-linecap="round" stroke-linejoin="round"/>
<path d="M296 76.5C296 79.5376 293.538 82 290.5 82C287.462 82 285 79.5376 285 76.5C285 73.4624 287.462 71 290.5 71C293.538 71 296 73.4624 296 76.5Z" fill="#E08C00"/>
<path fill-rule="evenodd" clip-rule="evenodd" d="M290.5 80.9C292.93 80.9 294.9 78.9301 294.9 76.5C294.9 74.0699 292.93 72.1 290.5 72.1C288.07 72.1 286.1 74.0699 286.1 76.5C286.1 78.9301 288.07 80.9 290.5 80.9ZM290.5 82C293.538 82 296 79.5376 296 76.5C296 73.4624 293.538 71 290.5 71C287.462 71 285 73.4624 285 76.5C285 79.5376 287.462 82 290.5 82Z" fill="#FFC500"/>
<path d="M290.2 79.1304V78.4592C289.971 78.4368 289.729 78.3831 289.474 78.2981C289.224 78.2086 289.008 78.0922 288.826 77.949L289.326 77.2845C289.523 77.4098 289.711 77.506 289.887 77.5732C290.069 77.6403 290.254 77.6738 290.441 77.6738C290.863 77.6738 291.074 77.5195 291.074 77.2107C291.074 77.0943 291.024 76.9959 290.925 76.9153C290.826 76.8303 290.699 76.752 290.543 76.6804C290.387 76.6088 290.22 76.535 290.043 76.4589C289.867 76.3828 289.7 76.2956 289.544 76.1971C289.388 76.0987 289.26 75.9801 289.162 75.8413C289.063 75.6981 289.013 75.5259 289.013 75.3245C289.013 74.9933 289.12 74.7204 289.333 74.5056C289.547 74.2863 289.835 74.1453 290.2 74.0827V73.3913H290.957V74.0693C291.206 74.1006 291.425 74.1655 291.612 74.2639C291.799 74.3624 291.968 74.481 292.119 74.6197L291.542 75.1835C291.401 75.0717 291.266 74.9889 291.136 74.9352C291.006 74.877 290.858 74.8479 290.691 74.8479C290.504 74.8479 290.361 74.8815 290.262 74.9486C290.163 75.0157 290.114 75.1253 290.114 75.2775C290.114 75.3849 290.163 75.4766 290.262 75.5527C290.361 75.6243 290.488 75.6937 290.644 75.7608C290.8 75.8279 290.967 75.8973 291.144 75.9689C291.321 76.0405 291.487 76.1277 291.643 76.2307C291.799 76.3336 291.927 76.4589 292.026 76.6066C292.124 76.7498 292.174 76.9288 292.174 77.1436C292.174 77.4658 292.07 77.7432 291.862 77.9759C291.659 78.2041 291.357 78.3563 290.957 78.4323V79.1304H290.2Z" fill="#FFC500"/>
<path d="M289 34.5C289 37.5376 286.538 40 283.5 40C280.462 40 278 37.5376 278 34.5C278 31.4624 280.462 29 283.5 29C286.538 29 289 31.4624 289 34.5Z" fill="#E08C00"/>
<path fill-rule="evenodd" clip-rule="evenodd" d="M283.5 38.9C285.93 38.9 287.9 36.9301 287.9 34.5C287.9 32.0699 285.93 30.1 283.5 30.1C281.07 30.1 279.1 32.0699 279.1 34.5C279.1 36.9301 281.07 38.9 283.5 38.9ZM283.5 40C286.538 40 289 37.5376 289 34.5C289 31.4624 286.538 29 283.5 29C280.462 29 278 31.4624 278 34.5C278 37.5376 280.462 40 283.5 40Z" fill="#FFC500"/>
<path d="M283.2 37.1304V36.4592C282.971 36.4368 282.729 36.3831 282.474 36.2981C282.224 36.2086 282.008 36.0922 281.826 35.949L282.326 35.2845C282.523 35.4098 282.711 35.506 282.887 35.5732C283.069 35.6403 283.254 35.6738 283.441 35.6738C283.863 35.6738 284.074 35.5195 284.074 35.2107C284.074 35.0943 284.024 34.9959 283.925 34.9153C283.826 34.8303 283.699 34.752 283.543 34.6804C283.387 34.6088 283.22 34.535 283.043 34.4589C282.867 34.3828 282.7 34.2956 282.544 34.1971C282.388 34.0987 282.26 33.9801 282.162 33.8413C282.063 33.6981 282.013 33.5259 282.013 33.3245C282.013 32.9933 282.12 32.7204 282.333 32.5056C282.547 32.2863 282.835 32.1453 283.2 32.0827V31.3913H283.957V32.0693C284.206 32.1006 284.425 32.1655 284.612 32.2639C284.799 32.3624 284.968 32.481 285.119 32.6197L284.542 33.1835C284.401 33.0717 284.266 32.9889 284.136 32.9352C284.006 32.877 283.858 32.8479 283.691 32.8479C283.504 32.8479 283.361 32.8815 283.262 32.9486C283.163 33.0157 283.114 33.1253 283.114 33.2775C283.114 33.3849 283.163 33.4766 283.262 33.5527C283.361 33.6243 283.488 33.6937 283.644 33.7608C283.8 33.8279 283.967 33.8973 284.144 33.9689C284.321 34.0405 284.487 34.1277 284.643 34.2307C284.799 34.3336 284.927 34.4589 285.026 34.6066C285.124 34.7498 285.174 34.9288 285.174 35.1436C285.174 35.4658 285.07 35.7432 284.862 35.9759C284.659 36.2041 284.357 36.3563 283.957 36.4323V37.1304H283.2Z" fill="#FFC500"/>
<path d="M210 31.5C210 34.5376 207.538 37 204.5 37C201.462 37 199 34.5376 199 31.5C199 28.4624 201.462 26 204.5 26C207.538 26 210 28.4624 210 31.5Z" fill="#E08C00"/>
<path fill-rule="evenodd" clip-rule="evenodd" d="M204.5 35.9C206.93 35.9 208.9 33.9301 208.9 31.5C208.9 29.0699 206.93 27.1 204.5 27.1C202.07 27.1 200.1 29.0699 200.1 31.5C200.1 33.9301 202.07 35.9 204.5 35.9ZM204.5 37C207.538 37 210 34.5376 210 31.5C210 28.4624 207.538 26 204.5 26C201.462 26 199 28.4624 199 31.5C199 34.5376 201.462 37 204.5 37Z" fill="#FFC500"/>
<path d="M204.2 34.1304V33.4592C203.971 33.4368 203.729 33.3831 203.474 33.2981C203.224 33.2086 203.008 33.0922 202.826 32.949L203.326 32.2845C203.523 32.4098 203.711 32.506 203.887 32.5732C204.069 32.6403 204.254 32.6738 204.441 32.6738C204.863 32.6738 205.074 32.5195 205.074 32.2107C205.074 32.0943 205.024 31.9959 204.925 31.9153C204.826 31.8303 204.699 31.752 204.543 31.6804C204.387 31.6088 204.22 31.535 204.043 31.4589C203.867 31.3828 203.7 31.2956 203.544 31.1971C203.388 31.0987 203.26 30.9801 203.162 30.8413C203.063 30.6981 203.013 30.5259 203.013 30.3245C203.013 29.9933 203.12 29.7204 203.333 29.5056C203.547 29.2863 203.835 29.1453 204.2 29.0827V28.3913H204.957V29.0693C205.206 29.1006 205.425 29.1655 205.612 29.2639C205.799 29.3624 205.968 29.481 206.119 29.6197L205.542 30.1835C205.401 30.0717 205.266 29.9889 205.136 29.9352C205.006 29.877 204.858 29.8479 204.691 29.8479C204.504 29.8479 204.361 29.8815 204.262 29.9486C204.163 30.0157 204.114 30.1253 204.114 30.2775C204.114 30.3849 204.163 30.4766 204.262 30.5527C204.361 30.6243 204.488 30.6937 204.644 30.7608C204.8 30.8279 204.967 30.8973 205.144 30.9689C205.321 31.0405 205.487 31.1277 205.643 31.2307C205.799 31.3336 205.927 31.4589 206.026 31.6066C206.124 31.7498 206.174 31.9288 206.174 32.1436C206.174 32.4658 206.07 32.7432 205.862 32.9759C205.659 33.2041 205.357 33.3563 204.957 33.4323V34.1304H204.2Z" fill="#FFC500"/>
<path d="M297 26.5C297 30.6421 293.642 34 289.5 34C285.358 34 282 30.6421 282 26.5C282 22.3579 285.358 19 289.5 19C293.642 19 297 22.3579 297 26.5Z" fill="#E08C00"/>
<path fill-rule="evenodd" clip-rule="evenodd" d="M289.5 32.5C292.814 32.5 295.5 29.8137 295.5 26.5C295.5 23.1863 292.814 20.5 289.5 20.5C286.186 20.5 283.5 23.1863 283.5 26.5C283.5 29.8137 286.186 32.5 289.5 32.5ZM289.5 34C293.642 34 297 30.6421 297 26.5C297 22.3579 293.642 19 289.5 19C285.358 19 282 22.3579 282 26.5C282 30.6421 285.358 34 289.5 34Z" fill="#FFC500"/>
<path d="M289.09 30.087V29.1716C288.778 29.1411 288.448 29.0679 288.101 28.9519C287.76 28.8299 287.466 28.6712 287.217 28.476L287.898 27.5698C288.168 27.7407 288.423 27.8719 288.665 27.9634C288.913 28.0549 289.165 28.1007 289.42 28.1007C289.995 28.1007 290.282 27.8902 290.282 27.4691C290.282 27.3105 290.215 27.1762 290.08 27.0664C289.945 26.9504 289.771 26.8436 289.559 26.746C289.346 26.6484 289.119 26.5477 288.877 26.4439C288.636 26.3402 288.409 26.2212 288.196 26.087C287.984 25.9527 287.81 25.791 287.675 25.6018C287.54 25.4066 287.473 25.1716 287.473 24.897C287.473 24.4455 287.618 24.0732 287.909 23.7803C288.2 23.4813 288.594 23.2891 289.09 23.2037V22.2609H290.123V23.1854C290.463 23.2281 290.761 23.3166 291.016 23.4508C291.272 23.585 291.502 23.7468 291.708 23.9359L290.921 24.7048C290.729 24.5523 290.545 24.4394 290.367 24.3661C290.19 24.2868 289.988 24.2471 289.761 24.2471C289.505 24.2471 289.31 24.2929 289.175 24.3844C289.041 24.476 288.973 24.6255 288.973 24.833C288.973 24.9794 289.041 25.1045 289.175 25.2082C289.31 25.3059 289.484 25.4005 289.697 25.492C289.91 25.5835 290.137 25.6781 290.378 25.7757C290.619 25.8734 290.846 25.9924 291.059 26.1327C291.272 26.2731 291.446 26.4439 291.58 26.6453C291.715 26.8406 291.783 27.0847 291.783 27.3776C291.783 27.8169 291.641 28.1953 291.357 28.5126C291.08 28.8238 290.669 29.0313 290.123 29.135V30.087H289.09Z" fill="#FFC500"/>
<path d="M222 19.5C222 23.6421 218.642 27 214.5 27C210.358 27 207 23.6421 207 19.5C207 15.3579 210.358 12 214.5 12C218.642 12 222 15.3579 222 19.5Z" fill="#E08C00"/>
<path fill-rule="evenodd" clip-rule="evenodd" d="M214.5 25.5C217.814 25.5 220.5 22.8137 220.5 19.5C220.5 16.1863 217.814 13.5 214.5 13.5C211.186 13.5 208.5 16.1863 208.5 19.5C208.5 22.8137 211.186 25.5 214.5 25.5ZM214.5 27C218.642 27 222 23.6421 222 19.5C222 15.3579 218.642 12 214.5 12C210.358 12 207 15.3579 207 19.5C207 23.6421 210.358 27 214.5 27Z" fill="#FFC500"/>
<path d="M214.09 23.087V22.1716C213.778 22.1411 213.448 22.0679 213.101 21.9519C212.76 21.8299 212.466 21.6712 212.217 21.476L212.898 20.5698C213.168 20.7407 213.423 20.8719 213.665 20.9634C213.913 21.0549 214.165 21.1007 214.42 21.1007C214.995 21.1007 215.282 20.8902 215.282 20.4691C215.282 20.3105 215.215 20.1762 215.08 20.0664C214.945 19.9504 214.771 19.8436 214.559 19.746C214.346 19.6484 214.119 19.5477 213.877 19.4439C213.636 19.3402 213.409 19.2212 213.196 19.087C212.984 18.9527 212.81 18.791 212.675 18.6018C212.54 18.4066 212.473 18.1716 212.473 17.897C212.473 17.4455 212.618 17.0732 212.909 16.7803C213.2 16.4813 213.594 16.2891 214.09 16.2037V15.2609H215.123V16.1854C215.463 16.2281 215.761 16.3166 216.016 16.4508C216.272 16.585 216.502 16.7468 216.708 16.9359L215.921 17.7048C215.729 17.5523 215.545 17.4394 215.367 17.3661C215.19 17.2868 214.988 17.2471 214.761 17.2471C214.505 17.2471 214.31 17.2929 214.175 17.3844C214.041 17.476 213.973 17.6255 213.973 17.833C213.973 17.9794 214.041 18.1045 214.175 18.2082C214.31 18.3059 214.484 18.4005 214.697 18.492C214.91 18.5835 215.137 18.6781 215.378 18.7757C215.619 18.8734 215.846 18.9924 216.059 19.1327C216.272 19.2731 216.446 19.4439 216.58 19.6453C216.715 19.8406 216.783 20.0847 216.783 20.3776C216.783 20.8169 216.641 21.1953 216.357 21.5126C216.08 21.8238 215.669 22.0313 215.123 22.135V23.087H214.09Z" fill="#FFC500"/>
</g>
<path d="M22.84 36.84C23.7333 36.84 24.44 36.4533 24.96 35.68C25.48 34.8933 25.74 33.8067 25.74 32.42C25.74 31.1133 25.48 30.0933 24.96 29.36C24.44 28.6267 23.7333 28.26 22.84 28.26C21.9467 28.26 21.24 28.6267 20.72 29.36C20.2 30.0933 19.94 31.1133 19.94 32.42C19.94 33.8067 20.2 34.8933 20.72 35.68C21.24 36.4533 21.9467 36.84 22.84 36.84ZM27.14 42.64C25.7667 42.64 24.6 42.3 23.64 41.62C22.68 40.9533 21.9667 40.1133 21.5 39.1C20.1133 38.8067 19 38.08 18.16 36.92C17.3333 35.76 16.92 34.26 16.92 32.42C16.92 30.9933 17.1667 29.7867 17.66 28.8C18.1667 27.8 18.86 27.04 19.74 26.52C20.6333 25.9867 21.6667 25.72 22.84 25.72C24.0133 25.72 25.04 25.9867 25.92 26.52C26.8133 27.04 27.5067 27.8 28 28.8C28.5067 29.8 28.76 31.0067 28.76 32.42C28.76 34.1667 28.3867 35.6133 27.64 36.76C26.8933 37.8933 25.8867 38.64 24.62 39C24.9267 39.4533 25.34 39.78 25.86 39.98C26.3933 40.18 26.9333 40.28 27.48 40.28C27.76 40.28 28.02 40.2533 28.26 40.2C28.5133 40.16 28.7333 40.1133 28.92 40.06L29.44 42.2C29.2 42.32 28.88 42.42 28.48 42.5C28.0933 42.5933 27.6467 42.64 27.14 42.64ZM33.7519 39.24C32.6719 39.24 31.8852 38.8867 31.3919 38.18C30.9119 37.46 30.6719 36.48 30.6719 35.24V29.08H33.6119V34.86C33.6119 35.5667 33.7119 36.06 33.9119 36.34C34.1119 36.6067 34.4252 36.74 34.8519 36.74C35.2252 36.74 35.5385 36.6533 35.7919 36.48C36.0452 36.3067 36.3185 36.0267 36.6119 35.64V29.08H39.5519V39H37.1519L36.9319 37.62H36.8719C36.4585 38.1133 36.0052 38.5067 35.5119 38.8C35.0185 39.0933 34.4319 39.24 33.7519 39.24ZM46.3791 39.24C45.4324 39.24 44.5791 39.0333 43.8191 38.62C43.0591 38.2067 42.4591 37.6133 42.0191 36.84C41.5791 36.0667 41.3591 35.1333 41.3591 34.04C41.3591 32.96 41.5791 32.0333 42.0191 31.26C42.4724 30.4867 43.0591 29.8933 43.7791 29.48C44.4991 29.0533 45.2524 28.84 46.0391 28.84C46.9857 28.84 47.7657 29.0533 48.3791 29.48C49.0057 29.8933 49.4724 30.46 49.7791 31.18C50.0991 31.8867 50.2591 32.6933 50.2591 33.6C50.2591 33.8533 50.2457 34.1067 50.2191 34.36C50.1924 34.6 50.1657 34.78 50.1391 34.9H44.1991C44.3324 35.62 44.6324 36.1533 45.0991 36.5C45.5657 36.8333 46.1257 37 46.7791 37C47.4857 37 48.1991 36.78 48.9191 36.34L49.8991 38.12C49.3924 38.4667 48.8257 38.74 48.1991 38.94C47.5724 39.14 46.9657 39.24 46.3791 39.24ZM44.1791 32.96H47.7591C47.7591 32.4133 47.6257 31.9667 47.3591 31.62C47.1057 31.26 46.6857 31.08 46.0991 31.08C45.6457 31.08 45.2391 31.24 44.8791 31.56C44.5191 31.8667 44.2857 32.3333 44.1791 32.96ZM59.7145 39.24C58.4879 39.24 57.6079 38.8867 57.0745 38.18C56.5545 37.4733 56.2945 36.5467 56.2945 35.4V31.38H54.9345V29.2L56.4545 29.08L56.7945 26.44H59.2345V29.08H61.6145V31.38H59.2345V35.36C59.2345 35.92 59.3479 36.3267 59.5745 36.58C59.8145 36.82 60.1279 36.94 60.5145 36.94C60.6745 36.94 60.8345 36.92 60.9945 36.88C61.1679 36.84 61.3212 36.7933 61.4545 36.74L61.9145 38.88C61.6612 38.96 61.3479 39.04 60.9745 39.12C60.6145 39.2 60.1945 39.24 59.7145 39.24ZM65.4602 39.24C64.5535 39.24 63.8335 38.9533 63.3002 38.38C62.7668 37.7933 62.5002 37.08 62.5002 36.24C62.5002 35.2 62.9402 34.3867 63.8202 33.8C64.7002 33.2133 66.1202 32.82 68.0802 32.62C68.0535 32.18 67.9202 31.8333 67.6802 31.58C67.4535 31.3133 67.0668 31.18 66.5202 31.18C66.1068 31.18 65.6868 31.26 65.2602 31.42C64.8335 31.58 64.3802 31.8 63.9002 32.08L62.8402 30.14C63.4668 29.7533 64.1335 29.44 64.8402 29.2C65.5602 28.96 66.3068 28.84 67.0802 28.84C68.3468 28.84 69.3202 29.2067 70.0002 29.94C70.6802 30.6733 71.0202 31.8 71.0202 33.32V39H68.6202L68.4202 37.98H68.3402C67.9268 38.3533 67.4802 38.66 67.0002 38.9C66.5335 39.1267 66.0202 39.24 65.4602 39.24ZM66.4602 36.96C66.7935 36.96 67.0802 36.8867 67.3202 36.74C67.5735 36.58 67.8268 36.3733 68.0802 36.12V34.38C67.0402 34.5133 66.3202 34.7267 65.9202 35.02C65.5202 35.3 65.3202 35.6333 65.3202 36.02C65.3202 36.34 65.4202 36.58 65.6202 36.74C65.8335 36.8867 66.1135 36.96 66.4602 36.96ZM76.007 39.24C74.9937 39.24 74.287 38.94 73.887 38.34C73.5004 37.7267 73.307 36.92 73.307 35.92V24.98H76.247V36.04C76.247 36.3467 76.3004 36.56 76.407 36.68C76.527 36.8 76.647 36.86 76.767 36.86C76.8337 36.86 76.887 36.86 76.927 36.86C76.9804 36.8467 77.047 36.8333 77.127 36.82L77.487 39C77.327 39.0667 77.1204 39.12 76.867 39.16C76.627 39.2133 76.3404 39.24 76.007 39.24ZM86.1736 43.22C85.4003 43.22 84.7003 43.1333 84.0736 42.96C83.4469 42.7867 82.9469 42.5133 82.5736 42.14C82.2003 41.7667 82.0136 41.2867 82.0136 40.7C82.0136 39.9 82.4869 39.2333 83.4336 38.7V38.62C83.1803 38.4467 82.9603 38.2267 82.7736 37.96C82.6003 37.6933 82.5136 37.3533 82.5136 36.94C82.5136 36.58 82.6203 36.2333 82.8336 35.9C83.0469 35.5667 83.3136 35.2933 83.6336 35.08V35C83.2869 34.76 82.9736 34.4133 82.6936 33.96C82.4269 33.5067 82.2936 32.9933 82.2936 32.42C82.2936 31.62 82.4869 30.96 82.8736 30.44C83.2603 29.9067 83.7669 29.5067 84.3936 29.24C85.0203 28.9733 85.6869 28.84 86.3936 28.84C86.9803 28.84 87.4936 28.92 87.9336 29.08H91.5536V31.22H89.9736C90.0669 31.3667 90.1403 31.5533 90.1936 31.78C90.2603 32.0067 90.2936 32.2533 90.2936 32.52C90.2936 33.28 90.1203 33.9067 89.7736 34.4C89.4269 34.8933 88.9603 35.26 88.3736 35.5C87.7869 35.74 87.1269 35.86 86.3936 35.86C86.0069 35.86 85.6069 35.7933 85.1936 35.66C84.9536 35.86 84.8336 36.1067 84.8336 36.4C84.8336 36.6533 84.9469 36.84 85.1736 36.96C85.4003 37.08 85.7869 37.14 86.3336 37.14H87.9336C89.1603 37.14 90.0936 37.34 90.7336 37.74C91.3869 38.1267 91.7136 38.7667 91.7136 39.66C91.7136 40.34 91.4869 40.9467 91.0336 41.48C90.5803 42.0267 89.9403 42.4533 89.1136 42.76C88.2869 43.0667 87.3069 43.22 86.1736 43.22ZM86.3936 34.08C86.7803 34.08 87.1003 33.94 87.3536 33.66C87.6203 33.38 87.7536 32.9667 87.7536 32.42C87.7536 31.9 87.6203 31.5067 87.3536 31.24C87.1003 30.96 86.7803 30.82 86.3936 30.82C86.0069 30.82 85.6803 30.9533 85.4136 31.22C85.1603 31.4867 85.0336 31.8867 85.0336 32.42C85.0336 32.9667 85.1603 33.38 85.4136 33.66C85.6803 33.94 86.0069 34.08 86.3936 34.08ZM86.6336 41.38C87.3003 41.38 87.8469 41.26 88.2736 41.02C88.7003 40.78 88.9136 40.4933 88.9136 40.16C88.9136 39.8533 88.7803 39.6467 88.5136 39.54C88.2603 39.4333 87.8869 39.38 87.3936 39.38H86.3736C86.0403 39.38 85.7603 39.3667 85.5336 39.34C85.3203 39.3267 85.1336 39.3 84.9736 39.26C84.6136 39.58 84.4336 39.9067 84.4336 40.24C84.4336 40.6133 84.6336 40.8933 85.0336 41.08C85.4469 41.28 85.9803 41.38 86.6336 41.38ZM95.2461 39.24C94.3394 39.24 93.6194 38.9533 93.0861 38.38C92.5528 37.7933 92.2861 37.08 92.2861 36.24C92.2861 35.2 92.7261 34.3867 93.6061 33.8C94.4861 33.2133 95.9061 32.82 97.8661 32.62C97.8394 32.18 97.7061 31.8333 97.4661 31.58C97.2394 31.3133 96.8528 31.18 96.3061 31.18C95.8928 31.18 95.4728 31.26 95.0461 31.42C94.6194 31.58 94.1661 31.8 93.6861 32.08L92.6261 30.14C93.2528 29.7533 93.9194 29.44 94.6261 29.2C95.3461 28.96 96.0928 28.84 96.8661 28.84C98.1328 28.84 99.1061 29.2067 99.7861 29.94C100.466 30.6733 100.806 31.8 100.806 33.32V39H98.4061L98.2061 37.98H98.1261C97.7128 38.3533 97.2661 38.66 96.7861 38.9C96.3194 39.1267 95.8061 39.24 95.2461 39.24ZM96.2461 36.96C96.5794 36.96 96.8661 36.8867 97.1061 36.74C97.3594 36.58 97.6128 36.3733 97.8661 36.12V34.38C96.8261 34.5133 96.1061 34.7267 95.7061 35.02C95.3061 35.3 95.1061 35.6333 95.1061 36.02C95.1061 36.34 95.2061 36.58 95.4061 36.74C95.6194 36.8867 95.8994 36.96 96.2461 36.96ZM103.093 39V29.08H105.493L105.693 30.34H105.773C106.2 29.94 106.666 29.5933 107.173 29.3C107.693 28.9933 108.286 28.84 108.953 28.84C110.033 28.84 110.813 29.2 111.293 29.92C111.786 30.6267 112.033 31.6 112.033 32.84V39H109.093V33.22C109.093 32.5 108.993 32.0067 108.793 31.74C108.606 31.4733 108.3 31.34 107.873 31.34C107.5 31.34 107.18 31.4267 106.913 31.6C106.646 31.76 106.353 31.9933 106.033 32.3V39H103.093ZM114.338 39V24.98H117.278V28.42L117.138 30.2C117.512 29.8667 117.945 29.56 118.438 29.28C118.945 28.9867 119.532 28.84 120.198 28.84C121.278 28.84 122.058 29.2 122.538 29.92C123.032 30.6267 123.278 31.6 123.278 32.84V39H120.338V33.22C120.338 32.5 120.238 32.0067 120.038 31.74C119.852 31.4733 119.545 31.34 119.118 31.34C118.745 31.34 118.425 31.4267 118.158 31.6C117.892 31.76 117.598 31.9933 117.278 32.3V39H114.338ZM128.064 39.24C127.157 39.24 126.437 38.9533 125.904 38.38C125.371 37.7933 125.104 37.08 125.104 36.24C125.104 35.2 125.544 34.3867 126.424 33.8C127.304 33.2133 128.724 32.82 130.684 32.62C130.657 32.18 130.524 31.8333 130.284 31.58C130.057 31.3133 129.671 31.18 129.124 31.18C128.711 31.18 128.291 31.26 127.864 31.42C127.437 31.58 126.984 31.8 126.504 32.08L125.444 30.14C126.071 29.7533 126.737 29.44 127.444 29.2C128.164 28.96 128.911 28.84 129.684 28.84C130.951 28.84 131.924 29.2067 132.604 29.94C133.284 30.6733 133.624 31.8 133.624 33.32V39H131.224L131.024 37.98H130.944C130.531 38.3533 130.084 38.66 129.604 38.9C129.137 39.1267 128.624 39.24 128.064 39.24ZM129.064 36.96C129.397 36.96 129.684 36.8867 129.924 36.74C130.177 36.58 130.431 36.3733 130.684 36.12V34.38C129.644 34.5133 128.924 34.7267 128.524 35.02C128.124 35.3 127.924 35.6333 127.924 36.02C127.924 36.34 128.024 36.58 128.224 36.74C128.437 36.8867 128.717 36.96 129.064 36.96ZM135.911 39V29.08H138.311L138.511 30.82H138.591C138.951 30.1533 139.384 29.66 139.891 29.34C140.398 29.0067 140.904 28.84 141.411 28.84C141.691 28.84 141.924 28.86 142.111 28.9C142.298 28.9267 142.458 28.9733 142.591 29.04L142.111 31.58C141.938 31.5267 141.764 31.4867 141.591 31.46C141.431 31.4333 141.244 31.42 141.031 31.42C140.658 31.42 140.264 31.56 139.851 31.84C139.451 32.1067 139.118 32.5733 138.851 33.24V39H135.911ZM19.8 63.24C18.8933 63.24 18.1733 62.9533 17.64 62.38C17.1067 61.7933 16.84 61.08 16.84 60.24C16.84 59.2 17.28 58.3867 18.16 57.8C19.04 57.2133 20.46 56.82 22.42 56.62C22.3933 56.18 22.26 55.8333 22.02 55.58C21.7933 55.3133 21.4067 55.18 20.86 55.18C20.4467 55.18 20.0267 55.26 19.6 55.42C19.1733 55.58 18.72 55.8 18.24 56.08L17.18 54.14C17.8067 53.7533 18.4733 53.44 19.18 53.2C19.9 52.96 20.6467 52.84 21.42 52.84C22.6867 52.84 23.66 53.2067 24.34 53.94C25.02 54.6733 25.36 55.8 25.36 57.32V63H22.96L22.76 61.98H22.68C22.2667 62.3533 21.82 62.66 21.34 62.9C20.8733 63.1267 20.36 63.24 19.8 63.24ZM20.8 60.96C21.1333 60.96 21.42 60.8867 21.66 60.74C21.9133 60.58 22.1667 60.3733 22.42 60.12V58.38C21.38 58.5133 20.66 58.7267 20.26 59.02C19.86 59.3 19.66 59.6333 19.66 60.02C19.66 60.34 19.76 60.58 19.96 60.74C20.1733 60.8867 20.4533 60.96 20.8 60.96ZM31.1153 63.24C29.8886 63.24 29.0086 62.8867 28.4753 62.18C27.9553 61.4733 27.6953 60.5467 27.6953 59.4V55.38H26.3353V53.2L27.8553 53.08L28.1953 50.44H30.6353V53.08H33.0153V55.38H30.6353V59.36C30.6353 59.92 30.7486 60.3267 30.9753 60.58C31.2153 60.82 31.5286 60.94 31.9153 60.94C32.0753 60.94 32.2353 60.92 32.3953 60.88C32.5686 60.84 32.722 60.7933 32.8553 60.74L33.3153 62.88C33.062 62.96 32.7486 63.04 32.3753 63.12C32.0153 63.2 31.5953 63.24 31.1153 63.24ZM38.84 63.24C37.8933 63.24 37.04 63.0333 36.28 62.62C35.52 62.2067 34.92 61.6133 34.48 60.84C34.04 60.0667 33.82 59.1333 33.82 58.04C33.82 56.96 34.04 56.0333 34.48 55.26C34.9333 54.4867 35.52 53.8933 36.24 53.48C36.96 53.0533 37.7133 52.84 38.5 52.84C39.4467 52.84 40.2267 53.0533 40.84 53.48C41.4667 53.8933 41.9333 54.46 42.24 55.18C42.56 55.8867 42.72 56.6933 42.72 57.6C42.72 57.8533 42.7067 58.1067 42.68 58.36C42.6533 58.6 42.6267 58.78 42.6 58.9H36.66C36.7933 59.62 37.0933 60.1533 37.56 60.5C38.0267 60.8333 38.5867 61 39.24 61C39.9467 61 40.66 60.78 41.38 60.34L42.36 62.12C41.8533 62.4667 41.2867 62.74 40.66 62.94C40.0333 63.14 39.4267 63.24 38.84 63.24ZM36.64 56.96H40.22C40.22 56.4133 40.0867 55.9667 39.82 55.62C39.5667 55.26 39.1467 55.08 38.56 55.08C38.1067 55.08 37.7 55.24 37.34 55.56C36.98 55.8667 36.7467 56.3333 36.64 56.96ZM38.66 51.56L37.22 50.12L40.3 46.48L42.28 48.42L38.66 51.56ZM48.5955 63V49.96H53.2955C54.2155 49.96 55.0555 50.0867 55.8155 50.34C56.5755 50.58 57.1821 50.9933 57.6355 51.58C58.0888 52.1667 58.3155 52.98 58.3155 54.02C58.3155 54.98 58.1021 55.7733 57.6755 56.4C57.2621 57.0133 56.7021 57.4733 55.9955 57.78L58.9555 63H55.6555L53.1555 58.3H51.5355V63H48.5955ZM51.5355 55.96H53.0555C53.8288 55.96 54.4155 55.8 54.8155 55.48C55.2288 55.1467 55.4355 54.66 55.4355 54.02C55.4355 53.38 55.2288 52.9333 54.8155 52.68C54.4155 52.4267 53.8288 52.3 53.0555 52.3H51.5355V55.96ZM63.4211 65.2V63.2C62.8344 63.1333 62.2144 62.9733 61.5611 62.72C60.9211 62.4533 60.3678 62.1067 59.9011 61.68L61.1811 59.7C61.6878 60.0733 62.1678 60.36 62.6211 60.56C63.0878 60.76 63.5611 60.86 64.0411 60.86C65.1211 60.86 65.6611 60.4 65.6611 59.48C65.6611 59.1333 65.5344 58.84 65.2811 58.6C65.0278 58.3467 64.7011 58.1133 64.3011 57.9C63.9011 57.6867 63.4744 57.4667 63.0211 57.24C62.5678 57.0133 62.1411 56.7533 61.7411 56.46C61.3411 56.1667 61.0144 55.8133 60.7611 55.4C60.5078 54.9733 60.3811 54.46 60.3811 53.86C60.3811 52.8733 60.6544 52.06 61.2011 51.42C61.7478 50.7667 62.4878 50.3467 63.4211 50.16V48.1H65.3611V50.12C66.0011 50.2133 66.5611 50.4067 67.0411 50.7C67.5211 50.9933 67.9544 51.3467 68.3411 51.76L66.8611 53.44C66.5011 53.1067 66.1544 52.86 65.8211 52.7C65.4878 52.5267 65.1078 52.44 64.6811 52.44C64.2011 52.44 63.8344 52.54 63.5811 52.74C63.3278 52.94 63.2011 53.2667 63.2011 53.72C63.2011 54.04 63.3278 54.3133 63.5811 54.54C63.8344 54.7533 64.1611 54.96 64.5611 55.16C64.9611 55.36 65.3878 55.5667 65.8411 55.78C66.2944 55.9933 66.7211 56.2533 67.1211 56.56C67.5211 56.8667 67.8478 57.24 68.1011 57.68C68.3544 58.1067 68.4811 58.64 68.4811 59.28C68.4811 60.24 68.2144 61.0667 67.6811 61.76C67.1611 62.44 66.3878 62.8933 65.3611 63.12V65.2H63.4211ZM70.8875 63V60.62H73.6475V53.28H71.2675V51.46C71.9608 51.3267 72.5475 51.1667 73.0275 50.98C73.5075 50.7933 73.9742 50.5667 74.4275 50.3H76.5875V60.62H78.9675V63H70.8875ZM82.8539 63.24C82.3472 63.24 81.9206 63.0667 81.5739 62.72C81.2406 62.36 81.0739 61.92 81.0739 61.4C81.0739 60.8667 81.2406 60.4267 81.5739 60.08C81.9206 59.72 82.3472 59.54 82.8539 59.54C83.3606 59.54 83.7806 59.72 84.1139 60.08C84.4606 60.4267 84.6339 60.8667 84.6339 61.4C84.6339 61.92 84.4606 62.36 84.1139 62.72C83.7806 63.0667 83.3606 63.24 82.8539 63.24ZM90.93 63.24C89.57 63.24 88.47 62.6733 87.63 61.54C86.8033 60.4067 86.39 58.76 86.39 56.6C86.39 54.44 86.8033 52.8133 87.63 51.72C88.47 50.6133 89.57 50.06 90.93 50.06C92.29 50.06 93.3833 50.6133 94.21 51.72C95.05 52.8133 95.47 54.44 95.47 56.6C95.47 58.76 95.05 60.4067 94.21 61.54C93.3833 62.6733 92.29 63.24 90.93 63.24ZM90.93 60.96C91.2633 60.96 91.5633 60.84 91.83 60.6C92.0967 60.3467 92.3033 59.9067 92.45 59.28C92.61 58.6533 92.69 57.76 92.69 56.6C92.69 55.44 92.61 54.5533 92.45 53.94C92.3033 53.3267 92.0967 52.9067 91.83 52.68C91.5633 52.4533 91.2633 52.34 90.93 52.34C90.61 52.34 90.3167 52.4533 90.05 52.68C89.7833 52.9067 89.57 53.3267 89.41 53.94C89.25 54.5533 89.17 55.44 89.17 56.6C89.17 57.76 89.25 58.6533 89.41 59.28C89.57 59.9067 89.7833 60.3467 90.05 60.6C90.3167 60.84 90.61 60.96 90.93 60.96ZM101.296 63.24C99.9364 63.24 98.8364 62.6733 97.9964 61.54C97.1697 60.4067 96.7564 58.76 96.7564 56.6C96.7564 54.44 97.1697 52.8133 97.9964 51.72C98.8364 50.6133 99.9364 50.06 101.296 50.06C102.656 50.06 103.75 50.6133 104.576 51.72C105.416 52.8133 105.836 54.44 105.836 56.6C105.836 58.76 105.416 60.4067 104.576 61.54C103.75 62.6733 102.656 63.24 101.296 63.24ZM101.296 60.96C101.63 60.96 101.93 60.84 102.196 60.6C102.463 60.3467 102.67 59.9067 102.816 59.28C102.976 58.6533 103.056 57.76 103.056 56.6C103.056 55.44 102.976 54.5533 102.816 53.94C102.67 53.3267 102.463 52.9067 102.196 52.68C101.93 52.4533 101.63 52.34 101.296 52.34C100.976 52.34 100.683 52.4533 100.416 52.68C100.15 52.9067 99.9364 53.3267 99.7764 53.94C99.6164 54.5533 99.5364 55.44 99.5364 56.6C99.5364 57.76 99.6164 58.6533 99.7764 59.28C99.9364 59.9067 100.15 60.3467 100.416 60.6C100.683 60.84 100.976 60.96 101.296 60.96ZM111.663 63.24C110.303 63.24 109.203 62.6733 108.363 61.54C107.536 60.4067 107.123 58.76 107.123 56.6C107.123 54.44 107.536 52.8133 108.363 51.72C109.203 50.6133 110.303 50.06 111.663 50.06C113.023 50.06 114.116 50.6133 114.943 51.72C115.783 52.8133 116.203 54.44 116.203 56.6C116.203 58.76 115.783 60.4067 114.943 61.54C114.116 62.6733 113.023 63.24 111.663 63.24ZM111.663 60.96C111.996 60.96 112.296 60.84 112.563 60.6C112.829 60.3467 113.036 59.9067 113.183 59.28C113.343 58.6533 113.423 57.76 113.423 56.6C113.423 55.44 113.343 54.5533 113.183 53.94C113.036 53.3267 112.829 52.9067 112.563 52.68C112.296 52.4533 111.996 52.34 111.663 52.34C111.343 52.34 111.049 52.4533 110.783 52.68C110.516 52.9067 110.303 53.3267 110.143 53.94C109.983 54.5533 109.903 55.44 109.903 56.6C109.903 57.76 109.983 58.6533 110.143 59.28C110.303 59.9067 110.516 60.3467 110.783 60.6C111.049 60.84 111.343 60.96 111.663 60.96ZM119.829 58.38C119.749 57.8333 119.783 57.3467 119.929 56.92C120.076 56.48 120.276 56.0867 120.529 55.74C120.796 55.38 121.069 55.0533 121.349 54.76C121.629 54.4533 121.863 54.16 122.049 53.88C122.249 53.5867 122.349 53.2933 122.349 53C122.349 52.5867 122.223 52.2733 121.969 52.06C121.729 51.8467 121.409 51.74 121.009 51.74C120.636 51.74 120.303 51.8267 120.009 52C119.729 52.1733 119.456 52.3933 119.189 52.66L117.569 51.18C118.036 50.6333 118.596 50.1933 119.249 49.86C119.903 49.5267 120.616 49.36 121.389 49.36C122.109 49.36 122.749 49.48 123.309 49.72C123.883 49.96 124.336 50.3333 124.669 50.84C125.003 51.3467 125.169 51.9933 125.169 52.78C125.169 53.2733 125.069 53.7133 124.869 54.1C124.669 54.4733 124.423 54.82 124.129 55.14C123.836 55.46 123.549 55.78 123.269 56.1C122.989 56.4067 122.763 56.7467 122.589 57.12C122.416 57.48 122.356 57.9 122.409 58.38H119.829ZM121.109 63.24C120.603 63.24 120.183 63.0667 119.849 62.72C119.516 62.36 119.349 61.92 119.349 61.4C119.349 60.8667 119.516 60.4267 119.849 60.08C120.183 59.72 120.603 59.54 121.109 59.54C121.616 59.54 122.036 59.72 122.369 60.08C122.716 60.4267 122.889 60.8667 122.889 61.4C122.889 61.92 122.716 62.36 122.369 62.72C122.036 63.0667 121.616 63.24 121.109 63.24Z" fill="#291454"/>
<path d="M17.17 91V82.472H18.249V91H17.17ZM20.481 91V84.682H21.365L21.456 85.592H21.495C21.7984 85.2887 22.119 85.0373 22.457 84.838C22.795 84.63 23.1807 84.526 23.614 84.526C24.2814 84.526 24.7667 84.7383 25.07 85.163C25.382 85.579 25.538 86.19 25.538 86.996V91H24.472V87.139C24.472 86.5497 24.3767 86.1207 24.186 85.852C23.9954 85.5833 23.692 85.449 23.276 85.449C22.9554 85.449 22.665 85.5313 22.405 85.696C22.1537 85.8607 21.8677 86.1033 21.547 86.424V91H20.481ZM29.7484 91.156C28.9597 91.156 28.3271 90.87 27.8504 90.298C27.3737 89.7173 27.1354 88.9027 27.1354 87.854C27.1354 87.1693 27.2611 86.58 27.5124 86.086C27.7724 85.5833 28.1104 85.1977 28.5264 84.929C28.9511 84.6603 29.4017 84.526 29.8784 84.526C30.2424 84.526 30.5587 84.591 30.8274 84.721C31.0961 84.851 31.3691 85.0287 31.6464 85.254L31.5944 84.175V81.744H32.6734V91H31.7894L31.6984 90.259H31.6594C31.4167 90.5017 31.1307 90.714 30.8014 90.896C30.4721 91.0693 30.1211 91.156 29.7484 91.156ZM29.9824 90.259C30.5371 90.259 31.0744 89.9687 31.5944 89.388V86.086C31.3257 85.8433 31.0657 85.6743 30.8144 85.579C30.5717 85.475 30.3204 85.423 30.0604 85.423C29.7224 85.423 29.4147 85.527 29.1374 85.735C28.8687 85.9343 28.6521 86.216 28.4874 86.58C28.3227 86.9353 28.2404 87.3557 28.2404 87.841C28.2404 88.595 28.3921 89.1887 28.6954 89.622C28.9987 90.0467 29.4277 90.259 29.9824 90.259ZM34.8014 91V84.682H35.8674V91H34.8014ZM35.3474 83.382C35.1394 83.382 34.966 83.3213 34.8274 83.2C34.6974 83.07 34.6324 82.8967 34.6324 82.68C34.6324 82.472 34.6974 82.303 34.8274 82.173C34.966 82.043 35.1394 81.978 35.3474 81.978C35.5554 81.978 35.7244 82.043 35.8544 82.173C35.993 82.303 36.0624 82.472 36.0624 82.68C36.0624 82.8967 35.993 83.07 35.8544 83.2C35.7244 83.3213 35.5554 83.382 35.3474 83.382ZM42.0046 93.665V91.416L42.0566 90.272C41.8052 90.5147 41.5149 90.7227 41.1856 90.896C40.8649 91.0693 40.5226 91.156 40.1586 91.156C39.3699 91.156 38.7372 90.87 38.2606 90.298C37.7839 89.7173 37.5456 88.9027 37.5456 87.854C37.5456 87.1693 37.6712 86.58 37.9226 86.086C38.1826 85.5833 38.5206 85.1977 38.9366 84.929C39.3612 84.6603 39.8119 84.526 40.2886 84.526C40.6526 84.526 40.9732 84.591 41.2506 84.721C41.5279 84.8423 41.8096 85.0287 42.0956 85.28H42.1216L42.2256 84.682H43.0836V93.665H42.0046ZM40.3926 90.259C40.9472 90.259 41.4846 89.9687 42.0046 89.388V86.086C41.7359 85.8433 41.4759 85.6743 41.2246 85.579C40.9819 85.475 40.7306 85.423 40.4706 85.423C40.1326 85.423 39.8249 85.527 39.5476 85.735C39.2789 85.9343 39.0622 86.216 38.8976 86.58C38.7329 86.9353 38.6506 87.3557 38.6506 87.841C38.6506 88.595 38.8022 89.1887 39.1056 89.622C39.4089 90.0467 39.8379 90.259 40.3926 90.259ZM47.0575 91.156C46.3902 91.156 45.9005 90.948 45.5885 90.532C45.2765 90.1073 45.1205 89.492 45.1205 88.686V84.682H46.1995V88.543C46.1995 89.1323 46.2905 89.5613 46.4725 89.83C46.6632 90.0987 46.9665 90.233 47.3825 90.233C47.7118 90.233 48.0022 90.1507 48.2535 89.986C48.5135 89.8127 48.7908 89.5397 49.0855 89.167V84.682H50.1515V91H49.2675L49.1765 90.012H49.1375C48.8428 90.3587 48.5308 90.636 48.2015 90.844C47.8722 91.052 47.4908 91.156 47.0575 91.156ZM54.8438 91.156C54.2805 91.156 53.7691 91.026 53.3098 90.766C52.8505 90.4973 52.4865 90.116 52.2178 89.622C51.9491 89.128 51.8148 88.5387 51.8148 87.854C51.8148 87.1607 51.9491 86.567 52.2178 86.073C52.4951 85.579 52.8505 85.1977 53.2838 84.929C53.7171 84.6603 54.1721 84.526 54.6488 84.526C55.4548 84.526 56.0745 84.7947 56.5078 85.332C56.9498 85.8693 57.1708 86.5887 57.1708 87.49C57.1708 87.6027 57.1665 87.7153 57.1578 87.828C57.1578 87.932 57.1491 88.023 57.1318 88.101H52.8678C52.9111 88.7683 53.1191 89.3013 53.4918 89.7C53.8731 90.0987 54.3671 90.298 54.9738 90.298C55.2771 90.298 55.5545 90.2547 55.8058 90.168C56.0658 90.0727 56.3128 89.9513 56.5468 89.804L56.9238 90.506C56.6551 90.6793 56.3475 90.831 56.0008 90.961C55.6628 91.091 55.2771 91.156 54.8438 91.156ZM52.8548 87.334H56.2348C56.2348 86.6927 56.0961 86.2073 55.8188 85.878C55.5501 85.54 55.1688 85.371 54.6748 85.371C54.2328 85.371 53.8341 85.5443 53.4788 85.891C53.1321 86.229 52.9241 86.71 52.8548 87.334ZM63.7916 91.156C63.2802 91.156 62.7992 91.026 62.3486 90.766C61.9066 90.506 61.5469 90.129 61.2696 89.635C61.0009 89.141 60.8666 88.5473 60.8666 87.854C60.8666 87.1433 61.0009 86.541 61.2696 86.047C61.5469 85.553 61.9066 85.176 62.3486 84.916C62.7992 84.656 63.2802 84.526 63.7916 84.526C64.3116 84.526 64.7926 84.656 65.2346 84.916C65.6766 85.176 66.0319 85.553 66.3006 86.047C66.5779 86.541 66.7166 87.1433 66.7166 87.854C66.7166 88.5473 66.5779 89.141 66.3006 89.635C66.0319 90.129 65.6766 90.506 65.2346 90.766C64.7926 91.026 64.3116 91.156 63.7916 91.156ZM63.7916 90.272C64.3376 90.272 64.7752 90.051 65.1046 89.609C65.4426 89.1583 65.6116 88.5733 65.6116 87.854C65.6116 87.126 65.4426 86.5367 65.1046 86.086C64.7752 85.6353 64.3376 85.41 63.7916 85.41C63.2542 85.41 62.8166 85.6353 62.4786 86.086C62.1406 86.5367 61.9716 87.126 61.9716 87.854C61.9716 88.5733 62.1406 89.1583 62.4786 89.609C62.8166 90.051 63.2542 90.272 63.7916 90.272ZM70.502 91V90.35L74.987 83.382H70.905V82.472H76.339V83.109L71.841 90.077H76.378V91H70.502ZM80.2725 91.156C79.7092 91.156 79.1978 91.026 78.7385 90.766C78.2792 90.4973 77.9152 90.116 77.6465 89.622C77.3778 89.128 77.2435 88.5387 77.2435 87.854C77.2435 87.1607 77.3778 86.567 77.6465 86.073C77.9238 85.579 78.2792 85.1977 78.7125 84.929C79.1458 84.6603 79.6008 84.526 80.0775 84.526C80.8835 84.526 81.5032 84.7947 81.9365 85.332C82.3785 85.8693 82.5995 86.5887 82.5995 87.49C82.5995 87.6027 82.5952 87.7153 82.5865 87.828C82.5865 87.932 82.5778 88.023 82.5605 88.101H78.2965C78.3398 88.7683 78.5478 89.3013 78.9205 89.7C79.3018 90.0987 79.7958 90.298 80.4025 90.298C80.7058 90.298 80.9832 90.2547 81.2345 90.168C81.4945 90.0727 81.7415 89.9513 81.9755 89.804L82.3525 90.506C82.0838 90.6793 81.7762 90.831 81.4295 90.961C81.0915 91.091 80.7058 91.156 80.2725 91.156ZM78.2835 87.334H81.6635C81.6635 86.6927 81.5248 86.2073 81.2475 85.878C80.9788 85.54 80.5975 85.371 80.1035 85.371C79.6615 85.371 79.2628 85.5443 78.9075 85.891C78.5608 86.229 78.3528 86.71 78.2835 87.334ZM84.1607 91V84.682H85.0447L85.1357 85.592H85.1747C85.4781 85.2887 85.7987 85.0373 86.1367 84.838C86.4747 84.63 86.8604 84.526 87.2937 84.526C87.9611 84.526 88.4464 84.7383 88.7497 85.163C89.0617 85.579 89.2177 86.19 89.2177 86.996V91H88.1517V87.139C88.1517 86.5497 88.0564 86.1207 87.8657 85.852C87.6751 85.5833 87.3717 85.449 86.9557 85.449C86.6351 85.449 86.3447 85.5313 86.0847 85.696C85.8334 85.8607 85.5474 86.1033 85.2267 86.424V91H84.1607ZM91.2701 91V81.744H92.3231V88.01H92.3621L95.0531 84.682H96.2361L94.1171 87.217L96.5221 91H95.3521L93.5061 87.958L92.3231 89.336V91H91.2701ZM98.8376 91.156C98.439 91.156 98.1486 91.0347 97.9666 90.792C97.7933 90.5407 97.7066 90.1853 97.7066 89.726V81.744H98.7726V89.804C98.7726 89.9687 98.803 90.09 98.8636 90.168C98.9243 90.2373 98.9936 90.272 99.0716 90.272C99.1063 90.272 99.1366 90.272 99.1626 90.272C99.1973 90.2633 99.245 90.2547 99.3056 90.246L99.4486 91.052C99.3793 91.0867 99.297 91.1127 99.2016 91.13C99.1063 91.1473 98.985 91.156 98.8376 91.156ZM102.866 91.156C102.199 91.156 101.709 90.948 101.397 90.532C101.085 90.1073 100.929 89.492 100.929 88.686V84.682H102.008V88.543C102.008 89.1323 102.099 89.5613 102.281 89.83C102.472 90.0987 102.775 90.233 103.191 90.233C103.52 90.233 103.811 90.1507 104.062 89.986C104.322 89.8127 104.599 89.5397 104.894 89.167V84.682H105.96V91H105.076L104.985 90.012H104.946C104.651 90.3587 104.339 90.636 104.01 90.844C103.681 91.052 103.299 91.156 102.866 91.156ZM110.886 91.156C110.592 91.156 110.284 91.0867 109.963 90.948C109.651 90.8007 109.357 90.6013 109.079 90.35H109.04L108.949 91H108.091V81.744H109.157V84.266L109.131 85.41C109.417 85.1587 109.729 84.9507 110.067 84.786C110.414 84.6127 110.761 84.526 111.107 84.526C111.931 84.526 112.555 84.8163 112.979 85.397C113.404 85.9777 113.616 86.7577 113.616 87.737C113.616 88.4563 113.486 89.0717 113.226 89.583C112.975 90.0943 112.641 90.4843 112.225 90.753C111.818 91.0217 111.372 91.156 110.886 91.156ZM110.704 90.259C111.224 90.259 111.653 90.038 111.991 89.596C112.338 89.1453 112.511 88.53 112.511 87.75C112.511 87.0567 112.381 86.4977 112.121 86.073C111.87 85.6397 111.445 85.423 110.847 85.423C110.579 85.423 110.306 85.4967 110.028 85.644C109.751 85.7913 109.461 86.0037 109.157 86.281V89.596C109.435 89.8387 109.708 90.012 109.976 90.116C110.254 90.2113 110.496 90.259 110.704 90.259ZM117.879 93.665V84.682H118.763L118.854 85.41H118.893C119.179 85.1673 119.491 84.9593 119.829 84.786C120.176 84.6127 120.536 84.526 120.908 84.526C121.723 84.526 122.343 84.8207 122.767 85.41C123.192 85.9907 123.404 86.7707 123.404 87.75C123.404 88.4607 123.274 89.0717 123.014 89.583C122.763 90.0943 122.429 90.4843 122.013 90.753C121.606 91.0217 121.16 91.156 120.674 91.156C120.38 91.156 120.085 91.091 119.79 90.961C119.504 90.831 119.214 90.6533 118.919 90.428L118.945 91.533V93.665H117.879ZM120.492 90.259C121.012 90.259 121.441 90.038 121.779 89.596C122.126 89.1453 122.299 88.53 122.299 87.75C122.299 87.0567 122.169 86.4977 121.909 86.073C121.658 85.6397 121.233 85.423 120.635 85.423C120.367 85.423 120.094 85.4967 119.816 85.644C119.548 85.7913 119.257 86.0037 118.945 86.281V89.596C119.231 89.8387 119.509 90.012 119.777 90.116C120.046 90.2113 120.284 90.259 120.492 90.259ZM126.369 91.156C125.84 91.156 125.398 91 125.043 90.688C124.696 90.3673 124.523 89.9253 124.523 89.362C124.523 88.6687 124.83 88.14 125.446 87.776C126.07 87.4033 127.053 87.1433 128.397 86.996C128.397 86.7273 128.358 86.4717 128.28 86.229C128.21 85.9863 128.08 85.7913 127.89 85.644C127.708 85.488 127.443 85.41 127.097 85.41C126.733 85.41 126.39 85.4793 126.07 85.618C125.749 85.7567 125.463 85.9127 125.212 86.086L124.796 85.345C125.09 85.1543 125.45 84.9723 125.875 84.799C126.308 84.617 126.776 84.526 127.279 84.526C128.05 84.526 128.609 84.7643 128.956 85.241C129.302 85.709 129.476 86.3373 129.476 87.126V91H128.592L128.501 90.246H128.462C128.167 90.4887 127.842 90.701 127.487 90.883C127.14 91.065 126.767 91.156 126.369 91.156ZM126.681 90.298C126.984 90.298 127.27 90.2243 127.539 90.077C127.807 89.9297 128.093 89.7217 128.397 89.453V87.698C127.348 87.828 126.611 88.023 126.187 88.283C125.771 88.543 125.563 88.8767 125.563 89.284C125.563 89.6393 125.671 89.8993 125.888 90.064C126.104 90.22 126.369 90.298 126.681 90.298ZM131.463 91V84.682H132.347L132.438 85.826H132.477C132.694 85.4273 132.958 85.111 133.27 84.877C133.582 84.643 133.916 84.526 134.271 84.526C134.523 84.526 134.748 84.5693 134.947 84.656L134.739 85.592C134.635 85.5573 134.54 85.5313 134.453 85.514C134.367 85.4967 134.258 85.488 134.128 85.488C133.86 85.488 133.578 85.5963 133.283 85.813C132.997 86.0297 132.746 86.4067 132.529 86.944V91H131.463ZM137.109 91.156C136.58 91.156 136.138 91 135.783 90.688C135.436 90.3673 135.263 89.9253 135.263 89.362C135.263 88.6687 135.571 88.14 136.186 87.776C136.81 87.4033 137.794 87.1433 139.137 86.996C139.137 86.7273 139.098 86.4717 139.02 86.229C138.951 85.9863 138.821 85.7913 138.63 85.644C138.448 85.488 138.184 85.41 137.837 85.41C137.473 85.41 137.131 85.4793 136.81 85.618C136.489 85.7567 136.203 85.9127 135.952 86.086L135.536 85.345C135.831 85.1543 136.19 84.9723 136.615 84.799C137.048 84.617 137.516 84.526 138.019 84.526C138.79 84.526 139.349 84.7643 139.696 85.241C140.043 85.709 140.216 86.3373 140.216 87.126V91H139.332L139.241 90.246H139.202C138.907 90.4887 138.582 90.701 138.227 90.883C137.88 91.065 137.508 91.156 137.109 91.156ZM137.421 90.298C137.724 90.298 138.01 90.2243 138.279 90.077C138.548 89.9297 138.834 89.7217 139.137 89.453V87.698C138.088 87.828 137.352 88.023 136.927 88.283C136.511 88.543 136.303 88.8767 136.303 89.284C136.303 89.6393 136.411 89.8993 136.628 90.064C136.845 90.22 137.109 90.298 137.421 90.298ZM147.367 91.156C146.804 91.156 146.293 91.026 145.833 90.766C145.374 90.4973 145.01 90.116 144.741 89.622C144.473 89.128 144.338 88.5387 144.338 87.854C144.338 87.1607 144.473 86.567 144.741 86.073C145.019 85.579 145.374 85.1977 145.807 84.929C146.241 84.6603 146.696 84.526 147.172 84.526C147.978 84.526 148.598 84.7947 149.031 85.332C149.473 85.8693 149.694 86.5887 149.694 87.49C149.694 87.6027 149.69 87.7153 149.681 87.828C149.681 87.932 149.673 88.023 149.655 88.101H145.391C145.435 88.7683 145.643 89.3013 146.015 89.7C146.397 90.0987 146.891 90.298 147.497 90.298C147.801 90.298 148.078 90.2547 148.329 90.168C148.589 90.0727 148.836 89.9513 149.07 89.804L149.447 90.506C149.179 90.6793 148.871 90.831 148.524 90.961C148.186 91.091 147.801 91.156 147.367 91.156ZM145.378 87.334H148.758C148.758 86.6927 148.62 86.2073 148.342 85.878C148.074 85.54 147.692 85.371 147.198 85.371C146.756 85.371 146.358 85.5443 146.002 85.891C145.656 86.229 145.448 86.71 145.378 87.334ZM151.255 91V84.682H152.139L152.23 85.592H152.269C152.547 85.2887 152.85 85.0373 153.179 84.838C153.509 84.63 153.86 84.526 154.232 84.526C154.718 84.526 155.095 84.6343 155.363 84.851C155.641 85.059 155.844 85.3537 155.974 85.735C156.304 85.3797 156.637 85.0893 156.975 84.864C157.313 84.6387 157.673 84.526 158.054 84.526C158.704 84.526 159.185 84.7383 159.497 85.163C159.818 85.579 159.978 86.19 159.978 86.996V91H158.912V87.139C158.912 86.5497 158.817 86.1207 158.626 85.852C158.436 85.5833 158.141 85.449 157.742 85.449C157.274 85.449 156.746 85.774 156.156 86.424V91H155.09V87.139C155.09 86.5497 154.995 86.1207 154.804 85.852C154.614 85.5833 154.315 85.449 153.907 85.449C153.439 85.449 152.911 85.774 152.321 86.424V91H151.255ZM162.034 93.665V84.682H162.918L163.009 85.41H163.048C163.334 85.1673 163.646 84.9593 163.984 84.786C164.33 84.6127 164.69 84.526 165.063 84.526C165.877 84.526 166.497 84.8207 166.922 85.41C167.346 85.9907 167.559 86.7707 167.559 87.75C167.559 88.4607 167.429 89.0717 167.169 89.583C166.917 90.0943 166.584 90.4843 166.168 90.753C165.76 91.0217 165.314 91.156 164.829 91.156C164.534 91.156 164.239 91.091 163.945 90.961C163.659 90.831 163.368 90.6533 163.074 90.428L163.1 91.533V93.665H162.034ZM164.647 90.259C165.167 90.259 165.596 90.038 165.934 89.596C166.28 89.1453 166.454 88.53 166.454 87.75C166.454 87.0567 166.324 86.4977 166.064 86.073C165.812 85.6397 165.388 85.423 164.79 85.423C164.521 85.423 164.248 85.4967 163.971 85.644C163.702 85.7913 163.412 86.0037 163.1 86.281V89.596C163.386 89.8387 163.663 90.012 163.932 90.116C164.2 90.2113 164.439 90.259 164.647 90.259ZM169.245 91V84.682H170.129L170.22 85.826H170.259C170.475 85.4273 170.74 85.111 171.052 84.877C171.364 84.643 171.697 84.526 172.053 84.526C172.304 84.526 172.529 84.5693 172.729 84.656L172.521 85.592C172.417 85.5573 172.321 85.5313 172.235 85.514C172.148 85.4967 172.04 85.488 171.91 85.488C171.641 85.488 171.359 85.5963 171.065 85.813C170.779 86.0297 170.527 86.4067 170.311 86.944V91H169.245ZM176.186 91.156C175.622 91.156 175.111 91.026 174.652 90.766C174.192 90.4973 173.828 90.116 173.56 89.622C173.291 89.128 173.157 88.5387 173.157 87.854C173.157 87.1607 173.291 86.567 173.56 86.073C173.837 85.579 174.192 85.1977 174.626 84.929C175.059 84.6603 175.514 84.526 175.991 84.526C176.797 84.526 177.416 84.7947 177.85 85.332C178.292 85.8693 178.513 86.5887 178.513 87.49C178.513 87.6027 178.508 87.7153 178.5 87.828C178.5 87.932 178.491 88.023 178.474 88.101H174.21C174.253 88.7683 174.461 89.3013 174.834 89.7C175.215 90.0987 175.709 90.298 176.316 90.298C176.619 90.298 176.896 90.2547 177.148 90.168C177.408 90.0727 177.655 89.9513 177.889 89.804L178.266 90.506C177.997 90.6793 177.689 90.831 177.343 90.961C177.005 91.091 176.619 91.156 176.186 91.156ZM174.197 87.334H177.577C177.577 86.6927 177.438 86.2073 177.161 85.878C176.892 85.54 176.511 85.371 176.017 85.371C175.575 85.371 175.176 85.5443 174.821 85.891C174.474 86.229 174.266 86.71 174.197 87.334ZM181.725 91.156C181.274 91.156 180.845 91.0737 180.438 90.909C180.03 90.7357 179.675 90.5277 179.372 90.285L179.905 89.57C180.182 89.7867 180.468 89.9687 180.763 90.116C181.057 90.2547 181.391 90.324 181.764 90.324C182.18 90.324 182.492 90.2287 182.7 90.038C182.908 89.8387 183.012 89.6047 183.012 89.336C183.012 89.1193 182.938 88.9373 182.791 88.79C182.652 88.6427 182.47 88.5213 182.245 88.426C182.028 88.322 181.803 88.2267 181.569 88.14C181.274 88.0273 180.984 87.9017 180.698 87.763C180.412 87.6157 180.178 87.4293 179.996 87.204C179.814 86.97 179.723 86.6753 179.723 86.32C179.723 85.8087 179.913 85.384 180.295 85.046C180.685 84.6993 181.222 84.526 181.907 84.526C182.297 84.526 182.661 84.5953 182.999 84.734C183.337 84.8727 183.627 85.0417 183.87 85.241L183.35 85.917C183.133 85.7523 182.908 85.618 182.674 85.514C182.44 85.41 182.184 85.358 181.907 85.358C181.508 85.358 181.213 85.449 181.023 85.631C180.841 85.813 180.75 86.0253 180.75 86.268C180.75 86.4673 180.815 86.632 180.945 86.762C181.075 86.8833 181.244 86.9917 181.452 87.087C181.66 87.1737 181.881 87.2647 182.115 87.36C182.418 87.4727 182.717 87.6027 183.012 87.75C183.306 87.8887 183.549 88.0793 183.74 88.322C183.939 88.556 184.039 88.8723 184.039 89.271C184.039 89.609 183.948 89.921 183.766 90.207C183.592 90.493 183.332 90.7227 182.986 90.896C182.648 91.0693 182.227 91.156 181.725 91.156ZM186.976 91.156C186.447 91.156 186.005 91 185.65 90.688C185.303 90.3673 185.13 89.9253 185.13 89.362C185.13 88.6687 185.438 88.14 186.053 87.776C186.677 87.4033 187.661 87.1433 189.004 86.996C189.004 86.7273 188.965 86.4717 188.887 86.229C188.818 85.9863 188.688 85.7913 188.497 85.644C188.315 85.488 188.051 85.41 187.704 85.41C187.34 85.41 186.998 85.4793 186.677 85.618C186.356 85.7567 186.07 85.9127 185.819 86.086L185.403 85.345C185.698 85.1543 186.057 84.9723 186.482 84.799C186.915 84.617 187.383 84.526 187.886 84.526C188.657 84.526 189.216 84.7643 189.563 85.241C189.91 85.709 190.083 86.3373 190.083 87.126V91H189.199L189.108 90.246H189.069C188.774 90.4887 188.449 90.701 188.094 90.883C187.747 91.065 187.375 91.156 186.976 91.156ZM187.288 90.298C187.591 90.298 187.877 90.2243 188.146 90.077C188.415 89.9297 188.701 89.7217 189.004 89.453V87.698C187.955 87.828 187.219 88.023 186.794 88.283C186.378 88.543 186.17 88.8767 186.17 89.284C186.17 89.6393 186.278 89.8993 186.495 90.064C186.712 90.22 186.976 90.298 187.288 90.298ZM193.722 91.156C193.271 91.156 192.842 91.0737 192.435 90.909C192.028 90.7357 191.672 90.5277 191.369 90.285L191.902 89.57C192.179 89.7867 192.465 89.9687 192.76 90.116C193.055 90.2547 193.388 90.324 193.761 90.324C194.177 90.324 194.489 90.2287 194.697 90.038C194.905 89.8387 195.009 89.6047 195.009 89.336C195.009 89.1193 194.935 88.9373 194.788 88.79C194.649 88.6427 194.467 88.5213 194.242 88.426C194.025 88.322 193.8 88.2267 193.566 88.14C193.271 88.0273 192.981 87.9017 192.695 87.763C192.409 87.6157 192.175 87.4293 191.993 87.204C191.811 86.97 191.72 86.6753 191.72 86.32C191.72 85.8087 191.911 85.384 192.292 85.046C192.682 84.6993 193.219 84.526 193.904 84.526C194.294 84.526 194.658 84.5953 194.996 84.734C195.334 84.8727 195.624 85.0417 195.867 85.241L195.347 85.917C195.13 85.7523 194.905 85.618 194.671 85.514C194.437 85.41 194.181 85.358 193.904 85.358C193.505 85.358 193.211 85.449 193.02 85.631C192.838 85.813 192.747 86.0253 192.747 86.268C192.747 86.4673 192.812 86.632 192.942 86.762C193.072 86.8833 193.241 86.9917 193.449 87.087C193.657 87.1737 193.878 87.2647 194.112 87.36C194.415 87.4727 194.714 87.6027 195.009 87.75C195.304 87.8887 195.546 88.0793 195.737 88.322C195.936 88.556 196.036 88.8723 196.036 89.271C196.036 89.609 195.945 89.921 195.763 90.207C195.59 90.493 195.33 90.7227 194.983 90.896C194.645 91.0693 194.225 91.156 193.722 91.156Z" fill="#5A6570"/>
<defs>
<clipPath id="clip0_123_1385">
<rect x="183.868" y="10.7356" width="130.132" height="98.5287" rx="11.4236" fill="white"/>
</clipPath>
</defs>
</svg>
