<svg width="1073" height="359" viewBox="0 0 1073 359" fill="none" xmlns="http://www.w3.org/2000/svg">
<g clip-path="url(#clip0_2112_59)">
<mask id="mask0_2112_59" style="mask-type:luminance" maskUnits="userSpaceOnUse" x="0" y="0" width="1073" height="359">
<path d="M1047.79 0H24.547C10.9901 0 0 10.9901 0 24.547V334.453C0 348.01 10.9901 359 24.547 359H1047.79C1061.35 359 1072.34 348.01 1072.34 334.453V24.547C1072.34 10.9901 1061.35 0 1047.79 0Z" fill="white"/>
</mask>
<g mask="url(#mask0_2112_59)">
<path d="M1047.79 0H24.547C10.9901 0 0 10.9901 0 24.547V334.453C0 348.01 10.9901 359 24.547 359H1047.79C1061.35 359 1072.34 348.01 1072.34 334.453V24.547C1072.34 10.9901 1061.35 0 1047.79 0Z" fill="#FDBE08"/>
<path fill-rule="evenodd" clip-rule="evenodd" d="M1015.42 90.187H1529V97.7638H1015.42C977.08 97.7638 946 73.6822 946 43.9761V-17H955.779V43.9761C955.779 69.4977 982.48 90.187 1015.42 90.187Z" fill="#FECF4A"/>
<path fill-rule="evenodd" clip-rule="evenodd" d="M43.0491 141.958C43.0491 117.887 23.5356 98.3739 -0.535461 98.3739H-56.7975V358.466C-56.7975 382.537 -37.284 402.05 -13.2129 402.05H-0.535461C23.5356 402.05 43.0491 382.537 43.0491 358.466V141.958ZM-63.9437 98.3739V358.466C-63.9437 386.483 -41.2307 409.196 -13.2129 409.196H-0.535461C27.4824 409.196 50.1953 386.483 50.1953 358.466V141.958C50.1953 113.941 27.4824 91.2277 -0.535461 91.2277H-56.7975V-13.4528C-56.7975 -41.4706 -79.5105 -64.1836 -107.528 -64.1836H-167.845V-57.0374H-107.528C-83.4572 -57.0374 -63.9437 -37.5239 -63.9437 -13.4528V91.2277H-167.363V98.3739H-63.9437Z" fill="#FECF4A"/>
<path d="M123.344 121V60.2411H136.994V121H123.344ZM135.329 96.53V85.2105H158.801V96.53H135.329ZM135.329 71.5605V60.2411H159.799V71.5605H135.329ZM160.273 121L180.332 60.2411H202.388L223.196 121H209.047L192.234 69.6462L196.562 71.3941H185.825L190.32 69.6462L173.923 121H160.273ZM175.505 105.935L179.666 94.6156H203.47L207.715 105.935H175.505ZM231.122 121V60.2411H244.772V121H231.122ZM243.107 121V109.015H268.576V121H243.107ZM272.278 121L292.337 60.2411H314.393L335.201 121H321.052L304.239 69.6462L308.567 71.3941H297.83L302.325 69.6462L285.928 121H272.278ZM287.509 105.935L291.671 94.6156H315.475L319.72 105.935H287.509ZM343.127 121V59.7417H356.777V121H343.127ZM379.998 121L362.187 94.8653H377.169L395.812 121H379.998ZM353.115 101.524V90.787H368.096C370.094 90.787 371.814 90.3986 373.257 89.6218C374.755 88.7894 375.892 87.6519 376.669 86.2093C377.501 84.7111 377.918 82.991 377.918 81.0489C377.918 79.1069 377.501 77.4145 376.669 75.9718C375.892 74.4736 374.755 73.3361 373.257 72.5593C371.814 71.727 370.094 71.3108 368.096 71.3108H353.115V59.7417H367.014C372.064 59.7417 376.447 60.5185 380.165 62.0722C383.883 63.5703 386.74 65.8176 388.738 68.8139C390.735 71.8102 391.734 75.5834 391.734 80.1334V81.4651C391.734 85.9596 390.707 89.705 388.654 92.7013C386.657 95.6422 383.799 97.8617 380.082 99.3598C376.419 100.803 372.064 101.524 367.014 101.524H353.115Z" fill="black"/>
<path d="M149.302 199.514C143.809 199.514 139.009 198.57 134.903 196.684C130.852 194.742 127.495 192.217 124.832 189.11C122.168 185.947 120.171 182.534 118.839 178.872C117.563 175.21 116.925 171.686 116.925 168.302V166.471C116.925 162.697 117.591 158.98 118.922 155.318C120.31 151.6 122.363 148.243 125.081 145.247C127.8 142.25 131.185 139.864 135.236 138.089C139.286 136.258 143.975 135.342 149.302 135.342C154.629 135.342 159.317 136.258 163.368 138.089C167.419 139.864 170.803 142.25 173.522 145.247C176.241 148.243 178.294 151.6 179.681 155.318C181.068 158.98 181.762 162.697 181.762 166.471V168.302C181.762 171.686 181.096 175.21 179.765 178.872C178.433 182.534 176.435 185.947 173.772 189.11C171.108 192.217 167.724 194.742 163.618 196.684C159.567 198.57 154.795 199.514 149.302 199.514ZM149.302 186.779C152.187 186.779 154.767 186.28 157.042 185.281C159.373 184.282 161.343 182.895 162.952 181.119C164.616 179.344 165.865 177.291 166.697 174.96C167.529 172.63 167.946 170.133 167.946 167.469C167.946 164.64 167.502 162.059 166.614 159.729C165.782 157.343 164.533 155.29 162.869 153.57C161.259 151.794 159.317 150.435 157.042 149.491C154.767 148.548 152.187 148.077 149.302 148.077C146.416 148.077 143.836 148.548 141.561 149.491C139.286 150.435 137.316 151.794 135.652 153.57C134.043 155.29 132.822 157.343 131.99 159.729C131.157 162.059 130.741 164.64 130.741 167.469C130.741 170.133 131.157 172.63 131.99 174.96C132.822 177.291 134.043 179.344 135.652 181.119C137.316 182.895 139.286 184.282 141.561 185.281C143.836 186.28 146.416 186.779 149.302 186.779ZM217.573 199.514C211.858 199.514 207.003 198.459 203.008 196.351C199.068 194.187 196.072 191.135 194.019 187.195C191.965 183.256 190.939 178.595 190.939 173.212V137.173H204.589V173.712C204.589 176.375 205.088 178.706 206.087 180.703C207.141 182.645 208.612 184.143 210.498 185.198C212.44 186.252 214.799 186.779 217.573 186.779C220.403 186.779 222.761 186.252 224.648 185.198C226.59 184.143 228.06 182.645 229.059 180.703C230.058 178.761 230.557 176.431 230.557 173.712V137.173H244.207V173.212C244.207 178.595 243.181 183.256 241.128 187.195C239.074 191.135 236.078 194.187 232.139 196.351C228.199 198.459 223.344 199.514 217.573 199.514ZM270.123 197.932L251.645 137.173H265.711L280.36 188.444L277.197 186.862H285.687L282.358 188.444L295.924 137.173H309.574L292.345 197.932H270.123ZM318.5 197.932V137.173H332.15V197.932H318.5ZM345.969 197.932V136.674H359.618V197.932H345.969ZM382.84 197.932L365.029 171.797H380.01L398.654 197.932H382.84ZM355.956 178.456V167.719H370.938C372.936 167.719 374.656 167.331 376.098 166.554C377.596 165.722 378.734 164.584 379.511 163.141C380.343 161.643 380.759 159.923 380.759 157.981C380.759 156.039 380.343 154.347 379.511 152.904C378.734 151.406 377.596 150.268 376.098 149.491C374.656 148.659 372.936 148.243 370.938 148.243H355.956V136.674H369.856C374.905 136.674 379.289 137.451 383.007 139.004C386.724 140.502 389.582 142.75 391.579 145.746C393.577 148.742 394.576 152.516 394.576 157.066V158.397C394.576 162.892 393.549 166.637 391.496 169.633C389.499 172.574 386.641 174.794 382.923 176.292C379.261 177.735 374.905 178.456 369.856 178.456H355.956Z" fill="black"/>
<path d="M109.097 260.568L123.138 218.037H138.578L153.143 260.568H143.239L131.47 224.621L134.5 225.844H126.984L130.13 224.621L118.652 260.568H109.097ZM119.759 250.023L122.672 242.099H139.335L142.307 250.023H119.759ZM176.389 261.675C172.543 261.675 169.242 261.015 166.484 259.694C163.726 258.335 161.473 256.568 159.726 254.393C157.978 252.179 156.677 249.809 155.822 247.285C155.006 244.721 154.599 242.235 154.599 239.827V238.545C154.599 235.904 155.026 233.302 155.88 230.738C156.735 228.136 158.036 225.786 159.784 223.689C161.571 221.591 163.804 219.921 166.484 218.678C169.203 217.396 172.407 216.755 176.097 216.755C179.943 216.755 183.341 217.474 186.293 218.911C189.245 220.348 191.595 222.348 193.343 224.912C195.129 227.437 196.178 230.408 196.489 233.826H186.876C186.604 232.117 185.982 230.661 185.011 229.456C184.04 228.252 182.778 227.32 181.224 226.66C179.709 226 178 225.669 176.097 225.669C174.194 225.669 172.504 226 171.028 226.66C169.552 227.32 168.31 228.252 167.3 229.456C166.329 230.661 165.571 232.098 165.027 233.768C164.523 235.399 164.27 237.225 164.27 239.244C164.27 241.225 164.523 243.051 165.027 244.721C165.571 246.352 166.348 247.79 167.358 249.032C168.407 250.237 169.688 251.169 171.203 251.829C172.718 252.451 174.446 252.761 176.389 252.761C179.34 252.761 181.826 252.043 183.846 250.606C185.905 249.168 187.148 247.188 187.575 244.663H197.13C196.78 247.77 195.732 250.625 193.984 253.227C192.275 255.791 189.925 257.849 186.934 259.403C183.982 260.918 180.467 261.675 176.389 261.675ZM223.861 261.675C220.015 261.675 216.656 261.015 213.781 259.694C210.946 258.335 208.596 256.568 206.732 254.393C204.867 252.179 203.469 249.79 202.537 247.226C201.643 244.663 201.197 242.196 201.197 239.827V238.545C201.197 235.904 201.663 233.302 202.595 230.738C203.566 228.136 205.003 225.786 206.906 223.689C208.81 221.591 211.179 219.921 214.014 218.678C216.85 217.396 220.132 216.755 223.861 216.755C227.589 216.755 230.872 217.396 233.707 218.678C236.542 219.921 238.912 221.591 240.815 223.689C242.718 225.786 244.155 228.136 245.126 230.738C246.097 233.302 246.583 235.904 246.583 238.545V239.827C246.583 242.196 246.117 244.663 245.185 247.226C244.252 249.79 242.854 252.179 240.99 254.393C239.125 256.568 236.756 258.335 233.882 259.694C231.046 261.015 227.706 261.675 223.861 261.675ZM223.861 252.761C225.88 252.761 227.687 252.412 229.279 251.713C230.91 251.013 232.289 250.042 233.416 248.799C234.581 247.557 235.455 246.119 236.037 244.488C236.62 242.857 236.911 241.109 236.911 239.244C236.911 237.264 236.601 235.457 235.979 233.826C235.397 232.156 234.523 230.719 233.357 229.515C232.231 228.272 230.872 227.32 229.279 226.66C227.687 226 225.88 225.669 223.861 225.669C221.841 225.669 220.035 226 218.442 226.66C216.85 227.32 215.471 228.272 214.306 229.515C213.179 230.719 212.325 232.156 211.742 233.826C211.16 235.457 210.868 237.264 210.868 239.244C210.868 241.109 211.16 242.857 211.742 244.488C212.325 246.119 213.179 247.557 214.306 248.799C215.471 250.042 216.85 251.013 218.442 251.713C220.035 252.412 221.841 252.761 223.861 252.761ZM253.822 260.568V218.037H263.377V260.568H253.822ZM262.212 260.568V252.179H280.04V260.568H262.212ZM313.81 260.568V218.037H323.365V260.568H313.81ZM286.31 260.568V218.037H295.865V260.568H286.31ZM294.176 243.381V234.991H315.5V243.381H294.176ZM332.908 260.568V218.037H342.23V260.568H332.908ZM341.065 260.568V252.645H359.651V260.568H341.065ZM341.065 242.915V234.991H358.311V242.915H341.065ZM341.065 225.961V218.037H359.243V225.961H341.065ZM367.502 260.568V217.688H377.057V260.568H367.502ZM393.312 260.568L380.844 242.274H391.331L404.381 260.568H393.312ZM374.493 246.935V239.419H384.98C386.378 239.419 387.583 239.147 388.592 238.604C389.641 238.021 390.437 237.225 390.981 236.215C391.564 235.166 391.855 233.962 391.855 232.603C391.855 231.243 391.564 230.058 390.981 229.049C390.437 228 389.641 227.204 388.592 226.66C387.583 226.077 386.378 225.786 384.98 225.786H374.493V217.688H384.223C387.757 217.688 390.826 218.231 393.428 219.319C396.03 220.368 398.031 221.941 399.429 224.038C400.827 226.136 401.527 228.777 401.527 231.962V232.894C401.527 236.04 400.808 238.662 399.371 240.759C397.973 242.818 395.972 244.372 393.37 245.42C390.806 246.43 387.757 246.935 384.223 246.935H374.493Z" fill="black"/>
<path d="M127.091 309.436C124.945 309.436 123.103 309.067 121.564 308.33C120.025 307.572 118.768 306.585 117.793 305.372C116.817 304.136 116.091 302.814 115.614 301.405C115.159 299.975 114.932 298.587 114.932 297.243V296.528C114.932 295.054 115.17 293.602 115.647 292.172C116.124 290.719 116.85 289.408 117.825 288.238C118.822 287.067 120.069 286.135 121.564 285.442C123.081 284.726 124.87 284.369 126.929 284.369C129.075 284.369 130.971 284.77 132.618 285.572C134.266 286.374 135.577 287.49 136.552 288.92C137.549 290.329 138.135 291.987 138.308 293.895H132.943C132.792 292.941 132.445 292.128 131.903 291.456C131.361 290.784 130.657 290.264 129.79 289.896C128.944 289.527 127.991 289.343 126.929 289.343C125.867 289.343 124.924 289.527 124.1 289.896C123.276 290.264 122.583 290.784 122.019 291.456C121.477 292.128 121.055 292.93 120.751 293.862C120.47 294.773 120.329 295.791 120.329 296.918C120.329 298.024 120.47 299.043 120.751 299.975C121.055 300.885 121.488 301.687 122.052 302.38C122.637 303.052 123.352 303.573 124.198 303.941C125.043 304.288 126.008 304.461 127.091 304.461C128.739 304.461 130.126 304.06 131.253 303.258C132.402 302.456 133.095 301.351 133.334 299.942H138.666C138.471 301.676 137.885 303.269 136.91 304.721C135.956 306.152 134.645 307.301 132.976 308.168C131.329 309.013 129.367 309.436 127.091 309.436ZM153.582 309.436C151.437 309.436 149.562 309.067 147.958 308.33C146.376 307.572 145.064 306.585 144.024 305.372C142.983 304.136 142.203 302.803 141.683 301.373C141.184 299.942 140.935 298.566 140.935 297.243V296.528C140.935 295.054 141.195 293.602 141.715 292.172C142.257 290.719 143.059 289.408 144.121 288.238C145.183 287.067 146.506 286.135 148.088 285.442C149.67 284.726 151.502 284.369 153.582 284.369C155.663 284.369 157.495 284.726 159.077 285.442C160.659 286.135 161.981 287.067 163.044 288.238C164.106 289.408 164.908 290.719 165.449 292.172C165.991 293.602 166.262 295.054 166.262 296.528V297.243C166.262 298.566 166.002 299.942 165.482 301.373C164.962 302.803 164.181 304.136 163.141 305.372C162.101 306.585 160.778 307.572 159.175 308.33C157.592 309.067 155.728 309.436 153.582 309.436ZM153.582 304.461C154.71 304.461 155.717 304.266 156.606 303.876C157.516 303.486 158.286 302.944 158.914 302.25C159.565 301.557 160.052 300.755 160.377 299.844C160.703 298.934 160.865 297.959 160.865 296.918C160.865 295.813 160.692 294.805 160.345 293.895C160.02 292.963 159.532 292.161 158.882 291.489C158.253 290.795 157.495 290.264 156.606 289.896C155.717 289.527 154.71 289.343 153.582 289.343C152.455 289.343 151.447 289.527 150.559 289.896C149.67 290.264 148.901 290.795 148.25 291.489C147.622 292.161 147.145 292.963 146.82 293.895C146.495 294.805 146.332 295.813 146.332 296.918C146.332 297.959 146.495 298.934 146.82 299.844C147.145 300.755 147.622 301.557 148.25 302.25C148.901 302.944 149.67 303.486 150.559 303.876C151.447 304.266 152.455 304.461 153.582 304.461ZM170.302 308.818V285.084H177.65L183.079 298.414H183.697L189.062 285.084H196.54V308.818H191.273V288.563L192.02 288.628L185.745 304.006H180.674L174.366 288.628L175.179 288.563V308.818H170.302ZM206.544 302.023V297.406H210.803C211.626 297.406 212.331 297.243 212.916 296.918C213.523 296.593 213.989 296.138 214.314 295.553C214.639 294.946 214.802 294.252 214.802 293.472C214.802 292.648 214.639 291.944 214.314 291.359C213.989 290.752 213.523 290.297 212.916 289.993C212.331 289.668 211.626 289.506 210.803 289.506H206.544V284.889H210.543C212.558 284.889 214.282 285.225 215.712 285.897C217.164 286.569 218.27 287.522 219.028 288.758C219.809 289.993 220.199 291.478 220.199 293.212V293.732C220.199 295.423 219.809 296.897 219.028 298.154C218.27 299.389 217.164 300.343 215.712 301.015C214.282 301.687 212.558 302.023 210.543 302.023H206.544ZM201.862 308.818V284.889H207.194V308.818H201.862ZM219.558 308.818L227.393 285.084H236.009L244.137 308.818H238.61L232.042 288.758L233.733 289.441H229.539L231.295 288.758L224.89 308.818H219.558ZM225.507 302.933L227.133 298.511H236.432L238.09 302.933H225.507ZM247.233 308.818V284.889H252.565V308.818H247.233ZM261.636 308.818L254.678 298.609H260.531L267.813 308.818H261.636ZM251.135 301.21V297.016H256.987C257.767 297.016 258.439 296.864 259.002 296.561C259.588 296.236 260.032 295.791 260.335 295.228C260.661 294.643 260.823 293.971 260.823 293.212C260.823 292.453 260.661 291.792 260.335 291.229C260.032 290.644 259.588 290.199 259.002 289.896C258.439 289.571 257.767 289.408 256.987 289.408H251.135V284.889H256.564C258.536 284.889 260.249 285.192 261.701 285.799C263.153 286.384 264.269 287.262 265.05 288.433C265.83 289.603 266.22 291.077 266.22 292.854V293.375C266.22 295.13 265.819 296.593 265.017 297.764C264.237 298.912 263.121 299.779 261.668 300.365C260.238 300.928 258.536 301.21 256.564 301.21H251.135ZM275.03 308.818V289.083H280.362V308.818H275.03ZM268.365 289.733V285.084H287.059V289.733H268.365ZM290.478 308.818V285.084H295.81V308.818H290.478ZM301.209 308.818V285.084H306.541V308.818H301.209ZM305.89 308.818V304.136H315.839V308.818H305.89ZM334.684 308.818V285.084H340.016V308.818H334.684ZM319.338 308.818V285.084H324.67V308.818H319.338ZM323.727 299.227V294.545H335.627V299.227H323.727ZM343.098 308.818L350.934 285.084H359.549L367.677 308.818H362.15L355.583 288.758L357.273 289.441H353.079L354.835 288.758L348.43 308.818H343.098ZM349.048 302.933L350.673 298.511H359.972L361.63 302.933H349.048ZM370.773 308.818V284.889H376.105V308.818H370.773ZM385.176 308.818L378.219 298.609H384.071L391.354 308.818H385.176ZM374.675 301.21V297.016H380.527C381.307 297.016 381.979 296.864 382.543 296.561C383.128 296.236 383.572 295.791 383.876 295.228C384.201 294.643 384.364 293.971 384.364 293.212C384.364 292.453 384.201 291.792 383.876 291.229C383.572 290.644 383.128 290.199 382.543 289.896C381.979 289.571 381.307 289.408 380.527 289.408H374.675V284.889H380.104C382.077 284.889 383.789 285.192 385.241 285.799C386.694 286.384 387.81 287.262 388.59 288.433C389.37 289.603 389.761 291.077 389.761 292.854V293.375C389.761 295.13 389.36 296.593 388.558 297.764C387.777 298.912 386.661 299.779 385.209 300.365C383.778 300.928 382.077 301.21 380.104 301.21H374.675Z" fill="black"/>
<path d="M566.323 180.117L575.87 152.126H584.766L594.582 180.117H588.984L580.663 155.845L582.619 156.689H577.826L579.82 155.845L571.767 180.117H566.323ZM572.994 172.678L574.72 168.077H586.07L587.757 172.678H572.994ZM598.74 180.117V152.126H604.185V180.117H598.74ZM603.418 180.117V175.324H615.496V180.117H603.418ZM632.447 180.845C630.044 180.845 627.922 180.449 626.082 179.657C624.267 178.839 622.733 177.752 621.48 176.397C620.253 175.017 619.32 173.47 618.681 171.758C618.068 170.019 617.761 168.217 617.761 166.351V165.508C617.761 163.744 618.068 162.018 618.681 160.331C619.295 158.644 620.189 157.123 621.365 155.768C622.567 154.414 624.037 153.34 625.775 152.547C627.539 151.729 629.558 151.32 631.833 151.32C634.287 151.32 636.46 151.781 638.352 152.701C640.243 153.596 641.764 154.861 642.914 156.497C644.065 158.107 644.742 159.986 644.947 162.133H639.464C639.285 160.932 638.837 159.909 638.121 159.066C637.406 158.197 636.498 157.532 635.399 157.072C634.325 156.612 633.137 156.382 631.833 156.382C630.529 156.382 629.341 156.612 628.267 157.072C627.219 157.532 626.324 158.184 625.583 159.028C624.842 159.871 624.267 160.881 623.858 162.057C623.474 163.233 623.282 164.536 623.282 165.968C623.282 167.527 623.5 168.92 623.934 170.147C624.369 171.374 624.982 172.422 625.775 173.291C626.567 174.135 627.526 174.787 628.651 175.247C629.775 175.682 631.041 175.899 632.447 175.899C634.313 175.899 635.949 175.515 637.355 174.749C638.761 173.956 639.783 172.934 640.422 171.681L639.464 176.091V168.882H644.487V175.094C643.285 176.909 641.649 178.327 639.579 179.35C637.508 180.347 635.131 180.845 632.447 180.845ZM631.565 169.956V165.891H646.826V169.956H631.565ZM662.854 180.845C660.247 180.845 658.049 180.347 656.259 179.35C654.47 178.353 653.102 176.96 652.157 175.17C651.236 173.355 650.776 171.234 650.776 168.805V152.126H656.221V169.112C656.221 170.441 656.477 171.617 656.988 172.64C657.499 173.637 658.24 174.416 659.212 174.979C660.209 175.515 661.423 175.784 662.854 175.784C664.26 175.784 665.449 175.515 666.42 174.979C667.417 174.416 668.159 173.637 668.644 172.64C669.156 171.643 669.411 170.467 669.411 169.112V152.126H674.856V168.805C674.856 171.234 674.396 173.355 673.476 175.17C672.581 176.96 671.239 178.353 669.45 179.35C667.66 180.347 665.462 180.845 662.854 180.845ZM681.232 180.117V152.126H690.166L701.937 175.592H703.203L702.436 176.282V152.126H707.574V180.117H698.601L686.83 156.65H685.526L686.293 155.96V180.117H681.232ZM724.031 180.845C721.551 180.845 719.455 180.449 717.742 179.657C716.055 178.864 714.764 177.778 713.869 176.397C712.975 174.991 712.527 173.407 712.527 171.643H717.857C717.857 172.384 718.062 173.113 718.471 173.828C718.88 174.518 719.532 175.081 720.426 175.515C721.346 175.95 722.548 176.167 724.031 176.167C725.36 176.167 726.472 175.976 727.366 175.592C728.261 175.209 728.926 174.71 729.36 174.097C729.795 173.458 730.012 172.742 730.012 171.949C730.012 170.953 729.59 170.16 728.747 169.572C727.903 168.959 726.6 168.575 724.836 168.422L722.382 168.23C719.698 168 717.55 167.169 715.94 165.738C714.355 164.281 713.563 162.364 713.563 159.986C713.563 158.197 713.984 156.663 714.828 155.385C715.672 154.081 716.847 153.084 718.356 152.394C719.889 151.678 721.679 151.32 723.724 151.32C725.845 151.32 727.673 151.691 729.207 152.432C730.741 153.174 731.929 154.222 732.773 155.577C733.617 156.906 734.038 158.478 734.038 160.293H728.708C728.708 159.526 728.517 158.823 728.133 158.184C727.775 157.519 727.226 156.995 726.485 156.612C725.769 156.203 724.849 155.998 723.724 155.998C722.65 155.998 721.755 156.177 721.04 156.535C720.324 156.893 719.787 157.379 719.429 157.992C719.071 158.606 718.892 159.27 718.892 159.986C718.892 160.855 719.212 161.622 719.851 162.287C720.49 162.926 721.5 163.297 722.88 163.399L725.334 163.629C727.328 163.782 729.079 164.204 730.587 164.894C732.096 165.584 733.259 166.517 734.077 167.693C734.92 168.869 735.342 170.288 735.342 171.949C735.342 173.713 734.882 175.273 733.962 176.627C733.041 177.957 731.725 178.992 730.012 179.733C728.325 180.475 726.331 180.845 724.031 180.845ZM754.884 180.117L745.95 152.126H751.586L758.987 176.359L757.376 175.592H761.517L759.869 176.359L766.694 152.126H772.139L763.856 180.117H754.884ZM776.53 180.117V152.126H781.859V180.117H776.53ZM781.092 180.117V175.515H793.784V180.117H781.092ZM781.092 168.192V163.591H792.787V168.192H781.092ZM781.092 156.727V152.126H793.478V156.727H781.092ZM799.371 180.117V151.934H804.816V180.117H799.371ZM816.472 180.117L807.883 167.923H813.98L822.838 180.117H816.472ZM803.205 170.761V166.351H810.337C811.334 166.351 812.191 166.147 812.906 165.738C813.648 165.329 814.223 164.754 814.632 164.012C815.041 163.271 815.245 162.427 815.245 161.482C815.245 160.51 815.041 159.654 814.632 158.913C814.223 158.171 813.648 157.596 812.906 157.187C812.191 156.778 811.334 156.574 810.337 156.574H803.205V151.934H809.762C812.012 151.934 813.955 152.266 815.591 152.931C817.252 153.596 818.53 154.605 819.425 155.96C820.32 157.315 820.767 159.015 820.767 161.06V161.673C820.767 163.744 820.307 165.444 819.387 166.773C818.492 168.102 817.227 169.099 815.591 169.764C813.955 170.428 812.012 170.761 809.762 170.761H803.205ZM831.531 180.308V175.937H838.548C839.826 175.937 840.798 175.592 841.462 174.902C842.127 174.186 842.459 173.215 842.459 171.988C842.459 170.761 842.127 169.815 841.462 169.15C840.798 168.46 839.826 168.115 838.548 168.115H831.531V164.779H838.165C840.031 164.779 841.692 165.009 843.149 165.469C844.632 165.904 845.782 166.645 846.6 167.693C847.444 168.741 847.866 170.147 847.866 171.911V172.448C847.866 174.109 847.495 175.528 846.754 176.704C846.038 177.854 844.951 178.749 843.494 179.388C842.063 180.002 840.286 180.308 838.165 180.308H831.531ZM826.968 180.308V151.934H832.298V180.308H826.968ZM831.531 167.233V163.897H837.513C838.816 163.897 839.775 163.552 840.389 162.862C841.002 162.172 841.309 161.252 841.309 160.101C841.309 158.951 841.002 158.031 840.389 157.34C839.775 156.65 838.816 156.305 837.513 156.305H831.531V151.934H837.014C840.184 151.934 842.587 152.599 844.223 153.928C845.884 155.257 846.715 157.162 846.715 159.641V160.178C846.715 161.916 846.293 163.309 845.45 164.357C844.632 165.38 843.494 166.121 842.037 166.581C840.58 167.016 838.906 167.233 837.014 167.233H831.531ZM866.369 180.845C863.838 180.845 861.64 180.398 859.774 179.503C857.934 178.609 856.4 177.445 855.173 176.014C853.971 174.557 853.064 172.998 852.45 171.336C851.862 169.649 851.568 168.026 851.568 166.466V165.623C851.568 163.91 851.875 162.21 852.489 160.523C853.102 158.81 854.022 157.264 855.249 155.883C856.502 154.503 858.049 153.404 859.889 152.586C861.73 151.742 863.89 151.32 866.369 151.32C868.823 151.32 870.97 151.742 872.811 152.586C874.651 153.404 876.185 154.503 877.412 155.883C878.665 157.264 879.598 158.81 880.211 160.523C880.825 162.21 881.132 163.91 881.132 165.623V166.466C881.132 168.026 880.825 169.649 880.211 171.336C879.623 172.998 878.716 174.557 877.489 176.014C876.287 177.445 874.754 178.609 872.888 179.503C871.047 180.398 868.874 180.845 866.369 180.845ZM866.369 175.784C867.801 175.784 869.079 175.528 870.204 175.017C871.354 174.506 872.325 173.803 873.118 172.908C873.936 171.988 874.549 170.953 874.958 169.802C875.393 168.626 875.61 167.387 875.61 166.083C875.61 164.677 875.393 163.386 874.958 162.21C874.549 161.034 873.936 160.012 873.118 159.143C872.325 158.273 871.354 157.596 870.204 157.11C869.053 156.625 867.775 156.382 866.369 156.382C864.938 156.382 863.647 156.625 862.496 157.11C861.346 157.596 860.362 158.273 859.544 159.143C858.752 160.012 858.138 161.034 857.703 162.21C857.294 163.386 857.09 164.677 857.09 166.083C857.09 167.387 857.294 168.626 857.703 169.802C858.138 170.953 858.752 171.988 859.544 172.908C860.362 173.803 861.346 174.506 862.496 175.017C863.647 175.528 864.938 175.784 866.369 175.784ZM895.791 180.845C893.312 180.845 891.216 180.449 889.503 179.657C887.816 178.864 886.525 177.778 885.63 176.397C884.736 174.991 884.288 173.407 884.288 171.643H889.618C889.618 172.384 889.823 173.113 890.232 173.828C890.641 174.518 891.292 175.081 892.187 175.515C893.107 175.95 894.309 176.167 895.791 176.167C897.121 176.167 898.233 175.976 899.127 175.592C900.022 175.209 900.687 174.71 901.121 174.097C901.556 173.458 901.773 172.742 901.773 171.949C901.773 170.953 901.351 170.16 900.508 169.572C899.664 168.959 898.361 168.575 896.597 168.422L894.143 168.23C891.459 168 889.311 167.169 887.701 165.738C886.116 164.281 885.324 162.364 885.324 159.986C885.324 158.197 885.745 156.663 886.589 155.385C887.433 154.081 888.608 153.084 890.117 152.394C891.65 151.678 893.44 151.32 895.485 151.32C897.606 151.32 899.434 151.691 900.968 152.432C902.502 153.174 903.69 154.222 904.534 155.577C905.377 156.906 905.799 158.478 905.799 160.293H900.469C900.469 159.526 900.278 158.823 899.894 158.184C899.536 157.519 898.987 156.995 898.245 156.612C897.53 156.203 896.609 155.998 895.485 155.998C894.411 155.998 893.516 156.177 892.801 156.535C892.085 156.893 891.548 157.379 891.19 157.992C890.832 158.606 890.653 159.27 890.653 159.986C890.653 160.855 890.973 161.622 891.612 162.287C892.251 162.926 893.261 163.297 894.641 163.399L897.095 163.629C899.089 163.782 900.84 164.204 902.348 164.894C903.856 165.584 905.02 166.517 905.838 167.693C906.681 168.869 907.103 170.288 907.103 171.949C907.103 173.713 906.643 175.273 905.723 176.627C904.802 177.957 903.486 178.992 901.773 179.733C900.086 180.475 898.092 180.845 895.791 180.845ZM604.637 226.845C602.157 226.845 600.061 226.449 598.348 225.657C596.661 224.864 595.37 223.778 594.476 222.397C593.581 220.991 593.134 219.407 593.134 217.643H598.463C598.463 218.384 598.668 219.113 599.077 219.828C599.486 220.518 600.138 221.081 601.032 221.515C601.953 221.95 603.154 222.167 604.637 222.167C605.966 222.167 607.078 221.976 607.973 221.592C608.867 221.209 609.532 220.71 609.966 220.097C610.401 219.458 610.618 218.742 610.618 217.949C610.618 216.953 610.197 216.16 609.353 215.572C608.509 214.959 607.206 214.575 605.442 214.422L602.988 214.23C600.304 214 598.157 213.169 596.546 211.738C594.961 210.281 594.169 208.364 594.169 205.986C594.169 204.197 594.591 202.663 595.434 201.385C596.278 200.081 597.454 199.084 598.962 198.394C600.496 197.678 602.285 197.32 604.33 197.32C606.452 197.32 608.279 197.691 609.813 198.432C611.347 199.174 612.536 200.222 613.379 201.577C614.223 202.906 614.644 204.478 614.644 206.293H609.315C609.315 205.526 609.123 204.823 608.739 204.184C608.382 203.519 607.832 202.995 607.091 202.612C606.375 202.203 605.455 201.998 604.33 201.998C603.256 201.998 602.362 202.177 601.646 202.535C600.93 202.893 600.393 203.379 600.035 203.992C599.678 204.606 599.499 205.27 599.499 205.986C599.499 206.855 599.818 207.622 600.457 208.287C601.096 208.926 602.106 209.297 603.486 209.399L605.94 209.629C607.934 209.782 609.685 210.204 611.193 210.894C612.702 211.584 613.865 212.517 614.683 213.693C615.526 214.869 615.948 216.288 615.948 217.949C615.948 219.713 615.488 221.273 614.568 222.627C613.648 223.957 612.331 224.992 610.618 225.733C608.931 226.475 606.937 226.845 604.637 226.845ZM617.978 226.117L627.526 198.126H636.422L646.238 226.117H640.639L632.319 201.845L634.274 202.689H629.481L631.475 201.845L623.423 226.117H617.978ZM624.65 218.678L626.376 214.077H637.725L639.412 218.678H624.65ZM650.396 226.117V198.126H655.84V226.117H650.396ZM655.074 226.117V221.324H667.152V226.117H655.074ZM675.219 226.117L666.285 198.126H671.922L679.322 222.359L677.712 221.592H681.853L680.204 222.359L687.029 198.126H692.474L684.192 226.117H675.219ZM692.307 226.117L701.855 198.126H710.75L720.566 226.117H714.968L706.647 201.845L708.603 202.689H703.81L705.804 201.845L697.752 226.117H692.307ZM698.979 218.678L700.704 214.077H712.054L713.741 218.678H698.979ZM724.724 226.117V198.126H732.163L739.18 214.844H739.87L746.849 198.126H754.402V226.117H748.996V202.228L749.686 202.305L742.132 220.403H736.572L728.98 202.305L729.709 202.228V226.117H724.724ZM775.872 226.117L766.938 198.126H772.574L779.975 222.359L778.364 221.592H782.505L780.857 222.359L787.682 198.126H793.127L784.844 226.117H775.872ZM797.594 226.117V198.126H803.039V226.117H797.594ZM814.702 226.27V221.209H820.492C821.949 221.209 823.24 220.991 824.365 220.557C825.515 220.097 826.487 219.458 827.279 218.64C828.071 217.822 828.672 216.863 829.081 215.764C829.516 214.639 829.733 213.399 829.733 212.045C829.733 210.639 829.516 209.386 829.081 208.287C828.672 207.162 828.071 206.203 827.279 205.411C826.487 204.619 825.515 204.018 824.365 203.609C823.24 203.2 821.949 202.995 820.492 202.995H814.702V197.934H820.147C822.678 197.934 824.889 198.305 826.781 199.046C828.672 199.787 830.244 200.81 831.497 202.113C832.749 203.392 833.682 204.861 834.296 206.523C834.935 208.159 835.254 209.859 835.254 211.623V212.466C835.254 214.153 834.935 215.815 834.296 217.451C833.682 219.087 832.749 220.57 831.497 221.899C830.244 223.228 828.672 224.289 826.781 225.081C824.889 225.874 822.678 226.27 820.147 226.27H814.702ZM810.024 226.27V197.934H815.469V226.27H810.024ZM836.283 226.117L845.831 198.126H854.727L864.543 226.117H858.945L850.624 201.845L852.58 202.689H847.787L849.781 201.845L841.728 226.117H836.283ZM842.955 218.678L844.681 214.077H856.031L857.718 218.678H842.955ZM878.061 226.845C875.582 226.845 873.485 226.449 871.773 225.657C870.086 224.864 868.795 223.778 867.9 222.397C867.005 220.991 866.558 219.407 866.558 217.643H871.888C871.888 218.384 872.092 219.113 872.501 219.828C872.91 220.518 873.562 221.081 874.457 221.515C875.377 221.95 876.579 222.167 878.061 222.167C879.39 222.167 880.502 221.976 881.397 221.592C882.292 221.209 882.956 220.71 883.391 220.097C883.826 219.458 884.043 218.742 884.043 217.949C884.043 216.953 883.621 216.16 882.777 215.572C881.934 214.959 880.63 214.575 878.866 214.422L876.412 214.23C873.728 214 871.581 213.169 869.971 211.738C868.386 210.281 867.593 208.364 867.593 205.986C867.593 204.197 868.015 202.663 868.859 201.385C869.702 200.081 870.878 199.084 872.386 198.394C873.92 197.678 875.709 197.32 877.754 197.32C879.876 197.32 881.704 197.691 883.238 198.432C884.771 199.174 885.96 200.222 886.804 201.577C887.647 202.906 888.069 204.478 888.069 206.293H882.739C882.739 205.526 882.547 204.823 882.164 204.184C881.806 203.519 881.257 202.995 880.515 202.612C879.799 202.203 878.879 201.998 877.754 201.998C876.681 201.998 875.786 202.177 875.07 202.535C874.355 202.893 873.818 203.379 873.46 203.992C873.102 204.606 872.923 205.27 872.923 205.986C872.923 206.855 873.243 207.622 873.882 208.287C874.521 208.926 875.53 209.297 876.911 209.399L879.365 209.629C881.359 209.782 883.11 210.204 884.618 210.894C886.126 211.584 887.289 212.517 888.107 213.693C888.951 214.869 889.373 216.288 889.373 217.949C889.373 219.713 888.912 221.273 887.992 222.627C887.072 223.957 885.756 224.992 884.043 225.733C882.356 226.475 880.362 226.845 878.061 226.845Z" fill="black"/>
<path d="M531.452 144.432C522.149 144.432 511.738 132.992 504.75 128" stroke="black" stroke-width="3.49512" stroke-linecap="round"/>
<path d="M502.08 178.844C488.441 178.844 474.172 180.083 461 176.79" stroke="black" stroke-width="3.49512" stroke-linecap="round"/>
<path d="M502.354 210.575C487.875 212.803 476.471 224.68 463.328 229.061" stroke="black" stroke-width="3.49512" stroke-linecap="round"/>
<path d="M931 153.026C932.433 140.13 948.045 124.138 955.648 114" stroke="black" stroke-width="3.49512" stroke-linecap="round"/>
<path d="M945.742 179.834C953.758 180.836 961.16 185.996 970.39 185.996" stroke="black" stroke-width="3.49512" stroke-linecap="round"/>
<path d="M937.586 217.115C947.832 217.115 956.319 231.616 964.288 235.601" stroke="black" stroke-width="3.49512" stroke-linecap="round"/>
<path d="M566.804 307.104V304.755H571.556C572.705 304.755 573.723 304.572 574.611 304.206C575.516 303.823 576.282 303.301 576.908 302.64C577.552 301.978 578.04 301.204 578.37 300.316C578.701 299.428 578.866 298.471 578.866 297.444C578.866 296.365 578.701 295.39 578.37 294.52C578.04 293.632 577.552 292.866 576.908 292.222C576.282 291.561 575.516 291.056 574.611 290.708C573.723 290.36 572.705 290.186 571.556 290.186H566.804V287.836H571.295C573.018 287.836 574.515 288.106 575.786 288.645C577.056 289.167 578.109 289.881 578.945 290.786C579.798 291.674 580.433 292.675 580.851 293.789C581.269 294.885 581.477 296.008 581.477 297.157V297.731C581.477 298.845 581.269 299.959 580.851 301.073C580.433 302.187 579.798 303.197 578.945 304.102C578.109 305.007 577.056 305.738 575.786 306.295C574.515 306.835 573.018 307.104 571.295 307.104H566.804ZM564.768 307.104V287.836H567.326V307.104H564.768ZM590.981 307.47C589.763 307.47 588.71 307.261 587.822 306.843C586.935 306.426 586.212 305.877 585.655 305.198C585.098 304.502 584.681 303.728 584.402 302.875C584.141 302.022 584.01 301.152 584.01 300.264V299.794C584.01 298.889 584.141 298.01 584.402 297.157C584.681 296.304 585.098 295.538 585.655 294.859C586.212 294.163 586.917 293.615 587.77 293.214C588.64 292.797 589.659 292.588 590.825 292.588C592.339 292.588 593.584 292.918 594.558 293.58C595.551 294.224 596.282 295.059 596.752 296.086C597.239 297.113 597.483 298.21 597.483 299.376V300.499H585.107V298.619H595.655L595.081 299.637C595.081 298.645 594.924 297.792 594.611 297.079C594.297 296.347 593.827 295.782 593.201 295.381C592.574 294.981 591.782 294.781 590.825 294.781C589.833 294.781 589.006 295.007 588.344 295.46C587.7 295.912 587.213 296.53 586.882 297.314C586.569 298.097 586.412 299.002 586.412 300.029C586.412 301.021 586.569 301.917 586.882 302.718C587.213 303.501 587.718 304.128 588.397 304.598C589.076 305.051 589.937 305.277 590.981 305.277C592.078 305.277 592.966 305.033 593.645 304.546C594.341 304.058 594.759 303.493 594.898 302.849H597.248C597.056 303.806 596.673 304.633 596.099 305.329C595.524 306.025 594.802 306.556 593.932 306.922C593.062 307.287 592.078 307.47 590.981 307.47ZM605.611 307.418C603.783 307.418 602.364 307.026 601.355 306.243C600.363 305.46 599.849 304.389 599.814 303.031H602.164C602.199 303.571 602.469 304.084 602.974 304.572C603.496 305.042 604.375 305.277 605.611 305.277C606.725 305.277 607.577 305.059 608.169 304.624C608.761 304.172 609.057 303.623 609.057 302.979C609.057 302.405 608.839 301.961 608.404 301.648C607.969 301.317 607.264 301.099 606.289 300.995L604.775 300.838C603.452 300.699 602.373 300.307 601.538 299.663C600.702 299.002 600.284 298.079 600.284 296.896C600.284 296.008 600.511 295.251 600.963 294.624C601.416 293.98 602.042 293.493 602.843 293.162C603.644 292.814 604.566 292.64 605.611 292.64C607.177 292.64 608.448 292.988 609.422 293.684C610.397 294.381 610.902 295.416 610.937 296.791H608.587C608.57 296.234 608.308 295.764 607.804 295.381C607.316 294.981 606.585 294.781 605.611 294.781C604.636 294.781 603.896 294.981 603.391 295.381C602.886 295.782 602.634 296.287 602.634 296.896C602.634 297.418 602.808 297.836 603.156 298.149C603.522 298.462 604.114 298.662 604.932 298.75L606.446 298.906C607.943 299.063 609.144 299.481 610.049 300.159C610.954 300.821 611.407 301.761 611.407 302.979C611.407 303.85 611.154 304.624 610.65 305.303C610.162 305.964 609.483 306.487 608.613 306.869C607.743 307.235 606.742 307.418 605.611 307.418ZM621.018 307.47C619.817 307.47 618.773 307.261 617.885 306.843C617.015 306.426 616.293 305.869 615.718 305.172C615.144 304.459 614.709 303.675 614.413 302.823C614.134 301.97 613.995 301.117 613.995 300.264V299.794C613.995 298.906 614.134 298.036 614.413 297.183C614.709 296.33 615.144 295.564 615.718 294.885C616.31 294.189 617.041 293.632 617.911 293.214C618.782 292.797 619.8 292.588 620.966 292.588C622.132 292.588 623.177 292.805 624.099 293.241C625.039 293.676 625.788 294.294 626.345 295.094C626.919 295.878 627.241 296.809 627.311 297.888H624.909C624.787 297.018 624.386 296.295 623.708 295.721C623.029 295.129 622.115 294.833 620.966 294.833C619.974 294.833 619.147 295.059 618.486 295.512C617.824 295.965 617.328 296.582 616.998 297.366C616.667 298.149 616.502 299.037 616.502 300.029C616.502 300.986 616.667 301.865 616.998 302.666C617.328 303.449 617.824 304.076 618.486 304.546C619.165 304.998 620.009 305.225 621.018 305.225C621.802 305.225 622.48 305.085 623.055 304.807C623.629 304.528 624.091 304.154 624.439 303.684C624.787 303.214 624.996 302.683 625.065 302.091H627.467C627.415 303.188 627.093 304.137 626.501 304.937C625.927 305.738 625.161 306.365 624.204 306.817C623.264 307.252 622.202 307.47 621.018 307.47ZM635.703 307.418C634.05 307.418 632.779 306.878 631.891 305.799C631.004 304.72 630.56 303.162 630.56 301.125V293.032H633.066V301.622C633.066 302.718 633.362 303.58 633.954 304.206C634.546 304.816 635.346 305.12 636.356 305.12C637.4 305.12 638.253 304.789 638.915 304.128C639.576 303.449 639.907 302.527 639.907 301.36V293.032H642.413V307H640.429V301.021H640.742C640.742 302.396 640.56 303.562 640.194 304.52C639.829 305.46 639.28 306.182 638.549 306.687C637.836 307.174 636.922 307.418 635.808 307.418H635.703ZM654.631 307.47C653.482 307.47 652.455 307.218 651.55 306.713C650.662 306.208 649.957 305.477 649.435 304.52C648.913 303.545 648.625 302.379 648.573 301.021H649.252V307H647.268V287.94H649.774V297.209L648.887 299.115C648.956 297.601 649.261 296.365 649.8 295.408C650.34 294.45 651.045 293.745 651.915 293.293C652.803 292.823 653.778 292.588 654.839 292.588C655.832 292.588 656.737 292.779 657.555 293.162C658.373 293.528 659.078 294.041 659.67 294.703C660.261 295.347 660.714 296.104 661.027 296.974C661.341 297.827 661.497 298.75 661.497 299.742V300.212C661.497 301.204 661.332 302.135 661.001 303.005C660.688 303.876 660.227 304.65 659.617 305.329C659.008 305.99 658.277 306.513 657.424 306.896C656.589 307.278 655.658 307.47 654.631 307.47ZM654.343 305.277C655.283 305.277 656.101 305.051 656.798 304.598C657.494 304.145 658.033 303.527 658.416 302.744C658.799 301.944 658.991 301.021 658.991 299.977C658.991 298.932 658.791 298.018 658.39 297.235C658.007 296.452 657.468 295.851 656.772 295.434C656.075 294.999 655.266 294.781 654.343 294.781C653.508 294.781 652.733 294.972 652.02 295.355C651.306 295.721 650.732 296.26 650.296 296.974C649.879 297.67 649.67 298.515 649.67 299.507V300.708C649.67 301.665 649.887 302.483 650.323 303.162C650.758 303.841 651.332 304.363 652.046 304.729C652.759 305.094 653.525 305.277 654.343 305.277ZM665.269 307V293.058H667.253V298.802H667.149C667.149 296.765 667.593 295.277 668.48 294.337C669.385 293.38 670.734 292.901 672.527 292.901H672.997V295.146H672.109C670.717 295.146 669.646 295.521 668.898 296.269C668.149 297 667.775 298.062 667.775 299.454V307H665.269ZM684.36 307V302.823H683.942V297.992C683.942 297.035 683.69 296.313 683.185 295.825C682.698 295.338 681.975 295.094 681.018 295.094C680.478 295.094 679.921 295.103 679.347 295.12C678.773 295.138 678.224 295.155 677.702 295.173C677.18 295.19 676.727 295.216 676.344 295.251V293.058C676.727 293.023 677.128 292.997 677.545 292.979C677.981 292.945 678.424 292.927 678.877 292.927C679.329 292.91 679.765 292.901 680.182 292.901C681.61 292.901 682.776 293.075 683.681 293.423C684.586 293.754 685.256 294.302 685.691 295.068C686.127 295.834 686.344 296.87 686.344 298.175V307H684.36ZM679.791 307.366C678.746 307.366 677.841 307.191 677.075 306.843C676.327 306.478 675.744 305.956 675.326 305.277C674.926 304.598 674.726 303.78 674.726 302.823C674.726 301.83 674.943 301.004 675.378 300.342C675.831 299.681 676.484 299.185 677.337 298.854C678.189 298.506 679.216 298.332 680.417 298.332H684.203V300.212H680.313C679.303 300.212 678.529 300.455 677.989 300.943C677.45 301.43 677.18 302.057 677.18 302.823C677.18 303.588 677.45 304.206 677.989 304.676C678.529 305.146 679.303 305.381 680.313 305.381C680.905 305.381 681.47 305.277 682.01 305.068C682.55 304.842 682.993 304.476 683.342 303.971C683.707 303.449 683.907 302.736 683.942 301.83L684.621 302.823C684.534 303.815 684.29 304.65 683.89 305.329C683.507 305.99 682.967 306.495 682.271 306.843C681.592 307.191 680.765 307.366 679.791 307.366ZM702.812 307.47C701.594 307.47 700.541 307.261 699.653 306.843C698.765 306.426 698.043 305.877 697.486 305.198C696.929 304.502 696.511 303.728 696.233 302.875C695.971 302.022 695.841 301.152 695.841 300.264V299.794C695.841 298.889 695.971 298.01 696.233 297.157C696.511 296.304 696.929 295.538 697.486 294.859C698.043 294.163 698.748 293.615 699.601 293.214C700.471 292.797 701.489 292.588 702.655 292.588C704.17 292.588 705.414 292.918 706.389 293.58C707.381 294.224 708.112 295.059 708.582 296.086C709.07 297.113 709.313 298.21 709.313 299.376V300.499H696.937V298.619H707.486L706.911 299.637C706.911 298.645 706.755 297.792 706.441 297.079C706.128 296.347 705.658 295.782 705.031 295.381C704.405 294.981 703.613 294.781 702.655 294.781C701.663 294.781 700.836 295.007 700.175 295.46C699.531 295.912 699.044 296.53 698.713 297.314C698.4 298.097 698.243 299.002 698.243 300.029C698.243 301.021 698.4 301.917 698.713 302.718C699.044 303.501 699.548 304.128 700.227 304.598C700.906 305.051 701.768 305.277 702.812 305.277C703.909 305.277 704.796 305.033 705.475 304.546C706.171 304.058 706.589 303.493 706.728 302.849H709.078C708.887 303.806 708.504 304.633 707.929 305.329C707.355 306.025 706.633 306.556 705.762 306.922C704.892 307.287 703.909 307.47 702.812 307.47ZM724.792 307.47C723.591 307.47 722.546 307.261 721.659 306.843C720.788 306.426 720.066 305.869 719.492 305.172C718.917 304.459 718.482 303.675 718.186 302.823C717.908 301.97 717.768 301.117 717.768 300.264V299.794C717.768 298.906 717.908 298.036 718.186 297.183C718.482 296.33 718.917 295.564 719.492 294.885C720.083 294.189 720.815 293.632 721.685 293.214C722.555 292.797 723.573 292.588 724.74 292.588C725.906 292.588 726.95 292.805 727.873 293.241C728.813 293.676 729.561 294.294 730.118 295.094C730.692 295.878 731.014 296.809 731.084 297.888H728.682C728.56 297.018 728.16 296.295 727.481 295.721C726.802 295.129 725.888 294.833 724.74 294.833C723.747 294.833 722.921 295.059 722.259 295.512C721.598 295.965 721.102 296.582 720.771 297.366C720.44 298.149 720.275 299.037 720.275 300.029C720.275 300.986 720.44 301.865 720.771 302.666C721.102 303.449 721.598 304.076 722.259 304.546C722.938 304.998 723.782 305.225 724.792 305.225C725.575 305.225 726.254 305.085 726.828 304.807C727.403 304.528 727.864 304.154 728.212 303.684C728.56 303.214 728.769 302.683 728.839 302.091H731.241C731.189 303.188 730.867 304.137 730.275 304.937C729.7 305.738 728.934 306.365 727.977 306.817C727.037 307.252 725.975 307.47 724.792 307.47ZM741.069 307.47C739.851 307.47 738.78 307.261 737.858 306.843C736.935 306.426 736.152 305.877 735.508 305.198C734.882 304.502 734.403 303.728 734.072 302.875C733.759 302.022 733.602 301.152 733.602 300.264V299.794C733.602 298.906 733.768 298.036 734.098 297.183C734.429 296.313 734.916 295.538 735.56 294.859C736.204 294.163 736.988 293.615 737.91 293.214C738.833 292.797 739.886 292.588 741.069 292.588C742.253 292.588 743.306 292.797 744.229 293.214C745.151 293.615 745.934 294.163 746.578 294.859C747.222 295.538 747.71 296.313 748.041 297.183C748.371 298.036 748.537 298.906 748.537 299.794V300.264C748.537 301.152 748.371 302.022 748.041 302.875C747.727 303.728 747.249 304.502 746.605 305.198C745.978 305.877 745.203 306.426 744.281 306.843C743.358 307.261 742.288 307.47 741.069 307.47ZM741.069 305.225C742.114 305.225 743.001 304.998 743.733 304.546C744.481 304.076 745.047 303.449 745.43 302.666C745.83 301.883 746.03 301.004 746.03 300.029C746.03 299.037 745.83 298.149 745.43 297.366C745.029 296.582 744.455 295.965 743.706 295.512C742.975 295.059 742.096 294.833 741.069 294.833C740.06 294.833 739.181 295.059 738.432 295.512C737.684 295.965 737.11 296.582 736.709 297.366C736.309 298.149 736.109 299.037 736.109 300.029C736.109 301.004 736.3 301.883 736.683 302.666C737.083 303.449 737.649 304.076 738.38 304.546C739.129 304.998 740.025 305.225 741.069 305.225ZM752.291 307V293.058H754.275V299.037H753.962C753.962 297.679 754.136 296.53 754.484 295.59C754.849 294.633 755.389 293.902 756.103 293.397C756.816 292.892 757.721 292.64 758.818 292.64H758.922C760.019 292.64 760.924 292.892 761.638 293.397C762.369 293.902 762.908 294.633 763.256 295.59C763.605 296.53 763.779 297.679 763.779 299.037H763.048C763.048 297.679 763.23 296.53 763.596 295.59C763.961 294.633 764.501 293.902 765.215 293.397C765.946 292.892 766.859 292.64 767.956 292.64H768.06C769.157 292.64 770.071 292.892 770.802 293.397C771.533 293.902 772.073 294.633 772.421 295.59C772.786 296.53 772.969 297.679 772.969 299.037V307H770.463V298.488C770.463 297.357 770.184 296.487 769.627 295.878C769.07 295.251 768.295 294.938 767.303 294.938C766.276 294.938 765.45 295.268 764.823 295.93C764.196 296.574 763.883 297.479 763.883 298.645V307H761.377V298.488C761.377 297.357 761.098 296.487 760.541 295.878C759.984 295.251 759.21 294.938 758.217 294.938C757.19 294.938 756.364 295.268 755.737 295.93C755.11 296.574 754.797 297.479 754.797 298.645V307H752.291ZM777.558 312.222V293.058H779.543V299.089L779.073 299.037C779.16 297.54 779.473 296.321 780.013 295.381C780.57 294.424 781.292 293.719 782.18 293.267C783.067 292.814 784.033 292.588 785.078 292.588C786.087 292.588 787.001 292.779 787.819 293.162C788.655 293.545 789.368 294.067 789.96 294.729C790.552 295.39 791.004 296.156 791.318 297.026C791.631 297.897 791.788 298.819 791.788 299.794V300.264C791.788 301.239 791.622 302.161 791.292 303.031C790.961 303.902 790.491 304.668 789.882 305.329C789.29 305.99 788.576 306.513 787.741 306.896C786.923 307.278 786.018 307.47 785.025 307.47C784.033 307.47 783.085 307.252 782.18 306.817C781.274 306.382 780.526 305.677 779.934 304.702C779.342 303.728 779.003 302.448 778.916 300.864L780.065 302.953V312.222H777.558ZM784.634 305.277C785.574 305.277 786.392 305.059 787.088 304.624C787.784 304.172 788.324 303.554 788.707 302.77C789.09 301.97 789.281 301.056 789.281 300.029C789.281 298.985 789.09 298.071 788.707 297.287C788.324 296.504 787.784 295.895 787.088 295.46C786.392 295.007 785.574 294.781 784.634 294.781C783.798 294.781 783.024 294.972 782.31 295.355C781.596 295.721 781.022 296.26 780.587 296.974C780.169 297.67 779.96 298.515 779.96 299.507V300.708C779.96 301.665 780.178 302.483 780.613 303.162C781.048 303.841 781.623 304.363 782.336 304.729C783.05 305.094 783.816 305.277 784.634 305.277ZM803.993 307V302.823H803.575V297.992C803.575 297.035 803.322 296.313 802.818 295.825C802.33 295.338 801.608 295.094 800.651 295.094C800.111 295.094 799.554 295.103 798.98 295.12C798.405 295.138 797.857 295.155 797.335 295.173C796.813 295.19 796.36 295.216 795.977 295.251V293.058C796.36 293.023 796.76 292.997 797.178 292.979C797.613 292.945 798.057 292.927 798.51 292.927C798.962 292.91 799.397 292.901 799.815 292.901C801.242 292.901 802.409 293.075 803.314 293.423C804.219 293.754 804.889 294.302 805.324 295.068C805.759 295.834 805.977 296.87 805.977 298.175V307H803.993ZM799.423 307.366C798.379 307.366 797.474 307.191 796.708 306.843C795.96 306.478 795.377 305.956 794.959 305.277C794.558 304.598 794.358 303.78 794.358 302.823C794.358 301.83 794.576 301.004 795.011 300.342C795.464 299.681 796.116 299.185 796.969 298.854C797.822 298.506 798.849 298.332 800.05 298.332H803.836V300.212H799.946C798.936 300.212 798.161 300.455 797.622 300.943C797.082 301.43 796.813 302.057 796.813 302.823C796.813 303.588 797.082 304.206 797.622 304.676C798.161 305.146 798.936 305.381 799.946 305.381C800.537 305.381 801.103 305.277 801.643 305.068C802.182 304.842 802.626 304.476 802.974 303.971C803.34 303.449 803.54 302.736 803.575 301.83L804.254 302.823C804.167 303.815 803.923 304.65 803.523 305.329C803.14 305.99 802.6 306.495 801.904 306.843C801.225 307.191 800.398 307.366 799.423 307.366ZM810.577 307V293.058H812.561V298.802H812.457C812.457 296.765 812.901 295.277 813.789 294.337C814.694 293.38 816.043 292.901 817.835 292.901H818.305V295.146H817.418C816.025 295.146 814.955 295.521 814.206 296.269C813.458 297 813.084 298.062 813.084 299.454V307H810.577ZM826.972 307.157C825.927 307.157 825.022 307.009 824.256 306.713C823.508 306.417 822.925 305.912 822.507 305.198C822.107 304.467 821.906 303.484 821.906 302.248V288.828H824.308V302.561C824.308 303.31 824.509 303.893 824.909 304.311C825.327 304.711 825.91 304.911 826.658 304.911H829.113V307.157H826.972ZM819.504 294.938V293.058H829.113V294.938H819.504ZM833.336 307V293.058H835.843V307H833.336ZM831.196 295.042V293.058H835.843V295.042H831.196ZM834.041 290.812C833.484 290.812 833.067 290.664 832.788 290.369C832.527 290.073 832.397 289.698 832.397 289.246C832.397 288.793 832.527 288.419 832.788 288.123C833.067 287.827 833.484 287.679 834.041 287.679C834.598 287.679 835.007 287.827 835.269 288.123C835.547 288.419 835.686 288.793 835.686 289.246C835.686 289.698 835.547 290.073 835.269 290.369C835.007 290.664 834.598 290.812 834.041 290.812ZM840.846 307V287.94H843.352V307H840.846ZM838.914 289.925V287.94H843.352V289.925H838.914ZM848.16 307V287.94H850.666V299.324H850.04C850.04 297.949 850.214 296.765 850.562 295.773C850.927 294.764 851.484 293.989 852.233 293.449C852.981 292.91 853.939 292.64 855.105 292.64H855.209C856.88 292.64 858.142 293.197 858.995 294.311C859.848 295.408 860.275 296.983 860.275 299.037V307H857.768V298.515C857.768 297.383 857.446 296.504 856.802 295.878C856.175 295.251 855.357 294.938 854.348 294.938C853.234 294.938 852.337 295.312 851.659 296.06C850.997 296.791 850.666 297.757 850.666 298.958V307H848.16ZM870.787 307.47C869.569 307.47 868.516 307.261 867.628 306.843C866.74 306.426 866.018 305.877 865.461 305.198C864.904 304.502 864.486 303.728 864.208 302.875C863.947 302.022 863.816 301.152 863.816 300.264V299.794C863.816 298.889 863.947 298.01 864.208 297.157C864.486 296.304 864.904 295.538 865.461 294.859C866.018 294.163 866.723 293.615 867.576 293.214C868.446 292.797 869.464 292.588 870.631 292.588C872.145 292.588 873.39 292.918 874.364 293.58C875.356 294.224 876.087 295.059 876.557 296.086C877.045 297.113 877.288 298.21 877.288 299.376V300.499H864.913V298.619H875.461L874.886 299.637C874.886 298.645 874.73 297.792 874.416 297.079C874.103 296.347 873.633 295.782 873.007 295.381C872.38 294.981 871.588 294.781 870.631 294.781C869.639 294.781 868.812 295.007 868.15 295.46C867.506 295.912 867.019 296.53 866.688 297.314C866.375 298.097 866.218 299.002 866.218 300.029C866.218 301.021 866.375 301.917 866.688 302.718C867.019 303.501 867.524 304.128 868.203 304.598C868.881 305.051 869.743 305.277 870.787 305.277C871.884 305.277 872.772 305.033 873.45 304.546C874.147 304.058 874.564 303.493 874.704 302.849H877.054C876.862 303.806 876.479 304.633 875.905 305.329C875.33 306.025 874.608 306.556 873.738 306.922C872.867 307.287 871.884 307.47 870.787 307.47Z" fill="black"/>
<path d="M906.558 280.303C906.075 280.303 905.611 280.495 905.27 280.837C904.928 281.178 904.736 281.642 904.736 282.125C904.736 282.608 904.928 283.072 905.27 283.413C905.611 283.755 906.075 283.947 906.558 283.947H922.785L901.845 304.886C901.666 305.053 901.523 305.254 901.423 305.477C901.324 305.701 901.27 305.942 901.266 306.187C901.262 306.431 901.307 306.674 901.398 306.901C901.49 307.128 901.626 307.334 901.799 307.507C901.972 307.68 902.178 307.817 902.405 307.908C902.632 308 902.875 308.045 903.12 308.04C903.364 308.036 903.605 307.983 903.829 307.883C904.052 307.783 904.254 307.64 904.42 307.461L925.359 286.522V302.748C925.359 303.232 925.551 303.695 925.893 304.037C926.235 304.378 926.698 304.57 927.181 304.57C927.664 304.57 928.128 304.378 928.47 304.037C928.811 303.695 929.003 303.232 929.003 302.748V282.125C929.002 281.883 928.952 281.643 928.857 281.421C928.725 281.11 928.51 280.842 928.236 280.645C927.962 280.448 927.639 280.33 927.303 280.303H906.558Z" fill="#8F6C05"/>
<path d="M592.177 72.1145C592.177 72.1145 591.772 66.9811 589.709 64.4575C587.662 61.9537 584.386 61.9995 584.337 62.0001C584.289 61.9995 581.016 61.9537 578.968 64.4582C576.905 66.9811 576.5 72.1145 576.5 72.1145C576.5 72.1145 577.305 66.765 584.338 66.765C591.371 66.765 592.177 72.1145 592.177 72.1145Z" fill="#8F6C05"/>
<path d="M584.091 76.6753C583.728 76.3141 583.434 76.0313 583.306 75.9077C582.393 75.0292 581.456 74.0278 580.142 72.3244C578.828 70.6209 578.138 69.0806 578.138 69.0806C578.138 69.0806 575.699 71.4064 576.031 74.2329C576.301 76.5326 578.959 79.6599 579.894 80.7122L584.091 76.6753Z" fill="#8F6C05"/>
<path d="M590.203 69.0806C590.203 69.0806 589.562 70.5892 588.345 72.2575C587.127 73.9258 586.254 74.9066 585.408 75.767C584.619 76.5681 576.139 85.2086 576.072 85.2773C576.004 85.3459 575.991 85.4351 576.005 85.5437C576.132 86.5912 576.829 92.1765 576.839 92.2532C576.85 92.3362 576.918 92.373 576.972 92.3175C577.036 92.2519 588.192 80.8893 588.192 80.8893C588.192 80.8893 591.846 76.8957 592.154 74.1267C592.461 71.3578 590.203 69.0806 590.203 69.0806Z" fill="#8F6C05"/>
<path d="M592.549 85.1991C592.447 85.097 590.28 82.918 588.529 81.1689L584.578 85.1118C584.578 85.1118 591.698 92.236 591.731 92.2688C591.756 92.2936 591.817 92.3239 591.826 92.2379C591.826 92.2379 592.554 86.3783 592.667 85.4713C592.677 85.3903 592.652 85.3012 592.549 85.1991Z" fill="#8F6C05"/>
<path d="M619.778 87.47C618.194 87.47 616.845 87.2089 615.731 86.6867C614.617 86.1645 613.764 85.4422 613.172 84.5196C612.581 83.5971 612.285 82.5528 612.285 81.3865H614.843C614.843 81.9609 614.991 82.5353 615.287 83.1097C615.6 83.6841 616.114 84.1628 616.828 84.5457C617.559 84.9287 618.542 85.1201 619.778 85.1201C620.927 85.1201 621.867 84.9548 622.598 84.6241C623.329 84.276 623.868 83.8321 624.216 83.2925C624.565 82.7355 624.739 82.135 624.739 81.491C624.739 80.7077 624.399 80.0637 623.72 79.5589C623.042 79.0367 622.049 78.7147 620.744 78.5929L618.629 78.4101C616.941 78.2709 615.592 77.7487 614.582 76.8436C613.573 75.9384 613.068 74.7461 613.068 73.2666C613.068 72.1004 613.346 71.0822 613.903 70.2119C614.478 69.3416 615.27 68.6627 616.279 68.1753C617.289 67.6706 618.464 67.4182 619.804 67.4182C621.127 67.4182 622.293 67.6619 623.303 68.1492C624.312 68.6366 625.095 69.3241 625.652 70.2119C626.227 71.0822 626.514 72.1265 626.514 73.3449H623.955C623.955 72.7357 623.807 72.1613 623.512 71.6217C623.233 71.0822 622.789 70.6383 622.18 70.2902C621.571 69.9421 620.779 69.768 619.804 69.768C618.864 69.768 618.081 69.9334 617.454 70.2641C616.845 70.5948 616.384 71.0299 616.07 71.5695C615.775 72.0917 615.627 72.6574 615.627 73.2666C615.627 73.9629 615.896 74.5808 616.436 75.1204C616.976 75.66 617.776 75.9733 618.838 76.0603L620.953 76.2431C622.258 76.3475 623.381 76.626 624.321 77.0785C625.278 77.5137 626.009 78.1055 626.514 78.854C627.036 79.585 627.297 80.464 627.297 81.491C627.297 82.6572 626.984 83.6928 626.357 84.598C625.731 85.5031 624.852 86.208 623.72 86.7128C622.589 87.2176 621.275 87.47 619.778 87.47ZM631.591 87V67.9404H634.15V87H631.591ZM633.628 87V84.7024H642.87V87H633.628ZM633.628 78.4623V76.1647H642.061V78.4623H633.628ZM633.628 70.238V67.9404H642.609V70.238H633.628ZM650.954 87V69.7158H653.513V87H650.954ZM645.158 70.238V67.9404H659.309V70.238H645.158ZM662.749 87V67.9404H665.307V87H662.749ZM664.785 87V84.7024H674.028V87H664.785ZM664.785 78.4623V76.1647H673.218V78.4623H664.785ZM664.785 70.238V67.9404H673.767V70.238H664.785ZM678.404 87V67.9404H681.798L687.438 80.6555H687.855L693.469 67.9404H696.889V87H694.33V70.734L694.513 70.7863L689.109 83.0575H685.975L680.545 70.7863L680.754 70.734V87H678.404ZM704.459 87.1044V84.8591H709.785C710.812 84.8591 711.604 84.5719 712.161 83.9975C712.735 83.4056 713.022 82.6224 713.022 81.6476C713.022 80.6555 712.744 79.8809 712.187 79.3239C711.63 78.7495 710.829 78.4623 709.785 78.4623H704.459V76.7913H709.419C710.638 76.7913 711.708 76.9393 712.631 77.2352C713.571 77.5311 714.302 78.0272 714.824 78.7234C715.364 79.4023 715.633 80.3335 715.633 81.5171V81.8826C715.633 82.9966 715.407 83.9452 714.955 84.7285C714.502 85.4944 713.814 86.0862 712.892 86.5039C711.969 86.9043 710.812 87.1044 709.419 87.1044H704.459ZM702.422 87.1044V67.8359H704.981V87.1044H702.422ZM704.459 77.9924V76.3214H709.08C710.159 76.3214 710.951 76.0342 711.456 75.4598C711.978 74.868 712.239 74.1195 712.239 73.2144C712.239 72.2919 711.978 71.5434 711.456 70.969C710.951 70.3772 710.159 70.0813 709.08 70.0813H704.459V67.8359H708.636C710.725 67.8359 712.283 68.2798 713.31 69.1675C714.337 70.0378 714.85 71.2997 714.85 72.9533V73.3188C714.85 74.485 714.589 75.4163 714.067 76.1125C713.545 76.7913 712.814 77.2787 711.874 77.5746C710.951 77.8531 709.872 77.9924 708.636 77.9924H704.459ZM720.168 87V67.8359H722.727V87H720.168ZM731.943 87L725.625 78.5145H728.628L735.05 87H731.943ZM721.761 80.1072V77.8357H726.878C727.679 77.8357 728.366 77.6704 728.941 77.3396C729.515 77.0089 729.959 76.5564 730.272 75.982C730.586 75.3902 730.742 74.72 730.742 73.9716C730.742 73.2231 730.586 72.5617 730.272 71.9873C729.959 71.3955 729.515 70.9342 728.941 70.6035C728.366 70.2554 727.679 70.0813 726.878 70.0813H721.761V67.8359H726.408C727.801 67.8359 729.019 68.0448 730.064 68.4625C731.108 68.8803 731.917 69.5243 732.492 70.3946C733.066 71.2649 733.353 72.3876 733.353 73.7627V74.1804C733.353 75.5555 733.057 76.6782 732.466 77.5485C731.891 78.4188 731.082 79.0628 730.037 79.4806C729.01 79.8983 727.801 80.1072 726.408 80.1072H721.761ZM746.681 87.47C744.976 87.47 743.505 87.1654 742.269 86.5561C741.033 85.9469 740.015 85.1463 739.214 84.1541C738.413 83.162 737.813 82.1002 737.413 80.9688C737.03 79.8374 736.838 78.7495 736.838 77.7052V77.1308C736.838 75.9994 737.038 74.8593 737.439 73.7105C737.839 72.5617 738.448 71.5173 739.266 70.5774C740.084 69.62 741.103 68.8542 742.321 68.2798C743.557 67.7054 745.01 67.4182 746.681 67.4182C748.352 67.4182 749.797 67.7054 751.015 68.2798C752.251 68.8542 753.278 69.62 754.096 70.5774C754.914 71.5173 755.524 72.5617 755.924 73.7105C756.324 74.8593 756.524 75.9994 756.524 77.1308V77.7052C756.524 78.7495 756.324 79.8374 755.924 80.9688C755.541 82.1002 754.949 83.162 754.149 84.1541C753.348 85.1463 752.33 85.9469 751.094 86.5561C749.858 87.1654 748.387 87.47 746.681 87.47ZM746.681 85.1201C747.795 85.1201 748.796 84.9113 749.684 84.4935C750.589 84.0758 751.355 83.5101 751.982 82.7964C752.608 82.0654 753.087 81.2473 753.418 80.3422C753.748 79.4197 753.914 78.4536 753.914 77.4441C753.914 76.3823 753.748 75.3902 753.418 74.4676C753.087 73.5451 752.608 72.7357 751.982 72.0395C751.355 71.3258 750.589 70.7688 749.684 70.3685C748.796 69.9682 747.795 69.768 746.681 69.768C745.567 69.768 744.558 69.9682 743.653 70.3685C742.765 70.7688 742.008 71.3258 741.381 72.0395C740.755 72.7357 740.276 73.5451 739.945 74.4676C739.615 75.3902 739.449 76.3823 739.449 77.4441C739.449 78.4536 739.615 79.4197 739.945 80.3422C740.276 81.2473 740.755 82.0654 741.381 82.7964C742.008 83.5101 742.765 84.0758 743.653 84.4935C744.558 84.9113 745.567 85.1201 746.681 85.1201ZM764.639 87L771.505 67.9404H775.839L782.915 87H780.278L773.881 69.6113L775.134 70.238H772.053L773.385 69.6113L767.197 87H764.639ZM768.738 81.3082L769.599 79.0106H777.824L778.685 81.3082H768.738ZM786.41 87V67.9404H789.804L795.444 80.6555H795.861L801.475 67.9404H804.895V87H802.336V70.734L802.519 70.7863L797.115 83.0575H793.981L788.551 70.7863L788.76 70.734V87H786.41ZM808.392 87L815.258 67.9404H819.592L826.668 87H824.031L817.634 69.6113L818.887 70.238H815.807L817.138 69.6113L810.95 87H808.392ZM812.491 81.3082L813.352 79.0106H821.577L822.438 81.3082H812.491ZM830.163 87V67.8359H832.722V87H830.163ZM841.938 87L835.62 78.5145H838.622L845.045 87H841.938ZM831.756 80.1072V77.8357H836.873C837.674 77.8357 838.361 77.6704 838.936 77.3396C839.51 77.0089 839.954 76.5564 840.267 75.982C840.58 75.3902 840.737 74.72 840.737 73.9716C840.737 73.2231 840.58 72.5617 840.267 71.9873C839.954 71.3955 839.51 70.9342 838.936 70.6035C838.361 70.2554 837.674 70.0813 836.873 70.0813H831.756V67.8359H836.403C837.796 67.8359 839.014 68.0448 840.058 68.4625C841.103 68.8803 841.912 69.5243 842.486 70.3946C843.061 71.2649 843.348 72.3876 843.348 73.7627V74.1804C843.348 75.5555 843.052 76.6782 842.46 77.5485C841.886 78.4188 841.077 79.0628 840.032 79.4806C839.005 79.8983 837.796 80.1072 836.403 80.1072H831.756ZM848.444 87V67.9404H851.003V87H848.444ZM850.481 87V84.7024H859.724V87H850.481ZM850.481 78.4623V76.1647H858.914V78.4623H850.481ZM850.481 70.238V67.9404H859.462V70.238H850.481ZM864.1 87V67.9404H866.658V87H864.1ZM866.136 87V84.7024H874.857V87H866.136ZM886.533 87.47C884.828 87.47 883.357 87.1654 882.121 86.5561C880.885 85.9469 879.867 85.1463 879.066 84.1541C878.265 83.162 877.665 82.1002 877.265 80.9688C876.882 79.8374 876.69 78.7495 876.69 77.7052V77.1308C876.69 75.9994 876.89 74.8593 877.291 73.7105C877.691 72.5617 878.3 71.5173 879.118 70.5774C879.936 69.62 880.955 68.8542 882.173 68.2798C883.409 67.7054 884.862 67.4182 886.533 67.4182C888.204 67.4182 889.649 67.7054 890.867 68.2798C892.103 68.8542 893.13 69.62 893.948 70.5774C894.766 71.5173 895.376 72.5617 895.776 73.7105C896.176 74.8593 896.376 75.9994 896.376 77.1308V77.7052C896.376 78.7495 896.176 79.8374 895.776 80.9688C895.393 82.1002 894.801 83.162 894 84.1541C893.2 85.1463 892.182 85.9469 890.946 86.5561C889.71 87.1654 888.239 87.47 886.533 87.47ZM886.533 85.1201C887.647 85.1201 888.648 84.9113 889.536 84.4935C890.441 84.0758 891.207 83.5101 891.833 82.7964C892.46 82.0654 892.939 81.2473 893.269 80.3422C893.6 79.4197 893.766 78.4536 893.766 77.4441C893.766 76.3823 893.6 75.3902 893.269 74.4676C892.939 73.5451 892.46 72.7357 891.833 72.0395C891.207 71.3258 890.441 70.7688 889.536 70.3685C888.648 69.9682 887.647 69.768 886.533 69.768C885.419 69.768 884.41 69.9682 883.505 70.3685C882.617 70.7688 881.86 71.3258 881.233 72.0395C880.607 72.7357 880.128 73.5451 879.797 74.4676C879.466 75.3902 879.301 76.3823 879.301 77.4441C879.301 78.4536 879.466 79.4197 879.797 80.3422C880.128 81.2473 880.607 82.0654 881.233 82.7964C881.86 83.5101 882.617 84.0758 883.505 84.4935C884.41 84.9113 885.419 85.1201 886.533 85.1201Z" fill="black"/>
</g>
</g>
<defs>
<clipPath id="clip0_2112_59">
<rect width="1073" height="359" fill="white"/>
</clipPath>
</defs>
</svg>
