<svg width="1073" height="359" viewBox="0 0 1073 359" fill="none" xmlns="http://www.w3.org/2000/svg">
<rect width="1072.34" height="359" rx="24.547" fill="white"/>
<path d="M104.15 177.32C97.6233 177.32 91.6833 175.927 86.33 173.14C81.05 170.353 76.8333 166.247 73.68 160.82C70.6 155.32 69.06 148.573 69.06 140.58C69.06 132.66 70.6367 125.913 73.79 120.34C77.0167 114.693 81.27 110.403 86.55 107.47C91.83 104.463 97.66 102.96 104.04 102.96C109.247 102.96 113.72 103.913 117.46 105.82C121.2 107.727 124.243 109.89 126.59 112.31L118.12 122.65C116.287 121.037 114.343 119.68 112.29 118.58C110.237 117.48 107.67 116.93 104.59 116.93C99.0167 116.93 94.47 118.983 90.95 123.09C87.43 127.197 85.67 132.843 85.67 140.03C85.67 147.363 87.3567 153.083 90.73 157.19C94.1033 161.297 99.1267 163.35 105.8 163.35C107.267 163.35 108.697 163.167 110.09 162.8C111.483 162.433 112.62 161.883 113.5 161.15V148.83H101.62V135.63H127.8V168.63C125.307 171.05 121.97 173.103 117.79 174.79C113.683 176.477 109.137 177.32 104.15 177.32ZM155.046 177.32C150.06 177.32 146.1 175.743 143.166 172.59C140.233 169.363 138.766 165.44 138.766 160.82C138.766 155.1 141.186 150.627 146.026 147.4C150.866 144.173 158.676 142.01 169.456 140.91C169.31 138.49 168.576 136.583 167.256 135.19C166.01 133.723 163.883 132.99 160.876 132.99C158.603 132.99 156.293 133.43 153.946 134.31C151.6 135.19 149.106 136.4 146.466 137.94L140.636 127.27C144.083 125.143 147.75 123.42 151.636 122.1C155.596 120.78 159.703 120.12 163.956 120.12C170.923 120.12 176.276 122.137 180.016 126.17C183.756 130.203 185.626 136.4 185.626 144.76V176H172.426L171.326 170.39H170.886C168.613 172.443 166.156 174.13 163.516 175.45C160.95 176.697 158.126 177.32 155.046 177.32ZM160.546 164.78C162.38 164.78 163.956 164.377 165.276 163.57C166.67 162.69 168.063 161.553 169.456 160.16V150.59C163.736 151.323 159.776 152.497 157.576 154.11C155.376 155.65 154.276 157.483 154.276 159.61C154.276 161.37 154.826 162.69 155.926 163.57C157.1 164.377 158.64 164.78 160.546 164.78ZM199.304 176V121.44H212.504L213.604 128.37H214.044C216.391 126.17 218.958 124.263 221.744 122.65C224.604 120.963 227.868 120.12 231.534 120.12C237.474 120.12 241.764 122.1 244.404 126.06C247.118 129.947 248.474 135.3 248.474 142.12V176H232.304V144.21C232.304 140.25 231.754 137.537 230.654 136.07C229.628 134.603 227.941 133.87 225.594 133.87C223.541 133.87 221.781 134.347 220.314 135.3C218.848 136.18 217.234 137.463 215.474 139.15V176H199.304ZM262.254 176V98.89H278.424V117.81L277.654 127.6C279.707 125.767 282.09 124.08 284.804 122.54C287.59 120.927 290.817 120.12 294.484 120.12C300.424 120.12 304.714 122.1 307.354 126.06C310.067 129.947 311.424 135.3 311.424 142.12V176H295.254V144.21C295.254 140.25 294.704 137.537 293.604 136.07C292.577 134.603 290.89 133.87 288.544 133.87C286.49 133.87 284.73 134.347 283.264 135.3C281.797 136.18 280.184 137.463 278.424 139.15V176H262.254ZM349.515 177.32C344.309 177.32 339.615 176.183 335.435 173.91C331.255 171.637 327.955 168.373 325.535 164.12C323.115 159.867 321.905 154.733 321.905 148.72C321.905 142.78 323.115 137.683 325.535 133.43C328.029 129.177 331.255 125.913 335.215 123.64C339.175 121.293 343.319 120.12 347.645 120.12C352.852 120.12 357.142 121.293 360.515 123.64C363.962 125.913 366.529 129.03 368.215 132.99C369.975 136.877 370.855 141.313 370.855 146.3C370.855 147.693 370.782 149.087 370.635 150.48C370.489 151.8 370.342 152.79 370.195 153.45H337.525C338.259 157.41 339.909 160.343 342.475 162.25C345.042 164.083 348.122 165 351.715 165C355.602 165 359.525 163.79 363.485 161.37L368.875 171.16C366.089 173.067 362.972 174.57 359.525 175.67C356.079 176.77 352.742 177.32 349.515 177.32ZM337.415 142.78H357.105C357.105 139.773 356.372 137.317 354.905 135.41C353.512 133.43 351.202 132.44 347.975 132.44C345.482 132.44 343.245 133.32 341.265 135.08C339.285 136.767 338.002 139.333 337.415 142.78ZM417.8 177.32C412.814 177.32 408.854 175.743 405.92 172.59C402.987 169.363 401.52 165.44 401.52 160.82C401.52 155.1 403.94 150.627 408.78 147.4C413.62 144.173 421.43 142.01 432.21 140.91C432.064 138.49 431.33 136.583 430.01 135.19C428.764 133.723 426.637 132.99 423.63 132.99C421.357 132.99 419.047 133.43 416.7 134.31C414.354 135.19 411.86 136.4 409.22 137.94L403.39 127.27C406.837 125.143 410.504 123.42 414.39 122.1C418.35 120.78 422.457 120.12 426.71 120.12C433.677 120.12 439.03 122.137 442.77 126.17C446.51 130.203 448.38 136.4 448.38 144.76V176H435.18L434.08 170.39H433.64C431.367 172.443 428.91 174.13 426.27 175.45C423.704 176.697 420.88 177.32 417.8 177.32ZM423.3 164.78C425.134 164.78 426.71 164.377 428.03 163.57C429.424 162.69 430.817 161.553 432.21 160.16V150.59C426.49 151.323 422.53 152.497 420.33 154.11C418.13 155.65 417.03 157.483 417.03 159.61C417.03 161.37 417.58 162.69 418.68 163.57C419.854 164.377 421.394 164.78 423.3 164.78ZM481.135 177.32C474.388 177.32 469.548 175.377 466.615 171.49C463.755 167.603 462.325 162.507 462.325 156.2V134.09H454.845V122.1L463.205 121.44L465.075 106.92H478.495V121.44H491.585V134.09H478.495V155.98C478.495 159.06 479.118 161.297 480.365 162.69C481.685 164.01 483.408 164.67 485.535 164.67C486.415 164.67 487.295 164.56 488.175 164.34C489.128 164.12 489.971 163.863 490.705 163.57L493.235 175.34C491.841 175.78 490.118 176.22 488.065 176.66C486.085 177.1 483.775 177.32 481.135 177.32ZM524.72 177.32C519.514 177.32 514.82 176.183 510.64 173.91C506.46 171.637 503.16 168.373 500.74 164.12C498.32 159.867 497.11 154.733 497.11 148.72C497.11 142.78 498.32 137.683 500.74 133.43C503.234 129.177 506.46 125.913 510.42 123.64C514.38 121.293 518.524 120.12 522.85 120.12C528.057 120.12 532.347 121.293 535.72 123.64C539.167 125.913 541.734 129.03 543.42 132.99C545.18 136.877 546.06 141.313 546.06 146.3C546.06 147.693 545.987 149.087 545.84 150.48C545.694 151.8 545.547 152.79 545.4 153.45H512.73C513.464 157.41 515.114 160.343 517.68 162.25C520.247 164.083 523.327 165 526.92 165C530.807 165 534.73 163.79 538.69 161.37L544.08 171.16C541.294 173.067 538.177 174.57 534.73 175.67C531.284 176.77 527.947 177.32 524.72 177.32ZM512.62 142.78H532.31C532.31 139.773 531.577 137.317 530.11 135.41C528.717 133.43 526.407 132.44 523.18 132.44C520.687 132.44 518.45 133.32 516.47 135.08C514.49 136.767 513.207 139.333 512.62 142.78ZM523.73 113.08L515.81 105.16L532.75 85.14L543.64 95.81L523.73 113.08ZM580.575 176V104.28H606.425C611.485 104.28 616.105 104.977 620.285 106.37C624.465 107.69 627.802 109.963 630.295 113.19C632.789 116.417 634.035 120.89 634.035 126.61C634.035 131.89 632.862 136.253 630.515 139.7C628.242 143.073 625.162 145.603 621.275 147.29L637.555 176H619.405L605.655 150.15H596.745V176H580.575ZM596.745 137.28H605.105C609.359 137.28 612.585 136.4 614.785 134.64C617.059 132.807 618.195 130.13 618.195 126.61C618.195 123.09 617.059 120.633 614.785 119.24C612.585 117.847 609.359 117.15 605.105 117.15H596.745V137.28ZM663.216 188.1V177.1C659.99 176.733 656.58 175.853 652.986 174.46C649.466 172.993 646.423 171.087 643.856 168.74L650.896 157.85C653.683 159.903 656.323 161.48 658.816 162.58C661.383 163.68 663.986 164.23 666.626 164.23C672.566 164.23 675.536 161.7 675.536 156.64C675.536 154.733 674.84 153.12 673.446 151.8C672.053 150.407 670.256 149.123 668.056 147.95C665.856 146.777 663.51 145.567 661.016 144.32C658.523 143.073 656.176 141.643 653.976 140.03C651.776 138.417 649.98 136.473 648.586 134.2C647.193 131.853 646.496 129.03 646.496 125.73C646.496 120.303 648 115.83 651.006 112.31C654.013 108.717 658.083 106.407 663.216 105.38V94.05H673.886V105.16C677.406 105.673 680.486 106.737 683.126 108.35C685.766 109.963 688.15 111.907 690.276 114.18L682.136 123.42C680.156 121.587 678.25 120.23 676.416 119.35C674.583 118.397 672.493 117.92 670.146 117.92C667.506 117.92 665.49 118.47 664.096 119.57C662.703 120.67 662.006 122.467 662.006 124.96C662.006 126.72 662.703 128.223 664.096 129.47C665.49 130.643 667.286 131.78 669.486 132.88C671.686 133.98 674.033 135.117 676.526 136.29C679.02 137.463 681.366 138.893 683.566 140.58C685.766 142.267 687.563 144.32 688.956 146.74C690.35 149.087 691.046 152.02 691.046 155.54C691.046 160.82 689.58 165.367 686.646 169.18C683.786 172.92 679.533 175.413 673.886 176.66V188.1H663.216ZM727.403 176V162.91H742.583V122.54H729.493V112.53C733.306 111.797 736.533 110.917 739.173 109.89C741.813 108.863 744.38 107.617 746.873 106.15H758.753V162.91H771.843V176H727.403ZM794.318 177.32C791.532 177.32 789.185 176.367 787.278 174.46C785.445 172.48 784.528 170.06 784.528 167.2C784.528 164.267 785.445 161.847 787.278 159.94C789.185 157.96 791.532 156.97 794.318 156.97C797.105 156.97 799.415 157.96 801.248 159.94C803.155 161.847 804.108 164.267 804.108 167.2C804.108 170.06 803.155 172.48 801.248 174.46C799.415 176.367 797.105 177.32 794.318 177.32ZM839.837 177.32C832.357 177.32 826.307 174.203 821.687 167.97C817.14 161.737 814.867 152.68 814.867 140.8C814.867 128.92 817.14 119.973 821.687 113.96C826.307 107.873 832.357 104.83 839.837 104.83C847.317 104.83 853.33 107.873 857.877 113.96C862.497 119.973 864.807 128.92 864.807 140.8C864.807 152.68 862.497 161.737 857.877 167.97C853.33 174.203 847.317 177.32 839.837 177.32ZM839.837 164.78C841.67 164.78 843.32 164.12 844.787 162.8C846.254 161.407 847.39 158.987 848.197 155.54C849.077 152.093 849.517 147.18 849.517 140.8C849.517 134.42 849.077 129.543 848.197 126.17C847.39 122.797 846.254 120.487 844.787 119.24C843.32 117.993 841.67 117.37 839.837 117.37C838.077 117.37 836.464 117.993 834.997 119.24C833.53 120.487 832.357 122.797 831.477 126.17C830.597 129.543 830.157 134.42 830.157 140.8C830.157 147.18 830.597 152.093 831.477 155.54C832.357 158.987 833.53 161.407 834.997 162.8C836.464 164.12 838.077 164.78 839.837 164.78ZM897.952 177.32C890.472 177.32 884.422 174.203 879.802 167.97C875.255 161.737 872.982 152.68 872.982 140.8C872.982 128.92 875.255 119.973 879.802 113.96C884.422 107.873 890.472 104.83 897.952 104.83C905.432 104.83 911.445 107.873 915.992 113.96C920.612 119.973 922.922 128.92 922.922 140.8C922.922 152.68 920.612 161.737 915.992 167.97C911.445 174.203 905.432 177.32 897.952 177.32ZM897.952 164.78C899.785 164.78 901.435 164.12 902.902 162.8C904.369 161.407 905.505 158.987 906.312 155.54C907.192 152.093 907.632 147.18 907.632 140.8C907.632 134.42 907.192 129.543 906.312 126.17C905.505 122.797 904.369 120.487 902.902 119.24C901.435 117.993 899.785 117.37 897.952 117.37C896.192 117.37 894.579 117.993 893.112 119.24C891.645 120.487 890.472 122.797 889.592 126.17C888.712 129.543 888.272 134.42 888.272 140.8C888.272 147.18 888.712 152.093 889.592 155.54C890.472 158.987 891.645 161.407 893.112 162.8C894.579 164.12 896.192 164.78 897.952 164.78ZM956.067 177.32C948.587 177.32 942.537 174.203 937.917 167.97C933.371 161.737 931.097 152.68 931.097 140.8C931.097 128.92 933.371 119.973 937.917 113.96C942.537 107.873 948.587 104.83 956.067 104.83C963.547 104.83 969.561 107.873 974.107 113.96C978.727 119.973 981.037 128.92 981.037 140.8C981.037 152.68 978.727 161.737 974.107 167.97C969.561 174.203 963.547 177.32 956.067 177.32ZM956.067 164.78C957.901 164.78 959.551 164.12 961.017 162.8C962.484 161.407 963.621 158.987 964.427 155.54C965.307 152.093 965.747 147.18 965.747 140.8C965.747 134.42 965.307 129.543 964.427 126.17C963.621 122.797 962.484 120.487 961.017 119.24C959.551 117.993 957.901 117.37 956.067 117.37C954.307 117.37 952.694 117.993 951.227 119.24C949.761 120.487 948.587 122.797 947.707 126.17C946.827 129.543 946.387 134.42 946.387 140.8C946.387 147.18 946.827 152.093 947.707 155.54C948.587 158.987 949.761 161.407 951.227 162.8C952.694 164.12 954.307 164.78 956.067 164.78Z" fill="#6732D1"/>
<path d="M69.4 259V219.64H74.38V259H69.4ZM84.6817 259V229.84H88.7617L89.1817 234.04H89.3617C90.7617 232.64 92.2417 231.48 93.8017 230.56C95.3617 229.6 97.1417 229.12 99.1417 229.12C102.222 229.12 104.462 230.1 105.862 232.06C107.302 233.98 108.022 236.8 108.022 240.52V259H103.102V241.18C103.102 238.46 102.662 236.48 101.782 235.24C100.902 234 99.5017 233.38 97.5817 233.38C96.1017 233.38 94.7617 233.76 93.5617 234.52C92.4017 235.28 91.0817 236.4 89.6017 237.88V259H84.6817ZM127.454 259.72C123.814 259.72 120.894 258.4 118.694 255.76C116.494 253.08 115.394 249.32 115.394 244.48C115.394 241.32 115.974 238.6 117.134 236.32C118.334 234 119.894 232.22 121.814 230.98C123.774 229.74 125.854 229.12 128.054 229.12C129.734 229.12 131.194 229.42 132.434 230.02C133.674 230.62 134.934 231.44 136.214 232.48L135.974 227.5V216.28H140.954V259H136.874L136.454 255.58H136.274C135.154 256.7 133.834 257.68 132.314 258.52C130.794 259.32 129.174 259.72 127.454 259.72ZM128.534 255.58C131.094 255.58 133.574 254.24 135.974 251.56V236.32C134.734 235.2 133.534 234.42 132.374 233.98C131.254 233.5 130.094 233.26 128.894 233.26C127.334 233.26 125.914 233.74 124.634 234.7C123.394 235.62 122.394 236.92 121.634 238.6C120.874 240.24 120.494 242.18 120.494 244.42C120.494 247.9 121.194 250.64 122.594 252.64C123.994 254.6 125.974 255.58 128.534 255.58ZM150.775 259V229.84H155.695V259H150.775ZM153.295 223.84C152.335 223.84 151.535 223.56 150.895 223C150.295 222.4 149.995 221.6 149.995 220.6C149.995 219.64 150.295 218.86 150.895 218.26C151.535 217.66 152.335 217.36 153.295 217.36C154.255 217.36 155.035 217.66 155.635 218.26C156.275 218.86 156.595 219.64 156.595 220.6C156.595 221.6 156.275 222.4 155.635 223C155.035 223.56 154.255 223.84 153.295 223.84ZM177.061 259.72C174.501 259.72 172.181 259.12 170.101 257.92C168.021 256.72 166.381 254.98 165.181 252.7C163.981 250.42 163.381 247.68 163.381 244.48C163.381 241.2 164.021 238.42 165.301 236.14C166.621 233.86 168.341 232.12 170.461 230.92C172.621 229.72 174.941 229.12 177.421 229.12C179.341 229.12 180.981 229.46 182.341 230.14C183.741 230.82 184.941 231.62 185.941 232.54L183.421 235.78C182.581 235.02 181.681 234.4 180.721 233.92C179.801 233.44 178.761 233.2 177.601 233.2C175.841 233.2 174.261 233.68 172.861 234.64C171.501 235.56 170.421 236.88 169.621 238.6C168.861 240.28 168.481 242.24 168.481 244.48C168.481 247.8 169.301 250.5 170.941 252.58C172.621 254.62 174.801 255.64 177.481 255.64C178.841 255.64 180.101 255.36 181.261 254.8C182.421 254.2 183.441 253.5 184.321 252.7L186.481 256C185.161 257.16 183.701 258.08 182.101 258.76C180.501 259.4 178.821 259.72 177.061 259.72ZM199.038 259.72C196.598 259.72 194.558 259 192.918 257.56C191.318 256.08 190.518 254.04 190.518 251.44C190.518 248.24 191.938 245.8 194.778 244.12C197.658 242.4 202.198 241.2 208.398 240.52C208.398 239.28 208.218 238.1 207.858 236.98C207.538 235.86 206.938 234.96 206.058 234.28C205.218 233.56 203.998 233.2 202.398 233.2C200.718 233.2 199.138 233.52 197.658 234.16C196.178 234.8 194.858 235.52 193.698 236.32L191.778 232.9C193.138 232.02 194.798 231.18 196.758 230.38C198.758 229.54 200.918 229.12 203.238 229.12C206.798 229.12 209.378 230.22 210.978 232.42C212.578 234.58 213.378 237.48 213.378 241.12V259H209.298L208.878 255.52H208.698C207.338 256.64 205.838 257.62 204.198 258.46C202.598 259.3 200.878 259.72 199.038 259.72ZM200.478 255.76C201.878 255.76 203.198 255.42 204.438 254.74C205.678 254.06 206.998 253.1 208.398 251.86V243.76C203.558 244.36 200.158 245.26 198.198 246.46C196.278 247.66 195.318 249.2 195.318 251.08C195.318 252.72 195.818 253.92 196.818 254.68C197.818 255.4 199.038 255.76 200.478 255.76ZM222.553 259V229.84H226.633L227.053 234.04H227.233C228.633 232.64 230.113 231.48 231.673 230.56C233.233 229.6 235.013 229.12 237.013 229.12C240.093 229.12 242.333 230.1 243.733 232.06C245.173 233.98 245.893 236.8 245.893 240.52V259H240.973V241.18C240.973 238.46 240.533 236.48 239.653 235.24C238.773 234 237.373 233.38 235.453 233.38C233.973 233.38 232.633 233.76 231.433 234.52C230.273 235.28 228.953 236.4 227.473 237.88V259H222.553ZM265.325 259.72C261.685 259.72 258.765 258.4 256.565 255.76C254.365 253.08 253.265 249.32 253.265 244.48C253.265 241.32 253.845 238.6 255.005 236.32C256.205 234 257.765 232.22 259.685 230.98C261.645 229.74 263.725 229.12 265.925 229.12C267.605 229.12 269.065 229.42 270.305 230.02C271.545 230.62 272.805 231.44 274.085 232.48L273.845 227.5V216.28H278.825V259H274.745L274.325 255.58H274.145C273.025 256.7 271.705 257.68 270.185 258.52C268.665 259.32 267.045 259.72 265.325 259.72ZM266.405 255.58C268.965 255.58 271.445 254.24 273.845 251.56V236.32C272.605 235.2 271.405 234.42 270.245 233.98C269.125 233.5 267.965 233.26 266.765 233.26C265.205 233.26 263.785 233.74 262.505 234.7C261.265 235.62 260.265 236.92 259.505 238.6C258.745 240.24 258.365 242.18 258.365 244.42C258.365 247.9 259.065 250.64 260.465 252.64C261.865 254.6 263.845 255.58 266.405 255.58ZM299.987 259.72C297.627 259.72 295.407 259.12 293.327 257.92C291.287 256.72 289.627 254.98 288.347 252.7C287.107 250.42 286.487 247.68 286.487 244.48C286.487 241.2 287.107 238.42 288.347 236.14C289.627 233.86 291.287 232.12 293.327 230.92C295.407 229.72 297.627 229.12 299.987 229.12C302.387 229.12 304.607 229.72 306.647 230.92C308.687 232.12 310.327 233.86 311.567 236.14C312.847 238.42 313.487 241.2 313.487 244.48C313.487 247.68 312.847 250.42 311.567 252.7C310.327 254.98 308.687 256.72 306.647 257.92C304.607 259.12 302.387 259.72 299.987 259.72ZM299.987 255.64C302.507 255.64 304.527 254.62 306.047 252.58C307.607 250.5 308.387 247.8 308.387 244.48C308.387 241.12 307.607 238.4 306.047 236.32C304.527 234.24 302.507 233.2 299.987 233.2C297.507 233.2 295.487 234.24 293.927 236.32C292.367 238.4 291.587 241.12 291.587 244.48C291.587 247.8 292.367 250.5 293.927 252.58C295.487 254.62 297.507 255.64 299.987 255.64ZM330.958 259V256L351.658 223.84H332.818V219.64H357.898V222.58L337.138 254.74H358.078V259H330.958ZM376.053 259.72C373.453 259.72 371.093 259.12 368.973 257.92C366.853 256.68 365.173 254.92 363.933 252.64C362.693 250.36 362.073 247.64 362.073 244.48C362.073 241.28 362.693 238.54 363.933 236.26C365.213 233.98 366.853 232.22 368.853 230.98C370.853 229.74 372.953 229.12 375.152 229.12C378.873 229.12 381.733 230.36 383.733 232.84C385.773 235.32 386.793 238.64 386.793 242.8C386.793 243.32 386.773 243.84 386.733 244.36C386.733 244.84 386.693 245.26 386.613 245.62H366.933C367.133 248.7 368.093 251.16 369.813 253C371.573 254.84 373.853 255.76 376.653 255.76C378.053 255.76 379.333 255.56 380.493 255.16C381.693 254.72 382.833 254.16 383.913 253.48L385.653 256.72C384.413 257.52 382.993 258.22 381.393 258.82C379.833 259.42 378.053 259.72 376.053 259.72ZM366.873 242.08H382.473C382.473 239.12 381.833 236.88 380.553 235.36C379.313 233.8 377.553 233.02 375.273 233.02C373.233 233.02 371.393 233.82 369.753 235.42C368.153 236.98 367.193 239.2 366.873 242.08ZM393.998 259V229.84H398.078L398.498 234.04H398.678C400.078 232.64 401.558 231.48 403.118 230.56C404.678 229.6 406.458 229.12 408.458 229.12C411.538 229.12 413.778 230.1 415.178 232.06C416.618 233.98 417.338 236.8 417.338 240.52V259H412.418V241.18C412.418 238.46 411.978 236.48 411.098 235.24C410.218 234 408.818 233.38 406.898 233.38C405.418 233.38 404.078 233.76 402.878 234.52C401.718 235.28 400.398 236.4 398.918 237.88V259H393.998ZM426.811 259V216.28H431.671V245.2H431.851L444.271 229.84H449.731L439.951 241.54L451.051 259H445.651L437.131 244.96L431.671 251.32V259H426.811ZM461.738 259.72C459.898 259.72 458.558 259.16 457.718 258.04C456.918 256.88 456.518 255.24 456.518 253.12V216.28H461.438V253.48C461.438 254.24 461.578 254.8 461.858 255.16C462.138 255.48 462.458 255.64 462.818 255.64C462.978 255.64 463.118 255.64 463.238 255.64C463.398 255.6 463.618 255.56 463.898 255.52L464.558 259.24C464.238 259.4 463.858 259.52 463.418 259.6C462.978 259.68 462.418 259.72 461.738 259.72ZM480.331 259.72C477.251 259.72 474.991 258.76 473.551 256.84C472.111 254.88 471.391 252.04 471.391 248.32V229.84H476.371V247.66C476.371 250.38 476.791 252.36 477.631 253.6C478.511 254.84 479.911 255.46 481.831 255.46C483.351 255.46 484.691 255.08 485.851 254.32C487.051 253.52 488.331 252.26 489.691 250.54V229.84H494.611V259H490.531L490.111 254.44H489.931C488.571 256.04 487.131 257.32 485.611 258.28C484.091 259.24 482.331 259.72 480.331 259.72ZM517.347 259.72C515.987 259.72 514.567 259.4 513.087 258.76C511.647 258.08 510.287 257.16 509.007 256H508.827L508.407 259H504.447V216.28H509.367V227.92L509.247 233.2C510.567 232.04 512.007 231.08 513.567 230.32C515.167 229.52 516.767 229.12 518.367 229.12C522.167 229.12 525.047 230.46 527.007 233.14C528.967 235.82 529.947 239.42 529.947 243.94C529.947 247.26 529.347 250.1 528.147 252.46C526.987 254.82 525.447 256.62 523.527 257.86C521.647 259.1 519.587 259.72 517.347 259.72ZM516.507 255.58C518.907 255.58 520.887 254.56 522.447 252.52C524.047 250.44 524.847 247.6 524.847 244C524.847 240.8 524.247 238.22 523.047 236.26C521.887 234.26 519.927 233.26 517.167 233.26C515.927 233.26 514.667 233.6 513.387 234.28C512.107 234.96 510.767 235.94 509.367 237.22V252.52C510.647 253.64 511.907 254.44 513.147 254.92C514.427 255.36 515.547 255.58 516.507 255.58ZM549.623 271.3V229.84H553.703L554.123 233.2H554.303C555.623 232.08 557.063 231.12 558.623 230.32C560.223 229.52 561.883 229.12 563.603 229.12C567.363 229.12 570.223 230.48 572.183 233.2C574.143 235.88 575.123 239.48 575.123 244C575.123 247.28 574.523 250.1 573.323 252.46C572.163 254.82 570.623 256.62 568.703 257.86C566.823 259.1 564.763 259.72 562.523 259.72C561.163 259.72 559.803 259.42 558.443 258.82C557.123 258.22 555.783 257.4 554.423 256.36L554.543 261.46V271.3H549.623ZM561.683 255.58C564.083 255.58 566.063 254.56 567.623 252.52C569.223 250.44 570.023 247.6 570.023 244C570.023 240.8 569.423 238.22 568.223 236.26C567.063 234.26 565.103 233.26 562.343 233.26C561.103 233.26 559.843 233.6 558.563 234.28C557.323 234.96 555.983 235.94 554.543 237.22V252.52C555.863 253.64 557.143 254.44 558.383 254.92C559.623 255.36 560.723 255.58 561.683 255.58ZM588.804 259.72C586.364 259.72 584.324 259 582.684 257.56C581.084 256.08 580.284 254.04 580.284 251.44C580.284 248.24 581.704 245.8 584.544 244.12C587.424 242.4 591.964 241.2 598.164 240.52C598.164 239.28 597.984 238.1 597.624 236.98C597.304 235.86 596.704 234.96 595.824 234.28C594.984 233.56 593.764 233.2 592.164 233.2C590.484 233.2 588.904 233.52 587.424 234.16C585.944 234.8 584.624 235.52 583.464 236.32L581.544 232.9C582.904 232.02 584.564 231.18 586.524 230.38C588.524 229.54 590.684 229.12 593.004 229.12C596.564 229.12 599.144 230.22 600.744 232.42C602.344 234.58 603.144 237.48 603.144 241.12V259H599.064L598.644 255.52H598.464C597.104 256.64 595.604 257.62 593.964 258.46C592.364 259.3 590.644 259.72 588.804 259.72ZM590.244 255.76C591.644 255.76 592.964 255.42 594.204 254.74C595.444 254.06 596.764 253.1 598.164 251.86V243.76C593.324 244.36 589.924 245.26 587.964 246.46C586.044 247.66 585.084 249.2 585.084 251.08C585.084 252.72 585.584 253.92 586.584 254.68C587.584 255.4 588.804 255.76 590.244 255.76ZM612.318 259V229.84H616.398L616.818 235.12H616.998C617.998 233.28 619.218 231.82 620.658 230.74C622.098 229.66 623.638 229.12 625.278 229.12C626.438 229.12 627.478 229.32 628.398 229.72L627.438 234.04C626.958 233.88 626.518 233.76 626.118 233.68C625.718 233.6 625.218 233.56 624.618 233.56C623.378 233.56 622.078 234.06 620.718 235.06C619.398 236.06 618.238 237.8 617.238 240.28V259H612.318ZM638.374 259.72C635.934 259.72 633.894 259 632.254 257.56C630.654 256.08 629.854 254.04 629.854 251.44C629.854 248.24 631.274 245.8 634.114 244.12C636.994 242.4 641.534 241.2 647.734 240.52C647.734 239.28 647.554 238.1 647.194 236.98C646.874 235.86 646.274 234.96 645.394 234.28C644.554 233.56 643.334 233.2 641.734 233.2C640.054 233.2 638.474 233.52 636.994 234.16C635.514 234.8 634.194 235.52 633.034 236.32L631.114 232.9C632.474 232.02 634.134 231.18 636.094 230.38C638.094 229.54 640.254 229.12 642.574 229.12C646.134 229.12 648.714 230.22 650.314 232.42C651.914 234.58 652.714 237.48 652.714 241.12V259H648.634L648.214 255.52H648.034C646.674 256.64 645.174 257.62 643.534 258.46C641.934 259.3 640.214 259.72 638.374 259.72ZM639.814 255.76C641.214 255.76 642.534 255.42 643.774 254.74C645.014 254.06 646.334 253.1 647.734 251.86V243.76C642.894 244.36 639.494 245.26 637.534 246.46C635.614 247.66 634.654 249.2 634.654 251.08C634.654 252.72 635.154 253.92 636.154 254.68C637.154 255.4 638.374 255.76 639.814 255.76ZM685.72 259.72C683.12 259.72 680.76 259.12 678.64 257.92C676.52 256.68 674.84 254.92 673.6 252.64C672.36 250.36 671.74 247.64 671.74 244.48C671.74 241.28 672.36 238.54 673.6 236.26C674.88 233.98 676.52 232.22 678.52 230.98C680.52 229.74 682.62 229.12 684.82 229.12C688.54 229.12 691.4 230.36 693.4 232.84C695.44 235.32 696.46 238.64 696.46 242.8C696.46 243.32 696.44 243.84 696.4 244.36C696.4 244.84 696.36 245.26 696.28 245.62H676.6C676.8 248.7 677.76 251.16 679.48 253C681.24 254.84 683.52 255.76 686.32 255.76C687.72 255.76 689 255.56 690.16 255.16C691.36 254.72 692.5 254.16 693.58 253.48L695.32 256.72C694.08 257.52 692.66 258.22 691.06 258.82C689.5 259.42 687.72 259.72 685.72 259.72ZM676.54 242.08H692.14C692.14 239.12 691.5 236.88 690.22 235.36C688.98 233.8 687.22 233.02 684.94 233.02C682.9 233.02 681.06 233.82 679.42 235.42C677.82 236.98 676.86 239.2 676.54 242.08ZM703.666 259V229.84H707.746L708.166 234.04H708.346C709.626 232.64 711.026 231.48 712.546 230.56C714.066 229.6 715.686 229.12 717.406 229.12C719.646 229.12 721.386 229.62 722.626 230.62C723.906 231.58 724.846 232.94 725.446 234.7C726.966 233.06 728.506 231.72 730.066 230.68C731.626 229.64 733.286 229.12 735.046 229.12C738.046 229.12 740.266 230.1 741.706 232.06C743.186 233.98 743.926 236.8 743.926 240.52V259H739.006V241.18C739.006 238.46 738.566 236.48 737.686 235.24C736.806 234 735.446 233.38 733.606 233.38C731.446 233.38 729.006 234.88 726.286 237.88V259H721.366V241.18C721.366 238.46 720.926 236.48 720.046 235.24C719.166 234 717.786 233.38 715.906 233.38C713.746 233.38 711.306 234.88 708.586 237.88V259H703.666ZM753.412 271.3V229.84H757.492L757.912 233.2H758.092C759.412 232.08 760.852 231.12 762.412 230.32C764.012 229.52 765.672 229.12 767.392 229.12C771.152 229.12 774.012 230.48 775.972 233.2C777.932 235.88 778.912 239.48 778.912 244C778.912 247.28 778.312 250.1 777.112 252.46C775.952 254.82 774.412 256.62 772.492 257.86C770.612 259.1 768.552 259.72 766.312 259.72C764.952 259.72 763.592 259.42 762.232 258.82C760.912 258.22 759.572 257.4 758.212 256.36L758.332 261.46V271.3H753.412ZM765.472 255.58C767.872 255.58 769.852 254.56 771.412 252.52C773.012 250.44 773.812 247.6 773.812 244C773.812 240.8 773.212 238.22 772.012 236.26C770.852 234.26 768.892 233.26 766.132 233.26C764.892 233.26 763.632 233.6 762.352 234.28C761.112 234.96 759.772 235.94 758.332 237.22V252.52C759.652 253.64 760.932 254.44 762.172 254.92C763.412 255.36 764.512 255.58 765.472 255.58ZM786.693 259V229.84H790.773L791.193 235.12H791.373C792.373 233.28 793.593 231.82 795.033 230.74C796.473 229.66 798.013 229.12 799.653 229.12C800.813 229.12 801.853 229.32 802.773 229.72L801.813 234.04C801.333 233.88 800.893 233.76 800.493 233.68C800.093 233.6 799.593 233.56 798.993 233.56C797.753 233.56 796.453 234.06 795.093 235.06C793.773 236.06 792.613 237.8 791.613 240.28V259H786.693ZM818.728 259.72C816.128 259.72 813.768 259.12 811.648 257.92C809.528 256.68 807.848 254.92 806.608 252.64C805.368 250.36 804.748 247.64 804.748 244.48C804.748 241.28 805.368 238.54 806.608 236.26C807.888 233.98 809.528 232.22 811.528 230.98C813.528 229.74 815.628 229.12 817.828 229.12C821.548 229.12 824.408 230.36 826.408 232.84C828.448 235.32 829.468 238.64 829.468 242.8C829.468 243.32 829.448 243.84 829.408 244.36C829.408 244.84 829.368 245.26 829.288 245.62H809.608C809.808 248.7 810.768 251.16 812.488 253C814.248 254.84 816.528 255.76 819.328 255.76C820.728 255.76 822.008 255.56 823.168 255.16C824.368 254.72 825.508 254.16 826.588 253.48L828.328 256.72C827.088 257.52 825.668 258.22 824.068 258.82C822.508 259.42 820.728 259.72 818.728 259.72ZM809.548 242.08H825.148C825.148 239.12 824.508 236.88 823.228 235.36C821.988 233.8 820.228 233.02 817.948 233.02C815.908 233.02 814.068 233.82 812.428 235.42C810.828 236.98 809.868 239.2 809.548 242.08ZM844.294 259.72C842.214 259.72 840.234 259.34 838.354 258.58C836.474 257.78 834.834 256.82 833.434 255.7L835.894 252.4C837.174 253.4 838.494 254.24 839.854 254.92C841.214 255.56 842.754 255.88 844.474 255.88C846.394 255.88 847.834 255.44 848.794 254.56C849.754 253.64 850.234 252.56 850.234 251.32C850.234 250.32 849.894 249.48 849.214 248.8C848.574 248.12 847.734 247.56 846.694 247.12C845.694 246.64 844.654 246.2 843.574 245.8C842.214 245.28 840.874 244.7 839.554 244.06C838.234 243.38 837.154 242.52 836.314 241.48C835.474 240.4 835.054 239.04 835.054 237.4C835.054 235.04 835.934 233.08 837.694 231.52C839.494 229.92 841.974 229.12 845.134 229.12C846.934 229.12 848.614 229.44 850.174 230.08C851.734 230.72 853.074 231.5 854.194 232.42L851.794 235.54C850.794 234.78 849.754 234.16 848.674 233.68C847.594 233.2 846.414 232.96 845.134 232.96C843.294 232.96 841.934 233.38 841.054 234.22C840.214 235.06 839.794 236.04 839.794 237.16C839.794 238.08 840.094 238.84 840.694 239.44C841.294 240 842.074 240.5 843.034 240.94C843.994 241.34 845.014 241.76 846.094 242.2C847.494 242.72 848.874 243.32 850.234 244C851.594 244.64 852.714 245.52 853.594 246.64C854.514 247.72 854.974 249.18 854.974 251.02C854.974 252.58 854.554 254.02 853.714 255.34C852.914 256.66 851.714 257.72 850.114 258.52C848.554 259.32 846.614 259.72 844.294 259.72ZM868.531 259.72C866.091 259.72 864.051 259 862.411 257.56C860.811 256.08 860.011 254.04 860.011 251.44C860.011 248.24 861.431 245.8 864.271 244.12C867.151 242.4 871.691 241.2 877.891 240.52C877.891 239.28 877.711 238.1 877.351 236.98C877.031 235.86 876.431 234.96 875.551 234.28C874.711 233.56 873.491 233.2 871.891 233.2C870.211 233.2 868.631 233.52 867.151 234.16C865.671 234.8 864.351 235.52 863.191 236.32L861.271 232.9C862.631 232.02 864.291 231.18 866.251 230.38C868.251 229.54 870.411 229.12 872.731 229.12C876.291 229.12 878.871 230.22 880.471 232.42C882.071 234.58 882.871 237.48 882.871 241.12V259H878.791L878.371 255.52H878.191C876.831 256.64 875.331 257.62 873.691 258.46C872.091 259.3 870.371 259.72 868.531 259.72ZM869.971 255.76C871.371 255.76 872.691 255.42 873.931 254.74C875.171 254.06 876.491 253.1 877.891 251.86V243.76C873.051 244.36 869.651 245.26 867.691 246.46C865.771 247.66 864.811 249.2 864.811 251.08C864.811 252.72 865.311 253.92 866.311 254.68C867.311 255.4 868.531 255.76 869.971 255.76ZM899.665 259.72C897.585 259.72 895.605 259.34 893.725 258.58C891.845 257.78 890.205 256.82 888.805 255.7L891.265 252.4C892.545 253.4 893.865 254.24 895.225 254.92C896.585 255.56 898.125 255.88 899.845 255.88C901.765 255.88 903.205 255.44 904.165 254.56C905.125 253.64 905.605 252.56 905.605 251.32C905.605 250.32 905.265 249.48 904.585 248.8C903.945 248.12 903.105 247.56 902.065 247.12C901.065 246.64 900.025 246.2 898.945 245.8C897.585 245.28 896.245 244.7 894.925 244.06C893.605 243.38 892.525 242.52 891.685 241.48C890.845 240.4 890.425 239.04 890.425 237.4C890.425 235.04 891.305 233.08 893.065 231.52C894.865 229.92 897.345 229.12 900.505 229.12C902.305 229.12 903.985 229.44 905.545 230.08C907.105 230.72 908.445 231.5 909.565 232.42L907.165 235.54C906.165 234.78 905.125 234.16 904.045 233.68C902.965 233.2 901.785 232.96 900.505 232.96C898.665 232.96 897.305 233.38 896.425 234.22C895.585 235.06 895.165 236.04 895.165 237.16C895.165 238.08 895.465 238.84 896.065 239.44C896.665 240 897.445 240.5 898.405 240.94C899.365 241.34 900.385 241.76 901.465 242.2C902.865 242.72 904.245 243.32 905.605 244C906.965 244.64 908.085 245.52 908.965 246.64C909.885 247.72 910.345 249.18 910.345 251.02C910.345 252.58 909.925 254.02 909.085 255.34C908.285 256.66 907.085 257.72 905.485 258.52C903.925 259.32 901.985 259.72 899.665 259.72Z" fill="#241249"/>
<path d="M943.184 221.001C942.521 221.001 941.885 221.264 941.416 221.733C940.948 222.202 940.684 222.838 940.684 223.501C940.684 224.164 940.948 224.8 941.416 225.269C941.885 225.738 942.521 226.001 943.184 226.001H965.451L936.718 254.734C936.472 254.963 936.275 255.239 936.138 255.546C936.002 255.853 935.928 256.184 935.922 256.519C935.916 256.855 935.978 257.188 936.104 257.5C936.23 257.811 936.417 258.094 936.654 258.331C936.892 258.568 937.174 258.756 937.486 258.881C937.797 259.007 938.13 259.069 938.466 259.063C938.802 259.057 939.133 258.984 939.439 258.847C939.746 258.71 940.022 258.513 940.251 258.268L968.984 229.534V251.801C968.984 252.464 969.248 253.1 969.716 253.569C970.185 254.038 970.821 254.301 971.484 254.301C972.147 254.301 972.783 254.038 973.252 253.569C973.721 253.1 973.984 252.464 973.984 251.801V223.501C973.982 223.169 973.914 222.84 973.784 222.534C973.603 222.108 973.308 221.74 972.932 221.469C972.556 221.199 972.113 221.037 971.651 221.001H943.184Z" fill="#FDBE08"/>
</svg>
