<svg width="328" height="120" viewBox="0 0 328 120" fill="none" xmlns="http://www.w3.org/2000/svg">
<rect width="328" height="120" rx="8" fill="white"/>
<path d="M22.84 36.84C23.7333 36.84 24.44 36.4533 24.96 35.68C25.48 34.8933 25.74 33.8067 25.74 32.42C25.74 31.1133 25.48 30.0933 24.96 29.36C24.44 28.6267 23.7333 28.26 22.84 28.26C21.9467 28.26 21.24 28.6267 20.72 29.36C20.2 30.0933 19.94 31.1133 19.94 32.42C19.94 33.8067 20.2 34.8933 20.72 35.68C21.24 36.4533 21.9467 36.84 22.84 36.84ZM27.14 42.64C25.7667 42.64 24.6 42.3 23.64 41.62C22.68 40.9533 21.9667 40.1133 21.5 39.1C20.1133 38.8067 19 38.08 18.16 36.92C17.3333 35.76 16.92 34.26 16.92 32.42C16.92 30.9933 17.1667 29.7867 17.66 28.8C18.1667 27.8 18.86 27.04 19.74 26.52C20.6333 25.9867 21.6667 25.72 22.84 25.72C24.0133 25.72 25.04 25.9867 25.92 26.52C26.8133 27.04 27.5067 27.8 28 28.8C28.5067 29.8 28.76 31.0067 28.76 32.42C28.76 34.1667 28.3867 35.6133 27.64 36.76C26.8933 37.8933 25.8867 38.64 24.62 39C24.9267 39.4533 25.34 39.78 25.86 39.98C26.3933 40.18 26.9333 40.28 27.48 40.28C27.76 40.28 28.02 40.2533 28.26 40.2C28.5133 40.16 28.7333 40.1133 28.92 40.06L29.44 42.2C29.2 42.32 28.88 42.42 28.48 42.5C28.0933 42.5933 27.6467 42.64 27.14 42.64ZM33.7519 39.24C32.6719 39.24 31.8852 38.8867 31.3919 38.18C30.9119 37.46 30.6719 36.48 30.6719 35.24V29.08H33.6119V34.86C33.6119 35.5667 33.7119 36.06 33.9119 36.34C34.1119 36.6067 34.4252 36.74 34.8519 36.74C35.2252 36.74 35.5385 36.6533 35.7919 36.48C36.0452 36.3067 36.3185 36.0267 36.6119 35.64V29.08H39.5519V39H37.1519L36.9319 37.62H36.8719C36.4585 38.1133 36.0052 38.5067 35.5119 38.8C35.0185 39.0933 34.4319 39.24 33.7519 39.24ZM46.3791 39.24C45.4324 39.24 44.5791 39.0333 43.8191 38.62C43.0591 38.2067 42.4591 37.6133 42.0191 36.84C41.5791 36.0667 41.3591 35.1333 41.3591 34.04C41.3591 32.96 41.5791 32.0333 42.0191 31.26C42.4724 30.4867 43.0591 29.8933 43.7791 29.48C44.4991 29.0533 45.2524 28.84 46.0391 28.84C46.9857 28.84 47.7657 29.0533 48.3791 29.48C49.0057 29.8933 49.4724 30.46 49.7791 31.18C50.0991 31.8867 50.2591 32.6933 50.2591 33.6C50.2591 33.8533 50.2457 34.1067 50.2191 34.36C50.1924 34.6 50.1657 34.78 50.1391 34.9H44.1991C44.3324 35.62 44.6324 36.1533 45.0991 36.5C45.5657 36.8333 46.1257 37 46.7791 37C47.4857 37 48.1991 36.78 48.9191 36.34L49.8991 38.12C49.3924 38.4667 48.8257 38.74 48.1991 38.94C47.5724 39.14 46.9657 39.24 46.3791 39.24ZM44.1791 32.96H47.7591C47.7591 32.4133 47.6257 31.9667 47.3591 31.62C47.1057 31.26 46.6857 31.08 46.0991 31.08C45.6457 31.08 45.2391 31.24 44.8791 31.56C44.5191 31.8667 44.2857 32.3333 44.1791 32.96ZM59.7145 39.24C58.4879 39.24 57.6079 38.8867 57.0745 38.18C56.5545 37.4733 56.2945 36.5467 56.2945 35.4V31.38H54.9345V29.2L56.4545 29.08L56.7945 26.44H59.2345V29.08H61.6145V31.38H59.2345V35.36C59.2345 35.92 59.3479 36.3267 59.5745 36.58C59.8145 36.82 60.1279 36.94 60.5145 36.94C60.6745 36.94 60.8345 36.92 60.9945 36.88C61.1679 36.84 61.3212 36.7933 61.4545 36.74L61.9145 38.88C61.6612 38.96 61.3479 39.04 60.9745 39.12C60.6145 39.2 60.1945 39.24 59.7145 39.24ZM65.4602 39.24C64.5535 39.24 63.8335 38.9533 63.3002 38.38C62.7668 37.7933 62.5002 37.08 62.5002 36.24C62.5002 35.2 62.9402 34.3867 63.8202 33.8C64.7002 33.2133 66.1202 32.82 68.0802 32.62C68.0535 32.18 67.9202 31.8333 67.6802 31.58C67.4535 31.3133 67.0668 31.18 66.5202 31.18C66.1068 31.18 65.6868 31.26 65.2602 31.42C64.8335 31.58 64.3802 31.8 63.9002 32.08L62.8402 30.14C63.4668 29.7533 64.1335 29.44 64.8402 29.2C65.5602 28.96 66.3068 28.84 67.0802 28.84C68.3468 28.84 69.3202 29.2067 70.0002 29.94C70.6802 30.6733 71.0202 31.8 71.0202 33.32V39H68.6202L68.4202 37.98H68.3402C67.9268 38.3533 67.4802 38.66 67.0002 38.9C66.5335 39.1267 66.0202 39.24 65.4602 39.24ZM66.4602 36.96C66.7935 36.96 67.0802 36.8867 67.3202 36.74C67.5735 36.58 67.8268 36.3733 68.0802 36.12V34.38C67.0402 34.5133 66.3202 34.7267 65.9202 35.02C65.5202 35.3 65.3202 35.6333 65.3202 36.02C65.3202 36.34 65.4202 36.58 65.6202 36.74C65.8335 36.8867 66.1135 36.96 66.4602 36.96ZM76.007 39.24C74.9937 39.24 74.287 38.94 73.887 38.34C73.5004 37.7267 73.307 36.92 73.307 35.92V24.98H76.247V36.04C76.247 36.3467 76.3004 36.56 76.407 36.68C76.527 36.8 76.647 36.86 76.767 36.86C76.8337 36.86 76.887 36.86 76.927 36.86C76.9804 36.8467 77.047 36.8333 77.127 36.82L77.487 39C77.327 39.0667 77.1204 39.12 76.867 39.16C76.627 39.2133 76.3404 39.24 76.007 39.24ZM86.1736 43.22C85.4003 43.22 84.7003 43.1333 84.0736 42.96C83.4469 42.7867 82.9469 42.5133 82.5736 42.14C82.2003 41.7667 82.0136 41.2867 82.0136 40.7C82.0136 39.9 82.4869 39.2333 83.4336 38.7V38.62C83.1803 38.4467 82.9603 38.2267 82.7736 37.96C82.6003 37.6933 82.5136 37.3533 82.5136 36.94C82.5136 36.58 82.6203 36.2333 82.8336 35.9C83.0469 35.5667 83.3136 35.2933 83.6336 35.08V35C83.2869 34.76 82.9736 34.4133 82.6936 33.96C82.4269 33.5067 82.2936 32.9933 82.2936 32.42C82.2936 31.62 82.4869 30.96 82.8736 30.44C83.2603 29.9067 83.7669 29.5067 84.3936 29.24C85.0203 28.9733 85.6869 28.84 86.3936 28.84C86.9803 28.84 87.4936 28.92 87.9336 29.08H91.5536V31.22H89.9736C90.0669 31.3667 90.1403 31.5533 90.1936 31.78C90.2603 32.0067 90.2936 32.2533 90.2936 32.52C90.2936 33.28 90.1203 33.9067 89.7736 34.4C89.4269 34.8933 88.9603 35.26 88.3736 35.5C87.7869 35.74 87.1269 35.86 86.3936 35.86C86.0069 35.86 85.6069 35.7933 85.1936 35.66C84.9536 35.86 84.8336 36.1067 84.8336 36.4C84.8336 36.6533 84.9469 36.84 85.1736 36.96C85.4003 37.08 85.7869 37.14 86.3336 37.14H87.9336C89.1603 37.14 90.0936 37.34 90.7336 37.74C91.3869 38.1267 91.7136 38.7667 91.7136 39.66C91.7136 40.34 91.4869 40.9467 91.0336 41.48C90.5803 42.0267 89.9403 42.4533 89.1136 42.76C88.2869 43.0667 87.3069 43.22 86.1736 43.22ZM86.3936 34.08C86.7803 34.08 87.1003 33.94 87.3536 33.66C87.6203 33.38 87.7536 32.9667 87.7536 32.42C87.7536 31.9 87.6203 31.5067 87.3536 31.24C87.1003 30.96 86.7803 30.82 86.3936 30.82C86.0069 30.82 85.6803 30.9533 85.4136 31.22C85.1603 31.4867 85.0336 31.8867 85.0336 32.42C85.0336 32.9667 85.1603 33.38 85.4136 33.66C85.6803 33.94 86.0069 34.08 86.3936 34.08ZM86.6336 41.38C87.3003 41.38 87.8469 41.26 88.2736 41.02C88.7003 40.78 88.9136 40.4933 88.9136 40.16C88.9136 39.8533 88.7803 39.6467 88.5136 39.54C88.2603 39.4333 87.8869 39.38 87.3936 39.38H86.3736C86.0403 39.38 85.7603 39.3667 85.5336 39.34C85.3203 39.3267 85.1336 39.3 84.9736 39.26C84.6136 39.58 84.4336 39.9067 84.4336 40.24C84.4336 40.6133 84.6336 40.8933 85.0336 41.08C85.4469 41.28 85.9803 41.38 86.6336 41.38ZM95.2461 39.24C94.3394 39.24 93.6194 38.9533 93.0861 38.38C92.5528 37.7933 92.2861 37.08 92.2861 36.24C92.2861 35.2 92.7261 34.3867 93.6061 33.8C94.4861 33.2133 95.9061 32.82 97.8661 32.62C97.8394 32.18 97.7061 31.8333 97.4661 31.58C97.2394 31.3133 96.8528 31.18 96.3061 31.18C95.8928 31.18 95.4728 31.26 95.0461 31.42C94.6194 31.58 94.1661 31.8 93.6861 32.08L92.6261 30.14C93.2528 29.7533 93.9194 29.44 94.6261 29.2C95.3461 28.96 96.0928 28.84 96.8661 28.84C98.1328 28.84 99.1061 29.2067 99.7861 29.94C100.466 30.6733 100.806 31.8 100.806 33.32V39H98.4061L98.2061 37.98H98.1261C97.7128 38.3533 97.2661 38.66 96.7861 38.9C96.3194 39.1267 95.8061 39.24 95.2461 39.24ZM96.2461 36.96C96.5794 36.96 96.8661 36.8867 97.1061 36.74C97.3594 36.58 97.6128 36.3733 97.8661 36.12V34.38C96.8261 34.5133 96.1061 34.7267 95.7061 35.02C95.3061 35.3 95.1061 35.6333 95.1061 36.02C95.1061 36.34 95.2061 36.58 95.4061 36.74C95.6194 36.8867 95.8994 36.96 96.2461 36.96ZM103.093 39V29.08H105.493L105.693 30.34H105.773C106.2 29.94 106.666 29.5933 107.173 29.3C107.693 28.9933 108.286 28.84 108.953 28.84C110.033 28.84 110.813 29.2 111.293 29.92C111.786 30.6267 112.033 31.6 112.033 32.84V39H109.093V33.22C109.093 32.5 108.993 32.0067 108.793 31.74C108.606 31.4733 108.3 31.34 107.873 31.34C107.5 31.34 107.18 31.4267 106.913 31.6C106.646 31.76 106.353 31.9933 106.033 32.3V39H103.093ZM114.338 39V24.98H117.278V28.42L117.138 30.2C117.512 29.8667 117.945 29.56 118.438 29.28C118.945 28.9867 119.532 28.84 120.198 28.84C121.278 28.84 122.058 29.2 122.538 29.92C123.032 30.6267 123.278 31.6 123.278 32.84V39H120.338V33.22C120.338 32.5 120.238 32.0067 120.038 31.74C119.852 31.4733 119.545 31.34 119.118 31.34C118.745 31.34 118.425 31.4267 118.158 31.6C117.892 31.76 117.598 31.9933 117.278 32.3V39H114.338ZM128.064 39.24C127.157 39.24 126.437 38.9533 125.904 38.38C125.371 37.7933 125.104 37.08 125.104 36.24C125.104 35.2 125.544 34.3867 126.424 33.8C127.304 33.2133 128.724 32.82 130.684 32.62C130.657 32.18 130.524 31.8333 130.284 31.58C130.057 31.3133 129.671 31.18 129.124 31.18C128.711 31.18 128.291 31.26 127.864 31.42C127.437 31.58 126.984 31.8 126.504 32.08L125.444 30.14C126.071 29.7533 126.737 29.44 127.444 29.2C128.164 28.96 128.911 28.84 129.684 28.84C130.951 28.84 131.924 29.2067 132.604 29.94C133.284 30.6733 133.624 31.8 133.624 33.32V39H131.224L131.024 37.98H130.944C130.531 38.3533 130.084 38.66 129.604 38.9C129.137 39.1267 128.624 39.24 128.064 39.24ZM129.064 36.96C129.397 36.96 129.684 36.8867 129.924 36.74C130.177 36.58 130.431 36.3733 130.684 36.12V34.38C129.644 34.5133 128.924 34.7267 128.524 35.02C128.124 35.3 127.924 35.6333 127.924 36.02C127.924 36.34 128.024 36.58 128.224 36.74C128.437 36.8867 128.717 36.96 129.064 36.96ZM135.911 39V29.08H138.311L138.511 30.82H138.591C138.951 30.1533 139.384 29.66 139.891 29.34C140.398 29.0067 140.904 28.84 141.411 28.84C141.691 28.84 141.924 28.86 142.111 28.9C142.298 28.9267 142.458 28.9733 142.591 29.04L142.111 31.58C141.938 31.5267 141.764 31.4867 141.591 31.46C141.431 31.4333 141.244 31.42 141.031 31.42C140.658 31.42 140.264 31.56 139.851 31.84C139.451 32.1067 139.118 32.5733 138.851 33.24V39H135.911ZM19.8 63.24C18.8933 63.24 18.1733 62.9533 17.64 62.38C17.1067 61.7933 16.84 61.08 16.84 60.24C16.84 59.2 17.28 58.3867 18.16 57.8C19.04 57.2133 20.46 56.82 22.42 56.62C22.3933 56.18 22.26 55.8333 22.02 55.58C21.7933 55.3133 21.4067 55.18 20.86 55.18C20.4467 55.18 20.0267 55.26 19.6 55.42C19.1733 55.58 18.72 55.8 18.24 56.08L17.18 54.14C17.8067 53.7533 18.4733 53.44 19.18 53.2C19.9 52.96 20.6467 52.84 21.42 52.84C22.6867 52.84 23.66 53.2067 24.34 53.94C25.02 54.6733 25.36 55.8 25.36 57.32V63H22.96L22.76 61.98H22.68C22.2667 62.3533 21.82 62.66 21.34 62.9C20.8733 63.1267 20.36 63.24 19.8 63.24ZM20.8 60.96C21.1333 60.96 21.42 60.8867 21.66 60.74C21.9133 60.58 22.1667 60.3733 22.42 60.12V58.38C21.38 58.5133 20.66 58.7267 20.26 59.02C19.86 59.3 19.66 59.6333 19.66 60.02C19.66 60.34 19.76 60.58 19.96 60.74C20.1733 60.8867 20.4533 60.96 20.8 60.96ZM31.1153 63.24C29.8886 63.24 29.0086 62.8867 28.4753 62.18C27.9553 61.4733 27.6953 60.5467 27.6953 59.4V55.38H26.3353V53.2L27.8553 53.08L28.1953 50.44H30.6353V53.08H33.0153V55.38H30.6353V59.36C30.6353 59.92 30.7486 60.3267 30.9753 60.58C31.2153 60.82 31.5286 60.94 31.9153 60.94C32.0753 60.94 32.2353 60.92 32.3953 60.88C32.5686 60.84 32.722 60.7933 32.8553 60.74L33.3153 62.88C33.062 62.96 32.7486 63.04 32.3753 63.12C32.0153 63.2 31.5953 63.24 31.1153 63.24ZM38.84 63.24C37.8933 63.24 37.04 63.0333 36.28 62.62C35.52 62.2067 34.92 61.6133 34.48 60.84C34.04 60.0667 33.82 59.1333 33.82 58.04C33.82 56.96 34.04 56.0333 34.48 55.26C34.9333 54.4867 35.52 53.8933 36.24 53.48C36.96 53.0533 37.7133 52.84 38.5 52.84C39.4467 52.84 40.2267 53.0533 40.84 53.48C41.4667 53.8933 41.9333 54.46 42.24 55.18C42.56 55.8867 42.72 56.6933 42.72 57.6C42.72 57.8533 42.7067 58.1067 42.68 58.36C42.6533 58.6 42.6267 58.78 42.6 58.9H36.66C36.7933 59.62 37.0933 60.1533 37.56 60.5C38.0267 60.8333 38.5867 61 39.24 61C39.9467 61 40.66 60.78 41.38 60.34L42.36 62.12C41.8533 62.4667 41.2867 62.74 40.66 62.94C40.0333 63.14 39.4267 63.24 38.84 63.24ZM36.64 56.96H40.22C40.22 56.4133 40.0867 55.9667 39.82 55.62C39.5667 55.26 39.1467 55.08 38.56 55.08C38.1067 55.08 37.7 55.24 37.34 55.56C36.98 55.8667 36.7467 56.3333 36.64 56.96ZM38.66 51.56L37.22 50.12L40.3 46.48L42.28 48.42L38.66 51.56ZM48.5955 63V49.96H53.2955C54.2155 49.96 55.0555 50.0867 55.8155 50.34C56.5755 50.58 57.1821 50.9933 57.6355 51.58C58.0888 52.1667 58.3155 52.98 58.3155 54.02C58.3155 54.98 58.1021 55.7733 57.6755 56.4C57.2621 57.0133 56.7021 57.4733 55.9955 57.78L58.9555 63H55.6555L53.1555 58.3H51.5355V63H48.5955ZM51.5355 55.96H53.0555C53.8288 55.96 54.4155 55.8 54.8155 55.48C55.2288 55.1467 55.4355 54.66 55.4355 54.02C55.4355 53.38 55.2288 52.9333 54.8155 52.68C54.4155 52.4267 53.8288 52.3 53.0555 52.3H51.5355V55.96ZM63.4211 65.2V63.2C62.8344 63.1333 62.2144 62.9733 61.5611 62.72C60.9211 62.4533 60.3678 62.1067 59.9011 61.68L61.1811 59.7C61.6878 60.0733 62.1678 60.36 62.6211 60.56C63.0878 60.76 63.5611 60.86 64.0411 60.86C65.1211 60.86 65.6611 60.4 65.6611 59.48C65.6611 59.1333 65.5344 58.84 65.2811 58.6C65.0278 58.3467 64.7011 58.1133 64.3011 57.9C63.9011 57.6867 63.4744 57.4667 63.0211 57.24C62.5678 57.0133 62.1411 56.7533 61.7411 56.46C61.3411 56.1667 61.0144 55.8133 60.7611 55.4C60.5078 54.9733 60.3811 54.46 60.3811 53.86C60.3811 52.8733 60.6544 52.06 61.2011 51.42C61.7478 50.7667 62.4878 50.3467 63.4211 50.16V48.1H65.3611V50.12C66.0011 50.2133 66.5611 50.4067 67.0411 50.7C67.5211 50.9933 67.9544 51.3467 68.3411 51.76L66.8611 53.44C66.5011 53.1067 66.1544 52.86 65.8211 52.7C65.4878 52.5267 65.1078 52.44 64.6811 52.44C64.2011 52.44 63.8344 52.54 63.5811 52.74C63.3278 52.94 63.2011 53.2667 63.2011 53.72C63.2011 54.04 63.3278 54.3133 63.5811 54.54C63.8344 54.7533 64.1611 54.96 64.5611 55.16C64.9611 55.36 65.3878 55.5667 65.8411 55.78C66.2944 55.9933 66.7211 56.2533 67.1211 56.56C67.5211 56.8667 67.8478 57.24 68.1011 57.68C68.3544 58.1067 68.4811 58.64 68.4811 59.28C68.4811 60.24 68.2144 61.0667 67.6811 61.76C67.1611 62.44 66.3878 62.8933 65.3611 63.12V65.2H63.4211ZM70.8875 63V60.62H73.6475V53.28H71.2675V51.46C71.9608 51.3267 72.5475 51.1667 73.0275 50.98C73.5075 50.7933 73.9742 50.5667 74.4275 50.3H76.5875V60.62H78.9675V63H70.8875ZM82.8539 63.24C82.3472 63.24 81.9206 63.0667 81.5739 62.72C81.2406 62.36 81.0739 61.92 81.0739 61.4C81.0739 60.8667 81.2406 60.4267 81.5739 60.08C81.9206 59.72 82.3472 59.54 82.8539 59.54C83.3606 59.54 83.7806 59.72 84.1139 60.08C84.4606 60.4267 84.6339 60.8667 84.6339 61.4C84.6339 61.92 84.4606 62.36 84.1139 62.72C83.7806 63.0667 83.3606 63.24 82.8539 63.24ZM90.93 63.24C89.57 63.24 88.47 62.6733 87.63 61.54C86.8033 60.4067 86.39 58.76 86.39 56.6C86.39 54.44 86.8033 52.8133 87.63 51.72C88.47 50.6133 89.57 50.06 90.93 50.06C92.29 50.06 93.3833 50.6133 94.21 51.72C95.05 52.8133 95.47 54.44 95.47 56.6C95.47 58.76 95.05 60.4067 94.21 61.54C93.3833 62.6733 92.29 63.24 90.93 63.24ZM90.93 60.96C91.2633 60.96 91.5633 60.84 91.83 60.6C92.0967 60.3467 92.3033 59.9067 92.45 59.28C92.61 58.6533 92.69 57.76 92.69 56.6C92.69 55.44 92.61 54.5533 92.45 53.94C92.3033 53.3267 92.0967 52.9067 91.83 52.68C91.5633 52.4533 91.2633 52.34 90.93 52.34C90.61 52.34 90.3167 52.4533 90.05 52.68C89.7833 52.9067 89.57 53.3267 89.41 53.94C89.25 54.5533 89.17 55.44 89.17 56.6C89.17 57.76 89.25 58.6533 89.41 59.28C89.57 59.9067 89.7833 60.3467 90.05 60.6C90.3167 60.84 90.61 60.96 90.93 60.96ZM101.296 63.24C99.9364 63.24 98.8364 62.6733 97.9964 61.54C97.1697 60.4067 96.7564 58.76 96.7564 56.6C96.7564 54.44 97.1697 52.8133 97.9964 51.72C98.8364 50.6133 99.9364 50.06 101.296 50.06C102.656 50.06 103.75 50.6133 104.576 51.72C105.416 52.8133 105.836 54.44 105.836 56.6C105.836 58.76 105.416 60.4067 104.576 61.54C103.75 62.6733 102.656 63.24 101.296 63.24ZM101.296 60.96C101.63 60.96 101.93 60.84 102.196 60.6C102.463 60.3467 102.67 59.9067 102.816 59.28C102.976 58.6533 103.056 57.76 103.056 56.6C103.056 55.44 102.976 54.5533 102.816 53.94C102.67 53.3267 102.463 52.9067 102.196 52.68C101.93 52.4533 101.63 52.34 101.296 52.34C100.976 52.34 100.683 52.4533 100.416 52.68C100.15 52.9067 99.9364 53.3267 99.7764 53.94C99.6164 54.5533 99.5364 55.44 99.5364 56.6C99.5364 57.76 99.6164 58.6533 99.7764 59.28C99.9364 59.9067 100.15 60.3467 100.416 60.6C100.683 60.84 100.976 60.96 101.296 60.96ZM111.663 63.24C110.303 63.24 109.203 62.6733 108.363 61.54C107.536 60.4067 107.123 58.76 107.123 56.6C107.123 54.44 107.536 52.8133 108.363 51.72C109.203 50.6133 110.303 50.06 111.663 50.06C113.023 50.06 114.116 50.6133 114.943 51.72C115.783 52.8133 116.203 54.44 116.203 56.6C116.203 58.76 115.783 60.4067 114.943 61.54C114.116 62.6733 113.023 63.24 111.663 63.24ZM111.663 60.96C111.996 60.96 112.296 60.84 112.563 60.6C112.829 60.3467 113.036 59.9067 113.183 59.28C113.343 58.6533 113.423 57.76 113.423 56.6C113.423 55.44 113.343 54.5533 113.183 53.94C113.036 53.3267 112.829 52.9067 112.563 52.68C112.296 52.4533 111.996 52.34 111.663 52.34C111.343 52.34 111.049 52.4533 110.783 52.68C110.516 52.9067 110.303 53.3267 110.143 53.94C109.983 54.5533 109.903 55.44 109.903 56.6C109.903 57.76 109.983 58.6533 110.143 59.28C110.303 59.9067 110.516 60.3467 110.783 60.6C111.049 60.84 111.343 60.96 111.663 60.96ZM119.829 58.38C119.749 57.8333 119.783 57.3467 119.929 56.92C120.076 56.48 120.276 56.0867 120.529 55.74C120.796 55.38 121.069 55.0533 121.349 54.76C121.629 54.4533 121.863 54.16 122.049 53.88C122.249 53.5867 122.349 53.2933 122.349 53C122.349 52.5867 122.223 52.2733 121.969 52.06C121.729 51.8467 121.409 51.74 121.009 51.74C120.636 51.74 120.303 51.8267 120.009 52C119.729 52.1733 119.456 52.3933 119.189 52.66L117.569 51.18C118.036 50.6333 118.596 50.1933 119.249 49.86C119.903 49.5267 120.616 49.36 121.389 49.36C122.109 49.36 122.749 49.48 123.309 49.72C123.883 49.96 124.336 50.3333 124.669 50.84C125.003 51.3467 125.169 51.9933 125.169 52.78C125.169 53.2733 125.069 53.7133 124.869 54.1C124.669 54.4733 124.423 54.82 124.129 55.14C123.836 55.46 123.549 55.78 123.269 56.1C122.989 56.4067 122.763 56.7467 122.589 57.12C122.416 57.48 122.356 57.9 122.409 58.38H119.829ZM121.109 63.24C120.603 63.24 120.183 63.0667 119.849 62.72C119.516 62.36 119.349 61.92 119.349 61.4C119.349 60.8667 119.516 60.4267 119.849 60.08C120.183 59.72 120.603 59.54 121.109 59.54C121.616 59.54 122.036 59.72 122.369 60.08C122.716 60.4267 122.889 60.8667 122.889 61.4C122.889 61.92 122.716 62.36 122.369 62.72C122.036 63.0667 121.616 63.24 121.109 63.24Z" fill="#291454"/>
<path d="M17.17 91V82.472H18.249V91H17.17ZM20.481 91V84.682H21.365L21.456 85.592H21.495C21.7984 85.2887 22.119 85.0373 22.457 84.838C22.795 84.63 23.1807 84.526 23.614 84.526C24.2814 84.526 24.7667 84.7383 25.07 85.163C25.382 85.579 25.538 86.19 25.538 86.996V91H24.472V87.139C24.472 86.5497 24.3767 86.1207 24.186 85.852C23.9954 85.5833 23.692 85.449 23.276 85.449C22.9554 85.449 22.665 85.5313 22.405 85.696C22.1537 85.8607 21.8677 86.1033 21.547 86.424V91H20.481ZM29.7484 91.156C28.9597 91.156 28.3271 90.87 27.8504 90.298C27.3737 89.7173 27.1354 88.9027 27.1354 87.854C27.1354 87.1693 27.2611 86.58 27.5124 86.086C27.7724 85.5833 28.1104 85.1977 28.5264 84.929C28.9511 84.6603 29.4017 84.526 29.8784 84.526C30.2424 84.526 30.5587 84.591 30.8274 84.721C31.0961 84.851 31.3691 85.0287 31.6464 85.254L31.5944 84.175V81.744H32.6734V91H31.7894L31.6984 90.259H31.6594C31.4167 90.5017 31.1307 90.714 30.8014 90.896C30.4721 91.0693 30.1211 91.156 29.7484 91.156ZM29.9824 90.259C30.5371 90.259 31.0744 89.9687 31.5944 89.388V86.086C31.3257 85.8433 31.0657 85.6743 30.8144 85.579C30.5717 85.475 30.3204 85.423 30.0604 85.423C29.7224 85.423 29.4147 85.527 29.1374 85.735C28.8687 85.9343 28.6521 86.216 28.4874 86.58C28.3227 86.9353 28.2404 87.3557 28.2404 87.841C28.2404 88.595 28.3921 89.1887 28.6954 89.622C28.9987 90.0467 29.4277 90.259 29.9824 90.259ZM34.8014 91V84.682H35.8674V91H34.8014ZM35.3474 83.382C35.1394 83.382 34.966 83.3213 34.8274 83.2C34.6974 83.07 34.6324 82.8967 34.6324 82.68C34.6324 82.472 34.6974 82.303 34.8274 82.173C34.966 82.043 35.1394 81.978 35.3474 81.978C35.5554 81.978 35.7244 82.043 35.8544 82.173C35.993 82.303 36.0624 82.472 36.0624 82.68C36.0624 82.8967 35.993 83.07 35.8544 83.2C35.7244 83.3213 35.5554 83.382 35.3474 83.382ZM42.0046 93.665V91.416L42.0566 90.272C41.8052 90.5147 41.5149 90.7227 41.1856 90.896C40.8649 91.0693 40.5226 91.156 40.1586 91.156C39.3699 91.156 38.7372 90.87 38.2606 90.298C37.7839 89.7173 37.5456 88.9027 37.5456 87.854C37.5456 87.1693 37.6712 86.58 37.9226 86.086C38.1826 85.5833 38.5206 85.1977 38.9366 84.929C39.3612 84.6603 39.8119 84.526 40.2886 84.526C40.6526 84.526 40.9732 84.591 41.2506 84.721C41.5279 84.8423 41.8096 85.0287 42.0956 85.28H42.1216L42.2256 84.682H43.0836V93.665H42.0046ZM40.3926 90.259C40.9472 90.259 41.4846 89.9687 42.0046 89.388V86.086C41.7359 85.8433 41.4759 85.6743 41.2246 85.579C40.9819 85.475 40.7306 85.423 40.4706 85.423C40.1326 85.423 39.8249 85.527 39.5476 85.735C39.2789 85.9343 39.0622 86.216 38.8976 86.58C38.7329 86.9353 38.6506 87.3557 38.6506 87.841C38.6506 88.595 38.8022 89.1887 39.1056 89.622C39.4089 90.0467 39.8379 90.259 40.3926 90.259ZM47.0575 91.156C46.3902 91.156 45.9005 90.948 45.5885 90.532C45.2765 90.1073 45.1205 89.492 45.1205 88.686V84.682H46.1995V88.543C46.1995 89.1323 46.2905 89.5613 46.4725 89.83C46.6632 90.0987 46.9665 90.233 47.3825 90.233C47.7118 90.233 48.0022 90.1507 48.2535 89.986C48.5135 89.8127 48.7908 89.5397 49.0855 89.167V84.682H50.1515V91H49.2675L49.1765 90.012H49.1375C48.8428 90.3587 48.5308 90.636 48.2015 90.844C47.8722 91.052 47.4908 91.156 47.0575 91.156ZM54.8438 91.156C54.2805 91.156 53.7691 91.026 53.3098 90.766C52.8505 90.4973 52.4865 90.116 52.2178 89.622C51.9491 89.128 51.8148 88.5387 51.8148 87.854C51.8148 87.1607 51.9491 86.567 52.2178 86.073C52.4951 85.579 52.8505 85.1977 53.2838 84.929C53.7171 84.6603 54.1721 84.526 54.6488 84.526C55.4548 84.526 56.0745 84.7947 56.5078 85.332C56.9498 85.8693 57.1708 86.5887 57.1708 87.49C57.1708 87.6027 57.1665 87.7153 57.1578 87.828C57.1578 87.932 57.1491 88.023 57.1318 88.101H52.8678C52.9111 88.7683 53.1191 89.3013 53.4918 89.7C53.8731 90.0987 54.3671 90.298 54.9738 90.298C55.2771 90.298 55.5545 90.2547 55.8058 90.168C56.0658 90.0727 56.3128 89.9513 56.5468 89.804L56.9238 90.506C56.6551 90.6793 56.3475 90.831 56.0008 90.961C55.6628 91.091 55.2771 91.156 54.8438 91.156ZM52.8548 87.334H56.2348C56.2348 86.6927 56.0961 86.2073 55.8188 85.878C55.5501 85.54 55.1688 85.371 54.6748 85.371C54.2328 85.371 53.8341 85.5443 53.4788 85.891C53.1321 86.229 52.9241 86.71 52.8548 87.334ZM63.7916 91.156C63.2802 91.156 62.7992 91.026 62.3486 90.766C61.9066 90.506 61.5469 90.129 61.2696 89.635C61.0009 89.141 60.8666 88.5473 60.8666 87.854C60.8666 87.1433 61.0009 86.541 61.2696 86.047C61.5469 85.553 61.9066 85.176 62.3486 84.916C62.7992 84.656 63.2802 84.526 63.7916 84.526C64.3116 84.526 64.7926 84.656 65.2346 84.916C65.6766 85.176 66.0319 85.553 66.3006 86.047C66.5779 86.541 66.7166 87.1433 66.7166 87.854C66.7166 88.5473 66.5779 89.141 66.3006 89.635C66.0319 90.129 65.6766 90.506 65.2346 90.766C64.7926 91.026 64.3116 91.156 63.7916 91.156ZM63.7916 90.272C64.3376 90.272 64.7752 90.051 65.1046 89.609C65.4426 89.1583 65.6116 88.5733 65.6116 87.854C65.6116 87.126 65.4426 86.5367 65.1046 86.086C64.7752 85.6353 64.3376 85.41 63.7916 85.41C63.2542 85.41 62.8166 85.6353 62.4786 86.086C62.1406 86.5367 61.9716 87.126 61.9716 87.854C61.9716 88.5733 62.1406 89.1583 62.4786 89.609C62.8166 90.051 63.2542 90.272 63.7916 90.272ZM70.502 91V90.35L74.987 83.382H70.905V82.472H76.339V83.109L71.841 90.077H76.378V91H70.502ZM80.2725 91.156C79.7092 91.156 79.1978 91.026 78.7385 90.766C78.2792 90.4973 77.9152 90.116 77.6465 89.622C77.3778 89.128 77.2435 88.5387 77.2435 87.854C77.2435 87.1607 77.3778 86.567 77.6465 86.073C77.9238 85.579 78.2792 85.1977 78.7125 84.929C79.1458 84.6603 79.6008 84.526 80.0775 84.526C80.8835 84.526 81.5032 84.7947 81.9365 85.332C82.3785 85.8693 82.5995 86.5887 82.5995 87.49C82.5995 87.6027 82.5952 87.7153 82.5865 87.828C82.5865 87.932 82.5778 88.023 82.5605 88.101H78.2965C78.3398 88.7683 78.5478 89.3013 78.9205 89.7C79.3018 90.0987 79.7958 90.298 80.4025 90.298C80.7058 90.298 80.9832 90.2547 81.2345 90.168C81.4945 90.0727 81.7415 89.9513 81.9755 89.804L82.3525 90.506C82.0838 90.6793 81.7762 90.831 81.4295 90.961C81.0915 91.091 80.7058 91.156 80.2725 91.156ZM78.2835 87.334H81.6635C81.6635 86.6927 81.5248 86.2073 81.2475 85.878C80.9788 85.54 80.5975 85.371 80.1035 85.371C79.6615 85.371 79.2628 85.5443 78.9075 85.891C78.5608 86.229 78.3528 86.71 78.2835 87.334ZM84.1607 91V84.682H85.0447L85.1357 85.592H85.1747C85.4781 85.2887 85.7987 85.0373 86.1367 84.838C86.4747 84.63 86.8604 84.526 87.2937 84.526C87.9611 84.526 88.4464 84.7383 88.7497 85.163C89.0617 85.579 89.2177 86.19 89.2177 86.996V91H88.1517V87.139C88.1517 86.5497 88.0564 86.1207 87.8657 85.852C87.6751 85.5833 87.3717 85.449 86.9557 85.449C86.6351 85.449 86.3447 85.5313 86.0847 85.696C85.8334 85.8607 85.5474 86.1033 85.2267 86.424V91H84.1607ZM91.2701 91V81.744H92.3231V88.01H92.3621L95.0531 84.682H96.2361L94.1171 87.217L96.5221 91H95.3521L93.5061 87.958L92.3231 89.336V91H91.2701ZM98.8376 91.156C98.439 91.156 98.1486 91.0347 97.9666 90.792C97.7933 90.5407 97.7066 90.1853 97.7066 89.726V81.744H98.7726V89.804C98.7726 89.9687 98.803 90.09 98.8636 90.168C98.9243 90.2373 98.9936 90.272 99.0716 90.272C99.1063 90.272 99.1366 90.272 99.1626 90.272C99.1973 90.2633 99.245 90.2547 99.3056 90.246L99.4486 91.052C99.3793 91.0867 99.297 91.1127 99.2016 91.13C99.1063 91.1473 98.985 91.156 98.8376 91.156ZM102.866 91.156C102.199 91.156 101.709 90.948 101.397 90.532C101.085 90.1073 100.929 89.492 100.929 88.686V84.682H102.008V88.543C102.008 89.1323 102.099 89.5613 102.281 89.83C102.472 90.0987 102.775 90.233 103.191 90.233C103.52 90.233 103.811 90.1507 104.062 89.986C104.322 89.8127 104.599 89.5397 104.894 89.167V84.682H105.96V91H105.076L104.985 90.012H104.946C104.651 90.3587 104.339 90.636 104.01 90.844C103.681 91.052 103.299 91.156 102.866 91.156ZM110.886 91.156C110.592 91.156 110.284 91.0867 109.963 90.948C109.651 90.8007 109.357 90.6013 109.079 90.35H109.04L108.949 91H108.091V81.744H109.157V84.266L109.131 85.41C109.417 85.1587 109.729 84.9507 110.067 84.786C110.414 84.6127 110.761 84.526 111.107 84.526C111.931 84.526 112.555 84.8163 112.979 85.397C113.404 85.9777 113.616 86.7577 113.616 87.737C113.616 88.4563 113.486 89.0717 113.226 89.583C112.975 90.0943 112.641 90.4843 112.225 90.753C111.818 91.0217 111.372 91.156 110.886 91.156ZM110.704 90.259C111.224 90.259 111.653 90.038 111.991 89.596C112.338 89.1453 112.511 88.53 112.511 87.75C112.511 87.0567 112.381 86.4977 112.121 86.073C111.87 85.6397 111.445 85.423 110.847 85.423C110.579 85.423 110.306 85.4967 110.028 85.644C109.751 85.7913 109.461 86.0037 109.157 86.281V89.596C109.435 89.8387 109.708 90.012 109.976 90.116C110.254 90.2113 110.496 90.259 110.704 90.259ZM117.879 93.665V84.682H118.763L118.854 85.41H118.893C119.179 85.1673 119.491 84.9593 119.829 84.786C120.176 84.6127 120.536 84.526 120.908 84.526C121.723 84.526 122.343 84.8207 122.767 85.41C123.192 85.9907 123.404 86.7707 123.404 87.75C123.404 88.4607 123.274 89.0717 123.014 89.583C122.763 90.0943 122.429 90.4843 122.013 90.753C121.606 91.0217 121.16 91.156 120.674 91.156C120.38 91.156 120.085 91.091 119.79 90.961C119.504 90.831 119.214 90.6533 118.919 90.428L118.945 91.533V93.665H117.879ZM120.492 90.259C121.012 90.259 121.441 90.038 121.779 89.596C122.126 89.1453 122.299 88.53 122.299 87.75C122.299 87.0567 122.169 86.4977 121.909 86.073C121.658 85.6397 121.233 85.423 120.635 85.423C120.367 85.423 120.094 85.4967 119.816 85.644C119.548 85.7913 119.257 86.0037 118.945 86.281V89.596C119.231 89.8387 119.509 90.012 119.777 90.116C120.046 90.2113 120.284 90.259 120.492 90.259ZM126.369 91.156C125.84 91.156 125.398 91 125.043 90.688C124.696 90.3673 124.523 89.9253 124.523 89.362C124.523 88.6687 124.83 88.14 125.446 87.776C126.07 87.4033 127.053 87.1433 128.397 86.996C128.397 86.7273 128.358 86.4717 128.28 86.229C128.21 85.9863 128.08 85.7913 127.89 85.644C127.708 85.488 127.443 85.41 127.097 85.41C126.733 85.41 126.39 85.4793 126.07 85.618C125.749 85.7567 125.463 85.9127 125.212 86.086L124.796 85.345C125.09 85.1543 125.45 84.9723 125.875 84.799C126.308 84.617 126.776 84.526 127.279 84.526C128.05 84.526 128.609 84.7643 128.956 85.241C129.302 85.709 129.476 86.3373 129.476 87.126V91H128.592L128.501 90.246H128.462C128.167 90.4887 127.842 90.701 127.487 90.883C127.14 91.065 126.767 91.156 126.369 91.156ZM126.681 90.298C126.984 90.298 127.27 90.2243 127.539 90.077C127.807 89.9297 128.093 89.7217 128.397 89.453V87.698C127.348 87.828 126.611 88.023 126.187 88.283C125.771 88.543 125.563 88.8767 125.563 89.284C125.563 89.6393 125.671 89.8993 125.888 90.064C126.104 90.22 126.369 90.298 126.681 90.298ZM131.463 91V84.682H132.347L132.438 85.826H132.477C132.694 85.4273 132.958 85.111 133.27 84.877C133.582 84.643 133.916 84.526 134.271 84.526C134.523 84.526 134.748 84.5693 134.947 84.656L134.739 85.592C134.635 85.5573 134.54 85.5313 134.453 85.514C134.367 85.4967 134.258 85.488 134.128 85.488C133.86 85.488 133.578 85.5963 133.283 85.813C132.997 86.0297 132.746 86.4067 132.529 86.944V91H131.463ZM137.109 91.156C136.58 91.156 136.138 91 135.783 90.688C135.436 90.3673 135.263 89.9253 135.263 89.362C135.263 88.6687 135.571 88.14 136.186 87.776C136.81 87.4033 137.794 87.1433 139.137 86.996C139.137 86.7273 139.098 86.4717 139.02 86.229C138.951 85.9863 138.821 85.7913 138.63 85.644C138.448 85.488 138.184 85.41 137.837 85.41C137.473 85.41 137.131 85.4793 136.81 85.618C136.489 85.7567 136.203 85.9127 135.952 86.086L135.536 85.345C135.831 85.1543 136.19 84.9723 136.615 84.799C137.048 84.617 137.516 84.526 138.019 84.526C138.79 84.526 139.349 84.7643 139.696 85.241C140.043 85.709 140.216 86.3373 140.216 87.126V91H139.332L139.241 90.246H139.202C138.907 90.4887 138.582 90.701 138.227 90.883C137.88 91.065 137.508 91.156 137.109 91.156ZM137.421 90.298C137.724 90.298 138.01 90.2243 138.279 90.077C138.548 89.9297 138.834 89.7217 139.137 89.453V87.698C138.088 87.828 137.352 88.023 136.927 88.283C136.511 88.543 136.303 88.8767 136.303 89.284C136.303 89.6393 136.411 89.8993 136.628 90.064C136.845 90.22 137.109 90.298 137.421 90.298ZM147.367 91.156C146.804 91.156 146.293 91.026 145.833 90.766C145.374 90.4973 145.01 90.116 144.741 89.622C144.473 89.128 144.338 88.5387 144.338 87.854C144.338 87.1607 144.473 86.567 144.741 86.073C145.019 85.579 145.374 85.1977 145.807 84.929C146.241 84.6603 146.696 84.526 147.172 84.526C147.978 84.526 148.598 84.7947 149.031 85.332C149.473 85.8693 149.694 86.5887 149.694 87.49C149.694 87.6027 149.69 87.7153 149.681 87.828C149.681 87.932 149.673 88.023 149.655 88.101H145.391C145.435 88.7683 145.643 89.3013 146.015 89.7C146.397 90.0987 146.891 90.298 147.497 90.298C147.801 90.298 148.078 90.2547 148.329 90.168C148.589 90.0727 148.836 89.9513 149.07 89.804L149.447 90.506C149.179 90.6793 148.871 90.831 148.524 90.961C148.186 91.091 147.801 91.156 147.367 91.156ZM145.378 87.334H148.758C148.758 86.6927 148.62 86.2073 148.342 85.878C148.074 85.54 147.692 85.371 147.198 85.371C146.756 85.371 146.358 85.5443 146.002 85.891C145.656 86.229 145.448 86.71 145.378 87.334ZM151.255 91V84.682H152.139L152.23 85.592H152.269C152.547 85.2887 152.85 85.0373 153.179 84.838C153.509 84.63 153.86 84.526 154.232 84.526C154.718 84.526 155.095 84.6343 155.363 84.851C155.641 85.059 155.844 85.3537 155.974 85.735C156.304 85.3797 156.637 85.0893 156.975 84.864C157.313 84.6387 157.673 84.526 158.054 84.526C158.704 84.526 159.185 84.7383 159.497 85.163C159.818 85.579 159.978 86.19 159.978 86.996V91H158.912V87.139C158.912 86.5497 158.817 86.1207 158.626 85.852C158.436 85.5833 158.141 85.449 157.742 85.449C157.274 85.449 156.746 85.774 156.156 86.424V91H155.09V87.139C155.09 86.5497 154.995 86.1207 154.804 85.852C154.614 85.5833 154.315 85.449 153.907 85.449C153.439 85.449 152.911 85.774 152.321 86.424V91H151.255ZM162.034 93.665V84.682H162.918L163.009 85.41H163.048C163.334 85.1673 163.646 84.9593 163.984 84.786C164.33 84.6127 164.69 84.526 165.063 84.526C165.877 84.526 166.497 84.8207 166.922 85.41C167.346 85.9907 167.559 86.7707 167.559 87.75C167.559 88.4607 167.429 89.0717 167.169 89.583C166.917 90.0943 166.584 90.4843 166.168 90.753C165.76 91.0217 165.314 91.156 164.829 91.156C164.534 91.156 164.239 91.091 163.945 90.961C163.659 90.831 163.368 90.6533 163.074 90.428L163.1 91.533V93.665H162.034ZM164.647 90.259C165.167 90.259 165.596 90.038 165.934 89.596C166.28 89.1453 166.454 88.53 166.454 87.75C166.454 87.0567 166.324 86.4977 166.064 86.073C165.812 85.6397 165.388 85.423 164.79 85.423C164.521 85.423 164.248 85.4967 163.971 85.644C163.702 85.7913 163.412 86.0037 163.1 86.281V89.596C163.386 89.8387 163.663 90.012 163.932 90.116C164.2 90.2113 164.439 90.259 164.647 90.259ZM169.245 91V84.682H170.129L170.22 85.826H170.259C170.475 85.4273 170.74 85.111 171.052 84.877C171.364 84.643 171.697 84.526 172.053 84.526C172.304 84.526 172.529 84.5693 172.729 84.656L172.521 85.592C172.417 85.5573 172.321 85.5313 172.235 85.514C172.148 85.4967 172.04 85.488 171.91 85.488C171.641 85.488 171.359 85.5963 171.065 85.813C170.779 86.0297 170.527 86.4067 170.311 86.944V91H169.245ZM176.186 91.156C175.622 91.156 175.111 91.026 174.652 90.766C174.192 90.4973 173.828 90.116 173.56 89.622C173.291 89.128 173.157 88.5387 173.157 87.854C173.157 87.1607 173.291 86.567 173.56 86.073C173.837 85.579 174.192 85.1977 174.626 84.929C175.059 84.6603 175.514 84.526 175.991 84.526C176.797 84.526 177.416 84.7947 177.85 85.332C178.292 85.8693 178.513 86.5887 178.513 87.49C178.513 87.6027 178.508 87.7153 178.5 87.828C178.5 87.932 178.491 88.023 178.474 88.101H174.21C174.253 88.7683 174.461 89.3013 174.834 89.7C175.215 90.0987 175.709 90.298 176.316 90.298C176.619 90.298 176.896 90.2547 177.148 90.168C177.408 90.0727 177.655 89.9513 177.889 89.804L178.266 90.506C177.997 90.6793 177.689 90.831 177.343 90.961C177.005 91.091 176.619 91.156 176.186 91.156ZM174.197 87.334H177.577C177.577 86.6927 177.438 86.2073 177.161 85.878C176.892 85.54 176.511 85.371 176.017 85.371C175.575 85.371 175.176 85.5443 174.821 85.891C174.474 86.229 174.266 86.71 174.197 87.334ZM181.725 91.156C181.274 91.156 180.845 91.0737 180.438 90.909C180.03 90.7357 179.675 90.5277 179.372 90.285L179.905 89.57C180.182 89.7867 180.468 89.9687 180.763 90.116C181.057 90.2547 181.391 90.324 181.764 90.324C182.18 90.324 182.492 90.2287 182.7 90.038C182.908 89.8387 183.012 89.6047 183.012 89.336C183.012 89.1193 182.938 88.9373 182.791 88.79C182.652 88.6427 182.47 88.5213 182.245 88.426C182.028 88.322 181.803 88.2267 181.569 88.14C181.274 88.0273 180.984 87.9017 180.698 87.763C180.412 87.6157 180.178 87.4293 179.996 87.204C179.814 86.97 179.723 86.6753 179.723 86.32C179.723 85.8087 179.913 85.384 180.295 85.046C180.685 84.6993 181.222 84.526 181.907 84.526C182.297 84.526 182.661 84.5953 182.999 84.734C183.337 84.8727 183.627 85.0417 183.87 85.241L183.35 85.917C183.133 85.7523 182.908 85.618 182.674 85.514C182.44 85.41 182.184 85.358 181.907 85.358C181.508 85.358 181.213 85.449 181.023 85.631C180.841 85.813 180.75 86.0253 180.75 86.268C180.75 86.4673 180.815 86.632 180.945 86.762C181.075 86.8833 181.244 86.9917 181.452 87.087C181.66 87.1737 181.881 87.2647 182.115 87.36C182.418 87.4727 182.717 87.6027 183.012 87.75C183.306 87.8887 183.549 88.0793 183.74 88.322C183.939 88.556 184.039 88.8723 184.039 89.271C184.039 89.609 183.948 89.921 183.766 90.207C183.592 90.493 183.332 90.7227 182.986 90.896C182.648 91.0693 182.227 91.156 181.725 91.156ZM186.976 91.156C186.447 91.156 186.005 91 185.65 90.688C185.303 90.3673 185.13 89.9253 185.13 89.362C185.13 88.6687 185.438 88.14 186.053 87.776C186.677 87.4033 187.661 87.1433 189.004 86.996C189.004 86.7273 188.965 86.4717 188.887 86.229C188.818 85.9863 188.688 85.7913 188.497 85.644C188.315 85.488 188.051 85.41 187.704 85.41C187.34 85.41 186.998 85.4793 186.677 85.618C186.356 85.7567 186.07 85.9127 185.819 86.086L185.403 85.345C185.698 85.1543 186.057 84.9723 186.482 84.799C186.915 84.617 187.383 84.526 187.886 84.526C188.657 84.526 189.216 84.7643 189.563 85.241C189.91 85.709 190.083 86.3373 190.083 87.126V91H189.199L189.108 90.246H189.069C188.774 90.4887 188.449 90.701 188.094 90.883C187.747 91.065 187.375 91.156 186.976 91.156ZM187.288 90.298C187.591 90.298 187.877 90.2243 188.146 90.077C188.415 89.9297 188.701 89.7217 189.004 89.453V87.698C187.955 87.828 187.219 88.023 186.794 88.283C186.378 88.543 186.17 88.8767 186.17 89.284C186.17 89.6393 186.278 89.8993 186.495 90.064C186.712 90.22 186.976 90.298 187.288 90.298ZM193.722 91.156C193.271 91.156 192.842 91.0737 192.435 90.909C192.028 90.7357 191.672 90.5277 191.369 90.285L191.902 89.57C192.179 89.7867 192.465 89.9687 192.76 90.116C193.055 90.2547 193.388 90.324 193.761 90.324C194.177 90.324 194.489 90.2287 194.697 90.038C194.905 89.8387 195.009 89.6047 195.009 89.336C195.009 89.1193 194.935 88.9373 194.788 88.79C194.649 88.6427 194.467 88.5213 194.242 88.426C194.025 88.322 193.8 88.2267 193.566 88.14C193.271 88.0273 192.981 87.9017 192.695 87.763C192.409 87.6157 192.175 87.4293 191.993 87.204C191.811 86.97 191.72 86.6753 191.72 86.32C191.72 85.8087 191.911 85.384 192.292 85.046C192.682 84.6993 193.219 84.526 193.904 84.526C194.294 84.526 194.658 84.5953 194.996 84.734C195.334 84.8727 195.624 85.0417 195.867 85.241L195.347 85.917C195.13 85.7523 194.905 85.618 194.671 85.514C194.437 85.41 194.181 85.358 193.904 85.358C193.505 85.358 193.211 85.449 193.02 85.631C192.838 85.813 192.747 86.0253 192.747 86.268C192.747 86.4673 192.812 86.632 192.942 86.762C193.072 86.8833 193.241 86.9917 193.449 87.087C193.657 87.1737 193.878 87.2647 194.112 87.36C194.415 87.4727 194.714 87.6027 195.009 87.75C195.304 87.8887 195.546 88.0793 195.737 88.322C195.936 88.556 196.036 88.8723 196.036 89.271C196.036 89.609 195.945 89.921 195.763 90.207C195.59 90.493 195.33 90.7227 194.983 90.896C194.645 91.0693 194.225 91.156 193.722 91.156Z" fill="#5A6570"/>
<path d="M231.532 67.4495L254.534 63.6655L288.608 65.3719L273.9 77.9242L253.171 76.9525L241.4 71.7702L231.532 67.4495Z" fill="#590B0D"/>
<path d="M277.949 70.0671C277.949 71.8597 276.215 73.0969 274.001 73.0969C271.788 73.0969 270.054 71.8597 270.054 70.0671C270.054 69.1731 269.993 68.3498 269.993 68.3498C269.993 68.3498 272.892 66.8213 274.001 66.8213C275.088 66.8213 278.009 68.4035 278.009 68.4035C278.009 68.4035 277.949 69.1549 277.949 70.0671Z" fill="#E08C00" stroke="#E08C00" stroke-width="0.0570102" stroke-miterlimit="10"/>
<path d="M274.001 71.7326V73.0429L274.494 72.984V71.6772L274.001 71.7326Z" fill="#E08C00"/>
<path d="M271.775 71.2017V72.5685L272.103 72.7197L272.177 71.3879L271.775 71.2017Z" fill="#E08C00"/>
<path d="M277.105 70.1955V71.5935L277.269 71.7482L277.306 70.3859L277.105 70.1955Z" fill="#E08C00"/>
<path d="M270.995 70.6443V72.0111L271.159 72.1623L271.196 70.8304L270.995 70.6443Z" fill="#E08C00"/>
<path d="M276.414 70.8602V72.2268L276.578 72.3782L276.615 71.0464L276.414 70.8602Z" fill="#E08C00"/>
<path d="M274.001 71.7482C276.215 71.7482 278.009 70.2951 278.009 68.5026C278.009 66.7102 276.215 65.2571 274.001 65.2571C271.788 65.2571 269.994 66.7102 269.994 68.5026C269.994 70.2951 271.788 71.7482 274.001 71.7482Z" fill="#FFC500"/>
<path d="M270.623 70.2493C270.623 70.2493 270.265 69.8692 270.104 69.3387C269.959 68.8605 269.994 68.3497 269.994 68.3497H270.904C270.904 68.3497 270.915 69.4341 271.398 69.8314L270.623 70.2493Z" fill="#FFC500"/>
<path d="M277.836 67.7026C277.836 67.7026 277.74 67.2127 277.388 66.762C277.071 66.3559 276.612 66.0518 276.612 66.0518L276.028 66.6769C276.028 66.6769 276.95 67.3797 276.981 67.9661L277.836 67.7026Z" fill="#FFC500"/>
<path d="M274.001 71.7482C276.215 71.7482 278.009 70.2951 278.009 68.5026C278.009 66.7102 276.215 65.2571 274.001 65.2571C271.788 65.2571 269.994 66.7102 269.994 68.5026C269.994 70.2951 271.788 71.7482 274.001 71.7482Z" stroke="#FFC500" stroke-width="0.0570102" stroke-miterlimit="10"/>
<path d="M274.001 70.9257C275.716 70.9257 277.105 69.8409 277.105 68.5027C277.105 67.1645 275.716 66.0797 274.001 66.0797C272.287 66.0797 270.898 67.1645 270.898 68.5027C270.898 69.8409 272.287 70.9257 274.001 70.9257Z" fill="#E08C00"/>
<path d="M274.001 70.9257C275.716 70.9257 277.105 69.8409 277.105 68.5027C277.105 67.1645 275.716 66.0797 274.001 66.0797C272.287 66.0797 270.898 67.1645 270.898 68.5027C270.898 69.8409 272.287 70.9257 274.001 70.9257Z" stroke="#FFC500" stroke-width="0.114041" stroke-miterlimit="10"/>
<path d="M274.601 67.3999L274.509 67.2311C274.52 67.2159 274.52 67.2163 274.53 67.2011C274.605 67.199 274.682 67.1982 274.756 67.2066C274.967 67.2306 275.11 67.1631 275.194 67.0008C275.21 66.9688 275.234 66.9378 275.259 66.905C275.27 66.8892 275.283 66.8729 275.294 66.8563L275.343 66.7876C275.352 66.7736 275.341 66.7556 275.323 66.7556H272.796C272.788 66.7556 272.781 66.759 272.777 66.7648L272.47 67.1717C272.459 67.1855 272.47 67.2042 272.489 67.2042H272.583C272.596 67.2042 272.606 67.2042 272.617 67.2042C272.635 67.204 272.65 67.204 272.666 67.2044C272.739 67.206 272.812 67.207 272.884 67.2079C273.05 67.2101 273.222 67.2124 273.39 67.2232C273.572 67.2352 273.71 67.2842 273.809 67.3729C273.824 67.386 273.814 67.4086 273.793 67.4086H273.645C273.399 67.4088 273.144 67.4088 272.894 67.4077C272.841 67.4079 272.775 67.4162 272.726 67.4845C272.683 67.5446 272.637 67.6037 272.587 67.6663C272.566 67.6928 272.545 67.7201 272.523 67.748L272.469 67.8184C272.458 67.8321 272.469 67.851 272.488 67.851H273.913C273.928 67.851 273.939 67.8631 273.936 67.8761C273.922 67.9386 273.888 67.9971 273.835 68.0554C273.714 68.1868 273.54 68.2643 273.318 68.2859C273.201 68.2974 273.078 68.299 272.959 68.3007C272.907 68.3013 272.853 68.3021 272.799 68.3037C272.783 68.3041 272.767 68.3041 272.748 68.3039C272.738 68.3039 272.728 68.3037 272.717 68.3037H272.667C272.654 68.3037 272.643 68.313 272.643 68.3245V68.3692C272.643 68.3959 272.643 68.4219 272.643 68.4476C272.642 68.5188 272.642 68.5863 272.645 68.6551C272.648 68.6965 272.677 68.7277 272.699 68.7505L272.704 68.7565C272.96 69.0304 273.215 69.304 273.471 69.5777C273.661 69.7815 273.851 69.9851 274.041 70.1889C274.043 70.1907 274.046 70.1965 274.049 70.2008C274.052 70.2057 274.054 70.2106 274.057 70.2154L274.072 70.2379C274.076 70.2445 274.084 70.2484 274.092 70.2484H274.862C274.882 70.2484 274.893 70.2279 274.88 70.2143L274.812 70.1409C274.745 70.069 274.679 69.9972 274.612 69.9254C274.465 69.7665 274.313 69.6022 274.162 69.4409C274.002 69.2685 273.841 69.0961 273.68 68.9239C273.608 68.8476 273.537 68.7714 273.466 68.6951C273.454 68.6828 273.462 68.6639 273.479 68.6612C273.937 68.5904 274.426 68.4158 274.606 67.8668C274.609 67.858 274.618 67.8518 274.628 67.8518C274.639 67.8518 274.649 67.8516 274.66 67.8516C274.747 67.851 274.838 67.8506 274.927 67.8531C275.003 67.8553 275.059 67.8295 275.1 67.7718C275.143 67.7127 275.188 67.6548 275.237 67.5933C275.257 67.5674 275.278 67.5409 275.299 67.5136L275.353 67.4432C275.364 67.4295 275.353 67.4106 275.334 67.4106H274.622C274.613 67.4116 274.605 67.4071 274.601 67.3999Z" fill="#FFC500" stroke="#FFC500" stroke-width="0.0570102" stroke-miterlimit="10"/>
<path d="M270.054 70.1955C270.054 70.1955 270.315 73.0429 274.002 73.0429C277.678 73.0429 277.949 70.1955 277.949 70.1955C277.949 70.1955 277.286 72.6653 274.002 72.6384C270.717 72.6114 270.054 70.1955 270.054 70.1955Z" fill="#E08C00"/>
<path opacity="0.39" d="M278.009 68.5026C278.009 70.2952 276.215 71.7482 274.002 71.7482C273.126 71.7482 272.316 71.5208 271.657 71.1348C271.657 71.1348 273.278 71.1818 275.358 69.9591C277.569 68.6586 277.571 67.025 277.571 67.025C277.851 67.4683 278.009 67.9705 278.009 68.5026Z" fill="#E08C00"/>
<path d="M254.758 69.903C254.758 71.8678 252.857 73.2239 250.431 73.2239C248.005 73.2239 246.105 71.8678 246.105 69.903C246.105 68.9233 246.038 68.0209 246.038 68.0209C246.038 68.0209 249.215 66.3457 250.431 66.3457C251.623 66.3457 254.824 68.08 254.824 68.08C254.824 68.08 254.758 68.9032 254.758 69.903Z" fill="#E08C00" stroke="#E08C00" stroke-width="0.0624896" stroke-miterlimit="10"/>
<path d="M250.431 71.7289V73.165L250.971 73.1003V71.6679L250.431 71.7289Z" fill="#E08C00"/>
<path d="M247.991 71.1468V72.6447L248.351 72.8105L248.432 71.3508L247.991 71.1468Z" fill="#E08C00"/>
<path d="M253.833 70.0438V71.5761L254.013 71.7459L254.054 70.2527L253.833 70.0438Z" fill="#E08C00"/>
<path d="M247.136 70.5358V72.0337L247.316 72.1995L247.356 70.7398L247.136 70.5358Z" fill="#E08C00"/>
<path d="M253.075 70.7725V72.2704L253.255 72.4362L253.296 70.9764L253.075 70.7725Z" fill="#E08C00"/>
<path d="M250.431 71.7459C252.857 71.7459 254.824 70.1532 254.824 68.1884C254.824 66.2237 252.857 64.6309 250.431 64.6309C248.005 64.6309 246.039 66.2237 246.039 68.1884C246.039 70.1532 248.005 71.7459 250.431 71.7459Z" fill="#FFC500"/>
<path d="M246.728 70.1028C246.728 70.1028 246.336 69.6862 246.16 69.1048C246.001 68.5807 246.038 68.0209 246.038 68.0209H247.036C247.036 68.0209 247.048 69.2095 247.577 69.6448L246.728 70.1028Z" fill="#FFC500"/>
<path d="M254.634 67.3114C254.634 67.3114 254.529 66.7746 254.143 66.2806C253.796 65.8353 253.292 65.5022 253.292 65.5022L252.652 66.1872C252.652 66.1872 253.663 66.9576 253.697 67.6002L254.634 67.3114Z" fill="#FFC500"/>
<path d="M250.431 71.7459C252.857 71.7459 254.824 70.1532 254.824 68.1884C254.824 66.2237 252.857 64.6309 250.431 64.6309C248.005 64.6309 246.039 66.2237 246.039 68.1884C246.039 70.1532 248.005 71.7459 250.431 71.7459Z" stroke="#FFC500" stroke-width="0.0624896" stroke-miterlimit="10"/>
<path d="M250.431 70.8441C252.31 70.8441 253.833 69.6551 253.833 68.1883C253.833 66.7216 252.31 65.5326 250.431 65.5326C248.552 65.5326 247.029 66.7216 247.029 68.1883C247.029 69.6551 248.552 70.8441 250.431 70.8441Z" fill="#E08C00"/>
<path d="M250.431 70.8441C252.31 70.8441 253.833 69.6551 253.833 68.1883C253.833 66.7216 252.31 65.5326 250.431 65.5326C248.552 65.5326 247.029 66.7216 247.029 68.1883C247.029 69.6551 248.552 70.8441 250.431 70.8441Z" stroke="#FFC500" stroke-width="0.125" stroke-miterlimit="10"/>
<path d="M251.088 66.9798L250.988 66.7947C250.999 66.7781 250.999 66.7785 251.01 66.7619C251.093 66.7598 251.177 66.7588 251.257 66.7678C251.489 66.7941 251.646 66.7202 251.738 66.5421C251.756 66.5072 251.782 66.4731 251.809 66.437C251.822 66.4198 251.836 66.4019 251.849 66.3836L251.901 66.3083C251.912 66.2931 251.9 66.2734 251.88 66.2734H249.11C249.101 66.2734 249.093 66.2771 249.089 66.2835L248.753 66.7294C248.741 66.7446 248.753 66.7649 248.774 66.7649H248.877C248.89 66.7649 248.902 66.7649 248.913 66.7647C248.934 66.7645 248.951 66.7645 248.967 66.7649C249.047 66.7668 249.128 66.7678 249.206 66.7688C249.389 66.7713 249.577 66.7738 249.761 66.7857C249.961 66.7988 250.112 66.8526 250.221 66.9496C250.237 66.9642 250.226 66.9888 250.203 66.9888H250.041C249.771 66.989 249.492 66.9892 249.217 66.988C249.16 66.9882 249.087 66.997 249.033 67.0722C248.987 67.138 248.936 67.2029 248.882 67.2714C248.859 67.3006 248.835 67.3301 248.811 67.3611L248.752 67.4383C248.74 67.4535 248.752 67.4742 248.773 67.4742H250.335C250.351 67.4742 250.364 67.4875 250.36 67.5017C250.344 67.5702 250.308 67.6343 250.249 67.6983C250.117 67.8421 249.926 67.9271 249.683 67.9509C249.554 67.9634 249.419 67.9653 249.289 67.9671C249.232 67.9679 249.172 67.9688 249.114 67.9704C249.096 67.9708 249.078 67.9708 249.058 67.9706C249.047 67.9706 249.036 67.9704 249.023 67.9704H248.969C248.954 67.9704 248.943 67.9807 248.943 67.9932V68.0422C248.943 68.0714 248.943 68.0999 248.943 68.1282C248.942 68.2064 248.942 68.2801 248.945 68.3556C248.948 68.401 248.98 68.4352 249.004 68.4603L249.01 68.4666C249.29 68.7669 249.57 69.0667 249.85 69.3667C250.059 69.59 250.267 69.8133 250.476 70.0366C250.477 70.0384 250.481 70.045 250.484 70.0497C250.487 70.055 250.49 70.0606 250.493 70.0657L250.509 70.0905C250.513 70.0977 250.522 70.102 250.531 70.102H251.376C251.397 70.102 251.409 70.0795 251.395 70.0647L251.321 69.9842C251.248 69.9054 251.175 69.8268 251.102 69.748C250.94 69.5738 250.773 69.3936 250.609 69.2169C250.433 69.0279 250.256 68.8391 250.08 68.6503C250.001 68.5668 249.923 68.483 249.845 68.3995C249.832 68.386 249.841 68.3655 249.86 68.3624C250.362 68.2846 250.898 68.0933 251.095 67.4918C251.098 67.4822 251.108 67.4754 251.119 67.4754C251.131 67.4754 251.142 67.4752 251.154 67.4752C251.249 67.4746 251.349 67.4742 251.446 67.4768C251.53 67.4793 251.591 67.451 251.637 67.3878C251.683 67.3231 251.733 67.2595 251.786 67.1922C251.808 67.1637 251.831 67.1347 251.854 67.1048L251.913 67.0278C251.925 67.0126 251.913 66.9921 251.892 66.9921H251.111C251.101 66.9927 251.092 66.9878 251.088 66.9798Z" fill="#FFC500" stroke="#FFC500" stroke-width="0.0624896" stroke-miterlimit="10"/>
<path d="M246.104 70.0438C246.104 70.0438 246.391 73.1648 250.431 73.1648C254.461 73.1648 254.758 70.0438 254.758 70.0438C254.758 70.0438 254.031 72.7508 250.431 72.7213C246.831 72.6919 246.104 70.0438 246.104 70.0438Z" fill="#E08C00"/>
<path opacity="0.39" d="M254.824 68.1884C254.824 70.1532 252.857 71.7459 250.431 71.7459C249.471 71.7459 248.583 71.4965 247.861 71.0736C247.861 71.0736 249.639 71.1251 251.918 69.7848C254.342 68.3595 254.344 66.5688 254.344 66.5688C254.651 67.0547 254.824 67.6051 254.824 68.1884Z" fill="#E08C00"/>
<path d="M281.282 65.8072C281.282 67.7719 279.381 69.128 276.955 69.128C274.529 69.128 272.629 67.7719 272.629 65.8072C272.629 64.8274 272.563 63.9251 272.563 63.9251C272.563 63.9251 275.739 62.2499 276.955 62.2499C278.147 62.2499 281.348 63.9842 281.348 63.9842C281.348 63.9842 281.282 64.8073 281.282 65.8072Z" fill="#E08C00" stroke="#E08C00" stroke-width="0.0624896" stroke-miterlimit="10"/>
<path d="M276.955 67.633V69.069L277.495 69.0045V67.5721L276.955 67.633Z" fill="#E08C00"/>
<path d="M274.515 67.051V68.5489L274.875 68.7147L274.956 67.255L274.515 67.051Z" fill="#E08C00"/>
<path d="M280.357 65.9479V67.4803L280.537 67.65L280.578 66.1568L280.357 65.9479Z" fill="#E08C00"/>
<path d="M273.66 66.4398V67.9379L273.84 68.1037L273.881 66.644L273.66 66.4398Z" fill="#E08C00"/>
<path d="M279.599 66.6765V68.1746L279.779 68.3404L279.82 66.8806L279.599 66.6765Z" fill="#E08C00"/>
<path d="M276.955 67.65C279.382 67.65 281.348 66.0573 281.348 64.0925C281.348 62.1278 279.382 60.535 276.955 60.535C274.529 60.535 272.563 62.1278 272.563 64.0925C272.563 66.0573 274.529 67.65 276.955 67.65Z" fill="#FFC500"/>
<path d="M273.252 66.007C273.252 66.007 272.86 65.5904 272.684 65.009C272.525 64.4849 272.563 63.925 272.563 63.925H273.56C273.56 63.925 273.572 65.1137 274.101 65.549L273.252 66.007Z" fill="#FFC500"/>
<path d="M281.158 63.2157C281.158 63.2157 281.053 62.6788 280.668 62.1848C280.32 61.7395 279.816 61.4064 279.816 61.4064L279.176 62.0915C279.176 62.0915 280.187 62.8619 280.221 63.5044L281.158 63.2157Z" fill="#FFC500"/>
<path d="M276.955 67.65C279.382 67.65 281.348 66.0573 281.348 64.0925C281.348 62.1278 279.382 60.535 276.955 60.535C274.529 60.535 272.563 62.1278 272.563 64.0925C272.563 66.0573 274.529 67.65 276.955 67.65Z" stroke="#FFC500" stroke-width="0.0624896" stroke-miterlimit="10"/>
<path d="M276.955 66.7483C278.834 66.7483 280.357 65.5593 280.357 64.0926C280.357 62.6259 278.834 61.4368 276.955 61.4368C275.076 61.4368 273.553 62.6259 273.553 64.0926C273.553 65.5593 275.076 66.7483 276.955 66.7483Z" fill="#E08C00"/>
<path d="M276.955 66.7483C278.834 66.7483 280.357 65.5593 280.357 64.0926C280.357 62.6259 278.834 61.4368 276.955 61.4368C275.076 61.4368 273.553 62.6259 273.553 64.0926C273.553 65.5593 275.076 66.7483 276.955 66.7483Z" stroke="#FFC500" stroke-width="0.125" stroke-miterlimit="10"/>
<path d="M272.629 65.9479C272.629 65.9479 272.915 69.0689 276.955 69.0689C280.985 69.0689 281.282 65.9479 281.282 65.9479C281.282 65.9479 280.555 68.655 276.955 68.6254C273.355 68.5961 272.629 65.9479 272.629 65.9479Z" fill="#E08C00"/>
<path opacity="0.39" d="M281.348 64.0926C281.348 66.0573 279.381 67.6501 276.955 67.6501C275.996 67.6501 275.108 67.4007 274.385 66.9778C274.385 66.9778 276.163 67.0293 278.442 65.689C280.866 64.2637 280.868 62.473 280.868 62.473C281.175 62.9589 281.348 63.5093 281.348 64.0926Z" fill="#E08C00"/>
<path d="M265.826 59.5627C265.203 61.1953 262.865 61.5936 260.43 60.6637C257.996 59.7339 256.519 57.8785 257.142 56.246C257.453 55.4318 257.673 54.6567 257.673 54.6567C257.673 54.6567 261.393 54.4823 262.613 54.9483C263.809 55.405 266.471 58.0732 266.471 58.0732C266.471 58.0732 266.144 58.7318 265.826 59.5627Z" fill="#E08C00" stroke="#E08C00" stroke-width="0.0610941" stroke-miterlimit="10"/>
<path d="M260.905 59.4213L260.449 60.6147L261.011 60.7678L261.466 59.5775L260.905 59.4213Z" fill="#E08C00"/>
<path d="M258.641 58.0025L258.165 59.2472L258.473 59.5228L259.018 58.3411L258.641 58.0025Z" fill="#E08C00"/>
<path d="M264.854 59.3251L264.367 60.5985L264.494 60.8083L265.009 59.5833L264.854 59.3251Z" fill="#E08C00"/>
<path d="M257.976 57.167L257.501 58.4117L257.629 58.6185L258.133 57.4211L257.976 57.167Z" fill="#E08C00"/>
<path d="M263.862 59.6401L263.386 60.8847L263.514 61.0914L264.018 59.8941L263.862 59.6401Z" fill="#E08C00"/>
<path d="M266.438 58.1625C267.061 56.5299 265.593 54.4526 263.158 53.5227C260.723 52.5928 258.244 53.1624 257.621 54.795C256.997 56.4276 258.465 58.5049 260.9 59.4349C263.335 60.3648 265.814 59.7951 266.438 58.1625Z" fill="#FFC500"/>
<path d="M257.705 56.6511C257.705 56.6511 257.443 56.1544 257.451 55.6038C257.458 55.1074 257.673 54.6567 257.673 54.6567L258.674 55.0391C258.674 55.0391 258.309 56.0311 258.702 56.5957L257.705 56.6511Z" fill="#FFC500"/>
<path d="M266.524 57.3618C266.524 57.3618 266.589 56.8754 266.359 56.3172C266.152 55.8142 265.752 55.3441 265.752 55.3441L264.892 55.6681C264.892 55.6681 265.662 56.6958 265.493 57.2428L266.524 57.3618Z" fill="#FFC500"/>
<path d="M266.438 58.1625C267.061 56.5299 265.593 54.4526 263.158 53.5227C260.723 52.5928 258.244 53.1624 257.621 54.795C256.997 56.4276 258.465 58.5049 260.9 59.4349C263.335 60.3648 265.814 59.7951 266.438 58.1625Z" stroke="#FFC500" stroke-width="0.0610941" stroke-miterlimit="10"/>
<path d="M265.443 57.7826C265.908 56.5638 264.757 54.9919 262.872 54.2718C260.986 53.5516 259.08 53.9559 258.615 55.1747C258.149 56.3935 259.3 57.9653 261.186 58.6855C263.072 59.4056 264.977 59.0014 265.443 57.7826Z" fill="#E08C00"/>
<path d="M265.443 57.7826C265.908 56.5638 264.757 54.9919 262.872 54.2718C260.986 53.5516 259.08 53.9559 258.615 55.1747C258.149 56.3935 259.3 57.9653 261.186 58.6855C263.072 59.4056 264.977 59.0014 265.443 57.7826Z" stroke="#FFC500" stroke-width="0.122188" stroke-miterlimit="10"/>
<path d="M257.097 56.363C257.097 56.363 256.394 59.0661 260.449 60.6147C264.493 62.1592 265.782 59.6797 265.782 59.6797C265.782 59.6797 264.193 61.6507 260.59 60.2462C256.986 58.8418 257.097 56.363 257.097 56.363Z" fill="#E08C00"/>
<path opacity="0.39" d="M266.437 58.1633C265.813 59.7959 263.334 60.3656 260.899 59.4357C259.936 59.0677 259.124 58.5204 258.533 57.8918C258.533 57.8918 260.301 58.6161 263.013 58.3759C265.898 58.1207 266.468 56.6334 266.468 56.6334C266.623 57.1547 266.622 57.6786 266.437 58.1633Z" fill="#E08C00"/>
<path d="M264.179 54.0964C263.556 55.7289 261.218 56.1273 258.783 55.1974C256.348 54.2676 254.871 52.4122 255.495 50.7796C255.806 49.9655 256.026 49.1904 256.026 49.1904C256.026 49.1904 259.746 49.016 260.966 49.482C262.162 49.9387 264.824 52.6069 264.824 52.6069C264.824 52.6069 264.496 53.2655 264.179 54.0964Z" fill="#E08C00" stroke="#E08C00" stroke-width="0.0610941" stroke-miterlimit="10"/>
<path d="M259.258 53.955L258.802 55.1484L259.364 55.3015L259.818 54.1112L259.258 53.955Z" fill="#E08C00"/>
<path d="M256.993 52.5361L256.518 53.7808L256.826 54.0564L257.371 52.8747L256.993 52.5361Z" fill="#E08C00"/>
<path d="M263.206 53.8588L262.72 55.1322L262.846 55.3419L263.361 54.1169L263.206 53.8588Z" fill="#E08C00"/>
<path d="M256.329 51.7006L255.854 52.9453L255.981 53.1521L256.485 51.9547L256.329 51.7006Z" fill="#E08C00"/>
<path d="M262.214 54.1738L261.739 55.4184L261.867 55.6251L262.371 54.4278L262.214 54.1738Z" fill="#E08C00"/>
<path d="M264.79 52.6962C265.414 51.0636 263.946 48.9863 261.511 48.0564C259.076 47.1265 256.597 47.6961 255.973 49.3287C255.35 50.9613 256.818 53.0386 259.253 53.9685C261.687 54.8985 264.167 54.3288 264.79 52.6962Z" fill="#FFC500"/>
<path d="M256.057 51.1847C256.057 51.1847 255.796 50.6881 255.803 50.1375C255.81 49.641 256.026 49.1904 256.026 49.1904L257.027 49.5727C257.027 49.5727 256.662 50.5647 257.054 51.1293L256.057 51.1847Z" fill="#FFC500"/>
<path d="M264.877 51.8954C264.877 51.8954 264.942 51.409 264.712 50.8508C264.505 50.3478 264.104 49.8777 264.104 49.8777L263.245 50.2017C263.245 50.2017 264.015 51.2295 263.845 51.7764L264.877 51.8954Z" fill="#FFC500"/>
<path d="M264.79 52.6962C265.414 51.0636 263.946 48.9863 261.511 48.0564C259.076 47.1265 256.597 47.6961 255.973 49.3287C255.35 50.9613 256.818 53.0386 259.253 53.9685C261.687 54.8985 264.167 54.3288 264.79 52.6962Z" stroke="#FFC500" stroke-width="0.0610941" stroke-miterlimit="10"/>
<path d="M263.796 52.3163C264.261 51.0975 263.11 49.5257 261.224 48.8055C259.339 48.0854 257.433 48.4896 256.968 49.7084C256.502 50.9272 257.653 52.4991 259.539 53.2192C261.424 53.9394 263.33 53.5351 263.796 52.3163Z" fill="#E08C00"/>
<path d="M263.796 52.3163C264.261 51.0975 263.11 49.5257 261.224 48.8055C259.339 48.0854 257.433 48.4896 256.968 49.7084C256.502 50.9272 257.653 52.4991 259.539 53.2192C261.424 53.9394 263.33 53.5351 263.796 52.3163Z" stroke="#FFC500" stroke-width="0.122188" stroke-miterlimit="10"/>
<path d="M255.45 50.8966C255.45 50.8966 254.747 53.5998 258.802 55.1484C262.846 56.6928 264.134 54.2134 264.134 54.2134C264.134 54.2134 262.546 56.1843 258.942 54.7798C255.339 53.3755 255.45 50.8966 255.45 50.8966Z" fill="#E08C00"/>
<path opacity="0.39" d="M264.789 52.697C264.166 54.3296 261.687 54.8993 259.252 53.9694C258.289 53.6014 257.477 53.0541 256.886 52.4255C256.886 52.4255 258.654 53.1497 261.366 52.9096C264.251 52.6543 264.821 51.1671 264.821 51.1671C264.975 51.6884 264.975 52.2123 264.789 52.697Z" fill="#E08C00"/>
<path d="M258.516 56.304C259.268 58.2882 257.469 60.5368 254.51 61.6588C251.551 62.7807 248.713 62.2898 247.961 60.3056C247.586 59.316 247.16 58.4352 247.16 58.4352C247.16 58.4352 250.393 55.2744 251.876 54.7119C253.329 54.1608 257.899 54.4321 257.899 54.4321C257.899 54.4321 258.133 55.2943 258.516 56.304Z" fill="#E08C00" stroke="#E08C00" stroke-width="0.0741872" stroke-miterlimit="10"/>
<path d="M253.937 60.1487L254.487 61.599L255.121 61.2844L254.572 59.8378L253.937 60.1487Z" fill="#E08C00"/>
<path d="M250.738 60.6893L251.312 62.2024L251.813 62.2036L251.354 60.6915L250.738 60.6893Z" fill="#E08C00"/>
<path d="M257.442 56.8738L258.029 58.4214L258.313 58.5097L257.791 56.9828L257.442 56.8738Z" fill="#E08C00"/>
<path d="M249.461 60.4677L250.034 61.9805L250.317 62.0651L249.808 60.5719L249.461 60.4677Z" fill="#E08C00"/>
<path d="M256.796 57.96L257.37 59.4731L257.652 59.5575L257.143 58.0643L256.796 57.96Z" fill="#E08C00"/>
<path d="M253.946 60.1665C256.905 59.0446 258.694 56.5264 257.942 54.5421C257.19 52.5578 254.181 51.8586 251.222 52.9805C248.262 54.1025 246.473 56.6206 247.225 58.6049C247.978 60.5893 250.986 61.2884 253.946 60.1665Z" fill="#FFC500"/>
<path d="M248.798 60.2189C248.798 60.2189 248.16 59.9796 247.722 59.474C247.328 59.018 247.159 58.4352 247.159 58.4352L248.376 57.9738C248.376 57.9738 248.846 59.1688 249.658 59.364L248.798 60.2189Z" fill="#FFC500"/>
<path d="M257.373 53.7437C257.373 53.7437 257.038 53.2502 256.379 52.9296C255.785 52.6405 255.043 52.537 255.043 52.537L254.525 53.525C254.525 53.525 256.053 53.8355 256.34 54.4688L257.373 53.7437Z" fill="#FFC500"/>
<path d="M253.946 60.1665C256.905 59.0446 258.694 56.5264 257.942 54.5421C257.19 52.5578 254.181 51.8586 251.222 52.9805C248.262 54.1025 246.473 56.6206 247.225 58.6049C247.978 60.5893 250.986 61.2884 253.946 60.1665Z" stroke="#FFC500" stroke-width="0.0741872" stroke-miterlimit="10"/>
<path d="M256.731 54.9999C257.293 56.4812 255.89 58.3864 253.599 59.2554C251.307 60.1243 248.994 59.6276 248.432 58.1463C247.87 56.6651 249.273 54.7598 251.565 53.8909C253.857 53.022 256.17 53.5184 256.731 54.9999Z" fill="#E08C00"/>
<path d="M256.731 54.9999C257.293 56.4812 255.89 58.3864 253.599 59.2554C251.307 60.1243 248.994 59.6276 248.432 58.1463C247.87 56.6651 249.273 54.7598 251.565 53.8909C253.857 53.022 256.17 53.5184 256.731 54.9999Z" stroke="#FFC500" stroke-width="0.148374" stroke-miterlimit="10"/>
<path d="M248.014 60.4477C248.014 60.4477 249.559 63.4675 254.487 61.599C259.402 59.7356 258.57 56.4461 258.57 56.4461C258.57 56.4461 258.72 59.5162 254.317 61.1512C249.915 62.7862 248.014 60.4477 248.014 60.4477Z" fill="#E08C00"/>
<path opacity="0.39" d="M257.94 54.5417C258.692 56.526 256.903 59.044 253.944 60.166C252.773 60.6099 251.594 60.7687 250.551 60.6755C250.551 60.6755 252.739 59.9053 255.006 57.4981C257.417 54.9378 256.734 53.1284 256.734 53.1284C257.295 53.4768 257.717 53.9527 257.94 54.5417Z" fill="#E08C00"/>
<path d="M249.948 64.3483C249.948 67.1717 247.504 69.1209 244.383 69.1209C241.262 69.1209 238.817 67.1719 238.817 64.3483C238.817 62.9403 238.732 61.6435 238.732 61.6435C238.732 61.6435 242.818 59.236 244.383 59.236C245.915 59.236 250.033 61.7284 250.033 61.7284C250.033 61.7284 249.948 62.9113 249.948 64.3483Z" fill="#E08C00" stroke="#E08C00" stroke-width="0.0849612" stroke-miterlimit="10"/>
<path d="M244.383 66.9721V69.036L245.077 68.943V66.8846L244.383 66.9721Z" fill="#E08C00"/>
<path d="M241.244 66.1355V68.2885L241.706 68.5267L241.811 66.429L241.244 66.1355Z" fill="#E08C00"/>
<path d="M248.759 64.5507V66.7529L248.99 66.9967L249.042 64.8507L248.759 64.5507Z" fill="#E08C00"/>
<path d="M240.144 65.2576V67.4104L240.375 67.6489L240.428 65.5509L240.144 65.2576Z" fill="#E08C00"/>
<path d="M247.784 65.5977V67.7504L248.015 67.9889L248.067 65.8909L247.784 65.5977Z" fill="#E08C00"/>
<path d="M244.383 66.9966C247.504 66.9966 250.034 64.7077 250.034 61.8842C250.034 59.0607 247.504 56.7717 244.383 56.7717C241.262 56.7717 238.733 59.0607 238.733 61.8842C238.733 64.7077 241.262 66.9966 244.383 66.9966Z" fill="#FFC500"/>
<path d="M239.62 64.6356C239.62 64.6356 239.115 64.0368 238.888 63.2013C238.684 62.4482 238.732 61.6435 238.732 61.6435H240.016C240.016 61.6435 240.031 63.3515 240.711 63.9773L239.62 64.6356Z" fill="#FFC500"/>
<path d="M249.789 60.6239C249.789 60.6239 249.654 59.8523 249.158 59.1427C248.711 58.5028 248.063 58.0238 248.063 58.0238L247.24 59.0085C247.24 59.0085 248.54 60.1156 248.584 61.0391L249.789 60.6239Z" fill="#FFC500"/>
<path d="M244.383 66.9966C247.504 66.9966 250.034 64.7077 250.034 61.8842C250.034 59.0607 247.504 56.7717 244.383 56.7717C241.262 56.7717 238.733 59.0607 238.733 61.8842C238.733 64.7077 241.262 66.9966 244.383 66.9966Z" stroke="#FFC500" stroke-width="0.0849612" stroke-miterlimit="10"/>
<path d="M244.383 65.7009C246.799 65.7009 248.759 63.9922 248.759 61.8843C248.759 59.7764 246.799 58.0676 244.383 58.0676C241.966 58.0676 240.007 59.7764 240.007 61.8843C240.007 63.9922 241.966 65.7009 244.383 65.7009Z" fill="#E08C00"/>
<path d="M244.383 65.7009C246.799 65.7009 248.759 63.9922 248.759 61.8843C248.759 59.7764 246.799 58.0676 244.383 58.0676C241.966 58.0676 240.007 59.7764 240.007 61.8843C240.007 63.9922 241.966 65.7009 244.383 65.7009Z" stroke="#FFC500" stroke-width="0.169943" stroke-miterlimit="10"/>
<path d="M238.817 64.5507C238.817 64.5507 239.185 69.036 244.383 69.036C249.566 69.036 249.948 64.5507 249.948 64.5507C249.948 64.5507 249.014 68.4412 244.383 68.3987C239.752 68.3561 238.817 64.5507 238.817 64.5507Z" fill="#E08C00"/>
<path opacity="0.39" d="M250.033 61.8842C250.033 64.7077 247.503 66.9967 244.383 66.9967C243.148 66.9967 242.006 66.6384 241.076 66.0305C241.076 66.0305 243.363 66.1046 246.295 64.1784C249.413 62.1301 249.415 59.5568 249.415 59.5568C249.81 60.2548 250.033 61.0459 250.033 61.8842Z" fill="#E08C00"/>
<path d="M264.487 67.1836C265.146 68.8024 263.709 70.689 261.294 71.6707C258.88 72.6525 256.534 72.3043 255.876 70.6853C255.548 69.8779 255.18 69.1611 255.18 69.1611C255.18 69.1611 257.78 66.4953 258.99 66.0032C260.175 65.5211 263.942 65.6545 263.942 65.6545C263.942 65.6545 264.152 66.3596 264.487 67.1836Z" fill="#E08C00" stroke="#E08C00" stroke-width="0.0610941" stroke-miterlimit="10"/>
<path d="M260.793 70.4389L261.274 71.6222L261.79 71.3505L261.31 70.1705L260.793 70.4389Z" fill="#E08C00"/>
<path d="M258.17 70.9468L258.672 72.181L259.085 72.1722L258.677 70.9366L258.17 70.9468Z" fill="#E08C00"/>
<path d="M263.614 67.674L264.128 68.9365L264.363 69.0036L263.904 67.7567L263.614 67.674Z" fill="#E08C00"/>
<path d="M257.114 70.7894L257.616 72.0236L257.851 72.0877L257.402 70.8684L257.114 70.7894Z" fill="#E08C00"/>
<path d="M263.104 68.5808L263.606 69.8152L263.84 69.879L263.392 68.6598L263.104 68.5808Z" fill="#E08C00"/>
<path d="M260.797 70.4514C263.212 69.4697 264.635 67.3615 263.977 65.7427C263.318 64.1239 260.828 63.6075 258.413 64.5893C255.999 65.5711 254.576 67.6792 255.234 69.298C255.892 70.9168 258.383 71.4332 260.797 70.4514Z" fill="#FFC500"/>
<path d="M256.564 70.5978C256.564 70.5978 256.033 70.4133 255.663 70.0055C255.33 69.6379 255.18 69.1614 255.18 69.1614L256.172 68.7578C256.172 68.7578 256.582 69.7323 257.255 69.877L256.564 70.5978Z" fill="#FFC500"/>
<path d="M263.496 65.0984C263.496 65.0984 263.211 64.6986 262.662 64.4477C262.167 64.2213 261.554 64.1507 261.554 64.1507L261.147 64.9742C261.147 64.9742 262.411 65.1998 262.66 65.7157L263.496 65.0984Z" fill="#FFC500"/>
<path d="M260.797 70.4514C263.212 69.4697 264.635 67.3615 263.977 65.7427C263.318 64.1239 260.828 63.6075 258.413 64.5893C255.999 65.5711 254.576 67.6792 255.234 69.298C255.892 70.9168 258.383 71.4332 260.797 70.4514Z" stroke="#FFC500" stroke-width="0.0610941" stroke-miterlimit="10"/>
<path d="M262.993 66.1451C263.484 67.3537 262.367 68.9497 260.497 69.71C258.627 70.4704 256.713 70.1069 256.222 68.8984C255.731 67.6898 256.848 66.0938 258.717 65.3335C260.587 64.5734 262.501 64.9366 262.993 66.1451Z" fill="#E08C00"/>
<path d="M262.993 66.1451C263.484 67.3537 262.367 68.9497 260.497 69.71C258.627 70.4704 256.713 70.1069 256.222 68.8984C255.731 67.6898 256.848 66.0938 258.717 65.3335C260.587 64.5734 262.501 64.9366 262.993 66.1451Z" stroke="#FFC500" stroke-width="0.122188" stroke-miterlimit="10"/>
<path d="M255.923 70.8013C255.923 70.8013 257.254 73.257 261.274 71.622C265.284 69.9913 264.534 67.2994 264.534 67.2994C264.534 67.2994 264.718 69.8241 261.126 71.2565C257.534 72.6891 255.923 70.8013 255.923 70.8013Z" fill="#E08C00"/>
<path opacity="0.39" d="M263.979 65.7441C264.637 67.3628 263.213 69.4711 260.799 70.4528C259.844 70.8413 258.877 70.9952 258.016 70.939C258.016 70.939 259.802 70.262 261.621 68.2354C263.556 66.0802 262.958 64.6041 262.958 64.6041C263.426 64.8801 263.783 65.2634 263.979 65.7441Z" fill="#E08C00"/>
<path d="M267.651 64.511C267.027 66.1436 264.689 66.5419 262.255 65.612C259.82 64.6822 258.343 62.8268 258.966 61.1943C259.277 60.3801 259.497 59.605 259.497 59.605C259.497 59.605 263.217 59.4306 264.437 59.8966C265.633 60.3533 268.296 63.0215 268.296 63.0215C268.296 63.0215 267.968 63.6801 267.651 64.511Z" fill="#E08C00" stroke="#E08C00" stroke-width="0.0610941" stroke-miterlimit="10"/>
<path d="M262.729 64.3696L262.273 65.563L262.835 65.7161L263.29 64.5258L262.729 64.3696Z" fill="#E08C00"/>
<path d="M260.465 62.9507L259.99 64.1954L260.298 64.471L260.843 63.2894L260.465 62.9507Z" fill="#E08C00"/>
<path d="M266.678 64.2736L266.192 65.5468L266.318 65.7567L266.833 64.5316L266.678 64.2736Z" fill="#E08C00"/>
<path d="M259.801 62.1154L259.325 63.3602L259.453 63.5669L259.957 62.3696L259.801 62.1154Z" fill="#E08C00"/>
<path d="M265.686 64.5885L265.211 65.8332L265.338 66.0398L265.843 64.8426L265.686 64.5885Z" fill="#E08C00"/>
<path d="M268.262 63.1111C268.886 61.4785 267.417 59.4012 264.983 58.4713C262.548 57.5414 260.069 58.111 259.445 59.7436C258.822 61.3762 260.29 63.4535 262.725 64.3835C265.159 65.3134 267.639 64.7437 268.262 63.1111Z" fill="#FFC500"/>
<path d="M259.529 61.5994C259.529 61.5994 259.267 61.1027 259.275 60.5521C259.282 60.0557 259.497 59.605 259.497 59.605L260.499 59.9876C260.499 59.9876 260.133 60.9796 260.526 61.5442L259.529 61.5994Z" fill="#FFC500"/>
<path d="M268.349 62.3101C268.349 62.3101 268.414 61.8237 268.184 61.2655C267.976 60.7623 267.576 60.2924 267.576 60.2924L266.717 60.6164C266.717 60.6164 267.487 61.6441 267.317 62.1911L268.349 62.3101Z" fill="#FFC500"/>
<path d="M268.262 63.1111C268.886 61.4785 267.417 59.4012 264.983 58.4713C262.548 57.5414 260.069 58.111 259.445 59.7436C258.822 61.3762 260.29 63.4535 262.725 64.3835C265.159 65.3134 267.639 64.7437 268.262 63.1111Z" stroke="#FFC500" stroke-width="0.0610941" stroke-miterlimit="10"/>
<path d="M267.267 62.7317C266.801 63.9505 264.896 64.3548 263.01 63.6345C261.124 62.9144 259.973 61.3426 260.439 60.1238C260.904 58.905 262.81 58.5007 264.696 59.221C266.581 59.9412 267.732 61.5129 267.267 62.7317Z" fill="#E08C00"/>
<path d="M267.267 62.7317C266.801 63.9505 264.896 64.3548 263.01 63.6345C261.124 62.9144 259.973 61.3426 260.439 60.1238C260.904 58.905 262.81 58.5007 264.696 59.221C266.581 59.9412 267.732 61.5129 267.267 62.7317Z" stroke="#FFC500" stroke-width="0.122188" stroke-miterlimit="10"/>
<path d="M258.922 61.3113C258.922 61.3113 258.218 64.0145 262.273 65.5631C266.317 67.1076 267.606 64.6281 267.606 64.6281C267.606 64.6281 266.018 66.599 262.414 65.1947C258.811 63.7902 258.922 61.3113 258.922 61.3113Z" fill="#E08C00"/>
<path opacity="0.39" d="M268.261 63.1117C267.638 64.7442 265.158 65.3139 262.724 64.384C261.76 64.0161 260.948 63.4688 260.357 62.8402C260.357 62.8402 262.125 63.5644 264.838 63.3243C267.722 63.069 268.293 61.582 268.293 61.582C268.447 62.103 268.446 62.627 268.261 63.1117Z" fill="#E08C00"/>
<path d="M275.524 59.6334C276.189 61.3734 274.517 63.3156 271.796 64.2615C269.076 65.2074 266.485 64.7475 265.82 63.0074C265.488 62.1397 265.109 61.3662 265.109 61.3662C265.109 61.3662 268.104 58.644 269.468 58.1697C270.804 57.7051 274.981 57.993 274.981 57.993C274.981 57.993 275.186 58.7478 275.524 59.6334Z" fill="#E08C00" stroke="#E08C00" stroke-width="0.0662862" stroke-miterlimit="10"/>
<path d="M271.29 62.9374L271.776 64.2091L272.359 63.9417L271.875 62.673L271.29 62.9374Z" fill="#E08C00"/>
<path d="M268.357 63.3735L268.864 64.7L269.323 64.7068L268.92 63.3823L268.357 63.3735Z" fill="#E08C00"/>
<path d="M274.535 60.1187L275.053 61.4758L275.312 61.5561L274.853 60.2176L274.535 60.1187Z" fill="#E08C00"/>
<path d="M267.191 63.1658L267.698 64.4925L267.956 64.5693L267.507 63.2606L267.191 63.1658Z" fill="#E08C00"/>
<path d="M273.932 61.0594L274.439 62.3861L274.696 62.4629L274.248 61.1542L273.932 61.0594Z" fill="#E08C00"/>
<path d="M271.13 63.0106C273.871 62.124 275.629 59.9696 275.057 58.1986C274.484 56.4276 271.797 55.7106 269.056 56.5972C266.314 57.4838 264.556 59.6382 265.129 61.4092C265.701 63.1802 268.388 63.8971 271.13 63.0106Z" fill="#FFC500"/>
<path d="M266.587 62.9413C266.587 62.9413 266.006 62.7254 265.612 62.2791C265.256 61.8769 265.109 61.3663 265.109 61.3663L266.228 60.9772C266.228 60.9772 266.643 62.0252 267.384 62.2046L266.587 62.9413Z" fill="#FFC500"/>
<path d="M274.508 57.3865C274.508 57.3865 274.208 56.9521 273.609 56.665C273.069 56.406 272.391 56.3075 272.391 56.3075L271.905 57.1639C271.905 57.1639 273.3 57.452 273.555 58.0077L274.508 57.3865Z" fill="#FFC500"/>
<path d="M271.13 63.0106C273.871 62.124 275.629 59.9696 275.057 58.1986C274.484 56.4276 271.797 55.7106 269.056 56.5972C266.314 57.4838 264.556 59.6382 265.129 61.4092C265.701 63.1802 268.388 63.8971 271.13 63.0106Z" stroke="#FFC500" stroke-width="0.0662862" stroke-miterlimit="10"/>
<path d="M270.872 62.1954C272.993 61.5034 274.363 59.8716 273.933 58.5506C273.502 57.2295 271.433 56.7195 269.311 57.4115C267.19 58.1034 265.82 59.7352 266.251 61.0563C266.681 62.3773 268.75 62.8873 270.872 62.1954Z" fill="#E08C00"/>
<path d="M270.872 62.1954C272.993 61.5034 274.363 59.8716 273.933 58.5506C273.502 57.2295 271.433 56.7195 269.311 57.4115C267.19 58.1034 265.82 59.7352 266.251 61.0563C266.681 62.3773 268.75 62.8873 270.872 62.1954Z" stroke="#FFC500" stroke-width="0.132572" stroke-miterlimit="10"/>
<path d="M265.868 63.1321C265.868 63.1321 267.245 65.7846 271.776 64.2091C276.295 62.6379 275.572 59.7579 275.572 59.7579C275.572 59.7579 275.673 62.4387 271.626 63.8163C267.579 65.194 265.868 63.1321 265.868 63.1321Z" fill="#E08C00"/>
<path opacity="0.39" d="M275.018 58.0891C275.683 59.8292 274.017 62.0066 271.296 62.9524C270.22 63.3267 269.14 63.4521 268.186 63.3592C268.186 63.3592 270.197 62.7115 272.299 60.6361C274.535 58.4287 273.931 56.842 273.931 56.842C274.44 57.1527 274.821 57.5726 275.018 58.0891Z" fill="#E08C00"/>
<path d="M259.959 64.084C259.556 66.1674 256.843 67.1348 253.736 66.5339C250.629 65.933 248.472 64.024 248.875 61.9406C249.076 60.9016 249.177 59.9283 249.177 59.9283C249.177 59.9283 253.589 58.9385 255.147 59.2397C256.673 59.5348 260.417 62.167 260.417 62.167C260.417 62.167 260.164 63.0236 259.959 64.084Z" fill="#E08C00" stroke="#E08C00" stroke-width="0.0741872" stroke-miterlimit="10"/>
<path d="M254.043 64.9483L253.748 66.4712L254.452 66.5363L254.746 65.0173L254.043 64.9483Z" fill="#E08C00"/>
<path d="M251.037 63.7266L250.729 65.3152L251.156 65.5802L251.56 64.0523L251.037 63.7266Z" fill="#E08C00"/>
<path d="M258.745 64.004L258.431 65.629L258.627 65.8533L258.985 64.28L258.745 64.004Z" fill="#E08C00"/>
<path d="M250.067 62.867L249.76 64.4556L249.956 64.676L250.307 63.1381L250.067 62.867Z" fill="#E08C00"/>
<path d="M257.625 64.5889L257.318 66.1775L257.514 66.3977L257.866 64.86L257.625 64.5889Z" fill="#E08C00"/>
<path d="M260.396 62.2834C260.799 60.1999 258.607 58.0238 255.499 57.4228C252.392 56.8218 249.547 58.0235 249.144 60.107C248.741 62.1904 250.933 64.3666 254.04 64.9676C257.147 65.5686 259.993 64.3668 260.396 62.2834Z" fill="#FFC500"/>
<path d="M249.633 62.3069C249.633 62.3069 249.216 61.7678 249.11 61.1076C249.014 60.5125 249.177 59.9282 249.177 59.9282L250.455 60.1753C250.455 60.1753 250.226 61.4386 250.814 62.0313L249.633 62.3069Z" fill="#FFC500"/>
<path d="M260.331 61.3048C260.331 61.3048 260.306 60.7094 259.914 60.0903C259.561 59.5321 258.984 59.0539 258.984 59.0539L258.023 59.6219C258.023 59.6219 259.16 60.6893 259.072 61.3792L260.331 61.3048Z" fill="#FFC500"/>
<path d="M260.396 62.2834C260.799 60.1999 258.607 58.0238 255.499 57.4228C252.392 56.8218 249.547 58.0235 249.144 60.107C248.741 62.1904 250.933 64.3666 254.04 64.9676C257.147 65.5686 259.993 64.3668 260.396 62.2834Z" stroke="#FFC500" stroke-width="0.0741872" stroke-miterlimit="10"/>
<path d="M259.127 62.0382C259.428 60.4827 257.721 58.8445 255.315 58.379C252.908 57.9136 250.714 58.7972 250.413 60.3526C250.112 61.9081 251.819 63.5463 254.225 64.0118C256.632 64.4772 258.826 63.5936 259.127 62.0382Z" fill="#E08C00"/>
<path d="M259.127 62.0382C259.428 60.4827 257.721 58.8445 255.315 58.379C252.908 57.9136 250.714 58.7972 250.413 60.3526C250.112 61.9081 251.819 63.5463 254.225 64.0118C256.632 64.4772 258.826 63.5936 259.127 62.0382Z" stroke="#FFC500" stroke-width="0.148374" stroke-miterlimit="10"/>
<path d="M248.847 62.0898C248.847 62.0898 248.573 65.4704 253.748 66.4712C258.909 67.4692 259.93 64.2331 259.93 64.2331C259.93 64.2331 258.444 66.924 253.839 66.0009C249.234 65.0778 248.847 62.0898 248.847 62.0898Z" fill="#E08C00"/>
<path opacity="0.39" d="M260.395 62.2819C259.992 64.3653 257.146 65.5672 254.039 64.9664C252.81 64.7285 251.724 64.2444 250.885 63.6168C250.885 63.6168 253.151 64.1116 256.345 63.255C259.742 62.3438 260.111 60.4456 260.111 60.4456C260.405 61.0366 260.514 61.6633 260.395 62.2819Z" fill="#E08C00"/>
<path d="M274.541 68.931C274.541 71.4583 272.096 73.2029 268.975 73.2029C265.854 73.2029 263.409 71.4583 263.409 68.931C263.409 67.6708 263.324 66.5099 263.324 66.5099C263.324 66.5099 267.411 64.355 268.975 64.355C270.508 64.355 274.625 66.586 274.625 66.586C274.625 66.586 274.541 67.6449 274.541 68.931Z" fill="#E08C00" stroke="#E08C00" stroke-width="0.0803848" stroke-miterlimit="10"/>
<path d="M268.975 71.2794V73.1268L269.669 73.0437V71.2012L268.975 71.2794Z" fill="#E08C00"/>
<path d="M265.836 70.5308V72.4578L266.298 72.671L266.403 70.7934L265.836 70.5308Z" fill="#E08C00"/>
<path d="M273.351 69.1121V71.0832L273.582 71.3014L273.634 69.3807L273.351 69.1121Z" fill="#E08C00"/>
<path d="M264.736 69.745V71.6718L264.967 71.8852L265.02 70.0075L264.736 69.745Z" fill="#E08C00"/>
<path d="M272.376 70.0493V71.9761L272.607 72.1895L272.66 70.3117L272.376 70.0493Z" fill="#E08C00"/>
<path d="M268.975 71.3014C272.096 71.3014 274.626 69.2527 274.626 66.7254C274.626 64.1982 272.096 62.1494 268.975 62.1494C265.854 62.1494 263.325 64.1982 263.325 66.7254C263.325 69.2527 265.854 71.3014 268.975 71.3014Z" fill="#FFC500"/>
<path d="M264.212 69.1883C264.212 69.1883 263.707 68.6522 263.48 67.9044C263.276 67.2302 263.324 66.5101 263.324 66.5101H264.608C264.608 66.5101 264.623 68.039 265.303 68.5991L264.212 69.1883Z" fill="#FFC500"/>
<path d="M274.381 65.5975C274.381 65.5975 274.246 64.9069 273.75 64.2716C273.303 63.6988 272.655 63.2701 272.655 63.2701L271.832 64.1513C271.832 64.1513 273.132 65.1423 273.176 65.9689L274.381 65.5975Z" fill="#FFC500"/>
<path d="M268.975 71.3014C272.096 71.3014 274.626 69.2527 274.626 66.7254C274.626 64.1982 272.096 62.1494 268.975 62.1494C265.854 62.1494 263.325 64.1982 263.325 66.7254C263.325 69.2527 265.854 71.3014 268.975 71.3014Z" stroke="#FFC500" stroke-width="0.0803848" stroke-miterlimit="10"/>
<path d="M268.975 70.1414C271.392 70.1414 273.351 68.612 273.351 66.7253C273.351 64.8386 271.392 63.3092 268.975 63.3092C266.558 63.3092 264.599 64.8386 264.599 66.7253C264.599 68.612 266.558 70.1414 268.975 70.1414Z" fill="#E08C00"/>
<path d="M268.975 70.1414C271.392 70.1414 273.351 68.612 273.351 66.7253C273.351 64.8386 271.392 63.3092 268.975 63.3092C266.558 63.3092 264.599 64.8386 264.599 66.7253C264.599 68.612 266.558 70.1414 268.975 70.1414Z" stroke="#FFC500" stroke-width="0.16077" stroke-miterlimit="10"/>
<path d="M263.409 69.1121C263.409 69.1121 263.778 73.1268 268.975 73.1268C274.158 73.1268 274.541 69.1121 274.541 69.1121C274.541 69.1121 273.606 72.5944 268.975 72.5563C264.344 72.5183 263.409 69.1121 263.409 69.1121Z" fill="#E08C00"/>
<path opacity="0.39" d="M274.626 66.7254C274.626 69.2527 272.096 71.3014 268.975 71.3014C267.74 71.3014 266.598 70.9806 265.668 70.4366C265.668 70.4366 267.955 70.5029 270.887 68.7788C274.005 66.9454 274.007 64.6422 274.007 64.6422C274.402 65.2671 274.626 65.9751 274.626 66.7254Z" fill="#E08C00"/>
<path d="M257.196 69.2808C257.196 71.2455 255.295 72.6016 252.87 72.6016C250.443 72.6016 248.543 71.2453 248.543 69.2808C248.543 68.301 248.477 67.3985 248.477 67.3985C248.477 67.3985 251.653 65.7233 252.87 65.7233C254.061 65.7233 257.262 67.4576 257.262 67.4576C257.262 67.4576 257.196 68.2809 257.196 69.2808Z" fill="#E08C00" stroke="#E08C00" stroke-width="0.0624896" stroke-miterlimit="10"/>
<path d="M252.869 71.1064V72.5425L253.409 72.4779V71.0457L252.869 71.1064Z" fill="#E08C00"/>
<path d="M250.429 70.5244V72.0225L250.789 72.1883L250.87 70.7286L250.429 70.5244Z" fill="#E08C00"/>
<path d="M256.271 69.4215V70.9539L256.451 71.1234L256.492 69.6302L256.271 69.4215Z" fill="#E08C00"/>
<path d="M249.574 69.9135V71.4116L249.754 71.5772L249.795 70.1175L249.574 69.9135Z" fill="#E08C00"/>
<path d="M255.513 70.15V71.6481L255.693 71.8137L255.734 70.354L255.513 70.15Z" fill="#E08C00"/>
<path d="M252.87 71.1234C255.296 71.1234 257.262 69.5307 257.262 67.5659C257.262 65.6012 255.296 64.0084 252.87 64.0084C250.444 64.0084 248.477 65.6012 248.477 67.5659C248.477 69.5307 250.444 71.1234 252.87 71.1234Z" fill="#FFC500"/>
<path d="M249.166 69.4807C249.166 69.4807 248.774 69.0641 248.598 68.4825C248.439 67.9583 248.477 67.3985 248.477 67.3985H249.474C249.474 67.3985 249.486 68.5871 250.015 69.0224L249.166 69.4807Z" fill="#FFC500"/>
<path d="M257.072 66.689C257.072 66.689 256.967 66.1521 256.582 65.6582C256.234 65.2128 255.73 64.8798 255.73 64.8798L255.09 65.5648C255.09 65.5648 256.101 66.3352 256.135 66.9777L257.072 66.689Z" fill="#FFC500"/>
<path d="M252.87 71.1234C255.296 71.1234 257.262 69.5307 257.262 67.5659C257.262 65.6012 255.296 64.0084 252.87 64.0084C250.444 64.0084 248.477 65.6012 248.477 67.5659C248.477 69.5307 250.444 71.1234 252.87 71.1234Z" stroke="#FFC500" stroke-width="0.0624896" stroke-miterlimit="10"/>
<path d="M252.869 70.2217C254.748 70.2217 256.271 69.0326 256.271 67.5659C256.271 66.0992 254.748 64.9102 252.869 64.9102C250.991 64.9102 249.468 66.0992 249.468 67.5659C249.468 69.0326 250.991 70.2217 252.869 70.2217Z" fill="#E08C00"/>
<path d="M252.869 70.2217C254.748 70.2217 256.271 69.0326 256.271 67.5659C256.271 66.0992 254.748 64.9102 252.869 64.9102C250.991 64.9102 249.468 66.0992 249.468 67.5659C249.468 69.0326 250.991 70.2217 252.869 70.2217Z" stroke="#FFC500" stroke-width="0.125" stroke-miterlimit="10"/>
<path d="M248.543 69.4215C248.543 69.4215 248.829 72.5425 252.869 72.5425C256.899 72.5425 257.196 69.4215 257.196 69.4215C257.196 69.4215 256.469 72.1286 252.869 72.099C249.269 72.0695 248.543 69.4215 248.543 69.4215Z" fill="#E08C00"/>
<path opacity="0.39" d="M257.262 67.5659C257.262 69.5307 255.296 71.1234 252.87 71.1234C251.91 71.1234 251.022 70.874 250.299 70.4511C250.299 70.4511 252.077 70.5026 254.356 69.1623C256.78 67.737 256.782 65.9463 256.782 65.9463C257.089 66.4323 257.262 66.9827 257.262 67.5659Z" fill="#E08C00"/>
<path opacity="0.21" d="M237.05 95.3119L224.224 100.168L267.796 103.132L295.258 95.3119L277.158 93.7424L237.05 95.3119Z" fill="#AB334F"/>
<path d="M251.882 29.6255C248.974 26.7358 246.028 23.8153 242.505 21.7205C241.11 20.8912 239.566 20.1823 237.944 20.2109C235.866 20.2472 233.948 21.5271 232.737 23.2163C231.786 24.5422 231.217 26.0949 230.849 27.6926C230.631 28.6347 230.997 29.634 231.801 30.1714C232.902 30.9074 234.293 31.2402 235.652 31.3178C239.952 31.5639 244.272 31.4454 248.552 30.9644C249.824 30.8214 250.735 30.1938 251.882 29.6255Z" fill="#84CC16"/>
<path d="M248.552 30.9643C249.256 30.8853 249.848 30.6559 250.432 30.3722C248.283 30.0203 246.188 29.2152 244.158 28.3884C241.301 27.2252 238.388 25.9875 235.306 25.8726C234.416 25.8393 233.503 25.9056 232.681 26.2487C231.859 26.5919 231.133 27.2449 230.866 28.0949C230.834 28.1973 230.81 28.3026 230.794 28.4091C230.845 29.1099 231.201 29.7697 231.801 30.1713C232.902 30.9072 234.293 31.2401 235.652 31.3177C239.952 31.5637 244.272 31.4453 248.552 30.9643Z" fill="#105C2C"/>
<path opacity="0.47" d="M238.179 21.1186C238.656 21.0643 239.211 21.0708 239.521 21.4374C239.816 21.7858 239.742 22.3467 239.445 22.6929C239.148 23.0393 238.684 23.2012 238.231 23.2546C237.778 23.3079 237.319 23.2679 236.863 23.2862C236.158 23.3143 235.46 23.4836 234.82 23.7812C234.617 23.876 234.416 23.9848 234.195 24.027C233.685 24.1247 233.249 23.7161 233.561 23.2638C233.805 22.9108 234.463 22.515 234.82 22.2716C235.809 21.5976 236.999 21.2531 238.179 21.1186Z" fill="#84CC16"/>
<path opacity="0.47" d="M242.737 23.8715C242.535 24.2807 241.992 24.4607 241.563 24.3049C241.134 24.1491 240.842 23.7096 240.802 23.2546C240.762 22.7998 240.952 22.3432 241.255 22.0017C241.767 21.9042 242.433 22.1489 242.73 22.5772C243.027 23.0053 242.968 23.4046 242.737 23.8715Z" fill="#84CC16"/>
<path d="M249.779 30.3192C249.984 27.0102 250.197 23.6616 251.202 20.5022C251.6 19.2516 252.153 17.9936 253.149 17.1393C254.425 16.0449 256.272 15.7885 257.912 16.1594C259.199 16.4504 260.377 17.0839 261.458 17.8518C262.096 18.3047 262.411 19.1055 262.214 19.8624C261.944 20.8985 261.281 21.8475 260.502 22.624C258.034 25.0826 255.358 27.3322 252.511 29.3405C251.665 29.937 250.778 30.0468 249.779 30.3192Z" fill="#84CC16"/>
<path d="M252.511 29.3404C252.043 29.6703 251.562 29.8501 251.057 29.9921C252.167 28.6252 253.001 27.0132 253.785 25.4221C254.887 23.1842 255.984 20.8711 257.785 19.1456C258.306 18.6471 258.893 18.1971 259.575 17.9629C260.256 17.7286 261.046 17.7337 261.664 18.1043C261.739 18.1491 261.809 18.2002 261.876 18.2558C262.222 18.7069 262.361 19.2969 262.214 19.8625C261.944 20.8986 261.281 21.8476 260.501 22.6241C258.034 25.0826 255.357 27.3321 252.511 29.3404Z" fill="#105C2C"/>
<path opacity="0.47" d="M253.495 17.8142C253.177 18.0375 252.845 18.34 252.854 18.7281C252.863 19.0971 253.209 19.3963 253.575 19.4462C253.941 19.496 254.308 19.345 254.61 19.1338C254.913 18.9226 255.169 18.652 255.455 18.418C255.896 18.0564 256.409 17.7835 256.956 17.6199C257.13 17.5678 257.31 17.5257 257.466 17.4327C257.827 17.2179 257.871 16.7364 257.439 16.6307C257.102 16.5484 256.492 16.6625 256.145 16.7071C255.185 16.8308 254.28 17.262 253.495 17.8142Z" fill="#84CC16"/>
<path opacity="0.47" d="M252.217 21.9278C252.56 22.0665 252.984 21.8839 253.16 21.5592C253.336 21.2346 253.276 20.8114 253.056 20.5153C252.836 20.2189 252.476 20.0447 252.109 20.001C251.747 20.2169 251.476 20.7231 251.526 21.1414C251.577 21.5596 251.827 21.7698 252.217 21.9278Z" fill="#84CC16"/>
<path d="M227.039 39.9617L231.372 48.9475L264.747 31.6179L260.575 21.9904L227.039 39.9617Z" fill="#C8191E"/>
<path d="M282.03 21.9904H260.575L264.747 31.6179H285.446L282.03 21.9904Z" fill="#911216"/>
<path d="M231.372 48.9475L251.687 46.838L285.446 31.6179H264.747L231.372 48.9475Z" fill="#590B0D"/>
<path d="M231.372 48.9475L251.686 46.8381L248.467 40.0714L231.372 48.9475Z" fill="#590B0D"/>
<g opacity="0.25">
<path d="M269.306 21.9904H267.648L263.893 29.6478L264.671 31.4427L269.306 21.9904Z" fill="#911216"/>
<path d="M274.003 21.9904H272.345L267.625 31.6179H269.282L274.003 21.9904Z" fill="#911216"/>
<path d="M264.609 21.9904H262.951L261.69 24.5626L262.468 26.3574L264.609 21.9904Z" fill="#911216"/>
<path d="M284.576 29.1651L283.88 27.2039L281.716 31.6179H283.373L284.576 29.1651Z" fill="#911216"/>
<path d="M278.7 21.9904H277.042L272.321 31.6179H273.979L278.7 21.9904Z" fill="#911216"/>
<path d="M282.604 23.608L282.03 21.9904H281.739L277.019 31.6179H278.676L282.604 23.608Z" fill="#911216"/>
</g>
<g opacity="0.26">
<path d="M244.071 30.8345L242.386 31.7375L239.985 44.4751L241.664 43.6033L244.071 30.8345Z" fill="#C8191E"/>
<path d="M232.838 36.8541L230.787 47.7349L231.372 48.9476L232.149 48.5437L234.523 35.9512L232.838 36.8541Z" fill="#C8191E"/>
<path d="M239.297 33.3928L237.612 34.2958L235.227 46.9454L236.907 46.0736L239.297 33.3928Z" fill="#C8191E"/>
<path d="M248.845 28.2764L247.16 29.1793L244.742 42.0052L246.421 41.1334L248.845 28.2764Z" fill="#C8191E"/>
<path d="M229.749 38.5095L228.064 39.4124L227.702 41.3362L228.791 43.5946L229.749 38.5095Z" fill="#C8191E"/>
<path d="M264.134 30.2025L263.771 32.1243L264.747 31.6179L264.134 30.2025Z" fill="#C8191E"/>
<path d="M262.199 25.7368L261.143 23.3013L259.014 34.5945L260.693 33.7228L262.199 25.7368Z" fill="#C8191E"/>
<path d="M253.619 25.718L251.934 26.6209L249.499 39.5348L251.179 38.6631L253.619 25.718Z" fill="#C8191E"/>
<path d="M258.393 23.1597L256.708 24.0627L254.257 37.0648L255.936 36.1931L258.393 23.1597Z" fill="#C8191E"/>
</g>
<path d="M242.433 31.7125C242.082 37.155 238.811 42.1464 234.486 45.4857C230.083 48.8854 224.684 50.7564 219.251 51.9551C219.033 54.0479 218.727 56.1093 218 58.0838C225.7 56.6747 233.345 53.8523 239.164 48.6159C244.681 43.6512 248.736 36.017 248.171 28.6375L242.433 31.7125Z" fill="#A5DA54"/>
<path d="M284.838 29.2962C280.753 27.9608 276.94 25.443 274.45 21.9904H267.897C270.727 27.2922 275.946 31.5302 281.48 33.8127C284.224 34.9439 287.098 35.6597 290.03 36.0451L301.361 30.2876C295.84 30.9782 290.126 31.0244 284.838 29.2962Z" fill="#A5DA54"/>
<path d="M231.532 67.4496L267.796 68.4123V101.627L234.581 99.3809L231.532 67.4496Z" fill="#C8191E"/>
<path d="M288.608 65.3719L267.796 68.4123V101.627L285.928 96.974L288.608 65.3719Z" fill="#911216"/>
<g opacity="0.2">
<path d="M248.67 67.9045L246.62 67.8499L232.882 81.5876L233.065 83.5093L248.67 67.9045Z" fill="#C8191E"/>
<path d="M260.29 68.213L258.239 68.1586L233.922 92.4764L234.105 94.3979L260.29 68.213Z" fill="#C8191E"/>
<path d="M231.842 70.6988L232.026 72.6205L237.05 67.5961L235 67.5415L231.842 70.6988Z" fill="#C8191E"/>
<path d="M254.48 68.0586L252.43 68.0042L233.402 87.032L233.585 88.9535L254.48 68.0586Z" fill="#C8191E"/>
<path d="M242.86 67.7501L240.81 67.6957L232.362 76.1432L232.546 78.0647L242.86 67.7501Z" fill="#C8191E"/>
<path d="M264.05 68.3127L234.442 97.9206L234.581 99.3808L235.055 99.4128L266.1 68.3673L264.05 68.3127Z" fill="#C8191E"/>
<path d="M267.796 96.4923V94.3874L261.015 101.169L262.986 101.302L267.796 96.4923Z" fill="#C8191E"/>
<path d="M267.796 90.5279V88.423L255.428 100.791L257.4 100.924L267.796 90.5279Z" fill="#C8191E"/>
<path d="M267.796 100.352L266.601 101.546L267.796 101.627V100.352Z" fill="#C8191E"/>
<path d="M267.796 72.6354V70.5305L238.669 99.6572L240.641 99.7906L267.796 72.6354Z" fill="#C8191E"/>
<path d="M267.796 84.5639V82.4589L249.842 100.413L251.813 100.546L267.796 84.5639Z" fill="#C8191E"/>
<path d="M267.796 78.5998V76.4946L244.255 100.035L246.227 100.168L267.796 78.5998Z" fill="#C8191E"/>
</g>
<g opacity="0.13">
<path d="M272.227 67.7651L270.238 68.0557L267.796 71.6856V74.3524L272.227 67.7651Z" fill="#911216"/>
<path d="M277.863 66.9415L275.874 67.2323L267.796 79.2416V81.9084L277.863 66.9415Z" fill="#911216"/>
<path d="M283.5 66.1182L281.511 66.4088L267.796 86.7978V89.4647L283.5 66.1182Z" fill="#911216"/>
<path d="M286.339 92.1215L286.598 89.0696L280.312 98.4154L282.48 97.8588L286.339 92.1215Z" fill="#911216"/>
<path d="M287.073 83.4748L287.332 80.4232L274.169 99.9918L276.337 99.4354L287.073 83.4748Z" fill="#911216"/>
<path d="M288.54 66.1822L288.608 65.3719L287.147 65.5854L267.796 94.3538V97.0206L288.54 66.1822Z" fill="#911216"/>
<path d="M287.806 74.8286L288.065 71.777L269.355 99.5921L270.59 100.423L287.806 74.8286Z" fill="#911216"/>
</g>
<path d="M253.051 86.6677C252.043 83.7753 250.54 80.8731 247.951 79.2372C245.412 77.6336 242.198 77.5392 239.292 78.4301C239.869 78.6376 240.425 78.9044 240.952 79.2372C243.541 80.8731 245.045 83.7753 246.052 86.6677C247.618 91.1618 248.275 95.9705 247.971 100.72H254.97C255.273 95.9705 254.617 91.1618 253.051 86.6677Z" fill="#84CC16"/>
<path d="M247.95 79.2375C246.559 78.3584 244.964 77.9358 243.328 77.8777C243.319 77.8773 243.309 77.8773 243.3 77.8769C243.229 77.8747 243.159 77.872 243.089 77.871L243.083 77.8743C240.958 77.8349 238.774 78.4037 236.886 79.4009C233.487 81.1964 230.87 84.163 228.492 87.1839C227.084 88.9726 225.718 90.8142 224.223 92.5284C225.98 93.1716 227.76 93.7353 229.534 94.3377C231.731 92.1611 233.571 89.6223 235.49 87.1839C236.848 85.4596 238.257 83.6487 239.911 82.1472C241.362 80.83 243.739 78.8913 245.837 79.1659C247.334 79.3619 248.726 80.1173 249.951 80.9626C249.366 80.3018 248.706 79.7147 247.95 79.2375Z" fill="#4B740D"/>
<path d="M274.684 99.8594L280.42 98.3874C280.351 94.5499 280.962 90.7002 282.225 87.0756C283.141 84.4443 284.509 81.8041 286.865 80.3159C287.344 80.013 287.85 79.7704 288.374 79.5816C285.731 78.7712 282.807 78.8569 280.498 80.3159C278.142 81.8041 276.775 84.4443 275.858 87.0756C274.433 91.164 273.836 95.5387 274.112 99.8594H274.684Z" fill="#84CC16"/>
<path d="M280.498 80.3158C281.764 79.5161 283.215 79.1315 284.703 79.0788C284.711 79.0783 284.72 79.0783 284.729 79.0779C284.793 79.0759 284.857 79.0734 284.921 79.0724L284.926 79.0753C286.859 79.0393 288.845 79.5569 290.563 80.4642C293.656 82.0975 296.036 84.7966 298.2 87.5447C299.481 89.1719 300.724 90.8475 302.083 92.407C300.485 92.9923 298.866 93.5049 297.252 94.0529C295.253 92.0729 293.58 89.7631 291.833 87.5447C290.598 85.9762 289.316 84.3285 287.811 82.9625C286.492 81.7643 284.329 80.0006 282.42 80.2506C281.059 80.4289 279.792 81.1162 278.678 81.8849C279.21 81.284 279.811 80.7499 280.498 80.3158Z" fill="#4B740D"/>
</svg>
